M48
METRIC,TZ
T1C0.300
%
G90
G05
T1
X126350Y-128950
X128850Y-127700
X128850Y-130200
X130253Y-129841
X133350Y-130450
X134000Y-128200
X136650Y-122575
X136650Y-123575
X136650Y-124575
X136650Y-132075
X136650Y-133075
X136650Y-134075
X136650Y-135075
X136650Y-136075
X136650Y-137075
X136650Y-138075
X136975Y-126725
X137475Y-138075
X137975Y-133950
X138070Y-130920
X138100Y-128700
X138475Y-138075
X138550Y-136150
X138600Y-131450
X138850Y-124275
X139050Y-135650
X139125Y-133950
X139475Y-138075
X140225Y-126200
X140225Y-126950
X140475Y-138075
X140600Y-131864
X140850Y-128950
X141300Y-123550
X141475Y-133325
X141475Y-134200
X141475Y-135200
X141475Y-136200
X141475Y-137200
X141475Y-138075
X142100Y-127700
X142100Y-128950
X142107Y-130193
X142475Y-133325
X142475Y-138075
X142900Y-123600
X143350Y-128950
X143450Y-126000
X143475Y-138075
X143500Y-123100
X143675Y-132150
X143950Y-122600
X144100Y-126667
X144475Y-138075
X144642Y-127186
X144975Y-118950
X144975Y-120200
X144975Y-121450
X145350Y-132350
X145475Y-138075
X145800Y-131358
X146225Y-132575
X146475Y-138075
X146775Y-133225
X146825Y-118950
X146825Y-120200
X146825Y-121450
X147538Y-133225
X147550Y-122325
X147550Y-123325
X147550Y-124325
X147550Y-125325
X147550Y-126325
X147550Y-127325
X147550Y-128325
X147550Y-129325
X147550Y-130325
X147550Y-131325
X147550Y-132325
X147550Y-138050
M30
