%TF.GenerationSoftware,KiCad,Pcbnew,8.0.8*%
%TF.CreationDate,2025-03-24T11:25:52+01:00*%
%TF.ProjectId,RF_HID_dongle_test,52465f48-4944-45f6-946f-6e676c655f74,rev?*%
%TF.SameCoordinates,Original*%
%TF.FileFunction,Copper,L1,Top*%
%TF.FilePolarity,Positive*%
%FSLAX46Y46*%
G04 Gerber Fmt 4.6, Leading zero omitted, Abs format (unit mm)*
G04 Created by KiCad (PCBNEW 8.0.8) date 2025-03-24 11:25:52*
%MOMM*%
%LPD*%
G01*
G04 APERTURE LIST*
G04 Aperture macros list*
%AMRoundRect*
0 Rectangle with rounded corners*
0 $1 Rounding radius*
0 $2 $3 $4 $5 $6 $7 $8 $9 X,Y pos of 4 corners*
0 Add a 4 corners polygon primitive as box body*
4,1,4,$2,$3,$4,$5,$6,$7,$8,$9,$2,$3,0*
0 Add four circle primitives for the rounded corners*
1,1,$1+$1,$2,$3*
1,1,$1+$1,$4,$5*
1,1,$1+$1,$6,$7*
1,1,$1+$1,$8,$9*
0 Add four rect primitives between the rounded corners*
20,1,$1+$1,$2,$3,$4,$5,0*
20,1,$1+$1,$4,$5,$6,$7,0*
20,1,$1+$1,$6,$7,$8,$9,0*
20,1,$1+$1,$8,$9,$2,$3,0*%
%AMRotRect*
0 Rectangle, with rotation*
0 The origin of the aperture is its center*
0 $1 length*
0 $2 width*
0 $3 Rotation angle, in degrees counterclockwise*
0 Add horizontal line*
21,1,$1,$2,0,0,$3*%
%AMFreePoly0*
4,1,14,0.314644,0.085355,0.385355,0.014644,0.400000,-0.020711,0.400000,-0.050000,0.385355,-0.085355,0.350000,-0.100000,-0.350000,-0.100000,-0.385355,-0.085355,-0.400000,-0.050000,-0.400000,0.050000,-0.385355,0.085355,-0.350000,0.100000,0.279289,0.100000,0.314644,0.085355,0.314644,0.085355,$1*%
%AMFreePoly1*
4,1,14,0.385355,0.085355,0.400000,0.050000,0.400000,0.020711,0.385355,-0.014644,0.314644,-0.085355,0.279289,-0.100000,-0.350000,-0.100000,-0.385355,-0.085355,-0.400000,-0.050000,-0.400000,0.050000,-0.385355,0.085355,-0.350000,0.100000,0.350000,0.100000,0.385355,0.085355,0.385355,0.085355,$1*%
%AMFreePoly2*
4,1,14,0.085355,0.385355,0.100000,0.350000,0.100000,-0.350000,0.085355,-0.385355,0.050000,-0.400000,-0.050000,-0.400000,-0.085355,-0.385355,-0.100000,-0.350000,-0.100000,0.279289,-0.085355,0.314644,-0.014644,0.385355,0.020711,0.400000,0.050000,0.400000,0.085355,0.385355,0.085355,0.385355,$1*%
%AMFreePoly3*
4,1,14,0.014644,0.385355,0.085355,0.314644,0.100000,0.279289,0.100000,-0.350000,0.085355,-0.385355,0.050000,-0.400000,-0.050000,-0.400000,-0.085355,-0.385355,-0.100000,-0.350000,-0.100000,0.350000,-0.085355,0.385355,-0.050000,0.400000,-0.020711,0.400000,0.014644,0.385355,0.014644,0.385355,$1*%
%AMFreePoly4*
4,1,14,0.385355,0.085355,0.400000,0.050000,0.400000,-0.050000,0.385355,-0.085355,0.350000,-0.100000,-0.279289,-0.100000,-0.314644,-0.085355,-0.385355,-0.014644,-0.400000,0.020711,-0.400000,0.050000,-0.385355,0.085355,-0.350000,0.100000,0.350000,0.100000,0.385355,0.085355,0.385355,0.085355,$1*%
%AMFreePoly5*
4,1,14,0.385355,0.085355,0.400000,0.050000,0.400000,-0.050000,0.385355,-0.085355,0.350000,-0.100000,-0.350000,-0.100000,-0.385355,-0.085355,-0.400000,-0.050000,-0.400000,-0.020711,-0.385355,0.014644,-0.314644,0.085355,-0.279289,0.100000,0.350000,0.100000,0.385355,0.085355,0.385355,0.085355,$1*%
%AMFreePoly6*
4,1,14,0.085355,0.385355,0.100000,0.350000,0.100000,-0.279289,0.085355,-0.314644,0.014644,-0.385355,-0.020711,-0.400000,-0.050000,-0.400000,-0.085355,-0.385355,-0.100000,-0.350000,-0.100000,0.350000,-0.085355,0.385355,-0.050000,0.400000,0.050000,0.400000,0.085355,0.385355,0.085355,0.385355,$1*%
%AMFreePoly7*
4,1,14,0.085355,0.385355,0.100000,0.350000,0.100000,-0.350000,0.085355,-0.385355,0.050000,-0.400000,0.020711,-0.400000,-0.014644,-0.385355,-0.085355,-0.314644,-0.100000,-0.279289,-0.100000,0.350000,-0.085355,0.385355,-0.050000,0.400000,0.050000,0.400000,0.085355,0.385355,0.085355,0.385355,$1*%
G04 Aperture macros list end*
%TA.AperFunction,SMDPad,CuDef*%
%ADD10RoundRect,0.218750X-0.218750X-0.256250X0.218750X-0.256250X0.218750X0.256250X-0.218750X0.256250X0*%
%TD*%
%TA.AperFunction,ConnectorPad*%
%ADD11C,0.787400*%
%TD*%
%TA.AperFunction,SMDPad,CuDef*%
%ADD12RoundRect,0.225000X-0.225000X-0.250000X0.225000X-0.250000X0.225000X0.250000X-0.225000X0.250000X0*%
%TD*%
%TA.AperFunction,SMDPad,CuDef*%
%ADD13FreePoly0,225.000000*%
%TD*%
%TA.AperFunction,SMDPad,CuDef*%
%ADD14RoundRect,0.050000X0.212132X0.282843X-0.282843X-0.212132X-0.212132X-0.282843X0.282843X0.212132X0*%
%TD*%
%TA.AperFunction,SMDPad,CuDef*%
%ADD15FreePoly1,225.000000*%
%TD*%
%TA.AperFunction,SMDPad,CuDef*%
%ADD16FreePoly2,225.000000*%
%TD*%
%TA.AperFunction,SMDPad,CuDef*%
%ADD17RoundRect,0.050000X-0.212132X0.282843X-0.282843X0.212132X0.212132X-0.282843X0.282843X-0.212132X0*%
%TD*%
%TA.AperFunction,SMDPad,CuDef*%
%ADD18FreePoly3,225.000000*%
%TD*%
%TA.AperFunction,SMDPad,CuDef*%
%ADD19FreePoly4,225.000000*%
%TD*%
%TA.AperFunction,SMDPad,CuDef*%
%ADD20FreePoly5,225.000000*%
%TD*%
%TA.AperFunction,SMDPad,CuDef*%
%ADD21FreePoly6,225.000000*%
%TD*%
%TA.AperFunction,SMDPad,CuDef*%
%ADD22FreePoly7,225.000000*%
%TD*%
%TA.AperFunction,HeatsinkPad*%
%ADD23RotRect,2.650000X2.650000X225.000000*%
%TD*%
%TA.AperFunction,SMDPad,CuDef*%
%ADD24C,1.000000*%
%TD*%
%TA.AperFunction,SMDPad,CuDef*%
%ADD25RoundRect,0.130000X-0.520000X-6.370000X0.520000X-6.370000X0.520000X6.370000X-0.520000X6.370000X0*%
%TD*%
%TA.AperFunction,SMDPad,CuDef*%
%ADD26RoundRect,0.130000X-0.520000X-5.870000X0.520000X-5.870000X0.520000X5.870000X-0.520000X5.870000X0*%
%TD*%
%TA.AperFunction,SMDPad,CuDef*%
%ADD27RoundRect,0.225000X0.250000X-0.225000X0.250000X0.225000X-0.250000X0.225000X-0.250000X-0.225000X0*%
%TD*%
%TA.AperFunction,SMDPad,CuDef*%
%ADD28RoundRect,0.225000X-0.250000X0.225000X-0.250000X-0.225000X0.250000X-0.225000X0.250000X0.225000X0*%
%TD*%
%TA.AperFunction,SMDPad,CuDef*%
%ADD29RoundRect,0.200000X-0.200000X-0.275000X0.200000X-0.275000X0.200000X0.275000X-0.200000X0.275000X0*%
%TD*%
%TA.AperFunction,SMDPad,CuDef*%
%ADD30R,0.800000X0.550000*%
%TD*%
%TA.AperFunction,SMDPad,CuDef*%
%ADD31RoundRect,0.200000X0.275000X-0.200000X0.275000X0.200000X-0.275000X0.200000X-0.275000X-0.200000X0*%
%TD*%
%TA.AperFunction,SMDPad,CuDef*%
%ADD32R,0.600000X1.000000*%
%TD*%
%TA.AperFunction,SMDPad,CuDef*%
%ADD33RoundRect,0.218750X0.256250X-0.218750X0.256250X0.218750X-0.256250X0.218750X-0.256250X-0.218750X0*%
%TD*%
%TA.AperFunction,ViaPad*%
%ADD34C,0.600000*%
%TD*%
%TA.AperFunction,Conductor*%
%ADD35C,0.200000*%
%TD*%
%TA.AperFunction,Conductor*%
%ADD36C,0.900000*%
%TD*%
%TA.AperFunction,Conductor*%
%ADD37C,0.600000*%
%TD*%
%TA.AperFunction,Conductor*%
%ADD38C,0.550000*%
%TD*%
%TA.AperFunction,Conductor*%
%ADD39C,0.800000*%
%TD*%
%TA.AperFunction,Conductor*%
%ADD40C,0.182000*%
%TD*%
%TA.AperFunction,Conductor*%
%ADD41C,1.000000*%
%TD*%
%TA.AperFunction,Conductor*%
%ADD42C,0.150000*%
%TD*%
%TA.AperFunction,Conductor*%
%ADD43C,0.400000*%
%TD*%
%ADD44C,0.300000*%
%ADD45C,0.350000*%
G04 APERTURE END LIST*
D10*
%TO.P,D1,1,K*%
%TO.N,GND*%
X144612498Y-125799999D03*
%TO.P,D1,2,A*%
%TO.N,Net-(D1-A)*%
X146187502Y-125800001D03*
%TD*%
D11*
%TO.P,J2,1,VCC*%
%TO.N,+3V3*%
X129529997Y-128315000D03*
%TO.P,J2,2,SWDIO*%
%TO.N,/SWDIO*%
X129529995Y-129584998D03*
%TO.P,J2,3,~{RESET}*%
%TO.N,/NRST*%
X128259997Y-128314999D03*
%TO.P,J2,4,SWCLK*%
%TO.N,/SWCLK*%
X128259997Y-129584999D03*
%TO.P,J2,5,GND*%
%TO.N,GND*%
X126989999Y-128315000D03*
%TO.P,J2,6,SWO*%
%TO.N,unconnected-(J2-SWO-Pad6)*%
X126989997Y-129584998D03*
%TD*%
D12*
%TO.P,C9,1*%
%TO.N,+3V3*%
X144624999Y-122750000D03*
%TO.P,C9,2*%
%TO.N,GND*%
X146175001Y-122750000D03*
%TD*%
D13*
%TO.P,U1,1,A10/LSE32_I*%
%TO.N,unconnected-(U1-A10{slash}LSE32_I-Pad1)*%
X144468808Y-128561092D03*
D14*
%TO.P,U1,2,B6*%
%TO.N,unconnected-(U1-B6-Pad2)*%
X144185964Y-128278250D03*
%TO.P,U1,3,B0*%
%TO.N,unconnected-(U1-B0-Pad3)*%
X143903124Y-127995407D03*
%TO.P,U1,4,VDCID*%
%TO.N,/VDCIA*%
X143620281Y-127712562D03*
%TO.P,U1,5,VSW*%
%TO.N,/VSW*%
X143337438Y-127429721D03*
%TO.P,U1,6,VDD33*%
%TO.N,+3V3*%
X143054596Y-127146875D03*
%TO.P,U1,7,A6*%
%TO.N,unconnected-(U1-A6-Pad7)*%
X142771750Y-126864034D03*
D15*
%TO.P,U1,8,A7*%
%TO.N,unconnected-(U1-A7-Pad8)*%
X142488907Y-126581191D03*
D16*
%TO.P,U1,9,A8*%
%TO.N,unconnected-(U1-A8-Pad9)*%
X141711092Y-126581192D03*
D17*
%TO.P,U1,10,A9*%
%TO.N,unconnected-(U1-A9-Pad10)*%
X141428250Y-126864036D03*
%TO.P,U1,11,B15/TCK*%
%TO.N,/SWCLK*%
X141145407Y-127146876D03*
%TO.P,U1,12,B14/TIO*%
%TO.N,/SWDIO*%
X140862562Y-127429719D03*
%TO.P,U1,13,B13*%
%TO.N,unconnected-(U1-B13-Pad13)*%
X140579721Y-127712562D03*
%TO.P,U1,14,B12*%
%TO.N,unconnected-(U1-B12-Pad14)*%
X140296875Y-127995404D03*
%TO.P,U1,15,B11/DP*%
%TO.N,/USB_DP*%
X140014034Y-128278250D03*
D18*
%TO.P,U1,16,B10/DN*%
%TO.N,/USB_DN*%
X139731191Y-128561093D03*
D19*
%TO.P,U1,17,B7*%
%TO.N,unconnected-(U1-B7-Pad17)*%
X139731192Y-129338908D03*
D14*
%TO.P,U1,18,B4*%
%TO.N,unconnected-(U1-B4-Pad18)*%
X140014036Y-129621750D03*
%TO.P,U1,19,NRST*%
%TO.N,/NRST*%
X140296876Y-129904593D03*
%TO.P,U1,20,B22*%
%TO.N,/STATUS*%
X140579719Y-130187438D03*
%TO.P,U1,21,HSE32_O*%
%TO.N,/HSE_O*%
X140862562Y-130470279D03*
%TO.P,U1,22,HSE32_I*%
%TO.N,/HSE_I*%
X141145404Y-130753125D03*
%TO.P,U1,23,VINTA*%
%TO.N,/VINTA*%
X141428250Y-131035966D03*
D20*
%TO.P,U1,24,ANT*%
%TO.N,Net-(AE2-FEED)*%
X141711093Y-131318809D03*
D21*
%TO.P,U1,25,VDCIA*%
%TO.N,/VDCIA*%
X142488908Y-131318808D03*
D17*
%TO.P,U1,26,A4*%
%TO.N,unconnected-(U1-A4-Pad26)*%
X142771750Y-131035964D03*
%TO.P,U1,27,A5*%
%TO.N,unconnected-(U1-A5-Pad27)*%
X143054593Y-130753124D03*
%TO.P,U1,28,A15*%
%TO.N,unconnected-(U1-A15-Pad28)*%
X143337438Y-130470281D03*
%TO.P,U1,29,A14*%
%TO.N,unconnected-(U1-A14-Pad29)*%
X143620279Y-130187438D03*
%TO.P,U1,30,A13*%
%TO.N,unconnected-(U1-A13-Pad30)*%
X143903125Y-129904596D03*
%TO.P,U1,31,A12*%
%TO.N,unconnected-(U1-A12-Pad31)*%
X144185966Y-129621750D03*
D22*
%TO.P,U1,32,A11/LSE32_O*%
%TO.N,unconnected-(U1-A11{slash}LSE32_O-Pad32)*%
X144468809Y-129338907D03*
D23*
%TO.P,U1,33,GND*%
%TO.N,GND*%
X142100000Y-128950000D03*
%TD*%
D24*
%TO.P,TP3,1,1*%
%TO.N,/SWDIO*%
X137975000Y-134575000D03*
%TD*%
D25*
%TO.P,J1,1,VBUS*%
%TO.N,+5V*%
X138300000Y-114970000D03*
D26*
%TO.P,J1,2,D-*%
%TO.N,/USB_DN*%
X141100000Y-115470000D03*
%TO.P,J1,3,D+*%
%TO.N,/USB_DP*%
X143100000Y-115470000D03*
D25*
%TO.P,J1,4,GND*%
%TO.N,GND*%
X145900000Y-114970000D03*
%TD*%
D27*
%TO.P,C7,1*%
%TO.N,GND*%
X133350000Y-129725001D03*
%TO.P,C7,2*%
%TO.N,/NRST*%
X133350000Y-128174999D03*
%TD*%
D24*
%TO.P,TP4,1,1*%
%TO.N,GND*%
X140100000Y-136700000D03*
%TD*%
%TO.P,TP2,1,1*%
%TO.N,/SWCLK*%
X140100000Y-134575000D03*
%TD*%
D28*
%TO.P,C8,1*%
%TO.N,+5V*%
X138300000Y-122724999D03*
%TO.P,C8,2*%
%TO.N,GND*%
X138300000Y-124275001D03*
%TD*%
D29*
%TO.P,R5,1*%
%TO.N,+3V3*%
X144575000Y-124275000D03*
%TO.P,R5,2*%
%TO.N,Net-(D1-A)*%
X146225000Y-124275000D03*
%TD*%
D30*
%TO.P,U3,1,VIN*%
%TO.N,+5V*%
X140899998Y-122600003D03*
%TO.P,U3,2,GND*%
%TO.N,GND*%
X140900000Y-123550000D03*
%TO.P,U3,3,EN*%
%TO.N,+5V*%
X140899997Y-124500000D03*
%TO.P,U3,4*%
%TO.N,N/C*%
X143300002Y-124499997D03*
%TO.P,U3,5,VOUT*%
%TO.N,+3V3*%
X143300003Y-122600000D03*
%TD*%
D31*
%TO.P,R6,1*%
%TO.N,+3V3*%
X136974999Y-127374999D03*
%TO.P,R6,2*%
%TO.N,Net-(D2-A)*%
X136974999Y-125724999D03*
%TD*%
D24*
%TO.P,TP1,1,1*%
%TO.N,+3V3*%
X137975000Y-136700000D03*
%TD*%
D32*
%TO.P,AE2,1,FEED*%
%TO.N,Net-(AE2-FEED)*%
X146237500Y-134175000D03*
%TO.P,AE2,2,2*%
%TO.N,GND*%
X146237500Y-137175000D03*
%TO.P,AE2,3,3*%
X147537500Y-137175000D03*
%TO.P,AE2,4,4*%
X147537500Y-134175000D03*
%TD*%
D33*
%TO.P,D2,1,K*%
%TO.N,/STATUS*%
X138500000Y-127337501D03*
%TO.P,D2,2,A*%
%TO.N,Net-(D2-A)*%
X138500000Y-125762499D03*
%TD*%
D34*
%TO.N,GND*%
X137475000Y-138075000D03*
X140475000Y-138075000D03*
X147550000Y-132325000D03*
X142107066Y-130193355D03*
X142100000Y-128950000D03*
X136650000Y-135075000D03*
X147550000Y-131325000D03*
X147550000Y-123325000D03*
X146475000Y-138075000D03*
X145800003Y-131357925D03*
X144975000Y-121450000D03*
X147550000Y-127325000D03*
X144975000Y-120200000D03*
X141300000Y-123550000D03*
X142900000Y-123600000D03*
X126350000Y-128950000D03*
X146825000Y-121450000D03*
X147550000Y-138050000D03*
X138850000Y-124275000D03*
X142475000Y-138075000D03*
X136650000Y-124575000D03*
X142475000Y-133325000D03*
X141475000Y-134200000D03*
X139475000Y-138075000D03*
X147550000Y-125325000D03*
X143475000Y-138075000D03*
X145350000Y-132350000D03*
X146825000Y-120200000D03*
X136650000Y-138075000D03*
X147550000Y-130325000D03*
X141475000Y-135200000D03*
X146775000Y-133225000D03*
X136650000Y-122575000D03*
X136650000Y-132075000D03*
X145475000Y-138075000D03*
X147537500Y-133225000D03*
X141475000Y-133325000D03*
X146225000Y-132575000D03*
X136650000Y-136075000D03*
X144975000Y-118950000D03*
X147550000Y-128325000D03*
X147550000Y-126325000D03*
X141475000Y-137200000D03*
X136650000Y-133075000D03*
X143350000Y-128950000D03*
X133350000Y-130450000D03*
X147550000Y-122325000D03*
X147550000Y-124325000D03*
X142100000Y-127700000D03*
X141475000Y-136200000D03*
X138475000Y-138075000D03*
X136650000Y-134075000D03*
X147550000Y-129325000D03*
X136650000Y-123575000D03*
X141475000Y-138075000D03*
X146825000Y-118950000D03*
X144475000Y-138075000D03*
X140850000Y-128950000D03*
X136650000Y-137075000D03*
%TO.N,+3V3*%
X136974999Y-126724999D03*
X143450000Y-126000000D03*
X139050000Y-135650000D03*
X143500000Y-123100000D03*
X138550000Y-136150000D03*
X143950000Y-122600000D03*
%TO.N,/VDCIA*%
X144641826Y-127185742D03*
X143675000Y-132150000D03*
%TO.N,/VINTA*%
X140600002Y-131864214D03*
%TO.N,/NRST*%
X138100000Y-128700000D03*
X134000000Y-128200000D03*
X128850000Y-127700000D03*
%TO.N,/SWCLK*%
X128850000Y-130200000D03*
X139125000Y-133950000D03*
X140224999Y-126199776D03*
%TO.N,/SWDIO*%
X137975000Y-133950000D03*
X130253154Y-129840850D03*
X140224999Y-126949779D03*
%TO.N,/VSW*%
X144100000Y-126667159D03*
%TO.N,/HSE_I*%
X138600000Y-131450000D03*
%TO.N,/HSE_O*%
X138069668Y-130919668D03*
%TD*%
D35*
%TO.N,GND*%
X142100000Y-130186289D02*
X142107066Y-130193355D01*
D36*
X138300000Y-124275001D02*
X138849999Y-124275001D01*
D37*
X126985000Y-128315000D02*
X126350000Y-128950000D01*
D35*
X142100000Y-128950000D02*
X140850000Y-128950000D01*
X142100000Y-128950000D02*
X142100000Y-127700000D01*
D38*
X140900000Y-123550000D02*
X141300000Y-123550000D01*
D35*
X142100000Y-128950000D02*
X142100000Y-130186289D01*
D37*
X147550000Y-138050000D02*
X147537500Y-138037500D01*
D36*
X138849999Y-124275001D02*
X138850000Y-124275000D01*
D37*
X147537500Y-138037500D02*
X147537500Y-137175000D01*
D39*
X133350000Y-129725001D02*
X133350000Y-130450000D01*
D37*
X126989999Y-128315000D02*
X126985000Y-128315000D01*
X147537500Y-134175000D02*
X147537500Y-133225000D01*
D35*
X142100000Y-128950000D02*
X143350000Y-128950000D01*
D40*
%TO.N,Net-(AE2-FEED)*%
X141711093Y-131539951D02*
X141711093Y-131318809D01*
X142355546Y-132405546D02*
X141867464Y-131917464D01*
X146237500Y-133839536D02*
X146237500Y-134175000D01*
X143911394Y-133050000D02*
X145447963Y-133050000D01*
X146006250Y-133281250D02*
G75*
G03*
X145447963Y-133050015I-558250J-558250D01*
G01*
X141711093Y-131539951D02*
G75*
G03*
X141867435Y-131917493I533907J-49D01*
G01*
X142355546Y-132405546D02*
G75*
G03*
X143911394Y-133050004I1555854J1555846D01*
G01*
X146006250Y-133281250D02*
G75*
G02*
X146237485Y-133839536I-558250J-558250D01*
G01*
D41*
%TO.N,+3V3*%
X138000000Y-136700000D02*
X139050000Y-135650000D01*
X137975000Y-136700000D02*
X138000000Y-136700000D01*
D42*
X136950000Y-127350000D02*
X136974999Y-127374999D01*
X132966771Y-127350000D02*
X136950000Y-127350000D01*
X132187071Y-128129700D02*
X132966771Y-127350000D01*
X129715297Y-128129700D02*
X132187071Y-128129700D01*
D35*
X143450000Y-126751470D02*
X143450000Y-126000000D01*
D36*
X136974999Y-127374999D02*
X136974999Y-126724999D01*
D35*
X143054595Y-127146875D02*
X143450000Y-126751470D01*
D42*
X129529997Y-128315000D02*
X129715297Y-128129700D01*
D39*
%TO.N,Net-(D1-A)*%
X146225000Y-125762503D02*
X146187502Y-125800001D01*
X146225000Y-124275000D02*
X146225000Y-125762503D01*
%TO.N,Net-(D2-A)*%
X136974999Y-125724999D02*
X138462500Y-125724999D01*
X138462500Y-125724999D02*
X138500000Y-125762499D01*
D35*
%TO.N,/USB_DP*%
X142325000Y-122143007D02*
X142325000Y-124311093D01*
X140014034Y-128260572D02*
X140014034Y-128278250D01*
X139844516Y-128073376D02*
X140001533Y-128230393D01*
X143100000Y-120271992D02*
X143100000Y-115470000D01*
X139674999Y-126103557D02*
X139674999Y-127664125D01*
X141161091Y-125475002D02*
X140303554Y-125475002D01*
X141984099Y-125134101D02*
G75*
G02*
X141161091Y-125474998I-822999J823001D01*
G01*
X143100000Y-120271992D02*
G75*
G02*
X142712502Y-121207502I-1323000J-8D01*
G01*
X139859098Y-125659101D02*
G75*
G03*
X139674952Y-126103557I444402J-444499D01*
G01*
X142712500Y-121207500D02*
G75*
G03*
X142325003Y-122143007I935500J-935500D01*
G01*
X140001533Y-128230393D02*
G75*
G02*
X140014067Y-128260572I-30133J-30207D01*
G01*
X139674999Y-127664125D02*
G75*
G03*
X139844522Y-128073370I578801J25D01*
G01*
X142325000Y-124311093D02*
G75*
G02*
X141984101Y-125134103I-1163900J-7D01*
G01*
X140303554Y-125475002D02*
G75*
G03*
X139859083Y-125659086I-54J-628498D01*
G01*
%TO.N,/USB_DN*%
X141100000Y-120271992D02*
X141100000Y-115470000D01*
X141875000Y-122143007D02*
X141875000Y-124311086D01*
X141161084Y-125025002D02*
X140303547Y-125025002D01*
X139224999Y-126103550D02*
X139224999Y-127757325D01*
X139460417Y-128325675D02*
X139683334Y-128548592D01*
X139713513Y-128561093D02*
X139731191Y-128561093D01*
X141665899Y-124815901D02*
G75*
G02*
X141161084Y-125024995I-504799J504801D01*
G01*
X139224999Y-127757325D02*
G75*
G03*
X139460423Y-128325669I803801J25D01*
G01*
X141100000Y-120271992D02*
G75*
G03*
X141487498Y-121207502I1323000J-8D01*
G01*
X141487500Y-121207500D02*
G75*
G02*
X141874997Y-122143007I-935500J-935500D01*
G01*
X139683334Y-128548592D02*
G75*
G03*
X139713513Y-128561080I30166J30192D01*
G01*
X141875000Y-124311086D02*
G75*
G02*
X141665903Y-124815905I-713900J-14D01*
G01*
X140303547Y-125025002D02*
G75*
G03*
X139540885Y-125340888I-47J-1078498D01*
G01*
X139540898Y-125340901D02*
G75*
G03*
X139225020Y-126103550I762602J-762599D01*
G01*
%TO.N,/VDCIA*%
X142488908Y-131318808D02*
X143320100Y-132150000D01*
X143320100Y-132150000D02*
X143675000Y-132150000D01*
X144415983Y-127411585D02*
X144641826Y-127185742D01*
X143921258Y-127411585D02*
X144415983Y-127411585D01*
X143620281Y-127712562D02*
X143921258Y-127411585D01*
%TO.N,/VINTA*%
X140600002Y-131864214D02*
X141428250Y-131035966D01*
D37*
%TO.N,/NRST*%
X128259997Y-128290003D02*
X128850000Y-127700000D01*
D35*
X140296876Y-129904593D02*
X139995897Y-130205572D01*
D37*
X128259997Y-128314999D02*
X128259997Y-128290003D01*
D35*
X139995897Y-130205572D02*
X139605572Y-130205572D01*
X139605572Y-130205572D02*
X138100000Y-128700000D01*
D39*
X133350000Y-128174999D02*
X133974999Y-128174999D01*
X133974999Y-128174999D02*
X134000000Y-128200000D01*
D35*
%TO.N,/STATUS*%
X138500000Y-127522182D02*
X138500000Y-127337501D01*
X137550000Y-129025000D02*
X137550000Y-128472182D01*
X140211585Y-130555572D02*
X139080572Y-130555572D01*
X137550000Y-128472182D02*
X138500000Y-127522182D01*
X140579719Y-130187438D02*
X140211585Y-130555572D01*
X139080572Y-130555572D02*
X137550000Y-129025000D01*
D42*
%TO.N,/SWCLK*%
X141145407Y-127120184D02*
X140224999Y-126199776D01*
D37*
X128259997Y-129609997D02*
X128850000Y-130200000D01*
D42*
X141145407Y-127146876D02*
X141145407Y-127120184D01*
D41*
X139750000Y-134575000D02*
X139125000Y-133950000D01*
D37*
X128259997Y-129584999D02*
X128259997Y-129609997D01*
D41*
X140100000Y-134575000D02*
X139750000Y-134575000D01*
D43*
%TO.N,/SWDIO*%
X129529995Y-129584998D02*
X129997302Y-129584998D01*
D42*
X140382622Y-126949779D02*
X140224999Y-126949779D01*
D41*
X137975000Y-134575000D02*
X137975000Y-133950000D01*
D42*
X140862562Y-127429719D02*
X140382622Y-126949779D01*
D43*
X129997302Y-129584998D02*
X130253154Y-129840850D01*
D35*
%TO.N,/VSW*%
X144100000Y-126667159D02*
X143337438Y-127429721D01*
%TO.N,/HSE_I*%
X138794428Y-131255572D02*
X138600000Y-131450000D01*
X141145405Y-130753125D02*
X140642958Y-131255572D01*
X140642958Y-131255572D02*
X138794428Y-131255572D01*
%TO.N,/HSE_O*%
X140427269Y-130905572D02*
X140862562Y-130470279D01*
X138833390Y-130905572D02*
X140427269Y-130905572D01*
X138089336Y-130900000D02*
X138827818Y-130900000D01*
X138069668Y-130919668D02*
X138089336Y-130900000D01*
X138827818Y-130900000D02*
X138833390Y-130905572D01*
%TD*%
%TA.AperFunction,Conductor*%
%TO.N,+3V3*%
G36*
X145115677Y-122169685D02*
G01*
X145136319Y-122186319D01*
X145163681Y-122213681D01*
X145197166Y-122275004D01*
X145200000Y-122301362D01*
X145200000Y-124748638D01*
X145180315Y-124815677D01*
X145163681Y-124836319D01*
X145136319Y-124863681D01*
X145074996Y-124897166D01*
X145048638Y-124900000D01*
X144101362Y-124900000D01*
X144034323Y-124880315D01*
X144013681Y-124863681D01*
X143986319Y-124836319D01*
X143952834Y-124774996D01*
X143950000Y-124748638D01*
X143950000Y-124050000D01*
X143323031Y-123423031D01*
X143297920Y-123386865D01*
X143282882Y-123353937D01*
X143198049Y-123256033D01*
X143198048Y-123256032D01*
X143091681Y-123187674D01*
X143071040Y-123171040D01*
X142836319Y-122936319D01*
X142802834Y-122874996D01*
X142800000Y-122848638D01*
X142800000Y-122301362D01*
X142819685Y-122234323D01*
X142836319Y-122213681D01*
X142863681Y-122186319D01*
X142925004Y-122152834D01*
X142951362Y-122150000D01*
X145048638Y-122150000D01*
X145115677Y-122169685D01*
G37*
%TD.AperFunction*%
%TD*%
%TA.AperFunction,Conductor*%
%TO.N,+5V*%
G36*
X138971674Y-120971674D02*
G01*
X140250000Y-122250000D01*
X141276000Y-122250000D01*
X141328326Y-122271674D01*
X141350000Y-122324000D01*
X141350000Y-123025500D01*
X141328326Y-123077826D01*
X141276000Y-123099500D01*
X141235228Y-123099500D01*
X141160291Y-123121503D01*
X141139443Y-123124500D01*
X140485180Y-123124500D01*
X140463229Y-123128866D01*
X140441277Y-123133233D01*
X140434850Y-123137528D01*
X140402727Y-123147272D01*
X140391866Y-123158133D01*
X140387529Y-123172433D01*
X140358233Y-123216277D01*
X140349500Y-123260180D01*
X140349500Y-123839819D01*
X140358233Y-123883722D01*
X140387529Y-123927567D01*
X140391866Y-123941866D01*
X140402727Y-123952727D01*
X140434850Y-123962472D01*
X140441278Y-123966767D01*
X140485180Y-123975500D01*
X140843982Y-123975500D01*
X141139443Y-123975500D01*
X141160291Y-123978497D01*
X141235228Y-124000500D01*
X141276000Y-124000500D01*
X141328326Y-124022174D01*
X141350000Y-124074500D01*
X141350000Y-124680829D01*
X141328326Y-124733155D01*
X141297481Y-124751643D01*
X141258470Y-124763477D01*
X141244240Y-124766307D01*
X141164632Y-124774145D01*
X141157381Y-124774501D01*
X141110962Y-124774501D01*
X141110950Y-124774502D01*
X140455154Y-124774502D01*
X140402828Y-124752828D01*
X139000000Y-123350000D01*
X137980652Y-123350000D01*
X137928326Y-123328326D01*
X137671674Y-123071674D01*
X137650000Y-123019348D01*
X137650000Y-121024000D01*
X137671674Y-120971674D01*
X137724000Y-120950000D01*
X138919348Y-120950000D01*
X138971674Y-120971674D01*
G37*
%TD.AperFunction*%
%TD*%
%TA.AperFunction,Conductor*%
%TO.N,Net-(AE2-FEED)*%
G36*
X141577326Y-131502326D02*
G01*
X141935174Y-131860174D01*
X141956848Y-131912500D01*
X141935174Y-131964826D01*
X141914826Y-131985174D01*
X141862500Y-132006848D01*
X141810174Y-131985174D01*
X141452326Y-131627326D01*
X141430652Y-131575000D01*
X141452326Y-131522674D01*
X141472674Y-131502326D01*
X141525000Y-131480652D01*
X141577326Y-131502326D01*
G37*
%TD.AperFunction*%
%TD*%
%TA.AperFunction,Conductor*%
%TO.N,GND*%
G36*
X138019537Y-126285625D02*
G01*
X138020711Y-126283225D01*
X138074564Y-126309552D01*
X138136933Y-126340042D01*
X138208705Y-126350499D01*
X138791294Y-126350498D01*
X138863061Y-126340043D01*
X138863061Y-126340042D01*
X138863067Y-126340042D01*
X138867997Y-126337631D01*
X138924522Y-126334119D01*
X138966978Y-126371606D01*
X138974499Y-126404111D01*
X138974499Y-126695888D01*
X138952825Y-126748214D01*
X138900499Y-126769888D01*
X138867999Y-126762369D01*
X138863069Y-126759959D01*
X138863067Y-126759958D01*
X138863053Y-126759956D01*
X138791295Y-126749501D01*
X138791294Y-126749501D01*
X138208705Y-126749501D01*
X138136938Y-126759956D01*
X138136931Y-126759958D01*
X138026220Y-126814081D01*
X137939080Y-126901221D01*
X137884957Y-127011932D01*
X137884957Y-127011933D01*
X137874500Y-127083701D01*
X137874500Y-127591295D01*
X137884955Y-127663062D01*
X137884957Y-127663069D01*
X137901119Y-127696129D01*
X137904628Y-127752658D01*
X137886964Y-127780955D01*
X137397695Y-128270225D01*
X137337637Y-128330283D01*
X137337634Y-128330287D01*
X137299500Y-128422352D01*
X137299500Y-129074829D01*
X137337634Y-129166894D01*
X137337636Y-129166897D01*
X138067813Y-129897074D01*
X138693914Y-130523174D01*
X138715588Y-130575500D01*
X138693914Y-130627826D01*
X138641588Y-130649500D01*
X138465458Y-130649500D01*
X138413132Y-130627826D01*
X138409532Y-130623959D01*
X138367720Y-130575704D01*
X138367718Y-130575703D01*
X138367717Y-130575701D01*
X138300700Y-130532632D01*
X138258736Y-130505663D01*
X138134440Y-130469168D01*
X138004896Y-130469168D01*
X137880599Y-130505663D01*
X137771622Y-130575699D01*
X137771618Y-130575702D01*
X137686787Y-130673603D01*
X137686786Y-130673604D01*
X137686786Y-130673605D01*
X137676547Y-130696026D01*
X137632970Y-130791444D01*
X137614535Y-130919668D01*
X137632970Y-131047891D01*
X137632970Y-131047892D01*
X137632971Y-131047894D01*
X137686786Y-131165731D01*
X137771619Y-131263635D01*
X137869173Y-131326329D01*
X137880599Y-131333672D01*
X138004896Y-131370168D01*
X138070945Y-131370168D01*
X138123271Y-131391842D01*
X138144945Y-131444168D01*
X138144867Y-131445253D01*
X138144867Y-131449999D01*
X138163302Y-131578223D01*
X138163302Y-131578224D01*
X138163303Y-131578226D01*
X138217118Y-131696063D01*
X138301951Y-131793967D01*
X138410931Y-131864004D01*
X138535228Y-131900500D01*
X138664772Y-131900500D01*
X138789069Y-131864004D01*
X138898049Y-131793967D01*
X138982882Y-131696063D01*
X139036697Y-131578226D01*
X139037946Y-131569541D01*
X139066847Y-131520832D01*
X139111193Y-131506072D01*
X140153628Y-131506072D01*
X140205954Y-131527746D01*
X140227628Y-131580072D01*
X140218033Y-131612749D01*
X140219319Y-131613337D01*
X140217120Y-131618149D01*
X140217120Y-131618151D01*
X140182531Y-131693889D01*
X140163304Y-131735990D01*
X140144869Y-131864214D01*
X140163304Y-131992437D01*
X140163304Y-131992438D01*
X140163305Y-131992440D01*
X140217120Y-132110277D01*
X140301953Y-132208181D01*
X140410933Y-132278218D01*
X140535230Y-132314714D01*
X140664774Y-132314714D01*
X140789071Y-132278218D01*
X140898051Y-132208181D01*
X140982884Y-132110277D01*
X141036699Y-131992440D01*
X141055135Y-131864214D01*
X141047725Y-131812684D01*
X141061731Y-131757809D01*
X141068639Y-131749835D01*
X141159282Y-131659192D01*
X141211607Y-131637519D01*
X141263933Y-131659193D01*
X141273134Y-131670405D01*
X141279397Y-131679778D01*
X141279401Y-131679783D01*
X141279404Y-131679787D01*
X141350115Y-131750498D01*
X141350118Y-131750500D01*
X141360548Y-131757469D01*
X141371762Y-131766672D01*
X141700219Y-132095129D01*
X141704323Y-132097871D01*
X141715542Y-132107079D01*
X141731472Y-132123012D01*
X141731513Y-132123046D01*
X142150447Y-132541979D01*
X142150450Y-132541983D01*
X142219739Y-132611272D01*
X142219743Y-132611274D01*
X142224829Y-132616360D01*
X142224853Y-132616379D01*
X142281752Y-132673278D01*
X142451117Y-132808342D01*
X142496169Y-132844270D01*
X142728389Y-132990184D01*
X142975485Y-133109181D01*
X142975498Y-133109185D01*
X142975499Y-133109186D01*
X143041075Y-133132132D01*
X143234352Y-133199763D01*
X143501732Y-133260791D01*
X143774265Y-133291499D01*
X143848635Y-133291499D01*
X143848639Y-133291500D01*
X143911393Y-133291500D01*
X143953976Y-133291501D01*
X143953979Y-133291500D01*
X145398323Y-133291500D01*
X145398343Y-133291501D01*
X145405388Y-133291500D01*
X145405391Y-133291502D01*
X145444341Y-133291500D01*
X145451589Y-133291855D01*
X145547647Y-133301312D01*
X145561858Y-133304139D01*
X145650729Y-133331094D01*
X145664116Y-133336638D01*
X145746028Y-133380420D01*
X145758081Y-133388475D01*
X145826622Y-133444723D01*
X145829790Y-133447323D01*
X145840040Y-133457570D01*
X145842058Y-133460029D01*
X145858509Y-133514223D01*
X145833618Y-133560812D01*
X145834149Y-133561343D01*
X145832400Y-133563091D01*
X145831820Y-133564178D01*
X145829858Y-133565633D01*
X145828995Y-133566496D01*
X145795732Y-133616279D01*
X145792944Y-133623011D01*
X145791294Y-133622327D01*
X145764438Y-133662526D01*
X145723323Y-133674999D01*
X141824998Y-133674999D01*
X141824999Y-137674999D01*
X141825000Y-137675000D01*
X147775502Y-137675000D01*
X147827826Y-137696674D01*
X147849500Y-137749000D01*
X147849500Y-138190587D01*
X147827826Y-138242913D01*
X147517913Y-138552826D01*
X147465587Y-138574500D01*
X136734412Y-138574500D01*
X136682086Y-138552826D01*
X136372174Y-138242913D01*
X136350500Y-138190587D01*
X136350500Y-134574996D01*
X137319722Y-134574996D01*
X137319722Y-134575002D01*
X137323960Y-134609903D01*
X137324500Y-134618823D01*
X137324500Y-134639069D01*
X137330147Y-134667461D01*
X137331658Y-134675058D01*
X137332539Y-134680571D01*
X137338762Y-134731816D01*
X137338763Y-134731821D01*
X137345381Y-134749271D01*
X137348765Y-134761060D01*
X137349496Y-134764735D01*
X137349499Y-134764743D01*
X137369813Y-134813788D01*
X137370636Y-134815864D01*
X137394777Y-134879517D01*
X137394777Y-134879518D01*
X137394779Y-134879521D01*
X137394780Y-134879523D01*
X137426517Y-134925501D01*
X137436594Y-134940100D01*
X137437222Y-134941025D01*
X137469723Y-134989668D01*
X137472031Y-134992480D01*
X137471927Y-134992564D01*
X137477041Y-134998700D01*
X137484515Y-135009528D01*
X137484516Y-135009529D01*
X137484517Y-135009530D01*
X137501414Y-135024499D01*
X137527264Y-135047400D01*
X137530519Y-135050464D01*
X137560331Y-135080276D01*
X137572585Y-135088464D01*
X137572590Y-135088467D01*
X137580547Y-135094604D01*
X137602760Y-135114283D01*
X137602761Y-135114283D01*
X137602763Y-135114285D01*
X137638761Y-135133178D01*
X137645485Y-135137174D01*
X137666873Y-135151465D01*
X137695711Y-135163409D01*
X137701767Y-135166246D01*
X137742635Y-135187696D01*
X137766109Y-135193481D01*
X137776712Y-135196962D01*
X137785256Y-135200501D01*
X137831995Y-135209798D01*
X137835211Y-135210513D01*
X137896015Y-135225500D01*
X137896019Y-135225500D01*
X138053981Y-135225500D01*
X138053985Y-135225500D01*
X138114805Y-135210509D01*
X138118002Y-135209798D01*
X138145596Y-135204309D01*
X138164736Y-135200503D01*
X138164738Y-135200502D01*
X138164744Y-135200501D01*
X138173288Y-135196961D01*
X138183897Y-135193480D01*
X138207365Y-135187696D01*
X138248230Y-135166247D01*
X138254278Y-135163413D01*
X138283127Y-135151465D01*
X138304530Y-135137163D01*
X138311227Y-135133183D01*
X138347240Y-135114283D01*
X138369453Y-135094603D01*
X138377409Y-135088467D01*
X138389669Y-135080276D01*
X138419493Y-135050450D01*
X138422716Y-135047416D01*
X138465483Y-135009530D01*
X138472958Y-134998700D01*
X138478068Y-134992572D01*
X138477964Y-134992487D01*
X138480274Y-134989671D01*
X138480274Y-134989670D01*
X138480276Y-134989669D01*
X138496564Y-134965290D01*
X138512796Y-134940998D01*
X138513425Y-134940071D01*
X138555220Y-134879523D01*
X138579380Y-134815816D01*
X138580161Y-134813846D01*
X138600501Y-134764744D01*
X138601230Y-134761076D01*
X138604617Y-134749271D01*
X138611237Y-134731818D01*
X138617460Y-134680557D01*
X138618342Y-134675050D01*
X138625500Y-134639067D01*
X138625500Y-134618823D01*
X138626040Y-134609903D01*
X138630278Y-134575002D01*
X138630278Y-134574997D01*
X138628517Y-134560495D01*
X138643725Y-134505938D01*
X138693057Y-134478115D01*
X138747614Y-134493323D01*
X138754303Y-134499249D01*
X139128229Y-134873175D01*
X139149903Y-134925501D01*
X139128229Y-134977827D01*
X139075903Y-134999501D01*
X138985931Y-134999501D01*
X138961070Y-135004445D01*
X138860262Y-135024497D01*
X138860255Y-135024499D01*
X138741872Y-135073535D01*
X138635330Y-135144723D01*
X138635328Y-135144725D01*
X137645610Y-136134442D01*
X137627676Y-136147638D01*
X137602761Y-136160715D01*
X137602755Y-136160719D01*
X137580542Y-136180397D01*
X137572591Y-136186530D01*
X137560337Y-136194718D01*
X137560327Y-136194727D01*
X137530509Y-136224544D01*
X137527257Y-136227605D01*
X137484517Y-136265469D01*
X137477039Y-136276303D01*
X137471927Y-136282437D01*
X137472029Y-136282521D01*
X137469726Y-136285326D01*
X137437221Y-136333973D01*
X137436594Y-136334896D01*
X137394780Y-136395475D01*
X137370638Y-136459129D01*
X137369815Y-136461203D01*
X137349499Y-136510254D01*
X137349498Y-136510258D01*
X137348769Y-136513924D01*
X137345384Y-136525721D01*
X137338762Y-136543182D01*
X137332539Y-136594430D01*
X137331658Y-136599938D01*
X137324500Y-136635931D01*
X137324500Y-136635935D01*
X137324500Y-136656176D01*
X137323960Y-136665096D01*
X137319722Y-136699996D01*
X137319722Y-136700002D01*
X137323960Y-136734903D01*
X137324500Y-136743823D01*
X137324500Y-136764069D01*
X137330147Y-136792461D01*
X137331658Y-136800058D01*
X137332539Y-136805571D01*
X137338762Y-136856816D01*
X137338763Y-136856821D01*
X137345381Y-136874271D01*
X137348765Y-136886060D01*
X137349496Y-136889735D01*
X137349499Y-136889743D01*
X137369813Y-136938788D01*
X137370636Y-136940864D01*
X137394777Y-137004517D01*
X137394777Y-137004518D01*
X137436594Y-137065100D01*
X137437222Y-137066025D01*
X137469723Y-137114668D01*
X137472031Y-137117480D01*
X137471927Y-137117564D01*
X137477041Y-137123700D01*
X137484515Y-137134528D01*
X137527264Y-137172400D01*
X137530519Y-137175464D01*
X137560331Y-137205276D01*
X137572590Y-137213467D01*
X137580547Y-137219604D01*
X137602760Y-137239283D01*
X137602761Y-137239283D01*
X137602763Y-137239285D01*
X137638761Y-137258178D01*
X137645485Y-137262174D01*
X137666873Y-137276465D01*
X137695711Y-137288409D01*
X137701767Y-137291246D01*
X137742635Y-137312696D01*
X137766109Y-137318481D01*
X137776712Y-137321962D01*
X137785256Y-137325501D01*
X137831995Y-137334798D01*
X137835211Y-137335513D01*
X137896015Y-137350500D01*
X137896019Y-137350500D01*
X138064067Y-137350500D01*
X138064069Y-137350500D01*
X138189744Y-137325501D01*
X138308127Y-137276465D01*
X138414669Y-137205277D01*
X139555276Y-136064670D01*
X139626465Y-135958127D01*
X139675501Y-135839744D01*
X139700499Y-135714069D01*
X139700499Y-135585931D01*
X139675501Y-135460257D01*
X139626465Y-135341873D01*
X139625618Y-135340606D01*
X139625518Y-135340103D01*
X139624754Y-135338673D01*
X139625188Y-135338440D01*
X139614574Y-135285058D01*
X139646044Y-135237968D01*
X139687151Y-135225500D01*
X140178981Y-135225500D01*
X140178985Y-135225500D01*
X140239805Y-135210509D01*
X140243002Y-135209798D01*
X140270596Y-135204309D01*
X140289736Y-135200503D01*
X140289738Y-135200502D01*
X140289744Y-135200501D01*
X140298288Y-135196961D01*
X140308897Y-135193480D01*
X140332365Y-135187696D01*
X140373230Y-135166247D01*
X140379278Y-135163413D01*
X140408127Y-135151465D01*
X140429530Y-135137163D01*
X140436227Y-135133183D01*
X140472240Y-135114283D01*
X140494453Y-135094603D01*
X140502409Y-135088467D01*
X140514669Y-135080276D01*
X140544493Y-135050450D01*
X140547716Y-135047416D01*
X140590483Y-135009530D01*
X140597958Y-134998700D01*
X140603068Y-134992572D01*
X140602964Y-134992487D01*
X140605274Y-134989671D01*
X140605274Y-134989670D01*
X140605276Y-134989669D01*
X140621564Y-134965290D01*
X140637796Y-134940998D01*
X140638425Y-134940071D01*
X140680220Y-134879523D01*
X140704380Y-134815816D01*
X140705161Y-134813846D01*
X140725501Y-134764744D01*
X140726230Y-134761076D01*
X140729617Y-134749271D01*
X140736237Y-134731818D01*
X140742460Y-134680557D01*
X140743342Y-134675050D01*
X140750500Y-134639067D01*
X140750500Y-134618823D01*
X140751040Y-134609903D01*
X140755278Y-134575002D01*
X140755278Y-134574996D01*
X140751040Y-134540096D01*
X140750500Y-134531176D01*
X140750500Y-134510931D01*
X140743340Y-134474938D01*
X140742461Y-134469447D01*
X140736237Y-134418182D01*
X140736236Y-134418179D01*
X140729618Y-134400728D01*
X140726230Y-134388920D01*
X140725502Y-134385259D01*
X140725500Y-134385254D01*
X140705172Y-134336177D01*
X140704357Y-134334121D01*
X140680222Y-134270482D01*
X140680218Y-134270474D01*
X140638415Y-134209913D01*
X140637823Y-134209042D01*
X140605276Y-134160331D01*
X140605273Y-134160328D01*
X140602965Y-134157515D01*
X140603067Y-134157430D01*
X140597954Y-134151294D01*
X140590484Y-134140472D01*
X140590483Y-134140470D01*
X140547733Y-134102597D01*
X140544479Y-134099534D01*
X140514669Y-134069724D01*
X140514664Y-134069721D01*
X140514661Y-134069718D01*
X140502402Y-134061526D01*
X140494448Y-134055390D01*
X140472249Y-134035724D01*
X140472242Y-134035719D01*
X140472240Y-134035717D01*
X140436242Y-134016823D01*
X140429522Y-134012830D01*
X140408128Y-133998535D01*
X140379299Y-133986594D01*
X140373230Y-133983751D01*
X140332365Y-133962303D01*
X140308890Y-133956517D01*
X140298288Y-133953037D01*
X140289744Y-133949499D01*
X140289742Y-133949498D01*
X140289741Y-133949498D01*
X140243016Y-133940203D01*
X140239746Y-133939475D01*
X140178985Y-133924500D01*
X140164069Y-133924500D01*
X140050098Y-133924500D01*
X139997772Y-133902826D01*
X139539668Y-133444722D01*
X139433127Y-133373535D01*
X139314744Y-133324499D01*
X139314737Y-133324497D01*
X139201763Y-133302026D01*
X139189069Y-133299501D01*
X139060931Y-133299501D01*
X139048237Y-133302026D01*
X138935262Y-133324497D01*
X138935255Y-133324499D01*
X138816872Y-133373535D01*
X138710331Y-133444722D01*
X138710330Y-133444723D01*
X138619722Y-133535332D01*
X138611527Y-133547597D01*
X138564434Y-133579061D01*
X138508885Y-133568011D01*
X138488471Y-133547596D01*
X138480276Y-133535331D01*
X138389669Y-133444724D01*
X138389666Y-133444722D01*
X138348135Y-133416972D01*
X138283127Y-133373535D01*
X138283124Y-133373533D01*
X138283123Y-133373533D01*
X138164742Y-133324498D01*
X138164739Y-133324497D01*
X138062400Y-133304141D01*
X138039069Y-133299500D01*
X137910931Y-133299500D01*
X137887600Y-133304141D01*
X137785260Y-133324497D01*
X137785257Y-133324498D01*
X137666876Y-133373533D01*
X137560331Y-133444723D01*
X137560330Y-133444725D01*
X137469725Y-133535330D01*
X137469723Y-133535331D01*
X137398533Y-133641876D01*
X137349498Y-133760257D01*
X137349497Y-133760260D01*
X137324500Y-133885932D01*
X137324500Y-134531176D01*
X137323960Y-134540096D01*
X137319722Y-134574996D01*
X136350500Y-134574996D01*
X136350500Y-131982291D01*
X136350315Y-131980294D01*
X136350000Y-131973470D01*
X136350000Y-130994569D01*
X136350753Y-130984038D01*
X136355647Y-130950000D01*
X136350753Y-130915959D01*
X136350000Y-130905429D01*
X136350000Y-130224540D01*
X136350500Y-130216910D01*
X136350500Y-129693122D01*
X136350498Y-129693100D01*
X136350498Y-129683072D01*
X136350000Y-129675474D01*
X136350000Y-128994569D01*
X136350753Y-128984038D01*
X136352028Y-128975172D01*
X136355647Y-128950000D01*
X136354610Y-128942784D01*
X136350753Y-128915959D01*
X136350000Y-128905429D01*
X136350000Y-128224540D01*
X136350500Y-128216910D01*
X136350500Y-127899833D01*
X136372174Y-127847507D01*
X136424500Y-127825833D01*
X136476826Y-127847507D01*
X136493516Y-127864197D01*
X136598606Y-127915572D01*
X136666739Y-127925499D01*
X136707665Y-127925499D01*
X136738321Y-127933711D01*
X136738733Y-127932719D01*
X136743210Y-127934573D01*
X136743215Y-127934576D01*
X136895939Y-127975498D01*
X136895940Y-127975499D01*
X136895942Y-127975499D01*
X137054058Y-127975499D01*
X137054058Y-127975498D01*
X137206783Y-127934576D01*
X137206789Y-127934572D01*
X137211265Y-127932719D01*
X137211676Y-127933711D01*
X137242333Y-127925499D01*
X137283253Y-127925499D01*
X137283259Y-127925499D01*
X137351392Y-127915572D01*
X137456482Y-127864197D01*
X137539197Y-127781482D01*
X137590572Y-127676392D01*
X137600499Y-127608259D01*
X137600499Y-127141739D01*
X137590572Y-127073606D01*
X137583016Y-127058151D01*
X137575499Y-127025653D01*
X137575499Y-126645940D01*
X137575498Y-126645939D01*
X137554513Y-126567623D01*
X137534576Y-126493215D01*
X137472963Y-126386498D01*
X137465572Y-126330346D01*
X137500050Y-126285413D01*
X137537050Y-126275499D01*
X137987921Y-126275499D01*
X138019537Y-126285625D01*
G37*
%TD.AperFunction*%
%TA.AperFunction,Conductor*%
G36*
X147517913Y-108242174D02*
G01*
X147827826Y-108552086D01*
X147849500Y-108604412D01*
X147849500Y-133600999D01*
X147827826Y-133653325D01*
X147775500Y-133674999D01*
X146751677Y-133674999D01*
X146699351Y-133653325D01*
X146682950Y-133622640D01*
X146682056Y-133623011D01*
X146679267Y-133616279D01*
X146679267Y-133616278D01*
X146646004Y-133566496D01*
X146644712Y-133565633D01*
X146596222Y-133533233D01*
X146579079Y-133529823D01*
X146552320Y-133524500D01*
X146552319Y-133524500D01*
X146510805Y-133524500D01*
X146458479Y-133502826D01*
X146455993Y-133500215D01*
X146453652Y-133497634D01*
X146451274Y-133494880D01*
X146440357Y-133481585D01*
X146438360Y-133479041D01*
X146427339Y-133464355D01*
X146427339Y-133464354D01*
X146427323Y-133464335D01*
X146426396Y-133463099D01*
X146424711Y-133460759D01*
X146415152Y-133446922D01*
X146411920Y-133442243D01*
X146410482Y-133440081D01*
X146396968Y-133418967D01*
X146395736Y-133416972D01*
X146385107Y-133399146D01*
X146385101Y-133399137D01*
X146379349Y-133392277D01*
X146370120Y-133378327D01*
X146346054Y-133331092D01*
X146329784Y-133299159D01*
X146234394Y-133167863D01*
X146211343Y-133144811D01*
X146211340Y-133144807D01*
X146198701Y-133132168D01*
X146198686Y-133132132D01*
X146119646Y-133053092D01*
X145988349Y-132957702D01*
X145843748Y-132884028D01*
X145843742Y-132884025D01*
X145721367Y-132844267D01*
X145689393Y-132833879D01*
X145689391Y-132833878D01*
X145689386Y-132833877D01*
X145529101Y-132808497D01*
X145529098Y-132808497D01*
X145447952Y-132808500D01*
X143913824Y-132808500D01*
X143908984Y-132808342D01*
X143660556Y-132792058D01*
X143650959Y-132790794D01*
X143409179Y-132742700D01*
X143399829Y-132740195D01*
X143166390Y-132660952D01*
X143157448Y-132657248D01*
X142936343Y-132548211D01*
X142927960Y-132543371D01*
X142722987Y-132406412D01*
X142715307Y-132400519D01*
X142715285Y-132400500D01*
X142528086Y-132236329D01*
X142524556Y-132233023D01*
X142491987Y-132200454D01*
X142491980Y-132200448D01*
X142057082Y-131765549D01*
X142047879Y-131754334D01*
X142045132Y-131750223D01*
X142045128Y-131750218D01*
X142030550Y-131735640D01*
X142024164Y-131728357D01*
X141997721Y-131693889D01*
X141988063Y-131677157D01*
X141966317Y-131624642D01*
X141961319Y-131605983D01*
X141953225Y-131544461D01*
X141952593Y-131534801D01*
X141952597Y-131497390D01*
X141952596Y-131497388D01*
X141952597Y-131490956D01*
X141952593Y-131490898D01*
X141952593Y-131476363D01*
X141974267Y-131424037D01*
X142047675Y-131350629D01*
X142100001Y-131328955D01*
X142152326Y-131350628D01*
X142552194Y-131750497D01*
X142588755Y-131774927D01*
X142599967Y-131784128D01*
X143107736Y-132291897D01*
X143178203Y-132362364D01*
X143270272Y-132400500D01*
X143270277Y-132400500D01*
X143276431Y-132401724D01*
X143317922Y-132425843D01*
X143352153Y-132465349D01*
X143376947Y-132493963D01*
X143376948Y-132493964D01*
X143376951Y-132493967D01*
X143485931Y-132564004D01*
X143610228Y-132600500D01*
X143739772Y-132600500D01*
X143864069Y-132564004D01*
X143973049Y-132493967D01*
X144057882Y-132396063D01*
X144111697Y-132278226D01*
X144130133Y-132150000D01*
X144111697Y-132021774D01*
X144057882Y-131903937D01*
X143973049Y-131806033D01*
X143886207Y-131750223D01*
X143864068Y-131735995D01*
X143739772Y-131699500D01*
X143610228Y-131699500D01*
X143485931Y-131735995D01*
X143398774Y-131792007D01*
X143343036Y-131802063D01*
X143306441Y-131782080D01*
X143107478Y-131583117D01*
X143085804Y-131530791D01*
X143107478Y-131478465D01*
X143110623Y-131475614D01*
X143111686Y-131474550D01*
X143111693Y-131474546D01*
X143210332Y-131375907D01*
X143243460Y-131326328D01*
X143250652Y-131290166D01*
X143282115Y-131243077D01*
X143308786Y-131232028D01*
X143344957Y-131224834D01*
X143394536Y-131191706D01*
X143493175Y-131093067D01*
X143526303Y-131043488D01*
X143533495Y-131007325D01*
X143564959Y-130960233D01*
X143591631Y-130949185D01*
X143627802Y-130941991D01*
X143677381Y-130908863D01*
X143776020Y-130810224D01*
X143809148Y-130760645D01*
X143816340Y-130724482D01*
X143847804Y-130677390D01*
X143874480Y-130666340D01*
X143910643Y-130659148D01*
X143960222Y-130626020D01*
X144058861Y-130527381D01*
X144091989Y-130477802D01*
X144099181Y-130441640D01*
X144130646Y-130394549D01*
X144157321Y-130383499D01*
X144193489Y-130376306D01*
X144243068Y-130343178D01*
X144341707Y-130244539D01*
X144374835Y-130194960D01*
X144382028Y-130158793D01*
X144413493Y-130111701D01*
X144440164Y-130100653D01*
X144476330Y-130093460D01*
X144525909Y-130060332D01*
X144624548Y-129961693D01*
X144657676Y-129912114D01*
X144663835Y-129881145D01*
X144695297Y-129834056D01*
X144726755Y-129822216D01*
X144740448Y-129820414D01*
X144779339Y-129804305D01*
X144829787Y-129770596D01*
X144900498Y-129699885D01*
X144934207Y-129649437D01*
X144950316Y-129610546D01*
X144960822Y-129571336D01*
X144950316Y-129491532D01*
X144934207Y-129452641D01*
X144928726Y-129444438D01*
X144900502Y-129402198D01*
X144900500Y-129402196D01*
X144900498Y-129402193D01*
X144500628Y-129002324D01*
X144478955Y-128949999D01*
X144500629Y-128897673D01*
X144672503Y-128725799D01*
X144900497Y-128497806D01*
X144934206Y-128447358D01*
X144950315Y-128408467D01*
X144960821Y-128369257D01*
X144950315Y-128289453D01*
X144934206Y-128250562D01*
X144927490Y-128240511D01*
X144900501Y-128200119D01*
X144900499Y-128200117D01*
X144900497Y-128200114D01*
X144829786Y-128129403D01*
X144829782Y-128129400D01*
X144829780Y-128129398D01*
X144779337Y-128095693D01*
X144740447Y-128079585D01*
X144740443Y-128079583D01*
X144716729Y-128073230D01*
X144671795Y-128038752D01*
X144663304Y-128016193D01*
X144657674Y-127987886D01*
X144624546Y-127938307D01*
X144525907Y-127839668D01*
X144476328Y-127806540D01*
X144476329Y-127806540D01*
X144475020Y-127806279D01*
X144472826Y-127805843D01*
X144469860Y-127803861D01*
X144469596Y-127803752D01*
X144469617Y-127803699D01*
X144425736Y-127774376D01*
X144414688Y-127718827D01*
X144446156Y-127671736D01*
X144459628Y-127666205D01*
X144459077Y-127664874D01*
X144465810Y-127662085D01*
X144465811Y-127662085D01*
X144524348Y-127637837D01*
X144573515Y-127635203D01*
X144577053Y-127636242D01*
X144577054Y-127636242D01*
X144706598Y-127636242D01*
X144830895Y-127599746D01*
X144939875Y-127529709D01*
X145024708Y-127431805D01*
X145078523Y-127313968D01*
X145096959Y-127185742D01*
X145078523Y-127057516D01*
X145024708Y-126939679D01*
X144939875Y-126841775D01*
X144872858Y-126798706D01*
X144830894Y-126771737D01*
X144706598Y-126735242D01*
X144629043Y-126735242D01*
X144576717Y-126713568D01*
X144555796Y-126671773D01*
X144546312Y-126605812D01*
X144536697Y-126538933D01*
X144482882Y-126421096D01*
X144398049Y-126323192D01*
X144319821Y-126272918D01*
X144289068Y-126253154D01*
X144164772Y-126216659D01*
X144035228Y-126216659D01*
X144035227Y-126216659D01*
X143972527Y-126235068D01*
X143916214Y-126229013D01*
X143880677Y-126184912D01*
X143884370Y-126133319D01*
X143886697Y-126128226D01*
X143905133Y-126000000D01*
X143886697Y-125871774D01*
X143832882Y-125753937D01*
X143748049Y-125656033D01*
X143681032Y-125612964D01*
X143639068Y-125585995D01*
X143514772Y-125549500D01*
X143385228Y-125549500D01*
X143260931Y-125585995D01*
X143151954Y-125656031D01*
X143151950Y-125656034D01*
X143067119Y-125753935D01*
X143013302Y-125871776D01*
X142994867Y-126000000D01*
X143012675Y-126123863D01*
X142998668Y-126178741D01*
X142949959Y-126207641D01*
X142895081Y-126193634D01*
X142887109Y-126186726D01*
X142849885Y-126149502D01*
X142849881Y-126149499D01*
X142849879Y-126149497D01*
X142799436Y-126115792D01*
X142760546Y-126099684D01*
X142760545Y-126099683D01*
X142731841Y-126091992D01*
X142721336Y-126089178D01*
X142721335Y-126089178D01*
X142641534Y-126099683D01*
X142641530Y-126099684D01*
X142602641Y-126115792D01*
X142552198Y-126149497D01*
X142552195Y-126149500D01*
X142552193Y-126149501D01*
X142552193Y-126149502D01*
X142330090Y-126371606D01*
X142152325Y-126549371D01*
X142099999Y-126571045D01*
X142047673Y-126549371D01*
X141872826Y-126374524D01*
X141647806Y-126149503D01*
X141647802Y-126149500D01*
X141647800Y-126149498D01*
X141597357Y-126115793D01*
X141558467Y-126099685D01*
X141558466Y-126099684D01*
X141527154Y-126091295D01*
X141519257Y-126089179D01*
X141519256Y-126089179D01*
X141439455Y-126099684D01*
X141439451Y-126099685D01*
X141400562Y-126115793D01*
X141350119Y-126149498D01*
X141279398Y-126220219D01*
X141245693Y-126270662D01*
X141229585Y-126309552D01*
X141229584Y-126309553D01*
X141223230Y-126333271D01*
X141188752Y-126378205D01*
X141166187Y-126386697D01*
X141137885Y-126392326D01*
X141088310Y-126425451D01*
X140989666Y-126524095D01*
X140987358Y-126526908D01*
X140985701Y-126525548D01*
X140944004Y-126553392D01*
X140888459Y-126542325D01*
X140877264Y-126533135D01*
X140689199Y-126345071D01*
X140667525Y-126292745D01*
X140668277Y-126282226D01*
X140680132Y-126199776D01*
X140661696Y-126071550D01*
X140607881Y-125953713D01*
X140523048Y-125855809D01*
X140523047Y-125855808D01*
X140523045Y-125855806D01*
X140522608Y-125855428D01*
X140522458Y-125855130D01*
X140519582Y-125851810D01*
X140520429Y-125851075D01*
X140497256Y-125804783D01*
X140515141Y-125751043D01*
X140565786Y-125725691D01*
X140571067Y-125725502D01*
X141219516Y-125725502D01*
X141219555Y-125725497D01*
X141253794Y-125725498D01*
X141437619Y-125701298D01*
X141616712Y-125653311D01*
X141788009Y-125582359D01*
X141915589Y-125508701D01*
X145599502Y-125508701D01*
X145599502Y-126091295D01*
X145609957Y-126163062D01*
X145609959Y-126163069D01*
X145664082Y-126273780D01*
X145664083Y-126273781D01*
X145751222Y-126360920D01*
X145861935Y-126415044D01*
X145933707Y-126425501D01*
X146441296Y-126425500D01*
X146513063Y-126415045D01*
X146513063Y-126415044D01*
X146513069Y-126415044D01*
X146623782Y-126360920D01*
X146710921Y-126273781D01*
X146765045Y-126163068D01*
X146775502Y-126091296D01*
X146775501Y-125508707D01*
X146775501Y-125508706D01*
X146775501Y-125506096D01*
X146775500Y-125506066D01*
X146775500Y-123966746D01*
X146775500Y-123966740D01*
X146765573Y-123898607D01*
X146714198Y-123793517D01*
X146631483Y-123710802D01*
X146631482Y-123710801D01*
X146526394Y-123659427D01*
X146458264Y-123649500D01*
X146458260Y-123649500D01*
X145991740Y-123649500D01*
X145991735Y-123649500D01*
X145923606Y-123659427D01*
X145923605Y-123659427D01*
X145818517Y-123710801D01*
X145735801Y-123793517D01*
X145684427Y-123898605D01*
X145684427Y-123898606D01*
X145674500Y-123966735D01*
X145674500Y-125287924D01*
X145664394Y-125319547D01*
X145666776Y-125320712D01*
X145609959Y-125436932D01*
X145609959Y-125436933D01*
X145599502Y-125508701D01*
X141915589Y-125508701D01*
X141948580Y-125489654D01*
X142095676Y-125376783D01*
X142119585Y-125352872D01*
X142119589Y-125352870D01*
X142139553Y-125332907D01*
X142139559Y-125332904D01*
X142161230Y-125311232D01*
X142161231Y-125311233D01*
X142226783Y-125245680D01*
X142339655Y-125098584D01*
X142432360Y-124938013D01*
X142503313Y-124766716D01*
X142529286Y-124669782D01*
X142551300Y-124587627D01*
X142551301Y-124587622D01*
X142575501Y-124403797D01*
X142575500Y-124311091D01*
X142575500Y-124311081D01*
X142575500Y-123067077D01*
X142597174Y-123014751D01*
X142649500Y-122993077D01*
X142701826Y-123014751D01*
X142708739Y-123022730D01*
X142726364Y-123046274D01*
X142961085Y-123280995D01*
X142973467Y-123292118D01*
X142973471Y-123292121D01*
X142994099Y-123308745D01*
X142994107Y-123308752D01*
X143003217Y-123315320D01*
X143007611Y-123318489D01*
X143007622Y-123318496D01*
X143086217Y-123369006D01*
X143102136Y-123382800D01*
X143143756Y-123430833D01*
X143155138Y-123448541D01*
X143156473Y-123451463D01*
X143170190Y-123475551D01*
X143195301Y-123511717D01*
X143195303Y-123511719D01*
X143195304Y-123511721D01*
X143213071Y-123532981D01*
X143628261Y-123948171D01*
X143649935Y-124000497D01*
X143628261Y-124052823D01*
X143575935Y-124074497D01*
X142885182Y-124074497D01*
X142863231Y-124078863D01*
X142841279Y-124083230D01*
X142791498Y-124116492D01*
X142791497Y-124116493D01*
X142758235Y-124166274D01*
X142758235Y-124166275D01*
X142749502Y-124210177D01*
X142749502Y-124789817D01*
X142758235Y-124833719D01*
X142791498Y-124883501D01*
X142841280Y-124916764D01*
X142885182Y-124925497D01*
X142885183Y-124925497D01*
X143714821Y-124925497D01*
X143714822Y-124925497D01*
X143758724Y-124916764D01*
X143764095Y-124913174D01*
X143819643Y-124902125D01*
X143864447Y-124930355D01*
X143876364Y-124946274D01*
X143903726Y-124973636D01*
X143916111Y-124984761D01*
X143936753Y-125001395D01*
X143990512Y-125029516D01*
X144057551Y-125049201D01*
X144101362Y-125055500D01*
X144101368Y-125055500D01*
X145048620Y-125055500D01*
X145048638Y-125055500D01*
X145065261Y-125054609D01*
X145091619Y-125051775D01*
X145137391Y-125037442D01*
X145149510Y-125033648D01*
X145149511Y-125033647D01*
X145149519Y-125033645D01*
X145180180Y-125016902D01*
X145210837Y-125000163D01*
X145210838Y-125000162D01*
X145210842Y-125000160D01*
X145246274Y-124973636D01*
X145273636Y-124946274D01*
X145284761Y-124933889D01*
X145301395Y-124913247D01*
X145329516Y-124859488D01*
X145349201Y-124792449D01*
X145355500Y-124748638D01*
X145355500Y-122301362D01*
X145354609Y-122284739D01*
X145351775Y-122258381D01*
X145337305Y-122212168D01*
X145333648Y-122200489D01*
X145333642Y-122200475D01*
X145300163Y-122139162D01*
X145291815Y-122128011D01*
X145273636Y-122103726D01*
X145246274Y-122076364D01*
X145242335Y-122072826D01*
X145233897Y-122065246D01*
X145233894Y-122065244D01*
X145233889Y-122065239D01*
X145213247Y-122048605D01*
X145213245Y-122048604D01*
X145213244Y-122048603D01*
X145159487Y-122020483D01*
X145092450Y-122000799D01*
X145048642Y-121994500D01*
X145048638Y-121994500D01*
X142951362Y-121994500D01*
X142951344Y-121994500D01*
X142934750Y-121995390D01*
X142934730Y-121995391D01*
X142908379Y-121998225D01*
X142850489Y-122016351D01*
X142850475Y-122016357D01*
X142789162Y-122049836D01*
X142753723Y-122076366D01*
X142726355Y-122103735D01*
X142715243Y-122116105D01*
X142712885Y-122119032D01*
X142663173Y-122146170D01*
X142608831Y-122130208D01*
X142581693Y-122080496D01*
X142581498Y-122066787D01*
X142581620Y-122065246D01*
X142588247Y-121981026D01*
X142590064Y-121969563D01*
X142626632Y-121817240D01*
X142630215Y-121806211D01*
X142688217Y-121666182D01*
X142728265Y-121626133D01*
X142756584Y-121620500D01*
X143661876Y-121620500D01*
X143661880Y-121620500D01*
X143685333Y-121617779D01*
X143781267Y-121575420D01*
X143855420Y-121501267D01*
X143897779Y-121405333D01*
X143900500Y-121381880D01*
X143900500Y-109558120D01*
X143897779Y-109534667D01*
X143855420Y-109438733D01*
X143781267Y-109364580D01*
X143685333Y-109322221D01*
X143685334Y-109322221D01*
X143680642Y-109321676D01*
X143661880Y-109319500D01*
X142538120Y-109319500D01*
X142519357Y-109321676D01*
X142514666Y-109322221D01*
X142418732Y-109364580D01*
X142344580Y-109438732D01*
X142302221Y-109534666D01*
X142299500Y-109558123D01*
X142299500Y-121311841D01*
X142289586Y-121348840D01*
X142233746Y-121445559D01*
X142233740Y-121445570D01*
X142168364Y-121603403D01*
X142128315Y-121643451D01*
X142071678Y-121643451D01*
X142031630Y-121603402D01*
X142020040Y-121575420D01*
X141966255Y-121445570D01*
X141910414Y-121348850D01*
X141900500Y-121311850D01*
X141900500Y-109558123D01*
X141900500Y-109558120D01*
X141897779Y-109534667D01*
X141855420Y-109438733D01*
X141781267Y-109364580D01*
X141685333Y-109322221D01*
X141685334Y-109322221D01*
X141680642Y-109321676D01*
X141661880Y-109319500D01*
X140538120Y-109319500D01*
X140519357Y-109321676D01*
X140514666Y-109322221D01*
X140418732Y-109364580D01*
X140344580Y-109438732D01*
X140344580Y-109438733D01*
X140302221Y-109534667D01*
X140299500Y-109558120D01*
X140299500Y-121381880D01*
X140302221Y-121405333D01*
X140344580Y-121501267D01*
X140418733Y-121575420D01*
X140514667Y-121617779D01*
X140538120Y-121620500D01*
X141443411Y-121620500D01*
X141495737Y-121642174D01*
X141511778Y-121666182D01*
X141569776Y-121806204D01*
X141573364Y-121817247D01*
X141609932Y-121969563D01*
X141611749Y-121981032D01*
X141624272Y-122140160D01*
X141624500Y-122145966D01*
X141624500Y-122208338D01*
X141602826Y-122260664D01*
X141550500Y-122282338D01*
X141498174Y-122260664D01*
X141482133Y-122236657D01*
X141471989Y-122212168D01*
X141471983Y-122212156D01*
X141451694Y-122177013D01*
X141451692Y-122177011D01*
X141387835Y-122128012D01*
X141387831Y-122128010D01*
X141335511Y-122106338D01*
X141335501Y-122106335D01*
X141295654Y-122098409D01*
X141276000Y-122094500D01*
X141275998Y-122094500D01*
X140345062Y-122094500D01*
X140292736Y-122072826D01*
X139122174Y-120902264D01*
X139100500Y-120849938D01*
X139100500Y-108558123D01*
X139100500Y-108558120D01*
X139097779Y-108534667D01*
X139055420Y-108438733D01*
X138981267Y-108364580D01*
X138975864Y-108362194D01*
X138936752Y-108321232D01*
X138938060Y-108264610D01*
X138979023Y-108225497D01*
X139005755Y-108220500D01*
X147465587Y-108220500D01*
X147517913Y-108242174D01*
G37*
%TD.AperFunction*%
%TA.AperFunction,Conductor*%
G36*
X142141112Y-127021688D02*
G01*
X142178377Y-127046589D01*
X142217268Y-127062698D01*
X142240983Y-127069052D01*
X142285918Y-127103529D01*
X142294410Y-127126095D01*
X142300040Y-127154398D01*
X142333168Y-127203977D01*
X142431807Y-127302616D01*
X142481386Y-127335744D01*
X142517551Y-127342937D01*
X142564643Y-127374402D01*
X142575693Y-127401078D01*
X142582886Y-127437239D01*
X142609945Y-127477736D01*
X142616014Y-127486818D01*
X142714653Y-127585457D01*
X142764232Y-127618585D01*
X142800392Y-127625777D01*
X142847484Y-127657242D01*
X142858534Y-127683918D01*
X142860963Y-127696129D01*
X142865728Y-127720085D01*
X142898856Y-127769664D01*
X142997495Y-127868303D01*
X143047074Y-127901431D01*
X143083235Y-127908623D01*
X143130328Y-127940088D01*
X143141378Y-127966764D01*
X143148571Y-128002926D01*
X143161862Y-128022818D01*
X143181699Y-128052505D01*
X143280338Y-128151144D01*
X143329917Y-128184272D01*
X143366078Y-128191464D01*
X143413170Y-128222929D01*
X143424220Y-128249604D01*
X143431414Y-128285771D01*
X143461157Y-128330285D01*
X143464542Y-128335350D01*
X143563181Y-128433989D01*
X143612760Y-128467117D01*
X143648921Y-128474309D01*
X143696011Y-128505772D01*
X143707061Y-128532450D01*
X143714254Y-128568614D01*
X143747382Y-128618193D01*
X143846021Y-128716832D01*
X143895600Y-128749960D01*
X143926568Y-128756119D01*
X143973658Y-128787581D01*
X143985498Y-128819037D01*
X143987300Y-128832730D01*
X144003407Y-128871616D01*
X144003414Y-128871630D01*
X144028310Y-128908887D01*
X144039360Y-128964435D01*
X144028310Y-128991113D01*
X144003415Y-129028368D01*
X144003408Y-129028382D01*
X143987302Y-129067267D01*
X143987298Y-129067279D01*
X143980946Y-129090985D01*
X143946467Y-129135918D01*
X143923906Y-129144410D01*
X143895601Y-129150040D01*
X143846026Y-129183165D01*
X143747381Y-129281810D01*
X143714256Y-129331385D01*
X143707062Y-129367553D01*
X143675596Y-129414644D01*
X143648922Y-129425693D01*
X143612760Y-129432886D01*
X143563185Y-129466011D01*
X143464540Y-129564656D01*
X143431415Y-129614231D01*
X143424222Y-129650393D01*
X143392756Y-129697485D01*
X143366082Y-129708534D01*
X143329914Y-129715728D01*
X143280339Y-129748853D01*
X143181694Y-129847498D01*
X143148569Y-129897073D01*
X143141376Y-129933237D01*
X143109910Y-129980329D01*
X143083235Y-129991378D01*
X143047073Y-129998571D01*
X142997498Y-130031696D01*
X142898853Y-130130341D01*
X142865728Y-130179916D01*
X142858535Y-130216080D01*
X142827069Y-130263172D01*
X142800393Y-130274221D01*
X142764228Y-130281414D01*
X142714653Y-130314539D01*
X142616008Y-130413184D01*
X142582883Y-130462759D01*
X142575691Y-130498919D01*
X142544226Y-130546011D01*
X142517550Y-130557061D01*
X142481385Y-130564254D01*
X142431810Y-130597379D01*
X142333165Y-130696024D01*
X142300040Y-130745599D01*
X142293880Y-130776569D01*
X142262413Y-130823660D01*
X142230962Y-130835498D01*
X142217269Y-130837300D01*
X142217266Y-130837301D01*
X142178384Y-130853407D01*
X142178369Y-130853414D01*
X142141112Y-130878310D01*
X142085563Y-130889360D01*
X142058885Y-130878310D01*
X142021625Y-130853412D01*
X142021617Y-130853408D01*
X141982732Y-130837302D01*
X141982720Y-130837298D01*
X141959014Y-130830946D01*
X141914081Y-130796468D01*
X141905589Y-130773904D01*
X141902952Y-130760645D01*
X141899960Y-130745602D01*
X141866832Y-130696023D01*
X141768193Y-130597384D01*
X141718614Y-130564256D01*
X141682446Y-130557062D01*
X141635354Y-130525596D01*
X141624307Y-130498926D01*
X141617114Y-130462761D01*
X141583986Y-130413182D01*
X141485347Y-130314543D01*
X141485341Y-130314539D01*
X141469044Y-130303650D01*
X141435768Y-130281415D01*
X141399606Y-130274222D01*
X141352514Y-130242756D01*
X141341465Y-130216080D01*
X141334272Y-130179917D01*
X141334272Y-130179915D01*
X141301144Y-130130336D01*
X141202505Y-130031697D01*
X141152926Y-129998569D01*
X141116762Y-129991376D01*
X141069670Y-129959911D01*
X141058622Y-129933239D01*
X141051429Y-129897074D01*
X141018301Y-129847495D01*
X140919662Y-129748856D01*
X140870083Y-129715728D01*
X140870084Y-129715728D01*
X140833919Y-129708535D01*
X140786827Y-129677069D01*
X140775780Y-129650399D01*
X140768586Y-129614229D01*
X140735458Y-129564650D01*
X140636819Y-129466011D01*
X140587240Y-129432883D01*
X140551079Y-129425690D01*
X140503988Y-129394226D01*
X140492938Y-129367548D01*
X140485746Y-129331386D01*
X140452618Y-129281807D01*
X140353979Y-129183168D01*
X140304400Y-129150040D01*
X140273431Y-129143880D01*
X140226339Y-129112414D01*
X140214501Y-129080959D01*
X140212699Y-129067271D01*
X140212698Y-129067268D01*
X140196590Y-129028378D01*
X140171688Y-128991112D01*
X140160639Y-128935564D01*
X140171688Y-128908886D01*
X140196589Y-128871623D01*
X140212698Y-128832732D01*
X140219052Y-128809016D01*
X140253529Y-128764082D01*
X140276095Y-128755589D01*
X140304398Y-128749960D01*
X140353977Y-128716832D01*
X140452616Y-128618193D01*
X140485744Y-128568614D01*
X140492937Y-128532447D01*
X140524402Y-128485355D01*
X140551073Y-128474307D01*
X140587239Y-128467114D01*
X140636818Y-128433986D01*
X140735457Y-128335347D01*
X140768585Y-128285768D01*
X140775777Y-128249606D01*
X140807242Y-128202515D01*
X140833917Y-128191465D01*
X140870085Y-128184272D01*
X140919664Y-128151144D01*
X141018303Y-128052505D01*
X141051431Y-128002926D01*
X141058623Y-127966763D01*
X141090087Y-127919671D01*
X141116763Y-127908621D01*
X141152926Y-127901429D01*
X141202505Y-127868301D01*
X141301144Y-127769662D01*
X141334272Y-127720083D01*
X141341464Y-127683920D01*
X141372928Y-127636828D01*
X141399600Y-127625780D01*
X141435771Y-127618586D01*
X141485350Y-127585458D01*
X141583989Y-127486819D01*
X141617117Y-127437240D01*
X141624309Y-127401078D01*
X141655772Y-127353989D01*
X141682443Y-127342940D01*
X141718614Y-127335746D01*
X141768193Y-127302618D01*
X141866832Y-127203979D01*
X141899960Y-127154400D01*
X141906119Y-127123432D01*
X141937584Y-127076340D01*
X141969040Y-127064501D01*
X141982731Y-127062699D01*
X142021622Y-127046590D01*
X142058886Y-127021690D01*
X142114434Y-127010638D01*
X142141112Y-127021688D01*
G37*
%TD.AperFunction*%
%TA.AperFunction,Conductor*%
G36*
X137646571Y-108242174D02*
G01*
X137668245Y-108294500D01*
X137646571Y-108346826D01*
X137624135Y-108362195D01*
X137618732Y-108364580D01*
X137544580Y-108438732D01*
X137502221Y-108534666D01*
X137499500Y-108558123D01*
X137499500Y-120991575D01*
X137498078Y-121006011D01*
X137494500Y-121024000D01*
X137494500Y-123019346D01*
X137506335Y-123078849D01*
X137506338Y-123078859D01*
X137528010Y-123131180D01*
X137532122Y-123137333D01*
X137561719Y-123181629D01*
X137818371Y-123438281D01*
X137868819Y-123471989D01*
X137921145Y-123493663D01*
X137980652Y-123505500D01*
X138904938Y-123505500D01*
X138957264Y-123527174D01*
X140099872Y-124669782D01*
X140121546Y-124722108D01*
X140099872Y-124774434D01*
X140057206Y-124795475D01*
X140043712Y-124797251D01*
X139875429Y-124842338D01*
X139875425Y-124842340D01*
X139714466Y-124909007D01*
X139714458Y-124909011D01*
X139563585Y-124996115D01*
X139425371Y-125102169D01*
X139425365Y-125102174D01*
X139397587Y-125129951D01*
X139397582Y-125129956D01*
X139385983Y-125141554D01*
X139385935Y-125141573D01*
X139302155Y-125225353D01*
X139197404Y-125361871D01*
X139148355Y-125390190D01*
X139093647Y-125375532D01*
X139072214Y-125349323D01*
X139060919Y-125326219D01*
X138973779Y-125239079D01*
X138863068Y-125184956D01*
X138791299Y-125174499D01*
X138791295Y-125174499D01*
X138534976Y-125174499D01*
X138534975Y-125174499D01*
X137283259Y-125174499D01*
X136666739Y-125174499D01*
X136666734Y-125174499D01*
X136598605Y-125184426D01*
X136598604Y-125184426D01*
X136493516Y-125235800D01*
X136476826Y-125252491D01*
X136424500Y-125274165D01*
X136372174Y-125252491D01*
X136350500Y-125200165D01*
X136350500Y-108604412D01*
X136372174Y-108552086D01*
X136682086Y-108242174D01*
X136734412Y-108220500D01*
X137594245Y-108220500D01*
X137646571Y-108242174D01*
G37*
%TD.AperFunction*%
%TA.AperFunction,Conductor*%
G36*
X141618867Y-123112842D02*
G01*
X141624500Y-123141161D01*
X141624500Y-123958838D01*
X141602826Y-124011164D01*
X141550500Y-124032838D01*
X141498174Y-124011164D01*
X141482133Y-123987157D01*
X141471989Y-123962667D01*
X141471983Y-123962656D01*
X141451694Y-123927513D01*
X141451692Y-123927511D01*
X141387835Y-123878512D01*
X141387831Y-123878510D01*
X141335511Y-123856838D01*
X141335501Y-123856835D01*
X141295654Y-123848909D01*
X141276000Y-123845000D01*
X141275998Y-123845000D01*
X141268225Y-123845000D01*
X141247377Y-123842003D01*
X141204104Y-123829297D01*
X141204101Y-123829296D01*
X141204100Y-123829296D01*
X141197634Y-123827889D01*
X141182423Y-123824580D01*
X141182403Y-123824576D01*
X141161568Y-123821581D01*
X141161569Y-123821581D01*
X141139454Y-123820000D01*
X141139443Y-123820000D01*
X140579000Y-123820000D01*
X140526674Y-123798326D01*
X140505000Y-123746000D01*
X140505000Y-123354000D01*
X140526674Y-123301674D01*
X140579000Y-123280000D01*
X141139450Y-123280000D01*
X141139452Y-123279999D01*
X141161569Y-123278418D01*
X141182417Y-123275421D01*
X141204100Y-123270704D01*
X141247377Y-123257997D01*
X141268225Y-123255000D01*
X141275998Y-123255000D01*
X141276000Y-123255000D01*
X141335507Y-123243163D01*
X141387833Y-123221489D01*
X141422989Y-123201192D01*
X141471989Y-123137333D01*
X141482133Y-123112842D01*
X141522181Y-123072794D01*
X141578818Y-123072794D01*
X141618867Y-123112842D01*
G37*
%TD.AperFunction*%
%TD*%
%TA.AperFunction,Conductor*%
%TO.N,Net-(AE2-FEED)*%
G36*
X146251539Y-133478771D02*
G01*
X146262789Y-133497640D01*
X146264031Y-133499724D01*
X146281680Y-133527296D01*
X146299334Y-133552852D01*
X146304537Y-133559785D01*
X146317003Y-133576397D01*
X146318640Y-133578390D01*
X146334662Y-133597901D01*
X146334678Y-133597920D01*
X146346780Y-133611265D01*
X146352325Y-133617380D01*
X146369985Y-133634828D01*
X146387646Y-133650247D01*
X146405307Y-133663638D01*
X146405311Y-133663641D01*
X146405313Y-133663642D01*
X146415067Y-133669917D01*
X146420171Y-133677275D01*
X146419712Y-133683812D01*
X146246379Y-134152925D01*
X146240297Y-134159498D01*
X146231349Y-134159845D01*
X146225348Y-134154851D01*
X146224202Y-134152925D01*
X145946334Y-133685763D01*
X145945050Y-133676901D01*
X145950409Y-133669726D01*
X145951077Y-133669358D01*
X145953760Y-133668001D01*
X145967588Y-133659552D01*
X145981416Y-133649652D01*
X145995244Y-133638301D01*
X146009073Y-133625500D01*
X146022901Y-133611247D01*
X146036729Y-133595544D01*
X146050557Y-133578390D01*
X146064385Y-133559785D01*
X146076254Y-133542572D01*
X146081405Y-133538408D01*
X146237017Y-133473956D01*
X146245970Y-133473956D01*
X146251539Y-133478771D01*
G37*
%TD.AperFunction*%
%TD*%
D44*
X137475000Y-138075000D03*
X140475000Y-138075000D03*
X147550000Y-132325000D03*
X142107066Y-130193355D03*
X142100000Y-128950000D03*
X136650000Y-135075000D03*
X147550000Y-131325000D03*
X147550000Y-123325000D03*
X146475000Y-138075000D03*
X145800003Y-131357925D03*
X144975000Y-121450000D03*
X147550000Y-127325000D03*
X144975000Y-120200000D03*
X141300000Y-123550000D03*
X142900000Y-123600000D03*
X126350000Y-128950000D03*
X146825000Y-121450000D03*
X147550000Y-138050000D03*
X138850000Y-124275000D03*
X142475000Y-138075000D03*
X136650000Y-124575000D03*
X142475000Y-133325000D03*
X141475000Y-134200000D03*
X139475000Y-138075000D03*
X147550000Y-125325000D03*
X143475000Y-138075000D03*
X145350000Y-132350000D03*
X146825000Y-120200000D03*
X136650000Y-138075000D03*
X147550000Y-130325000D03*
X141475000Y-135200000D03*
X146775000Y-133225000D03*
X136650000Y-122575000D03*
X136650000Y-132075000D03*
X145475000Y-138075000D03*
X147537500Y-133225000D03*
X141475000Y-133325000D03*
X146225000Y-132575000D03*
X136650000Y-136075000D03*
X144975000Y-118950000D03*
X147550000Y-128325000D03*
X147550000Y-126325000D03*
X141475000Y-137200000D03*
X136650000Y-133075000D03*
X143350000Y-128950000D03*
X133350000Y-130450000D03*
X147550000Y-122325000D03*
X147550000Y-124325000D03*
X142100000Y-127700000D03*
X141475000Y-136200000D03*
X138475000Y-138075000D03*
X136650000Y-134075000D03*
X147550000Y-129325000D03*
X136650000Y-123575000D03*
X141475000Y-138075000D03*
X146825000Y-118950000D03*
X144475000Y-138075000D03*
X140850000Y-128950000D03*
X136650000Y-137075000D03*
X136974999Y-126724999D03*
X143450000Y-126000000D03*
X139050000Y-135650000D03*
X143500000Y-123100000D03*
X138550000Y-136150000D03*
X143950000Y-122600000D03*
X144641826Y-127185742D03*
X143675000Y-132150000D03*
X140600002Y-131864214D03*
X138100000Y-128700000D03*
X134000000Y-128200000D03*
X128850000Y-127700000D03*
X128850000Y-130200000D03*
X139125000Y-133950000D03*
X140224999Y-126199776D03*
X137975000Y-133950000D03*
X130253154Y-129840850D03*
X140224999Y-126949779D03*
X144100000Y-126667159D03*
X138600000Y-131450000D03*
X138069668Y-130919668D03*
D45*
X130800000Y-128950000D03*
X130799997Y-131489999D03*
X130799997Y-126409999D03*
X127624996Y-131489999D03*
X127624996Y-126409999D03*
X125719995Y-129966001D03*
X125719995Y-127933998D03*
M02*
