%TF.GenerationSoftware,KiCad,Pcbnew,8.0.8*%
%TF.CreationDate,2025-03-21T10:35:36+01:00*%
%TF.ProjectId,RF_HID_module_test,52465f48-4944-45f6-9d6f-64756c655f74,rev?*%
%TF.SameCoordinates,Original*%
%TF.FileFunction,Legend,Top*%
%TF.FilePolarity,Positive*%
%FSLAX46Y46*%
G04 Gerber Fmt 4.6, Leading zero omitted, Abs format (unit mm)*
G04 Created by KiCad (PCBNEW 8.0.8) date 2025-03-21 10:35:36*
%MOMM*%
%LPD*%
G01*
G04 APERTURE LIST*
%ADD10C,0.150000*%
%ADD11C,0.120000*%
%ADD12C,0.152400*%
%ADD13C,0.350000*%
%ADD14O,0.600000X1.700000*%
%ADD15O,0.600000X1.200000*%
%ADD16C,0.200000*%
%ADD17C,0.300000*%
G04 APERTURE END LIST*
D10*
X163170237Y-110892902D02*
X163170237Y-110242902D01*
X163170237Y-110242902D02*
X163324999Y-110242902D01*
X163324999Y-110242902D02*
X163417856Y-110273854D01*
X163417856Y-110273854D02*
X163479761Y-110335759D01*
X163479761Y-110335759D02*
X163510714Y-110397664D01*
X163510714Y-110397664D02*
X163541666Y-110521473D01*
X163541666Y-110521473D02*
X163541666Y-110614330D01*
X163541666Y-110614330D02*
X163510714Y-110738140D01*
X163510714Y-110738140D02*
X163479761Y-110800045D01*
X163479761Y-110800045D02*
X163417856Y-110861950D01*
X163417856Y-110861950D02*
X163324999Y-110892902D01*
X163324999Y-110892902D02*
X163170237Y-110892902D01*
X164160714Y-110892902D02*
X163789285Y-110892902D01*
X163974999Y-110892902D02*
X163974999Y-110242902D01*
X163974999Y-110242902D02*
X163913095Y-110335759D01*
X163913095Y-110335759D02*
X163851190Y-110397664D01*
X163851190Y-110397664D02*
X163789285Y-110428616D01*
X142904761Y-110042902D02*
X142904761Y-110569092D01*
X142904761Y-110569092D02*
X142935714Y-110630997D01*
X142935714Y-110630997D02*
X142966666Y-110661950D01*
X142966666Y-110661950D02*
X143028571Y-110692902D01*
X143028571Y-110692902D02*
X143152380Y-110692902D01*
X143152380Y-110692902D02*
X143214285Y-110661950D01*
X143214285Y-110661950D02*
X143245238Y-110630997D01*
X143245238Y-110630997D02*
X143276190Y-110569092D01*
X143276190Y-110569092D02*
X143276190Y-110042902D01*
X143554761Y-110104807D02*
X143585713Y-110073854D01*
X143585713Y-110073854D02*
X143647618Y-110042902D01*
X143647618Y-110042902D02*
X143802380Y-110042902D01*
X143802380Y-110042902D02*
X143864285Y-110073854D01*
X143864285Y-110073854D02*
X143895237Y-110104807D01*
X143895237Y-110104807D02*
X143926190Y-110166711D01*
X143926190Y-110166711D02*
X143926190Y-110228616D01*
X143926190Y-110228616D02*
X143895237Y-110321473D01*
X143895237Y-110321473D02*
X143523809Y-110692902D01*
X143523809Y-110692902D02*
X143926190Y-110692902D01*
X148182142Y-102980997D02*
X148151190Y-103011950D01*
X148151190Y-103011950D02*
X148058332Y-103042902D01*
X148058332Y-103042902D02*
X147996428Y-103042902D01*
X147996428Y-103042902D02*
X147903571Y-103011950D01*
X147903571Y-103011950D02*
X147841666Y-102950045D01*
X147841666Y-102950045D02*
X147810713Y-102888140D01*
X147810713Y-102888140D02*
X147779761Y-102764330D01*
X147779761Y-102764330D02*
X147779761Y-102671473D01*
X147779761Y-102671473D02*
X147810713Y-102547664D01*
X147810713Y-102547664D02*
X147841666Y-102485759D01*
X147841666Y-102485759D02*
X147903571Y-102423854D01*
X147903571Y-102423854D02*
X147996428Y-102392902D01*
X147996428Y-102392902D02*
X148058332Y-102392902D01*
X148058332Y-102392902D02*
X148151190Y-102423854D01*
X148151190Y-102423854D02*
X148182142Y-102454807D01*
X148801190Y-103042902D02*
X148429761Y-103042902D01*
X148615475Y-103042902D02*
X148615475Y-102392902D01*
X148615475Y-102392902D02*
X148553571Y-102485759D01*
X148553571Y-102485759D02*
X148491666Y-102547664D01*
X148491666Y-102547664D02*
X148429761Y-102578616D01*
X149110714Y-103042902D02*
X149234523Y-103042902D01*
X149234523Y-103042902D02*
X149296428Y-103011950D01*
X149296428Y-103011950D02*
X149327380Y-102980997D01*
X149327380Y-102980997D02*
X149389285Y-102888140D01*
X149389285Y-102888140D02*
X149420238Y-102764330D01*
X149420238Y-102764330D02*
X149420238Y-102516711D01*
X149420238Y-102516711D02*
X149389285Y-102454807D01*
X149389285Y-102454807D02*
X149358333Y-102423854D01*
X149358333Y-102423854D02*
X149296428Y-102392902D01*
X149296428Y-102392902D02*
X149172619Y-102392902D01*
X149172619Y-102392902D02*
X149110714Y-102423854D01*
X149110714Y-102423854D02*
X149079761Y-102454807D01*
X149079761Y-102454807D02*
X149048809Y-102516711D01*
X149048809Y-102516711D02*
X149048809Y-102671473D01*
X149048809Y-102671473D02*
X149079761Y-102733378D01*
X149079761Y-102733378D02*
X149110714Y-102764330D01*
X149110714Y-102764330D02*
X149172619Y-102795283D01*
X149172619Y-102795283D02*
X149296428Y-102795283D01*
X149296428Y-102795283D02*
X149358333Y-102764330D01*
X149358333Y-102764330D02*
X149389285Y-102733378D01*
X149389285Y-102733378D02*
X149420238Y-102671473D01*
X157872142Y-135220997D02*
X157841190Y-135251950D01*
X157841190Y-135251950D02*
X157748332Y-135282902D01*
X157748332Y-135282902D02*
X157686428Y-135282902D01*
X157686428Y-135282902D02*
X157593571Y-135251950D01*
X157593571Y-135251950D02*
X157531666Y-135190045D01*
X157531666Y-135190045D02*
X157500713Y-135128140D01*
X157500713Y-135128140D02*
X157469761Y-135004330D01*
X157469761Y-135004330D02*
X157469761Y-134911473D01*
X157469761Y-134911473D02*
X157500713Y-134787664D01*
X157500713Y-134787664D02*
X157531666Y-134725759D01*
X157531666Y-134725759D02*
X157593571Y-134663854D01*
X157593571Y-134663854D02*
X157686428Y-134632902D01*
X157686428Y-134632902D02*
X157748332Y-134632902D01*
X157748332Y-134632902D02*
X157841190Y-134663854D01*
X157841190Y-134663854D02*
X157872142Y-134694807D01*
X158491190Y-135282902D02*
X158119761Y-135282902D01*
X158305475Y-135282902D02*
X158305475Y-134632902D01*
X158305475Y-134632902D02*
X158243571Y-134725759D01*
X158243571Y-134725759D02*
X158181666Y-134787664D01*
X158181666Y-134787664D02*
X158119761Y-134818616D01*
X159048333Y-134632902D02*
X158924523Y-134632902D01*
X158924523Y-134632902D02*
X158862619Y-134663854D01*
X158862619Y-134663854D02*
X158831666Y-134694807D01*
X158831666Y-134694807D02*
X158769761Y-134787664D01*
X158769761Y-134787664D02*
X158738809Y-134911473D01*
X158738809Y-134911473D02*
X158738809Y-135159092D01*
X158738809Y-135159092D02*
X158769761Y-135220997D01*
X158769761Y-135220997D02*
X158800714Y-135251950D01*
X158800714Y-135251950D02*
X158862619Y-135282902D01*
X158862619Y-135282902D02*
X158986428Y-135282902D01*
X158986428Y-135282902D02*
X159048333Y-135251950D01*
X159048333Y-135251950D02*
X159079285Y-135220997D01*
X159079285Y-135220997D02*
X159110238Y-135159092D01*
X159110238Y-135159092D02*
X159110238Y-135004330D01*
X159110238Y-135004330D02*
X159079285Y-134942426D01*
X159079285Y-134942426D02*
X159048333Y-134911473D01*
X159048333Y-134911473D02*
X158986428Y-134880521D01*
X158986428Y-134880521D02*
X158862619Y-134880521D01*
X158862619Y-134880521D02*
X158800714Y-134911473D01*
X158800714Y-134911473D02*
X158769761Y-134942426D01*
X158769761Y-134942426D02*
X158738809Y-135004330D01*
X144942902Y-106558333D02*
X144942902Y-106867857D01*
X144942902Y-106867857D02*
X144292902Y-106867857D01*
X144942902Y-106001190D02*
X144942902Y-106372619D01*
X144942902Y-106186905D02*
X144292902Y-106186905D01*
X144292902Y-106186905D02*
X144385759Y-106248809D01*
X144385759Y-106248809D02*
X144447664Y-106310714D01*
X144447664Y-106310714D02*
X144478616Y-106372619D01*
X171780997Y-122808333D02*
X171811950Y-122839285D01*
X171811950Y-122839285D02*
X171842902Y-122932143D01*
X171842902Y-122932143D02*
X171842902Y-122994047D01*
X171842902Y-122994047D02*
X171811950Y-123086904D01*
X171811950Y-123086904D02*
X171750045Y-123148809D01*
X171750045Y-123148809D02*
X171688140Y-123179762D01*
X171688140Y-123179762D02*
X171564330Y-123210714D01*
X171564330Y-123210714D02*
X171471473Y-123210714D01*
X171471473Y-123210714D02*
X171347664Y-123179762D01*
X171347664Y-123179762D02*
X171285759Y-123148809D01*
X171285759Y-123148809D02*
X171223854Y-123086904D01*
X171223854Y-123086904D02*
X171192902Y-122994047D01*
X171192902Y-122994047D02*
X171192902Y-122932143D01*
X171192902Y-122932143D02*
X171223854Y-122839285D01*
X171223854Y-122839285D02*
X171254807Y-122808333D01*
X171471473Y-122436904D02*
X171440521Y-122498809D01*
X171440521Y-122498809D02*
X171409569Y-122529762D01*
X171409569Y-122529762D02*
X171347664Y-122560714D01*
X171347664Y-122560714D02*
X171316711Y-122560714D01*
X171316711Y-122560714D02*
X171254807Y-122529762D01*
X171254807Y-122529762D02*
X171223854Y-122498809D01*
X171223854Y-122498809D02*
X171192902Y-122436904D01*
X171192902Y-122436904D02*
X171192902Y-122313095D01*
X171192902Y-122313095D02*
X171223854Y-122251190D01*
X171223854Y-122251190D02*
X171254807Y-122220238D01*
X171254807Y-122220238D02*
X171316711Y-122189285D01*
X171316711Y-122189285D02*
X171347664Y-122189285D01*
X171347664Y-122189285D02*
X171409569Y-122220238D01*
X171409569Y-122220238D02*
X171440521Y-122251190D01*
X171440521Y-122251190D02*
X171471473Y-122313095D01*
X171471473Y-122313095D02*
X171471473Y-122436904D01*
X171471473Y-122436904D02*
X171502426Y-122498809D01*
X171502426Y-122498809D02*
X171533378Y-122529762D01*
X171533378Y-122529762D02*
X171595283Y-122560714D01*
X171595283Y-122560714D02*
X171719092Y-122560714D01*
X171719092Y-122560714D02*
X171780997Y-122529762D01*
X171780997Y-122529762D02*
X171811950Y-122498809D01*
X171811950Y-122498809D02*
X171842902Y-122436904D01*
X171842902Y-122436904D02*
X171842902Y-122313095D01*
X171842902Y-122313095D02*
X171811950Y-122251190D01*
X171811950Y-122251190D02*
X171780997Y-122220238D01*
X171780997Y-122220238D02*
X171719092Y-122189285D01*
X171719092Y-122189285D02*
X171595283Y-122189285D01*
X171595283Y-122189285D02*
X171533378Y-122220238D01*
X171533378Y-122220238D02*
X171502426Y-122251190D01*
X171502426Y-122251190D02*
X171471473Y-122313095D01*
X174280997Y-107467857D02*
X174311950Y-107498809D01*
X174311950Y-107498809D02*
X174342902Y-107591667D01*
X174342902Y-107591667D02*
X174342902Y-107653571D01*
X174342902Y-107653571D02*
X174311950Y-107746428D01*
X174311950Y-107746428D02*
X174250045Y-107808333D01*
X174250045Y-107808333D02*
X174188140Y-107839286D01*
X174188140Y-107839286D02*
X174064330Y-107870238D01*
X174064330Y-107870238D02*
X173971473Y-107870238D01*
X173971473Y-107870238D02*
X173847664Y-107839286D01*
X173847664Y-107839286D02*
X173785759Y-107808333D01*
X173785759Y-107808333D02*
X173723854Y-107746428D01*
X173723854Y-107746428D02*
X173692902Y-107653571D01*
X173692902Y-107653571D02*
X173692902Y-107591667D01*
X173692902Y-107591667D02*
X173723854Y-107498809D01*
X173723854Y-107498809D02*
X173754807Y-107467857D01*
X174342902Y-106848809D02*
X174342902Y-107220238D01*
X174342902Y-107034524D02*
X173692902Y-107034524D01*
X173692902Y-107034524D02*
X173785759Y-107096428D01*
X173785759Y-107096428D02*
X173847664Y-107158333D01*
X173847664Y-107158333D02*
X173878616Y-107220238D01*
X174342902Y-106229761D02*
X174342902Y-106601190D01*
X174342902Y-106415476D02*
X173692902Y-106415476D01*
X173692902Y-106415476D02*
X173785759Y-106477380D01*
X173785759Y-106477380D02*
X173847664Y-106539285D01*
X173847664Y-106539285D02*
X173878616Y-106601190D01*
X163170237Y-109392902D02*
X163170237Y-108742902D01*
X163170237Y-108742902D02*
X163324999Y-108742902D01*
X163324999Y-108742902D02*
X163417856Y-108773854D01*
X163417856Y-108773854D02*
X163479761Y-108835759D01*
X163479761Y-108835759D02*
X163510714Y-108897664D01*
X163510714Y-108897664D02*
X163541666Y-109021473D01*
X163541666Y-109021473D02*
X163541666Y-109114330D01*
X163541666Y-109114330D02*
X163510714Y-109238140D01*
X163510714Y-109238140D02*
X163479761Y-109300045D01*
X163479761Y-109300045D02*
X163417856Y-109361950D01*
X163417856Y-109361950D02*
X163324999Y-109392902D01*
X163324999Y-109392902D02*
X163170237Y-109392902D01*
X163789285Y-108804807D02*
X163820237Y-108773854D01*
X163820237Y-108773854D02*
X163882142Y-108742902D01*
X163882142Y-108742902D02*
X164036904Y-108742902D01*
X164036904Y-108742902D02*
X164098809Y-108773854D01*
X164098809Y-108773854D02*
X164129761Y-108804807D01*
X164129761Y-108804807D02*
X164160714Y-108866711D01*
X164160714Y-108866711D02*
X164160714Y-108928616D01*
X164160714Y-108928616D02*
X164129761Y-109021473D01*
X164129761Y-109021473D02*
X163758333Y-109392902D01*
X163758333Y-109392902D02*
X164160714Y-109392902D01*
X144183333Y-97642902D02*
X144183333Y-98107188D01*
X144183333Y-98107188D02*
X144152380Y-98200045D01*
X144152380Y-98200045D02*
X144090476Y-98261950D01*
X144090476Y-98261950D02*
X143997618Y-98292902D01*
X143997618Y-98292902D02*
X143935714Y-98292902D01*
X144771428Y-97859569D02*
X144771428Y-98292902D01*
X144616666Y-97611950D02*
X144461904Y-98076235D01*
X144461904Y-98076235D02*
X144864285Y-98076235D01*
X141461950Y-124741664D02*
X141492902Y-124648807D01*
X141492902Y-124648807D02*
X141492902Y-124494045D01*
X141492902Y-124494045D02*
X141461950Y-124432140D01*
X141461950Y-124432140D02*
X141430997Y-124401188D01*
X141430997Y-124401188D02*
X141369092Y-124370235D01*
X141369092Y-124370235D02*
X141307188Y-124370235D01*
X141307188Y-124370235D02*
X141245283Y-124401188D01*
X141245283Y-124401188D02*
X141214330Y-124432140D01*
X141214330Y-124432140D02*
X141183378Y-124494045D01*
X141183378Y-124494045D02*
X141152426Y-124617854D01*
X141152426Y-124617854D02*
X141121473Y-124679759D01*
X141121473Y-124679759D02*
X141090521Y-124710712D01*
X141090521Y-124710712D02*
X141028616Y-124741664D01*
X141028616Y-124741664D02*
X140966711Y-124741664D01*
X140966711Y-124741664D02*
X140904807Y-124710712D01*
X140904807Y-124710712D02*
X140873854Y-124679759D01*
X140873854Y-124679759D02*
X140842902Y-124617854D01*
X140842902Y-124617854D02*
X140842902Y-124463093D01*
X140842902Y-124463093D02*
X140873854Y-124370235D01*
X140842902Y-124153568D02*
X141492902Y-123998806D01*
X141492902Y-123998806D02*
X141028616Y-123874997D01*
X141028616Y-123874997D02*
X141492902Y-123751187D01*
X141492902Y-123751187D02*
X140842902Y-123596426D01*
X140842902Y-123410711D02*
X140842902Y-123008330D01*
X140842902Y-123008330D02*
X141090521Y-123224997D01*
X141090521Y-123224997D02*
X141090521Y-123132140D01*
X141090521Y-123132140D02*
X141121473Y-123070235D01*
X141121473Y-123070235D02*
X141152426Y-123039283D01*
X141152426Y-123039283D02*
X141214330Y-123008330D01*
X141214330Y-123008330D02*
X141369092Y-123008330D01*
X141369092Y-123008330D02*
X141430997Y-123039283D01*
X141430997Y-123039283D02*
X141461950Y-123070235D01*
X141461950Y-123070235D02*
X141492902Y-123132140D01*
X141492902Y-123132140D02*
X141492902Y-123317854D01*
X141492902Y-123317854D02*
X141461950Y-123379759D01*
X141461950Y-123379759D02*
X141430997Y-123410711D01*
X170254761Y-111542902D02*
X170254761Y-112069092D01*
X170254761Y-112069092D02*
X170285714Y-112130997D01*
X170285714Y-112130997D02*
X170316666Y-112161950D01*
X170316666Y-112161950D02*
X170378571Y-112192902D01*
X170378571Y-112192902D02*
X170502380Y-112192902D01*
X170502380Y-112192902D02*
X170564285Y-112161950D01*
X170564285Y-112161950D02*
X170595238Y-112130997D01*
X170595238Y-112130997D02*
X170626190Y-112069092D01*
X170626190Y-112069092D02*
X170626190Y-111542902D01*
X171276190Y-112192902D02*
X170904761Y-112192902D01*
X171090475Y-112192902D02*
X171090475Y-111542902D01*
X171090475Y-111542902D02*
X171028571Y-111635759D01*
X171028571Y-111635759D02*
X170966666Y-111697664D01*
X170966666Y-111697664D02*
X170904761Y-111728616D01*
X146190476Y-104183378D02*
X146190476Y-104492902D01*
X145973809Y-103842902D02*
X146190476Y-104183378D01*
X146190476Y-104183378D02*
X146407143Y-103842902D01*
X146561905Y-103842902D02*
X146964286Y-103842902D01*
X146964286Y-103842902D02*
X146747619Y-104090521D01*
X146747619Y-104090521D02*
X146840476Y-104090521D01*
X146840476Y-104090521D02*
X146902381Y-104121473D01*
X146902381Y-104121473D02*
X146933333Y-104152426D01*
X146933333Y-104152426D02*
X146964286Y-104214330D01*
X146964286Y-104214330D02*
X146964286Y-104369092D01*
X146964286Y-104369092D02*
X146933333Y-104430997D01*
X146933333Y-104430997D02*
X146902381Y-104461950D01*
X146902381Y-104461950D02*
X146840476Y-104492902D01*
X146840476Y-104492902D02*
X146654762Y-104492902D01*
X146654762Y-104492902D02*
X146592857Y-104461950D01*
X146592857Y-104461950D02*
X146561905Y-104430997D01*
X144191666Y-109280997D02*
X144160714Y-109311950D01*
X144160714Y-109311950D02*
X144067856Y-109342902D01*
X144067856Y-109342902D02*
X144005952Y-109342902D01*
X144005952Y-109342902D02*
X143913095Y-109311950D01*
X143913095Y-109311950D02*
X143851190Y-109250045D01*
X143851190Y-109250045D02*
X143820237Y-109188140D01*
X143820237Y-109188140D02*
X143789285Y-109064330D01*
X143789285Y-109064330D02*
X143789285Y-108971473D01*
X143789285Y-108971473D02*
X143820237Y-108847664D01*
X143820237Y-108847664D02*
X143851190Y-108785759D01*
X143851190Y-108785759D02*
X143913095Y-108723854D01*
X143913095Y-108723854D02*
X144005952Y-108692902D01*
X144005952Y-108692902D02*
X144067856Y-108692902D01*
X144067856Y-108692902D02*
X144160714Y-108723854D01*
X144160714Y-108723854D02*
X144191666Y-108754807D01*
X144748809Y-108692902D02*
X144624999Y-108692902D01*
X144624999Y-108692902D02*
X144563095Y-108723854D01*
X144563095Y-108723854D02*
X144532142Y-108754807D01*
X144532142Y-108754807D02*
X144470237Y-108847664D01*
X144470237Y-108847664D02*
X144439285Y-108971473D01*
X144439285Y-108971473D02*
X144439285Y-109219092D01*
X144439285Y-109219092D02*
X144470237Y-109280997D01*
X144470237Y-109280997D02*
X144501190Y-109311950D01*
X144501190Y-109311950D02*
X144563095Y-109342902D01*
X144563095Y-109342902D02*
X144686904Y-109342902D01*
X144686904Y-109342902D02*
X144748809Y-109311950D01*
X144748809Y-109311950D02*
X144779761Y-109280997D01*
X144779761Y-109280997D02*
X144810714Y-109219092D01*
X144810714Y-109219092D02*
X144810714Y-109064330D01*
X144810714Y-109064330D02*
X144779761Y-109002426D01*
X144779761Y-109002426D02*
X144748809Y-108971473D01*
X144748809Y-108971473D02*
X144686904Y-108940521D01*
X144686904Y-108940521D02*
X144563095Y-108940521D01*
X144563095Y-108940521D02*
X144501190Y-108971473D01*
X144501190Y-108971473D02*
X144470237Y-109002426D01*
X144470237Y-109002426D02*
X144439285Y-109064330D01*
X168341666Y-101242902D02*
X168124999Y-100933378D01*
X167970237Y-101242902D02*
X167970237Y-100592902D01*
X167970237Y-100592902D02*
X168217856Y-100592902D01*
X168217856Y-100592902D02*
X168279761Y-100623854D01*
X168279761Y-100623854D02*
X168310714Y-100654807D01*
X168310714Y-100654807D02*
X168341666Y-100716711D01*
X168341666Y-100716711D02*
X168341666Y-100809569D01*
X168341666Y-100809569D02*
X168310714Y-100871473D01*
X168310714Y-100871473D02*
X168279761Y-100902426D01*
X168279761Y-100902426D02*
X168217856Y-100933378D01*
X168217856Y-100933378D02*
X167970237Y-100933378D01*
X168960714Y-101242902D02*
X168589285Y-101242902D01*
X168774999Y-101242902D02*
X168774999Y-100592902D01*
X168774999Y-100592902D02*
X168713095Y-100685759D01*
X168713095Y-100685759D02*
X168651190Y-100747664D01*
X168651190Y-100747664D02*
X168589285Y-100778616D01*
X158341666Y-106692902D02*
X158124999Y-106383378D01*
X157970237Y-106692902D02*
X157970237Y-106042902D01*
X157970237Y-106042902D02*
X158217856Y-106042902D01*
X158217856Y-106042902D02*
X158279761Y-106073854D01*
X158279761Y-106073854D02*
X158310714Y-106104807D01*
X158310714Y-106104807D02*
X158341666Y-106166711D01*
X158341666Y-106166711D02*
X158341666Y-106259569D01*
X158341666Y-106259569D02*
X158310714Y-106321473D01*
X158310714Y-106321473D02*
X158279761Y-106352426D01*
X158279761Y-106352426D02*
X158217856Y-106383378D01*
X158217856Y-106383378D02*
X157970237Y-106383378D01*
X158558333Y-106042902D02*
X158991666Y-106042902D01*
X158991666Y-106042902D02*
X158713095Y-106692902D01*
X152980997Y-109558333D02*
X153011950Y-109589285D01*
X153011950Y-109589285D02*
X153042902Y-109682143D01*
X153042902Y-109682143D02*
X153042902Y-109744047D01*
X153042902Y-109744047D02*
X153011950Y-109836904D01*
X153011950Y-109836904D02*
X152950045Y-109898809D01*
X152950045Y-109898809D02*
X152888140Y-109929762D01*
X152888140Y-109929762D02*
X152764330Y-109960714D01*
X152764330Y-109960714D02*
X152671473Y-109960714D01*
X152671473Y-109960714D02*
X152547664Y-109929762D01*
X152547664Y-109929762D02*
X152485759Y-109898809D01*
X152485759Y-109898809D02*
X152423854Y-109836904D01*
X152423854Y-109836904D02*
X152392902Y-109744047D01*
X152392902Y-109744047D02*
X152392902Y-109682143D01*
X152392902Y-109682143D02*
X152423854Y-109589285D01*
X152423854Y-109589285D02*
X152454807Y-109558333D01*
X152609569Y-109001190D02*
X153042902Y-109001190D01*
X152361950Y-109155952D02*
X152826235Y-109310714D01*
X152826235Y-109310714D02*
X152826235Y-108908333D01*
X138482142Y-134892902D02*
X138265475Y-134583378D01*
X138110713Y-134892902D02*
X138110713Y-134242902D01*
X138110713Y-134242902D02*
X138358332Y-134242902D01*
X138358332Y-134242902D02*
X138420237Y-134273854D01*
X138420237Y-134273854D02*
X138451190Y-134304807D01*
X138451190Y-134304807D02*
X138482142Y-134366711D01*
X138482142Y-134366711D02*
X138482142Y-134459569D01*
X138482142Y-134459569D02*
X138451190Y-134521473D01*
X138451190Y-134521473D02*
X138420237Y-134552426D01*
X138420237Y-134552426D02*
X138358332Y-134583378D01*
X138358332Y-134583378D02*
X138110713Y-134583378D01*
X139101190Y-134892902D02*
X138729761Y-134892902D01*
X138915475Y-134892902D02*
X138915475Y-134242902D01*
X138915475Y-134242902D02*
X138853571Y-134335759D01*
X138853571Y-134335759D02*
X138791666Y-134397664D01*
X138791666Y-134397664D02*
X138729761Y-134428616D01*
X139503571Y-134242902D02*
X139565476Y-134242902D01*
X139565476Y-134242902D02*
X139627380Y-134273854D01*
X139627380Y-134273854D02*
X139658333Y-134304807D01*
X139658333Y-134304807D02*
X139689285Y-134366711D01*
X139689285Y-134366711D02*
X139720238Y-134490521D01*
X139720238Y-134490521D02*
X139720238Y-134645283D01*
X139720238Y-134645283D02*
X139689285Y-134769092D01*
X139689285Y-134769092D02*
X139658333Y-134830997D01*
X139658333Y-134830997D02*
X139627380Y-134861950D01*
X139627380Y-134861950D02*
X139565476Y-134892902D01*
X139565476Y-134892902D02*
X139503571Y-134892902D01*
X139503571Y-134892902D02*
X139441666Y-134861950D01*
X139441666Y-134861950D02*
X139410714Y-134830997D01*
X139410714Y-134830997D02*
X139379761Y-134769092D01*
X139379761Y-134769092D02*
X139348809Y-134645283D01*
X139348809Y-134645283D02*
X139348809Y-134490521D01*
X139348809Y-134490521D02*
X139379761Y-134366711D01*
X139379761Y-134366711D02*
X139410714Y-134304807D01*
X139410714Y-134304807D02*
X139441666Y-134273854D01*
X139441666Y-134273854D02*
X139503571Y-134242902D01*
X147033333Y-139292902D02*
X147033333Y-139757188D01*
X147033333Y-139757188D02*
X147002380Y-139850045D01*
X147002380Y-139850045D02*
X146940476Y-139911950D01*
X146940476Y-139911950D02*
X146847618Y-139942902D01*
X146847618Y-139942902D02*
X146785714Y-139942902D01*
X147621428Y-139292902D02*
X147497618Y-139292902D01*
X147497618Y-139292902D02*
X147435714Y-139323854D01*
X147435714Y-139323854D02*
X147404761Y-139354807D01*
X147404761Y-139354807D02*
X147342856Y-139447664D01*
X147342856Y-139447664D02*
X147311904Y-139571473D01*
X147311904Y-139571473D02*
X147311904Y-139819092D01*
X147311904Y-139819092D02*
X147342856Y-139880997D01*
X147342856Y-139880997D02*
X147373809Y-139911950D01*
X147373809Y-139911950D02*
X147435714Y-139942902D01*
X147435714Y-139942902D02*
X147559523Y-139942902D01*
X147559523Y-139942902D02*
X147621428Y-139911950D01*
X147621428Y-139911950D02*
X147652380Y-139880997D01*
X147652380Y-139880997D02*
X147683333Y-139819092D01*
X147683333Y-139819092D02*
X147683333Y-139664330D01*
X147683333Y-139664330D02*
X147652380Y-139602426D01*
X147652380Y-139602426D02*
X147621428Y-139571473D01*
X147621428Y-139571473D02*
X147559523Y-139540521D01*
X147559523Y-139540521D02*
X147435714Y-139540521D01*
X147435714Y-139540521D02*
X147373809Y-139571473D01*
X147373809Y-139571473D02*
X147342856Y-139602426D01*
X147342856Y-139602426D02*
X147311904Y-139664330D01*
X149182141Y-110530997D02*
X149151189Y-110561950D01*
X149151189Y-110561950D02*
X149058331Y-110592902D01*
X149058331Y-110592902D02*
X148996427Y-110592902D01*
X148996427Y-110592902D02*
X148903570Y-110561950D01*
X148903570Y-110561950D02*
X148841665Y-110500045D01*
X148841665Y-110500045D02*
X148810712Y-110438140D01*
X148810712Y-110438140D02*
X148779760Y-110314330D01*
X148779760Y-110314330D02*
X148779760Y-110221473D01*
X148779760Y-110221473D02*
X148810712Y-110097664D01*
X148810712Y-110097664D02*
X148841665Y-110035759D01*
X148841665Y-110035759D02*
X148903570Y-109973854D01*
X148903570Y-109973854D02*
X148996427Y-109942902D01*
X148996427Y-109942902D02*
X149058331Y-109942902D01*
X149058331Y-109942902D02*
X149151189Y-109973854D01*
X149151189Y-109973854D02*
X149182141Y-110004807D01*
X149429760Y-110004807D02*
X149460712Y-109973854D01*
X149460712Y-109973854D02*
X149522617Y-109942902D01*
X149522617Y-109942902D02*
X149677379Y-109942902D01*
X149677379Y-109942902D02*
X149739284Y-109973854D01*
X149739284Y-109973854D02*
X149770236Y-110004807D01*
X149770236Y-110004807D02*
X149801189Y-110066711D01*
X149801189Y-110066711D02*
X149801189Y-110128616D01*
X149801189Y-110128616D02*
X149770236Y-110221473D01*
X149770236Y-110221473D02*
X149398808Y-110592902D01*
X149398808Y-110592902D02*
X149801189Y-110592902D01*
X150203570Y-109942902D02*
X150265475Y-109942902D01*
X150265475Y-109942902D02*
X150327379Y-109973854D01*
X150327379Y-109973854D02*
X150358332Y-110004807D01*
X150358332Y-110004807D02*
X150389284Y-110066711D01*
X150389284Y-110066711D02*
X150420237Y-110190521D01*
X150420237Y-110190521D02*
X150420237Y-110345283D01*
X150420237Y-110345283D02*
X150389284Y-110469092D01*
X150389284Y-110469092D02*
X150358332Y-110530997D01*
X150358332Y-110530997D02*
X150327379Y-110561950D01*
X150327379Y-110561950D02*
X150265475Y-110592902D01*
X150265475Y-110592902D02*
X150203570Y-110592902D01*
X150203570Y-110592902D02*
X150141665Y-110561950D01*
X150141665Y-110561950D02*
X150110713Y-110530997D01*
X150110713Y-110530997D02*
X150079760Y-110469092D01*
X150079760Y-110469092D02*
X150048808Y-110345283D01*
X150048808Y-110345283D02*
X150048808Y-110190521D01*
X150048808Y-110190521D02*
X150079760Y-110066711D01*
X150079760Y-110066711D02*
X150110713Y-110004807D01*
X150110713Y-110004807D02*
X150141665Y-109973854D01*
X150141665Y-109973854D02*
X150203570Y-109942902D01*
X138992902Y-138467858D02*
X138683378Y-138684525D01*
X138992902Y-138839287D02*
X138342902Y-138839287D01*
X138342902Y-138839287D02*
X138342902Y-138591668D01*
X138342902Y-138591668D02*
X138373854Y-138529763D01*
X138373854Y-138529763D02*
X138404807Y-138498810D01*
X138404807Y-138498810D02*
X138466711Y-138467858D01*
X138466711Y-138467858D02*
X138559569Y-138467858D01*
X138559569Y-138467858D02*
X138621473Y-138498810D01*
X138621473Y-138498810D02*
X138652426Y-138529763D01*
X138652426Y-138529763D02*
X138683378Y-138591668D01*
X138683378Y-138591668D02*
X138683378Y-138839287D01*
X138992902Y-137848810D02*
X138992902Y-138220239D01*
X138992902Y-138034525D02*
X138342902Y-138034525D01*
X138342902Y-138034525D02*
X138435759Y-138096429D01*
X138435759Y-138096429D02*
X138497664Y-138158334D01*
X138497664Y-138158334D02*
X138528616Y-138220239D01*
X138404807Y-137601191D02*
X138373854Y-137570239D01*
X138373854Y-137570239D02*
X138342902Y-137508334D01*
X138342902Y-137508334D02*
X138342902Y-137353572D01*
X138342902Y-137353572D02*
X138373854Y-137291667D01*
X138373854Y-137291667D02*
X138404807Y-137260715D01*
X138404807Y-137260715D02*
X138466711Y-137229762D01*
X138466711Y-137229762D02*
X138528616Y-137229762D01*
X138528616Y-137229762D02*
X138621473Y-137260715D01*
X138621473Y-137260715D02*
X138992902Y-137632143D01*
X138992902Y-137632143D02*
X138992902Y-137229762D01*
X173004761Y-131842902D02*
X173004761Y-132369092D01*
X173004761Y-132369092D02*
X173035714Y-132430997D01*
X173035714Y-132430997D02*
X173066666Y-132461950D01*
X173066666Y-132461950D02*
X173128571Y-132492902D01*
X173128571Y-132492902D02*
X173252380Y-132492902D01*
X173252380Y-132492902D02*
X173314285Y-132461950D01*
X173314285Y-132461950D02*
X173345238Y-132430997D01*
X173345238Y-132430997D02*
X173376190Y-132369092D01*
X173376190Y-132369092D02*
X173376190Y-131842902D01*
X173995237Y-131842902D02*
X173685713Y-131842902D01*
X173685713Y-131842902D02*
X173654761Y-132152426D01*
X173654761Y-132152426D02*
X173685713Y-132121473D01*
X173685713Y-132121473D02*
X173747618Y-132090521D01*
X173747618Y-132090521D02*
X173902380Y-132090521D01*
X173902380Y-132090521D02*
X173964285Y-132121473D01*
X173964285Y-132121473D02*
X173995237Y-132152426D01*
X173995237Y-132152426D02*
X174026190Y-132214330D01*
X174026190Y-132214330D02*
X174026190Y-132369092D01*
X174026190Y-132369092D02*
X173995237Y-132430997D01*
X173995237Y-132430997D02*
X173964285Y-132461950D01*
X173964285Y-132461950D02*
X173902380Y-132492902D01*
X173902380Y-132492902D02*
X173747618Y-132492902D01*
X173747618Y-132492902D02*
X173685713Y-132461950D01*
X173685713Y-132461950D02*
X173654761Y-132430997D01*
X165341666Y-113480997D02*
X165310714Y-113511950D01*
X165310714Y-113511950D02*
X165217856Y-113542902D01*
X165217856Y-113542902D02*
X165155952Y-113542902D01*
X165155952Y-113542902D02*
X165063095Y-113511950D01*
X165063095Y-113511950D02*
X165001190Y-113450045D01*
X165001190Y-113450045D02*
X164970237Y-113388140D01*
X164970237Y-113388140D02*
X164939285Y-113264330D01*
X164939285Y-113264330D02*
X164939285Y-113171473D01*
X164939285Y-113171473D02*
X164970237Y-113047664D01*
X164970237Y-113047664D02*
X165001190Y-112985759D01*
X165001190Y-112985759D02*
X165063095Y-112923854D01*
X165063095Y-112923854D02*
X165155952Y-112892902D01*
X165155952Y-112892902D02*
X165217856Y-112892902D01*
X165217856Y-112892902D02*
X165310714Y-112923854D01*
X165310714Y-112923854D02*
X165341666Y-112954807D01*
X165651190Y-113542902D02*
X165774999Y-113542902D01*
X165774999Y-113542902D02*
X165836904Y-113511950D01*
X165836904Y-113511950D02*
X165867856Y-113480997D01*
X165867856Y-113480997D02*
X165929761Y-113388140D01*
X165929761Y-113388140D02*
X165960714Y-113264330D01*
X165960714Y-113264330D02*
X165960714Y-113016711D01*
X165960714Y-113016711D02*
X165929761Y-112954807D01*
X165929761Y-112954807D02*
X165898809Y-112923854D01*
X165898809Y-112923854D02*
X165836904Y-112892902D01*
X165836904Y-112892902D02*
X165713095Y-112892902D01*
X165713095Y-112892902D02*
X165651190Y-112923854D01*
X165651190Y-112923854D02*
X165620237Y-112954807D01*
X165620237Y-112954807D02*
X165589285Y-113016711D01*
X165589285Y-113016711D02*
X165589285Y-113171473D01*
X165589285Y-113171473D02*
X165620237Y-113233378D01*
X165620237Y-113233378D02*
X165651190Y-113264330D01*
X165651190Y-113264330D02*
X165713095Y-113295283D01*
X165713095Y-113295283D02*
X165836904Y-113295283D01*
X165836904Y-113295283D02*
X165898809Y-113264330D01*
X165898809Y-113264330D02*
X165929761Y-113233378D01*
X165929761Y-113233378D02*
X165960714Y-113171473D01*
X160872142Y-135230997D02*
X160841190Y-135261950D01*
X160841190Y-135261950D02*
X160748332Y-135292902D01*
X160748332Y-135292902D02*
X160686428Y-135292902D01*
X160686428Y-135292902D02*
X160593571Y-135261950D01*
X160593571Y-135261950D02*
X160531666Y-135200045D01*
X160531666Y-135200045D02*
X160500713Y-135138140D01*
X160500713Y-135138140D02*
X160469761Y-135014330D01*
X160469761Y-135014330D02*
X160469761Y-134921473D01*
X160469761Y-134921473D02*
X160500713Y-134797664D01*
X160500713Y-134797664D02*
X160531666Y-134735759D01*
X160531666Y-134735759D02*
X160593571Y-134673854D01*
X160593571Y-134673854D02*
X160686428Y-134642902D01*
X160686428Y-134642902D02*
X160748332Y-134642902D01*
X160748332Y-134642902D02*
X160841190Y-134673854D01*
X160841190Y-134673854D02*
X160872142Y-134704807D01*
X161491190Y-135292902D02*
X161119761Y-135292902D01*
X161305475Y-135292902D02*
X161305475Y-134642902D01*
X161305475Y-134642902D02*
X161243571Y-134735759D01*
X161243571Y-134735759D02*
X161181666Y-134797664D01*
X161181666Y-134797664D02*
X161119761Y-134828616D01*
X161707857Y-134642902D02*
X162141190Y-134642902D01*
X162141190Y-134642902D02*
X161862619Y-135292902D01*
X143092902Y-121058333D02*
X142783378Y-121275000D01*
X143092902Y-121429762D02*
X142442902Y-121429762D01*
X142442902Y-121429762D02*
X142442902Y-121182143D01*
X142442902Y-121182143D02*
X142473854Y-121120238D01*
X142473854Y-121120238D02*
X142504807Y-121089285D01*
X142504807Y-121089285D02*
X142566711Y-121058333D01*
X142566711Y-121058333D02*
X142659569Y-121058333D01*
X142659569Y-121058333D02*
X142721473Y-121089285D01*
X142721473Y-121089285D02*
X142752426Y-121120238D01*
X142752426Y-121120238D02*
X142783378Y-121182143D01*
X142783378Y-121182143D02*
X142783378Y-121429762D01*
X142721473Y-120686904D02*
X142690521Y-120748809D01*
X142690521Y-120748809D02*
X142659569Y-120779762D01*
X142659569Y-120779762D02*
X142597664Y-120810714D01*
X142597664Y-120810714D02*
X142566711Y-120810714D01*
X142566711Y-120810714D02*
X142504807Y-120779762D01*
X142504807Y-120779762D02*
X142473854Y-120748809D01*
X142473854Y-120748809D02*
X142442902Y-120686904D01*
X142442902Y-120686904D02*
X142442902Y-120563095D01*
X142442902Y-120563095D02*
X142473854Y-120501190D01*
X142473854Y-120501190D02*
X142504807Y-120470238D01*
X142504807Y-120470238D02*
X142566711Y-120439285D01*
X142566711Y-120439285D02*
X142597664Y-120439285D01*
X142597664Y-120439285D02*
X142659569Y-120470238D01*
X142659569Y-120470238D02*
X142690521Y-120501190D01*
X142690521Y-120501190D02*
X142721473Y-120563095D01*
X142721473Y-120563095D02*
X142721473Y-120686904D01*
X142721473Y-120686904D02*
X142752426Y-120748809D01*
X142752426Y-120748809D02*
X142783378Y-120779762D01*
X142783378Y-120779762D02*
X142845283Y-120810714D01*
X142845283Y-120810714D02*
X142969092Y-120810714D01*
X142969092Y-120810714D02*
X143030997Y-120779762D01*
X143030997Y-120779762D02*
X143061950Y-120748809D01*
X143061950Y-120748809D02*
X143092902Y-120686904D01*
X143092902Y-120686904D02*
X143092902Y-120563095D01*
X143092902Y-120563095D02*
X143061950Y-120501190D01*
X143061950Y-120501190D02*
X143030997Y-120470238D01*
X143030997Y-120470238D02*
X142969092Y-120439285D01*
X142969092Y-120439285D02*
X142845283Y-120439285D01*
X142845283Y-120439285D02*
X142783378Y-120470238D01*
X142783378Y-120470238D02*
X142752426Y-120501190D01*
X142752426Y-120501190D02*
X142721473Y-120563095D01*
X137632142Y-119230997D02*
X137601190Y-119261950D01*
X137601190Y-119261950D02*
X137508332Y-119292902D01*
X137508332Y-119292902D02*
X137446428Y-119292902D01*
X137446428Y-119292902D02*
X137353571Y-119261950D01*
X137353571Y-119261950D02*
X137291666Y-119200045D01*
X137291666Y-119200045D02*
X137260713Y-119138140D01*
X137260713Y-119138140D02*
X137229761Y-119014330D01*
X137229761Y-119014330D02*
X137229761Y-118921473D01*
X137229761Y-118921473D02*
X137260713Y-118797664D01*
X137260713Y-118797664D02*
X137291666Y-118735759D01*
X137291666Y-118735759D02*
X137353571Y-118673854D01*
X137353571Y-118673854D02*
X137446428Y-118642902D01*
X137446428Y-118642902D02*
X137508332Y-118642902D01*
X137508332Y-118642902D02*
X137601190Y-118673854D01*
X137601190Y-118673854D02*
X137632142Y-118704807D01*
X138251190Y-119292902D02*
X137879761Y-119292902D01*
X138065475Y-119292902D02*
X138065475Y-118642902D01*
X138065475Y-118642902D02*
X138003571Y-118735759D01*
X138003571Y-118735759D02*
X137941666Y-118797664D01*
X137941666Y-118797664D02*
X137879761Y-118828616D01*
X138622619Y-118921473D02*
X138560714Y-118890521D01*
X138560714Y-118890521D02*
X138529761Y-118859569D01*
X138529761Y-118859569D02*
X138498809Y-118797664D01*
X138498809Y-118797664D02*
X138498809Y-118766711D01*
X138498809Y-118766711D02*
X138529761Y-118704807D01*
X138529761Y-118704807D02*
X138560714Y-118673854D01*
X138560714Y-118673854D02*
X138622619Y-118642902D01*
X138622619Y-118642902D02*
X138746428Y-118642902D01*
X138746428Y-118642902D02*
X138808333Y-118673854D01*
X138808333Y-118673854D02*
X138839285Y-118704807D01*
X138839285Y-118704807D02*
X138870238Y-118766711D01*
X138870238Y-118766711D02*
X138870238Y-118797664D01*
X138870238Y-118797664D02*
X138839285Y-118859569D01*
X138839285Y-118859569D02*
X138808333Y-118890521D01*
X138808333Y-118890521D02*
X138746428Y-118921473D01*
X138746428Y-118921473D02*
X138622619Y-118921473D01*
X138622619Y-118921473D02*
X138560714Y-118952426D01*
X138560714Y-118952426D02*
X138529761Y-118983378D01*
X138529761Y-118983378D02*
X138498809Y-119045283D01*
X138498809Y-119045283D02*
X138498809Y-119169092D01*
X138498809Y-119169092D02*
X138529761Y-119230997D01*
X138529761Y-119230997D02*
X138560714Y-119261950D01*
X138560714Y-119261950D02*
X138622619Y-119292902D01*
X138622619Y-119292902D02*
X138746428Y-119292902D01*
X138746428Y-119292902D02*
X138808333Y-119261950D01*
X138808333Y-119261950D02*
X138839285Y-119230997D01*
X138839285Y-119230997D02*
X138870238Y-119169092D01*
X138870238Y-119169092D02*
X138870238Y-119045283D01*
X138870238Y-119045283D02*
X138839285Y-118983378D01*
X138839285Y-118983378D02*
X138808333Y-118952426D01*
X138808333Y-118952426D02*
X138746428Y-118921473D01*
X164732142Y-111930997D02*
X164701190Y-111961950D01*
X164701190Y-111961950D02*
X164608332Y-111992902D01*
X164608332Y-111992902D02*
X164546428Y-111992902D01*
X164546428Y-111992902D02*
X164453571Y-111961950D01*
X164453571Y-111961950D02*
X164391666Y-111900045D01*
X164391666Y-111900045D02*
X164360713Y-111838140D01*
X164360713Y-111838140D02*
X164329761Y-111714330D01*
X164329761Y-111714330D02*
X164329761Y-111621473D01*
X164329761Y-111621473D02*
X164360713Y-111497664D01*
X164360713Y-111497664D02*
X164391666Y-111435759D01*
X164391666Y-111435759D02*
X164453571Y-111373854D01*
X164453571Y-111373854D02*
X164546428Y-111342902D01*
X164546428Y-111342902D02*
X164608332Y-111342902D01*
X164608332Y-111342902D02*
X164701190Y-111373854D01*
X164701190Y-111373854D02*
X164732142Y-111404807D01*
X165351190Y-111992902D02*
X164979761Y-111992902D01*
X165165475Y-111992902D02*
X165165475Y-111342902D01*
X165165475Y-111342902D02*
X165103571Y-111435759D01*
X165103571Y-111435759D02*
X165041666Y-111497664D01*
X165041666Y-111497664D02*
X164979761Y-111528616D01*
X165753571Y-111342902D02*
X165815476Y-111342902D01*
X165815476Y-111342902D02*
X165877380Y-111373854D01*
X165877380Y-111373854D02*
X165908333Y-111404807D01*
X165908333Y-111404807D02*
X165939285Y-111466711D01*
X165939285Y-111466711D02*
X165970238Y-111590521D01*
X165970238Y-111590521D02*
X165970238Y-111745283D01*
X165970238Y-111745283D02*
X165939285Y-111869092D01*
X165939285Y-111869092D02*
X165908333Y-111930997D01*
X165908333Y-111930997D02*
X165877380Y-111961950D01*
X165877380Y-111961950D02*
X165815476Y-111992902D01*
X165815476Y-111992902D02*
X165753571Y-111992902D01*
X165753571Y-111992902D02*
X165691666Y-111961950D01*
X165691666Y-111961950D02*
X165660714Y-111930997D01*
X165660714Y-111930997D02*
X165629761Y-111869092D01*
X165629761Y-111869092D02*
X165598809Y-111745283D01*
X165598809Y-111745283D02*
X165598809Y-111590521D01*
X165598809Y-111590521D02*
X165629761Y-111466711D01*
X165629761Y-111466711D02*
X165660714Y-111404807D01*
X165660714Y-111404807D02*
X165691666Y-111373854D01*
X165691666Y-111373854D02*
X165753571Y-111342902D01*
X166066666Y-104042902D02*
X165849999Y-103733378D01*
X165695237Y-104042902D02*
X165695237Y-103392902D01*
X165695237Y-103392902D02*
X165942856Y-103392902D01*
X165942856Y-103392902D02*
X166004761Y-103423854D01*
X166004761Y-103423854D02*
X166035714Y-103454807D01*
X166035714Y-103454807D02*
X166066666Y-103516711D01*
X166066666Y-103516711D02*
X166066666Y-103609569D01*
X166066666Y-103609569D02*
X166035714Y-103671473D01*
X166035714Y-103671473D02*
X166004761Y-103702426D01*
X166004761Y-103702426D02*
X165942856Y-103733378D01*
X165942856Y-103733378D02*
X165695237Y-103733378D01*
X166283333Y-103392902D02*
X166685714Y-103392902D01*
X166685714Y-103392902D02*
X166469047Y-103640521D01*
X166469047Y-103640521D02*
X166561904Y-103640521D01*
X166561904Y-103640521D02*
X166623809Y-103671473D01*
X166623809Y-103671473D02*
X166654761Y-103702426D01*
X166654761Y-103702426D02*
X166685714Y-103764330D01*
X166685714Y-103764330D02*
X166685714Y-103919092D01*
X166685714Y-103919092D02*
X166654761Y-103980997D01*
X166654761Y-103980997D02*
X166623809Y-104011950D01*
X166623809Y-104011950D02*
X166561904Y-104042902D01*
X166561904Y-104042902D02*
X166376190Y-104042902D01*
X166376190Y-104042902D02*
X166314285Y-104011950D01*
X166314285Y-104011950D02*
X166283333Y-103980997D01*
X144404761Y-135492902D02*
X144404761Y-136019092D01*
X144404761Y-136019092D02*
X144435714Y-136080997D01*
X144435714Y-136080997D02*
X144466666Y-136111950D01*
X144466666Y-136111950D02*
X144528571Y-136142902D01*
X144528571Y-136142902D02*
X144652380Y-136142902D01*
X144652380Y-136142902D02*
X144714285Y-136111950D01*
X144714285Y-136111950D02*
X144745238Y-136080997D01*
X144745238Y-136080997D02*
X144776190Y-136019092D01*
X144776190Y-136019092D02*
X144776190Y-135492902D01*
X145364285Y-135492902D02*
X145240475Y-135492902D01*
X145240475Y-135492902D02*
X145178571Y-135523854D01*
X145178571Y-135523854D02*
X145147618Y-135554807D01*
X145147618Y-135554807D02*
X145085713Y-135647664D01*
X145085713Y-135647664D02*
X145054761Y-135771473D01*
X145054761Y-135771473D02*
X145054761Y-136019092D01*
X145054761Y-136019092D02*
X145085713Y-136080997D01*
X145085713Y-136080997D02*
X145116666Y-136111950D01*
X145116666Y-136111950D02*
X145178571Y-136142902D01*
X145178571Y-136142902D02*
X145302380Y-136142902D01*
X145302380Y-136142902D02*
X145364285Y-136111950D01*
X145364285Y-136111950D02*
X145395237Y-136080997D01*
X145395237Y-136080997D02*
X145426190Y-136019092D01*
X145426190Y-136019092D02*
X145426190Y-135864330D01*
X145426190Y-135864330D02*
X145395237Y-135802426D01*
X145395237Y-135802426D02*
X145364285Y-135771473D01*
X145364285Y-135771473D02*
X145302380Y-135740521D01*
X145302380Y-135740521D02*
X145178571Y-135740521D01*
X145178571Y-135740521D02*
X145116666Y-135771473D01*
X145116666Y-135771473D02*
X145085713Y-135802426D01*
X145085713Y-135802426D02*
X145054761Y-135864330D01*
X163483333Y-112042902D02*
X163483333Y-112507188D01*
X163483333Y-112507188D02*
X163452380Y-112600045D01*
X163452380Y-112600045D02*
X163390476Y-112661950D01*
X163390476Y-112661950D02*
X163297618Y-112692902D01*
X163297618Y-112692902D02*
X163235714Y-112692902D01*
X163761904Y-112104807D02*
X163792856Y-112073854D01*
X163792856Y-112073854D02*
X163854761Y-112042902D01*
X163854761Y-112042902D02*
X164009523Y-112042902D01*
X164009523Y-112042902D02*
X164071428Y-112073854D01*
X164071428Y-112073854D02*
X164102380Y-112104807D01*
X164102380Y-112104807D02*
X164133333Y-112166711D01*
X164133333Y-112166711D02*
X164133333Y-112228616D01*
X164133333Y-112228616D02*
X164102380Y-112321473D01*
X164102380Y-112321473D02*
X163730952Y-112692902D01*
X163730952Y-112692902D02*
X164133333Y-112692902D01*
X163170237Y-107892902D02*
X163170237Y-107242902D01*
X163170237Y-107242902D02*
X163324999Y-107242902D01*
X163324999Y-107242902D02*
X163417856Y-107273854D01*
X163417856Y-107273854D02*
X163479761Y-107335759D01*
X163479761Y-107335759D02*
X163510714Y-107397664D01*
X163510714Y-107397664D02*
X163541666Y-107521473D01*
X163541666Y-107521473D02*
X163541666Y-107614330D01*
X163541666Y-107614330D02*
X163510714Y-107738140D01*
X163510714Y-107738140D02*
X163479761Y-107800045D01*
X163479761Y-107800045D02*
X163417856Y-107861950D01*
X163417856Y-107861950D02*
X163324999Y-107892902D01*
X163324999Y-107892902D02*
X163170237Y-107892902D01*
X163758333Y-107242902D02*
X164160714Y-107242902D01*
X164160714Y-107242902D02*
X163944047Y-107490521D01*
X163944047Y-107490521D02*
X164036904Y-107490521D01*
X164036904Y-107490521D02*
X164098809Y-107521473D01*
X164098809Y-107521473D02*
X164129761Y-107552426D01*
X164129761Y-107552426D02*
X164160714Y-107614330D01*
X164160714Y-107614330D02*
X164160714Y-107769092D01*
X164160714Y-107769092D02*
X164129761Y-107830997D01*
X164129761Y-107830997D02*
X164098809Y-107861950D01*
X164098809Y-107861950D02*
X164036904Y-107892902D01*
X164036904Y-107892902D02*
X163851190Y-107892902D01*
X163851190Y-107892902D02*
X163789285Y-107861950D01*
X163789285Y-107861950D02*
X163758333Y-107830997D01*
X152133333Y-122442902D02*
X152133333Y-122907188D01*
X152133333Y-122907188D02*
X152102380Y-123000045D01*
X152102380Y-123000045D02*
X152040476Y-123061950D01*
X152040476Y-123061950D02*
X151947618Y-123092902D01*
X151947618Y-123092902D02*
X151885714Y-123092902D01*
X152752380Y-122442902D02*
X152442856Y-122442902D01*
X152442856Y-122442902D02*
X152411904Y-122752426D01*
X152411904Y-122752426D02*
X152442856Y-122721473D01*
X152442856Y-122721473D02*
X152504761Y-122690521D01*
X152504761Y-122690521D02*
X152659523Y-122690521D01*
X152659523Y-122690521D02*
X152721428Y-122721473D01*
X152721428Y-122721473D02*
X152752380Y-122752426D01*
X152752380Y-122752426D02*
X152783333Y-122814330D01*
X152783333Y-122814330D02*
X152783333Y-122969092D01*
X152783333Y-122969092D02*
X152752380Y-123030997D01*
X152752380Y-123030997D02*
X152721428Y-123061950D01*
X152721428Y-123061950D02*
X152659523Y-123092902D01*
X152659523Y-123092902D02*
X152504761Y-123092902D01*
X152504761Y-123092902D02*
X152442856Y-123061950D01*
X152442856Y-123061950D02*
X152411904Y-123030997D01*
X172483333Y-139192902D02*
X172483333Y-139657188D01*
X172483333Y-139657188D02*
X172452380Y-139750045D01*
X172452380Y-139750045D02*
X172390476Y-139811950D01*
X172390476Y-139811950D02*
X172297618Y-139842902D01*
X172297618Y-139842902D02*
X172235714Y-139842902D01*
X172730952Y-139192902D02*
X173164285Y-139192902D01*
X173164285Y-139192902D02*
X172885714Y-139842902D01*
X159783333Y-99192902D02*
X159783333Y-99657188D01*
X159783333Y-99657188D02*
X159752380Y-99750045D01*
X159752380Y-99750045D02*
X159690476Y-99811950D01*
X159690476Y-99811950D02*
X159597618Y-99842902D01*
X159597618Y-99842902D02*
X159535714Y-99842902D01*
X160433333Y-99842902D02*
X160061904Y-99842902D01*
X160247618Y-99842902D02*
X160247618Y-99192902D01*
X160247618Y-99192902D02*
X160185714Y-99285759D01*
X160185714Y-99285759D02*
X160123809Y-99347664D01*
X160123809Y-99347664D02*
X160061904Y-99378616D01*
X162814761Y-141442902D02*
X162814761Y-141969092D01*
X162814761Y-141969092D02*
X162845714Y-142030997D01*
X162845714Y-142030997D02*
X162876666Y-142061950D01*
X162876666Y-142061950D02*
X162938571Y-142092902D01*
X162938571Y-142092902D02*
X163062380Y-142092902D01*
X163062380Y-142092902D02*
X163124285Y-142061950D01*
X163124285Y-142061950D02*
X163155238Y-142030997D01*
X163155238Y-142030997D02*
X163186190Y-141969092D01*
X163186190Y-141969092D02*
X163186190Y-141442902D01*
X163433809Y-141442902D02*
X163836190Y-141442902D01*
X163836190Y-141442902D02*
X163619523Y-141690521D01*
X163619523Y-141690521D02*
X163712380Y-141690521D01*
X163712380Y-141690521D02*
X163774285Y-141721473D01*
X163774285Y-141721473D02*
X163805237Y-141752426D01*
X163805237Y-141752426D02*
X163836190Y-141814330D01*
X163836190Y-141814330D02*
X163836190Y-141969092D01*
X163836190Y-141969092D02*
X163805237Y-142030997D01*
X163805237Y-142030997D02*
X163774285Y-142061950D01*
X163774285Y-142061950D02*
X163712380Y-142092902D01*
X163712380Y-142092902D02*
X163526666Y-142092902D01*
X163526666Y-142092902D02*
X163464761Y-142061950D01*
X163464761Y-142061950D02*
X163433809Y-142030997D01*
X151891666Y-122230997D02*
X151860714Y-122261950D01*
X151860714Y-122261950D02*
X151767856Y-122292902D01*
X151767856Y-122292902D02*
X151705952Y-122292902D01*
X151705952Y-122292902D02*
X151613095Y-122261950D01*
X151613095Y-122261950D02*
X151551190Y-122200045D01*
X151551190Y-122200045D02*
X151520237Y-122138140D01*
X151520237Y-122138140D02*
X151489285Y-122014330D01*
X151489285Y-122014330D02*
X151489285Y-121921473D01*
X151489285Y-121921473D02*
X151520237Y-121797664D01*
X151520237Y-121797664D02*
X151551190Y-121735759D01*
X151551190Y-121735759D02*
X151613095Y-121673854D01*
X151613095Y-121673854D02*
X151705952Y-121642902D01*
X151705952Y-121642902D02*
X151767856Y-121642902D01*
X151767856Y-121642902D02*
X151860714Y-121673854D01*
X151860714Y-121673854D02*
X151891666Y-121704807D01*
X152139285Y-121704807D02*
X152170237Y-121673854D01*
X152170237Y-121673854D02*
X152232142Y-121642902D01*
X152232142Y-121642902D02*
X152386904Y-121642902D01*
X152386904Y-121642902D02*
X152448809Y-121673854D01*
X152448809Y-121673854D02*
X152479761Y-121704807D01*
X152479761Y-121704807D02*
X152510714Y-121766711D01*
X152510714Y-121766711D02*
X152510714Y-121828616D01*
X152510714Y-121828616D02*
X152479761Y-121921473D01*
X152479761Y-121921473D02*
X152108333Y-122292902D01*
X152108333Y-122292902D02*
X152510714Y-122292902D01*
X173492902Y-123258333D02*
X173492902Y-123567857D01*
X173492902Y-123567857D02*
X172842902Y-123567857D01*
X172904807Y-123072619D02*
X172873854Y-123041667D01*
X172873854Y-123041667D02*
X172842902Y-122979762D01*
X172842902Y-122979762D02*
X172842902Y-122825000D01*
X172842902Y-122825000D02*
X172873854Y-122763095D01*
X172873854Y-122763095D02*
X172904807Y-122732143D01*
X172904807Y-122732143D02*
X172966711Y-122701190D01*
X172966711Y-122701190D02*
X173028616Y-122701190D01*
X173028616Y-122701190D02*
X173121473Y-122732143D01*
X173121473Y-122732143D02*
X173492902Y-123103571D01*
X173492902Y-123103571D02*
X173492902Y-122701190D01*
X153590476Y-104283378D02*
X153590476Y-104592902D01*
X153373809Y-103942902D02*
X153590476Y-104283378D01*
X153590476Y-104283378D02*
X153807143Y-103942902D01*
X154302381Y-104159569D02*
X154302381Y-104592902D01*
X154147619Y-103911950D02*
X153992857Y-104376235D01*
X153992857Y-104376235D02*
X154395238Y-104376235D01*
X181642902Y-138467857D02*
X181333378Y-138684524D01*
X181642902Y-138839286D02*
X180992902Y-138839286D01*
X180992902Y-138839286D02*
X180992902Y-138591667D01*
X180992902Y-138591667D02*
X181023854Y-138529762D01*
X181023854Y-138529762D02*
X181054807Y-138498809D01*
X181054807Y-138498809D02*
X181116711Y-138467857D01*
X181116711Y-138467857D02*
X181209569Y-138467857D01*
X181209569Y-138467857D02*
X181271473Y-138498809D01*
X181271473Y-138498809D02*
X181302426Y-138529762D01*
X181302426Y-138529762D02*
X181333378Y-138591667D01*
X181333378Y-138591667D02*
X181333378Y-138839286D01*
X181642902Y-137848809D02*
X181642902Y-138220238D01*
X181642902Y-138034524D02*
X180992902Y-138034524D01*
X180992902Y-138034524D02*
X181085759Y-138096428D01*
X181085759Y-138096428D02*
X181147664Y-138158333D01*
X181147664Y-138158333D02*
X181178616Y-138220238D01*
X180992902Y-137632142D02*
X180992902Y-137229761D01*
X180992902Y-137229761D02*
X181240521Y-137446428D01*
X181240521Y-137446428D02*
X181240521Y-137353571D01*
X181240521Y-137353571D02*
X181271473Y-137291666D01*
X181271473Y-137291666D02*
X181302426Y-137260714D01*
X181302426Y-137260714D02*
X181364330Y-137229761D01*
X181364330Y-137229761D02*
X181519092Y-137229761D01*
X181519092Y-137229761D02*
X181580997Y-137260714D01*
X181580997Y-137260714D02*
X181611950Y-137291666D01*
X181611950Y-137291666D02*
X181642902Y-137353571D01*
X181642902Y-137353571D02*
X181642902Y-137539285D01*
X181642902Y-137539285D02*
X181611950Y-137601190D01*
X181611950Y-137601190D02*
X181580997Y-137632142D01*
X172730997Y-107467857D02*
X172761950Y-107498809D01*
X172761950Y-107498809D02*
X172792902Y-107591667D01*
X172792902Y-107591667D02*
X172792902Y-107653571D01*
X172792902Y-107653571D02*
X172761950Y-107746428D01*
X172761950Y-107746428D02*
X172700045Y-107808333D01*
X172700045Y-107808333D02*
X172638140Y-107839286D01*
X172638140Y-107839286D02*
X172514330Y-107870238D01*
X172514330Y-107870238D02*
X172421473Y-107870238D01*
X172421473Y-107870238D02*
X172297664Y-107839286D01*
X172297664Y-107839286D02*
X172235759Y-107808333D01*
X172235759Y-107808333D02*
X172173854Y-107746428D01*
X172173854Y-107746428D02*
X172142902Y-107653571D01*
X172142902Y-107653571D02*
X172142902Y-107591667D01*
X172142902Y-107591667D02*
X172173854Y-107498809D01*
X172173854Y-107498809D02*
X172204807Y-107467857D01*
X172792902Y-106848809D02*
X172792902Y-107220238D01*
X172792902Y-107034524D02*
X172142902Y-107034524D01*
X172142902Y-107034524D02*
X172235759Y-107096428D01*
X172235759Y-107096428D02*
X172297664Y-107158333D01*
X172297664Y-107158333D02*
X172328616Y-107220238D01*
X172204807Y-106601190D02*
X172173854Y-106570238D01*
X172173854Y-106570238D02*
X172142902Y-106508333D01*
X172142902Y-106508333D02*
X172142902Y-106353571D01*
X172142902Y-106353571D02*
X172173854Y-106291666D01*
X172173854Y-106291666D02*
X172204807Y-106260714D01*
X172204807Y-106260714D02*
X172266711Y-106229761D01*
X172266711Y-106229761D02*
X172328616Y-106229761D01*
X172328616Y-106229761D02*
X172421473Y-106260714D01*
X172421473Y-106260714D02*
X172792902Y-106632142D01*
X172792902Y-106632142D02*
X172792902Y-106229761D01*
X165412902Y-139817857D02*
X165103378Y-140034524D01*
X165412902Y-140189286D02*
X164762902Y-140189286D01*
X164762902Y-140189286D02*
X164762902Y-139941667D01*
X164762902Y-139941667D02*
X164793854Y-139879762D01*
X164793854Y-139879762D02*
X164824807Y-139848809D01*
X164824807Y-139848809D02*
X164886711Y-139817857D01*
X164886711Y-139817857D02*
X164979569Y-139817857D01*
X164979569Y-139817857D02*
X165041473Y-139848809D01*
X165041473Y-139848809D02*
X165072426Y-139879762D01*
X165072426Y-139879762D02*
X165103378Y-139941667D01*
X165103378Y-139941667D02*
X165103378Y-140189286D01*
X165412902Y-139198809D02*
X165412902Y-139570238D01*
X165412902Y-139384524D02*
X164762902Y-139384524D01*
X164762902Y-139384524D02*
X164855759Y-139446428D01*
X164855759Y-139446428D02*
X164917664Y-139508333D01*
X164917664Y-139508333D02*
X164948616Y-139570238D01*
X165412902Y-138579761D02*
X165412902Y-138951190D01*
X165412902Y-138765476D02*
X164762902Y-138765476D01*
X164762902Y-138765476D02*
X164855759Y-138827380D01*
X164855759Y-138827380D02*
X164917664Y-138889285D01*
X164917664Y-138889285D02*
X164948616Y-138951190D01*
X166990476Y-115533378D02*
X166990476Y-115842902D01*
X166773809Y-115192902D02*
X166990476Y-115533378D01*
X166990476Y-115533378D02*
X167207143Y-115192902D01*
X167764286Y-115842902D02*
X167392857Y-115842902D01*
X167578571Y-115842902D02*
X167578571Y-115192902D01*
X167578571Y-115192902D02*
X167516667Y-115285759D01*
X167516667Y-115285759D02*
X167454762Y-115347664D01*
X167454762Y-115347664D02*
X167392857Y-115378616D01*
X175080997Y-122808333D02*
X175111950Y-122839285D01*
X175111950Y-122839285D02*
X175142902Y-122932143D01*
X175142902Y-122932143D02*
X175142902Y-122994047D01*
X175142902Y-122994047D02*
X175111950Y-123086904D01*
X175111950Y-123086904D02*
X175050045Y-123148809D01*
X175050045Y-123148809D02*
X174988140Y-123179762D01*
X174988140Y-123179762D02*
X174864330Y-123210714D01*
X174864330Y-123210714D02*
X174771473Y-123210714D01*
X174771473Y-123210714D02*
X174647664Y-123179762D01*
X174647664Y-123179762D02*
X174585759Y-123148809D01*
X174585759Y-123148809D02*
X174523854Y-123086904D01*
X174523854Y-123086904D02*
X174492902Y-122994047D01*
X174492902Y-122994047D02*
X174492902Y-122932143D01*
X174492902Y-122932143D02*
X174523854Y-122839285D01*
X174523854Y-122839285D02*
X174554807Y-122808333D01*
X174492902Y-122591666D02*
X174492902Y-122158333D01*
X174492902Y-122158333D02*
X175142902Y-122436904D01*
X156191666Y-109392902D02*
X155974999Y-109083378D01*
X155820237Y-109392902D02*
X155820237Y-108742902D01*
X155820237Y-108742902D02*
X156067856Y-108742902D01*
X156067856Y-108742902D02*
X156129761Y-108773854D01*
X156129761Y-108773854D02*
X156160714Y-108804807D01*
X156160714Y-108804807D02*
X156191666Y-108866711D01*
X156191666Y-108866711D02*
X156191666Y-108959569D01*
X156191666Y-108959569D02*
X156160714Y-109021473D01*
X156160714Y-109021473D02*
X156129761Y-109052426D01*
X156129761Y-109052426D02*
X156067856Y-109083378D01*
X156067856Y-109083378D02*
X155820237Y-109083378D01*
X156748809Y-108742902D02*
X156624999Y-108742902D01*
X156624999Y-108742902D02*
X156563095Y-108773854D01*
X156563095Y-108773854D02*
X156532142Y-108804807D01*
X156532142Y-108804807D02*
X156470237Y-108897664D01*
X156470237Y-108897664D02*
X156439285Y-109021473D01*
X156439285Y-109021473D02*
X156439285Y-109269092D01*
X156439285Y-109269092D02*
X156470237Y-109330997D01*
X156470237Y-109330997D02*
X156501190Y-109361950D01*
X156501190Y-109361950D02*
X156563095Y-109392902D01*
X156563095Y-109392902D02*
X156686904Y-109392902D01*
X156686904Y-109392902D02*
X156748809Y-109361950D01*
X156748809Y-109361950D02*
X156779761Y-109330997D01*
X156779761Y-109330997D02*
X156810714Y-109269092D01*
X156810714Y-109269092D02*
X156810714Y-109114330D01*
X156810714Y-109114330D02*
X156779761Y-109052426D01*
X156779761Y-109052426D02*
X156748809Y-109021473D01*
X156748809Y-109021473D02*
X156686904Y-108990521D01*
X156686904Y-108990521D02*
X156563095Y-108990521D01*
X156563095Y-108990521D02*
X156501190Y-109021473D01*
X156501190Y-109021473D02*
X156470237Y-109052426D01*
X156470237Y-109052426D02*
X156439285Y-109114330D01*
X167741666Y-104042902D02*
X167524999Y-103733378D01*
X167370237Y-104042902D02*
X167370237Y-103392902D01*
X167370237Y-103392902D02*
X167617856Y-103392902D01*
X167617856Y-103392902D02*
X167679761Y-103423854D01*
X167679761Y-103423854D02*
X167710714Y-103454807D01*
X167710714Y-103454807D02*
X167741666Y-103516711D01*
X167741666Y-103516711D02*
X167741666Y-103609569D01*
X167741666Y-103609569D02*
X167710714Y-103671473D01*
X167710714Y-103671473D02*
X167679761Y-103702426D01*
X167679761Y-103702426D02*
X167617856Y-103733378D01*
X167617856Y-103733378D02*
X167370237Y-103733378D01*
X167989285Y-103454807D02*
X168020237Y-103423854D01*
X168020237Y-103423854D02*
X168082142Y-103392902D01*
X168082142Y-103392902D02*
X168236904Y-103392902D01*
X168236904Y-103392902D02*
X168298809Y-103423854D01*
X168298809Y-103423854D02*
X168329761Y-103454807D01*
X168329761Y-103454807D02*
X168360714Y-103516711D01*
X168360714Y-103516711D02*
X168360714Y-103578616D01*
X168360714Y-103578616D02*
X168329761Y-103671473D01*
X168329761Y-103671473D02*
X167958333Y-104042902D01*
X167958333Y-104042902D02*
X168360714Y-104042902D01*
X140391666Y-115180997D02*
X140360714Y-115211950D01*
X140360714Y-115211950D02*
X140267856Y-115242902D01*
X140267856Y-115242902D02*
X140205952Y-115242902D01*
X140205952Y-115242902D02*
X140113095Y-115211950D01*
X140113095Y-115211950D02*
X140051190Y-115150045D01*
X140051190Y-115150045D02*
X140020237Y-115088140D01*
X140020237Y-115088140D02*
X139989285Y-114964330D01*
X139989285Y-114964330D02*
X139989285Y-114871473D01*
X139989285Y-114871473D02*
X140020237Y-114747664D01*
X140020237Y-114747664D02*
X140051190Y-114685759D01*
X140051190Y-114685759D02*
X140113095Y-114623854D01*
X140113095Y-114623854D02*
X140205952Y-114592902D01*
X140205952Y-114592902D02*
X140267856Y-114592902D01*
X140267856Y-114592902D02*
X140360714Y-114623854D01*
X140360714Y-114623854D02*
X140391666Y-114654807D01*
X141010714Y-115242902D02*
X140639285Y-115242902D01*
X140824999Y-115242902D02*
X140824999Y-114592902D01*
X140824999Y-114592902D02*
X140763095Y-114685759D01*
X140763095Y-114685759D02*
X140701190Y-114747664D01*
X140701190Y-114747664D02*
X140639285Y-114778616D01*
X175090476Y-107033378D02*
X175090476Y-107342902D01*
X174873809Y-106692902D02*
X175090476Y-107033378D01*
X175090476Y-107033378D02*
X175307143Y-106692902D01*
X175492857Y-106754807D02*
X175523809Y-106723854D01*
X175523809Y-106723854D02*
X175585714Y-106692902D01*
X175585714Y-106692902D02*
X175740476Y-106692902D01*
X175740476Y-106692902D02*
X175802381Y-106723854D01*
X175802381Y-106723854D02*
X175833333Y-106754807D01*
X175833333Y-106754807D02*
X175864286Y-106816711D01*
X175864286Y-106816711D02*
X175864286Y-106878616D01*
X175864286Y-106878616D02*
X175833333Y-106971473D01*
X175833333Y-106971473D02*
X175461905Y-107342902D01*
X175461905Y-107342902D02*
X175864286Y-107342902D01*
X155742902Y-137070238D02*
X155742902Y-136698809D01*
X156392902Y-136884523D02*
X155742902Y-136884523D01*
X156392902Y-136482143D02*
X155742902Y-136482143D01*
X155742902Y-136482143D02*
X155742902Y-136234524D01*
X155742902Y-136234524D02*
X155773854Y-136172619D01*
X155773854Y-136172619D02*
X155804807Y-136141666D01*
X155804807Y-136141666D02*
X155866711Y-136110714D01*
X155866711Y-136110714D02*
X155959569Y-136110714D01*
X155959569Y-136110714D02*
X156021473Y-136141666D01*
X156021473Y-136141666D02*
X156052426Y-136172619D01*
X156052426Y-136172619D02*
X156083378Y-136234524D01*
X156083378Y-136234524D02*
X156083378Y-136482143D01*
X156392902Y-135491666D02*
X156392902Y-135863095D01*
X156392902Y-135677381D02*
X155742902Y-135677381D01*
X155742902Y-135677381D02*
X155835759Y-135739285D01*
X155835759Y-135739285D02*
X155897664Y-135801190D01*
X155897664Y-135801190D02*
X155928616Y-135863095D01*
X179061950Y-124741667D02*
X179092902Y-124648810D01*
X179092902Y-124648810D02*
X179092902Y-124494048D01*
X179092902Y-124494048D02*
X179061950Y-124432143D01*
X179061950Y-124432143D02*
X179030997Y-124401191D01*
X179030997Y-124401191D02*
X178969092Y-124370238D01*
X178969092Y-124370238D02*
X178907188Y-124370238D01*
X178907188Y-124370238D02*
X178845283Y-124401191D01*
X178845283Y-124401191D02*
X178814330Y-124432143D01*
X178814330Y-124432143D02*
X178783378Y-124494048D01*
X178783378Y-124494048D02*
X178752426Y-124617857D01*
X178752426Y-124617857D02*
X178721473Y-124679762D01*
X178721473Y-124679762D02*
X178690521Y-124710715D01*
X178690521Y-124710715D02*
X178628616Y-124741667D01*
X178628616Y-124741667D02*
X178566711Y-124741667D01*
X178566711Y-124741667D02*
X178504807Y-124710715D01*
X178504807Y-124710715D02*
X178473854Y-124679762D01*
X178473854Y-124679762D02*
X178442902Y-124617857D01*
X178442902Y-124617857D02*
X178442902Y-124463096D01*
X178442902Y-124463096D02*
X178473854Y-124370238D01*
X178442902Y-124153571D02*
X179092902Y-123998809D01*
X179092902Y-123998809D02*
X178628616Y-123875000D01*
X178628616Y-123875000D02*
X179092902Y-123751190D01*
X179092902Y-123751190D02*
X178442902Y-123596429D01*
X179092902Y-123008333D02*
X179092902Y-123379762D01*
X179092902Y-123194048D02*
X178442902Y-123194048D01*
X178442902Y-123194048D02*
X178535759Y-123255952D01*
X178535759Y-123255952D02*
X178597664Y-123317857D01*
X178597664Y-123317857D02*
X178628616Y-123379762D01*
X166922902Y-136458333D02*
X166613378Y-136675000D01*
X166922902Y-136829762D02*
X166272902Y-136829762D01*
X166272902Y-136829762D02*
X166272902Y-136582143D01*
X166272902Y-136582143D02*
X166303854Y-136520238D01*
X166303854Y-136520238D02*
X166334807Y-136489285D01*
X166334807Y-136489285D02*
X166396711Y-136458333D01*
X166396711Y-136458333D02*
X166489569Y-136458333D01*
X166489569Y-136458333D02*
X166551473Y-136489285D01*
X166551473Y-136489285D02*
X166582426Y-136520238D01*
X166582426Y-136520238D02*
X166613378Y-136582143D01*
X166613378Y-136582143D02*
X166613378Y-136829762D01*
X166922902Y-136148809D02*
X166922902Y-136025000D01*
X166922902Y-136025000D02*
X166891950Y-135963095D01*
X166891950Y-135963095D02*
X166860997Y-135932143D01*
X166860997Y-135932143D02*
X166768140Y-135870238D01*
X166768140Y-135870238D02*
X166644330Y-135839285D01*
X166644330Y-135839285D02*
X166396711Y-135839285D01*
X166396711Y-135839285D02*
X166334807Y-135870238D01*
X166334807Y-135870238D02*
X166303854Y-135901190D01*
X166303854Y-135901190D02*
X166272902Y-135963095D01*
X166272902Y-135963095D02*
X166272902Y-136086904D01*
X166272902Y-136086904D02*
X166303854Y-136148809D01*
X166303854Y-136148809D02*
X166334807Y-136179762D01*
X166334807Y-136179762D02*
X166396711Y-136210714D01*
X166396711Y-136210714D02*
X166551473Y-136210714D01*
X166551473Y-136210714D02*
X166613378Y-136179762D01*
X166613378Y-136179762D02*
X166644330Y-136148809D01*
X166644330Y-136148809D02*
X166675283Y-136086904D01*
X166675283Y-136086904D02*
X166675283Y-135963095D01*
X166675283Y-135963095D02*
X166644330Y-135901190D01*
X166644330Y-135901190D02*
X166613378Y-135870238D01*
X166613378Y-135870238D02*
X166551473Y-135839285D01*
X178232142Y-120430997D02*
X178201190Y-120461950D01*
X178201190Y-120461950D02*
X178108332Y-120492902D01*
X178108332Y-120492902D02*
X178046428Y-120492902D01*
X178046428Y-120492902D02*
X177953571Y-120461950D01*
X177953571Y-120461950D02*
X177891666Y-120400045D01*
X177891666Y-120400045D02*
X177860713Y-120338140D01*
X177860713Y-120338140D02*
X177829761Y-120214330D01*
X177829761Y-120214330D02*
X177829761Y-120121473D01*
X177829761Y-120121473D02*
X177860713Y-119997664D01*
X177860713Y-119997664D02*
X177891666Y-119935759D01*
X177891666Y-119935759D02*
X177953571Y-119873854D01*
X177953571Y-119873854D02*
X178046428Y-119842902D01*
X178046428Y-119842902D02*
X178108332Y-119842902D01*
X178108332Y-119842902D02*
X178201190Y-119873854D01*
X178201190Y-119873854D02*
X178232142Y-119904807D01*
X178851190Y-120492902D02*
X178479761Y-120492902D01*
X178665475Y-120492902D02*
X178665475Y-119842902D01*
X178665475Y-119842902D02*
X178603571Y-119935759D01*
X178603571Y-119935759D02*
X178541666Y-119997664D01*
X178541666Y-119997664D02*
X178479761Y-120028616D01*
X179067857Y-119842902D02*
X179470238Y-119842902D01*
X179470238Y-119842902D02*
X179253571Y-120090521D01*
X179253571Y-120090521D02*
X179346428Y-120090521D01*
X179346428Y-120090521D02*
X179408333Y-120121473D01*
X179408333Y-120121473D02*
X179439285Y-120152426D01*
X179439285Y-120152426D02*
X179470238Y-120214330D01*
X179470238Y-120214330D02*
X179470238Y-120369092D01*
X179470238Y-120369092D02*
X179439285Y-120430997D01*
X179439285Y-120430997D02*
X179408333Y-120461950D01*
X179408333Y-120461950D02*
X179346428Y-120492902D01*
X179346428Y-120492902D02*
X179160714Y-120492902D01*
X179160714Y-120492902D02*
X179098809Y-120461950D01*
X179098809Y-120461950D02*
X179067857Y-120430997D01*
X146004761Y-131892902D02*
X146004761Y-132419092D01*
X146004761Y-132419092D02*
X146035714Y-132480997D01*
X146035714Y-132480997D02*
X146066666Y-132511950D01*
X146066666Y-132511950D02*
X146128571Y-132542902D01*
X146128571Y-132542902D02*
X146252380Y-132542902D01*
X146252380Y-132542902D02*
X146314285Y-132511950D01*
X146314285Y-132511950D02*
X146345238Y-132480997D01*
X146345238Y-132480997D02*
X146376190Y-132419092D01*
X146376190Y-132419092D02*
X146376190Y-131892902D01*
X146964285Y-132109569D02*
X146964285Y-132542902D01*
X146809523Y-131861950D02*
X146654761Y-132326235D01*
X146654761Y-132326235D02*
X147057142Y-132326235D01*
X167333333Y-122442902D02*
X167333333Y-122907188D01*
X167333333Y-122907188D02*
X167302380Y-123000045D01*
X167302380Y-123000045D02*
X167240476Y-123061950D01*
X167240476Y-123061950D02*
X167147618Y-123092902D01*
X167147618Y-123092902D02*
X167085714Y-123092902D01*
X167580952Y-122442902D02*
X167983333Y-122442902D01*
X167983333Y-122442902D02*
X167766666Y-122690521D01*
X167766666Y-122690521D02*
X167859523Y-122690521D01*
X167859523Y-122690521D02*
X167921428Y-122721473D01*
X167921428Y-122721473D02*
X167952380Y-122752426D01*
X167952380Y-122752426D02*
X167983333Y-122814330D01*
X167983333Y-122814330D02*
X167983333Y-122969092D01*
X167983333Y-122969092D02*
X167952380Y-123030997D01*
X167952380Y-123030997D02*
X167921428Y-123061950D01*
X167921428Y-123061950D02*
X167859523Y-123092902D01*
X167859523Y-123092902D02*
X167673809Y-123092902D01*
X167673809Y-123092902D02*
X167611904Y-123061950D01*
X167611904Y-123061950D02*
X167580952Y-123030997D01*
X140391666Y-116030997D02*
X140360714Y-116061950D01*
X140360714Y-116061950D02*
X140267856Y-116092902D01*
X140267856Y-116092902D02*
X140205952Y-116092902D01*
X140205952Y-116092902D02*
X140113095Y-116061950D01*
X140113095Y-116061950D02*
X140051190Y-116000045D01*
X140051190Y-116000045D02*
X140020237Y-115938140D01*
X140020237Y-115938140D02*
X139989285Y-115814330D01*
X139989285Y-115814330D02*
X139989285Y-115721473D01*
X139989285Y-115721473D02*
X140020237Y-115597664D01*
X140020237Y-115597664D02*
X140051190Y-115535759D01*
X140051190Y-115535759D02*
X140113095Y-115473854D01*
X140113095Y-115473854D02*
X140205952Y-115442902D01*
X140205952Y-115442902D02*
X140267856Y-115442902D01*
X140267856Y-115442902D02*
X140360714Y-115473854D01*
X140360714Y-115473854D02*
X140391666Y-115504807D01*
X140608333Y-115442902D02*
X141010714Y-115442902D01*
X141010714Y-115442902D02*
X140794047Y-115690521D01*
X140794047Y-115690521D02*
X140886904Y-115690521D01*
X140886904Y-115690521D02*
X140948809Y-115721473D01*
X140948809Y-115721473D02*
X140979761Y-115752426D01*
X140979761Y-115752426D02*
X141010714Y-115814330D01*
X141010714Y-115814330D02*
X141010714Y-115969092D01*
X141010714Y-115969092D02*
X140979761Y-116030997D01*
X140979761Y-116030997D02*
X140948809Y-116061950D01*
X140948809Y-116061950D02*
X140886904Y-116092902D01*
X140886904Y-116092902D02*
X140701190Y-116092902D01*
X140701190Y-116092902D02*
X140639285Y-116061950D01*
X140639285Y-116061950D02*
X140608333Y-116030997D01*
X154832142Y-108180997D02*
X154801190Y-108211950D01*
X154801190Y-108211950D02*
X154708332Y-108242902D01*
X154708332Y-108242902D02*
X154646428Y-108242902D01*
X154646428Y-108242902D02*
X154553571Y-108211950D01*
X154553571Y-108211950D02*
X154491666Y-108150045D01*
X154491666Y-108150045D02*
X154460713Y-108088140D01*
X154460713Y-108088140D02*
X154429761Y-107964330D01*
X154429761Y-107964330D02*
X154429761Y-107871473D01*
X154429761Y-107871473D02*
X154460713Y-107747664D01*
X154460713Y-107747664D02*
X154491666Y-107685759D01*
X154491666Y-107685759D02*
X154553571Y-107623854D01*
X154553571Y-107623854D02*
X154646428Y-107592902D01*
X154646428Y-107592902D02*
X154708332Y-107592902D01*
X154708332Y-107592902D02*
X154801190Y-107623854D01*
X154801190Y-107623854D02*
X154832142Y-107654807D01*
X155079761Y-107654807D02*
X155110713Y-107623854D01*
X155110713Y-107623854D02*
X155172618Y-107592902D01*
X155172618Y-107592902D02*
X155327380Y-107592902D01*
X155327380Y-107592902D02*
X155389285Y-107623854D01*
X155389285Y-107623854D02*
X155420237Y-107654807D01*
X155420237Y-107654807D02*
X155451190Y-107716711D01*
X155451190Y-107716711D02*
X155451190Y-107778616D01*
X155451190Y-107778616D02*
X155420237Y-107871473D01*
X155420237Y-107871473D02*
X155048809Y-108242902D01*
X155048809Y-108242902D02*
X155451190Y-108242902D01*
X156070238Y-108242902D02*
X155698809Y-108242902D01*
X155884523Y-108242902D02*
X155884523Y-107592902D01*
X155884523Y-107592902D02*
X155822619Y-107685759D01*
X155822619Y-107685759D02*
X155760714Y-107747664D01*
X155760714Y-107747664D02*
X155698809Y-107778616D01*
X151282142Y-102980997D02*
X151251190Y-103011950D01*
X151251190Y-103011950D02*
X151158332Y-103042902D01*
X151158332Y-103042902D02*
X151096428Y-103042902D01*
X151096428Y-103042902D02*
X151003571Y-103011950D01*
X151003571Y-103011950D02*
X150941666Y-102950045D01*
X150941666Y-102950045D02*
X150910713Y-102888140D01*
X150910713Y-102888140D02*
X150879761Y-102764330D01*
X150879761Y-102764330D02*
X150879761Y-102671473D01*
X150879761Y-102671473D02*
X150910713Y-102547664D01*
X150910713Y-102547664D02*
X150941666Y-102485759D01*
X150941666Y-102485759D02*
X151003571Y-102423854D01*
X151003571Y-102423854D02*
X151096428Y-102392902D01*
X151096428Y-102392902D02*
X151158332Y-102392902D01*
X151158332Y-102392902D02*
X151251190Y-102423854D01*
X151251190Y-102423854D02*
X151282142Y-102454807D01*
X151529761Y-102454807D02*
X151560713Y-102423854D01*
X151560713Y-102423854D02*
X151622618Y-102392902D01*
X151622618Y-102392902D02*
X151777380Y-102392902D01*
X151777380Y-102392902D02*
X151839285Y-102423854D01*
X151839285Y-102423854D02*
X151870237Y-102454807D01*
X151870237Y-102454807D02*
X151901190Y-102516711D01*
X151901190Y-102516711D02*
X151901190Y-102578616D01*
X151901190Y-102578616D02*
X151870237Y-102671473D01*
X151870237Y-102671473D02*
X151498809Y-103042902D01*
X151498809Y-103042902D02*
X151901190Y-103042902D01*
X152148809Y-102454807D02*
X152179761Y-102423854D01*
X152179761Y-102423854D02*
X152241666Y-102392902D01*
X152241666Y-102392902D02*
X152396428Y-102392902D01*
X152396428Y-102392902D02*
X152458333Y-102423854D01*
X152458333Y-102423854D02*
X152489285Y-102454807D01*
X152489285Y-102454807D02*
X152520238Y-102516711D01*
X152520238Y-102516711D02*
X152520238Y-102578616D01*
X152520238Y-102578616D02*
X152489285Y-102671473D01*
X152489285Y-102671473D02*
X152117857Y-103042902D01*
X152117857Y-103042902D02*
X152520238Y-103042902D01*
X156191666Y-110892902D02*
X155974999Y-110583378D01*
X155820237Y-110892902D02*
X155820237Y-110242902D01*
X155820237Y-110242902D02*
X156067856Y-110242902D01*
X156067856Y-110242902D02*
X156129761Y-110273854D01*
X156129761Y-110273854D02*
X156160714Y-110304807D01*
X156160714Y-110304807D02*
X156191666Y-110366711D01*
X156191666Y-110366711D02*
X156191666Y-110459569D01*
X156191666Y-110459569D02*
X156160714Y-110521473D01*
X156160714Y-110521473D02*
X156129761Y-110552426D01*
X156129761Y-110552426D02*
X156067856Y-110583378D01*
X156067856Y-110583378D02*
X155820237Y-110583378D01*
X156779761Y-110242902D02*
X156470237Y-110242902D01*
X156470237Y-110242902D02*
X156439285Y-110552426D01*
X156439285Y-110552426D02*
X156470237Y-110521473D01*
X156470237Y-110521473D02*
X156532142Y-110490521D01*
X156532142Y-110490521D02*
X156686904Y-110490521D01*
X156686904Y-110490521D02*
X156748809Y-110521473D01*
X156748809Y-110521473D02*
X156779761Y-110552426D01*
X156779761Y-110552426D02*
X156810714Y-110614330D01*
X156810714Y-110614330D02*
X156810714Y-110769092D01*
X156810714Y-110769092D02*
X156779761Y-110830997D01*
X156779761Y-110830997D02*
X156748809Y-110861950D01*
X156748809Y-110861950D02*
X156686904Y-110892902D01*
X156686904Y-110892902D02*
X156532142Y-110892902D01*
X156532142Y-110892902D02*
X156470237Y-110861950D01*
X156470237Y-110861950D02*
X156439285Y-110830997D01*
X152055402Y-140108333D02*
X152055402Y-140417857D01*
X152055402Y-140417857D02*
X151405402Y-140417857D01*
X151405402Y-139953571D02*
X151405402Y-139551190D01*
X151405402Y-139551190D02*
X151653021Y-139767857D01*
X151653021Y-139767857D02*
X151653021Y-139675000D01*
X151653021Y-139675000D02*
X151683973Y-139613095D01*
X151683973Y-139613095D02*
X151714926Y-139582143D01*
X151714926Y-139582143D02*
X151776830Y-139551190D01*
X151776830Y-139551190D02*
X151931592Y-139551190D01*
X151931592Y-139551190D02*
X151993497Y-139582143D01*
X151993497Y-139582143D02*
X152024450Y-139613095D01*
X152024450Y-139613095D02*
X152055402Y-139675000D01*
X152055402Y-139675000D02*
X152055402Y-139860714D01*
X152055402Y-139860714D02*
X152024450Y-139922619D01*
X152024450Y-139922619D02*
X151993497Y-139953571D01*
X167750997Y-136757857D02*
X167781950Y-136788809D01*
X167781950Y-136788809D02*
X167812902Y-136881667D01*
X167812902Y-136881667D02*
X167812902Y-136943571D01*
X167812902Y-136943571D02*
X167781950Y-137036428D01*
X167781950Y-137036428D02*
X167720045Y-137098333D01*
X167720045Y-137098333D02*
X167658140Y-137129286D01*
X167658140Y-137129286D02*
X167534330Y-137160238D01*
X167534330Y-137160238D02*
X167441473Y-137160238D01*
X167441473Y-137160238D02*
X167317664Y-137129286D01*
X167317664Y-137129286D02*
X167255759Y-137098333D01*
X167255759Y-137098333D02*
X167193854Y-137036428D01*
X167193854Y-137036428D02*
X167162902Y-136943571D01*
X167162902Y-136943571D02*
X167162902Y-136881667D01*
X167162902Y-136881667D02*
X167193854Y-136788809D01*
X167193854Y-136788809D02*
X167224807Y-136757857D01*
X167812902Y-136138809D02*
X167812902Y-136510238D01*
X167812902Y-136324524D02*
X167162902Y-136324524D01*
X167162902Y-136324524D02*
X167255759Y-136386428D01*
X167255759Y-136386428D02*
X167317664Y-136448333D01*
X167317664Y-136448333D02*
X167348616Y-136510238D01*
X167162902Y-135550714D02*
X167162902Y-135860238D01*
X167162902Y-135860238D02*
X167472426Y-135891190D01*
X167472426Y-135891190D02*
X167441473Y-135860238D01*
X167441473Y-135860238D02*
X167410521Y-135798333D01*
X167410521Y-135798333D02*
X167410521Y-135643571D01*
X167410521Y-135643571D02*
X167441473Y-135581666D01*
X167441473Y-135581666D02*
X167472426Y-135550714D01*
X167472426Y-135550714D02*
X167534330Y-135519761D01*
X167534330Y-135519761D02*
X167689092Y-135519761D01*
X167689092Y-135519761D02*
X167750997Y-135550714D01*
X167750997Y-135550714D02*
X167781950Y-135581666D01*
X167781950Y-135581666D02*
X167812902Y-135643571D01*
X167812902Y-135643571D02*
X167812902Y-135798333D01*
X167812902Y-135798333D02*
X167781950Y-135860238D01*
X167781950Y-135860238D02*
X167750997Y-135891190D01*
X154530997Y-109608333D02*
X154561950Y-109639285D01*
X154561950Y-109639285D02*
X154592902Y-109732143D01*
X154592902Y-109732143D02*
X154592902Y-109794047D01*
X154592902Y-109794047D02*
X154561950Y-109886904D01*
X154561950Y-109886904D02*
X154500045Y-109948809D01*
X154500045Y-109948809D02*
X154438140Y-109979762D01*
X154438140Y-109979762D02*
X154314330Y-110010714D01*
X154314330Y-110010714D02*
X154221473Y-110010714D01*
X154221473Y-110010714D02*
X154097664Y-109979762D01*
X154097664Y-109979762D02*
X154035759Y-109948809D01*
X154035759Y-109948809D02*
X153973854Y-109886904D01*
X153973854Y-109886904D02*
X153942902Y-109794047D01*
X153942902Y-109794047D02*
X153942902Y-109732143D01*
X153942902Y-109732143D02*
X153973854Y-109639285D01*
X153973854Y-109639285D02*
X154004807Y-109608333D01*
X153942902Y-109020238D02*
X153942902Y-109329762D01*
X153942902Y-109329762D02*
X154252426Y-109360714D01*
X154252426Y-109360714D02*
X154221473Y-109329762D01*
X154221473Y-109329762D02*
X154190521Y-109267857D01*
X154190521Y-109267857D02*
X154190521Y-109113095D01*
X154190521Y-109113095D02*
X154221473Y-109051190D01*
X154221473Y-109051190D02*
X154252426Y-109020238D01*
X154252426Y-109020238D02*
X154314330Y-108989285D01*
X154314330Y-108989285D02*
X154469092Y-108989285D01*
X154469092Y-108989285D02*
X154530997Y-109020238D01*
X154530997Y-109020238D02*
X154561950Y-109051190D01*
X154561950Y-109051190D02*
X154592902Y-109113095D01*
X154592902Y-109113095D02*
X154592902Y-109267857D01*
X154592902Y-109267857D02*
X154561950Y-109329762D01*
X154561950Y-109329762D02*
X154530997Y-109360714D01*
X141461950Y-130516666D02*
X141492902Y-130423809D01*
X141492902Y-130423809D02*
X141492902Y-130269047D01*
X141492902Y-130269047D02*
X141461950Y-130207142D01*
X141461950Y-130207142D02*
X141430997Y-130176190D01*
X141430997Y-130176190D02*
X141369092Y-130145237D01*
X141369092Y-130145237D02*
X141307188Y-130145237D01*
X141307188Y-130145237D02*
X141245283Y-130176190D01*
X141245283Y-130176190D02*
X141214330Y-130207142D01*
X141214330Y-130207142D02*
X141183378Y-130269047D01*
X141183378Y-130269047D02*
X141152426Y-130392856D01*
X141152426Y-130392856D02*
X141121473Y-130454761D01*
X141121473Y-130454761D02*
X141090521Y-130485714D01*
X141090521Y-130485714D02*
X141028616Y-130516666D01*
X141028616Y-130516666D02*
X140966711Y-130516666D01*
X140966711Y-130516666D02*
X140904807Y-130485714D01*
X140904807Y-130485714D02*
X140873854Y-130454761D01*
X140873854Y-130454761D02*
X140842902Y-130392856D01*
X140842902Y-130392856D02*
X140842902Y-130238095D01*
X140842902Y-130238095D02*
X140873854Y-130145237D01*
X140842902Y-129928570D02*
X141492902Y-129773808D01*
X141492902Y-129773808D02*
X141028616Y-129649999D01*
X141028616Y-129649999D02*
X141492902Y-129526189D01*
X141492902Y-129526189D02*
X140842902Y-129371428D01*
X140904807Y-129154761D02*
X140873854Y-129123809D01*
X140873854Y-129123809D02*
X140842902Y-129061904D01*
X140842902Y-129061904D02*
X140842902Y-128907142D01*
X140842902Y-128907142D02*
X140873854Y-128845237D01*
X140873854Y-128845237D02*
X140904807Y-128814285D01*
X140904807Y-128814285D02*
X140966711Y-128783332D01*
X140966711Y-128783332D02*
X141028616Y-128783332D01*
X141028616Y-128783332D02*
X141121473Y-128814285D01*
X141121473Y-128814285D02*
X141492902Y-129185713D01*
X141492902Y-129185713D02*
X141492902Y-128783332D01*
X174554761Y-135492902D02*
X174554761Y-136019092D01*
X174554761Y-136019092D02*
X174585714Y-136080997D01*
X174585714Y-136080997D02*
X174616666Y-136111950D01*
X174616666Y-136111950D02*
X174678571Y-136142902D01*
X174678571Y-136142902D02*
X174802380Y-136142902D01*
X174802380Y-136142902D02*
X174864285Y-136111950D01*
X174864285Y-136111950D02*
X174895238Y-136080997D01*
X174895238Y-136080997D02*
X174926190Y-136019092D01*
X174926190Y-136019092D02*
X174926190Y-135492902D01*
X175173809Y-135492902D02*
X175607142Y-135492902D01*
X175607142Y-135492902D02*
X175328571Y-136142902D01*
X155992142Y-143980997D02*
X155961190Y-144011950D01*
X155961190Y-144011950D02*
X155868332Y-144042902D01*
X155868332Y-144042902D02*
X155806428Y-144042902D01*
X155806428Y-144042902D02*
X155713571Y-144011950D01*
X155713571Y-144011950D02*
X155651666Y-143950045D01*
X155651666Y-143950045D02*
X155620713Y-143888140D01*
X155620713Y-143888140D02*
X155589761Y-143764330D01*
X155589761Y-143764330D02*
X155589761Y-143671473D01*
X155589761Y-143671473D02*
X155620713Y-143547664D01*
X155620713Y-143547664D02*
X155651666Y-143485759D01*
X155651666Y-143485759D02*
X155713571Y-143423854D01*
X155713571Y-143423854D02*
X155806428Y-143392902D01*
X155806428Y-143392902D02*
X155868332Y-143392902D01*
X155868332Y-143392902D02*
X155961190Y-143423854D01*
X155961190Y-143423854D02*
X155992142Y-143454807D01*
X156611190Y-144042902D02*
X156239761Y-144042902D01*
X156425475Y-144042902D02*
X156425475Y-143392902D01*
X156425475Y-143392902D02*
X156363571Y-143485759D01*
X156363571Y-143485759D02*
X156301666Y-143547664D01*
X156301666Y-143547664D02*
X156239761Y-143578616D01*
X157168333Y-143609569D02*
X157168333Y-144042902D01*
X157013571Y-143361950D02*
X156858809Y-143826235D01*
X156858809Y-143826235D02*
X157261190Y-143826235D01*
X178791666Y-127842902D02*
X178574999Y-127533378D01*
X178420237Y-127842902D02*
X178420237Y-127192902D01*
X178420237Y-127192902D02*
X178667856Y-127192902D01*
X178667856Y-127192902D02*
X178729761Y-127223854D01*
X178729761Y-127223854D02*
X178760714Y-127254807D01*
X178760714Y-127254807D02*
X178791666Y-127316711D01*
X178791666Y-127316711D02*
X178791666Y-127409569D01*
X178791666Y-127409569D02*
X178760714Y-127471473D01*
X178760714Y-127471473D02*
X178729761Y-127502426D01*
X178729761Y-127502426D02*
X178667856Y-127533378D01*
X178667856Y-127533378D02*
X178420237Y-127533378D01*
X179348809Y-127409569D02*
X179348809Y-127842902D01*
X179194047Y-127161950D02*
X179039285Y-127626235D01*
X179039285Y-127626235D02*
X179441666Y-127626235D01*
D11*
%TO.C,D1*%
X160670000Y-111347500D02*
X162955002Y-111347500D01*
X162955001Y-109877500D02*
X160670002Y-109877502D01*
X162955002Y-111347500D02*
X162955001Y-109877500D01*
%TO.C,U2*%
X143389998Y-118609996D02*
X143865000Y-118609999D01*
X143389999Y-118135001D02*
X143389998Y-118609996D01*
X143390001Y-111865000D02*
X143390004Y-111389998D01*
X143390004Y-111389998D02*
X143864999Y-111389999D01*
X150135000Y-111390001D02*
X150369998Y-111390000D01*
X150609996Y-118610002D02*
X150135001Y-118610001D01*
X150609999Y-118135000D02*
X150609996Y-118610002D01*
X150610001Y-111864999D02*
X150610001Y-111690000D01*
X150940001Y-111630000D02*
X150610002Y-111390004D01*
X150939998Y-111150000D01*
X150940001Y-111630000D01*
G36*
X150940001Y-111630000D02*
G01*
X150610002Y-111390004D01*
X150939998Y-111150000D01*
X150940001Y-111630000D01*
G37*
%TO.C,C19*%
X148459420Y-103440001D02*
X148740582Y-103440000D01*
X148459420Y-104460000D02*
X148740582Y-104459999D01*
D12*
%TO.C,FL2*%
X177209184Y-134975502D02*
X177790812Y-134975499D01*
X177790816Y-133324498D02*
X177209188Y-133324501D01*
X179822000Y-134556398D02*
G75*
G02*
X179568000Y-134556398I-127000J0D01*
G01*
X179568000Y-134556398D02*
G75*
G02*
X179822000Y-134556398I127000J0D01*
G01*
D11*
%TO.C,C16*%
X158420581Y-135690000D02*
X158139419Y-135690001D01*
X158420581Y-136709999D02*
X158139419Y-136710000D01*
%TO.C,L1*%
X145389998Y-106050378D02*
X145389999Y-106849622D01*
X146509999Y-106050378D02*
X146510000Y-106849622D01*
%TO.C,C8*%
X171040001Y-120640581D02*
X171040001Y-120359419D01*
X172059999Y-120640581D02*
X172059999Y-120359419D01*
%TO.C,C11*%
X173540001Y-109359419D02*
X173540000Y-109640581D01*
X174560000Y-109359419D02*
X174559999Y-109640581D01*
%TO.C,D2*%
X160670000Y-109835001D02*
X162955002Y-109835000D01*
X162955001Y-108365000D02*
X160670002Y-108365002D01*
X162955002Y-109835000D02*
X162955001Y-108365000D01*
%TO.C,J4*%
X138129998Y-96670006D02*
X138130000Y-106949999D01*
X138129998Y-96670006D02*
X140730002Y-96670001D01*
X138130000Y-106949999D02*
X143330001Y-106950000D01*
X140730001Y-99270000D02*
X143330001Y-99270000D01*
X140730002Y-96670001D02*
X140730001Y-99270000D01*
X141999999Y-96669998D02*
X143330000Y-96670000D01*
X143330000Y-96670000D02*
X143330002Y-97999999D01*
X143330001Y-99270000D02*
X143330001Y-106950000D01*
%TO.C,SW3*%
X137174997Y-121675001D02*
X137175002Y-126075000D01*
X137175002Y-126075000D02*
X137294999Y-126075001D01*
X137295000Y-121675000D02*
X137174997Y-121675001D01*
X138305000Y-126075000D02*
X139445000Y-126075000D01*
X139445000Y-121675000D02*
X138305000Y-121675000D01*
X140455000Y-126075000D02*
X140575003Y-126074999D01*
X140574998Y-121675000D02*
X140455001Y-121674999D01*
X140575003Y-126074999D02*
X140574998Y-121675000D01*
%TO.C,U1*%
X170889998Y-112890000D02*
X171240001Y-112890000D01*
X170889999Y-113240002D02*
X170889998Y-112890000D01*
X171240002Y-117110001D02*
X171130001Y-117110000D01*
X175110000Y-112889998D02*
X174759998Y-112889999D01*
X175110000Y-113240001D02*
X175110000Y-112889998D01*
X175110001Y-116759998D02*
X175110002Y-117110000D01*
X175110002Y-117110000D02*
X174759999Y-117110000D01*
X170890000Y-117110002D02*
X170560001Y-117349999D01*
X170560000Y-116870002D01*
X170890000Y-117110002D01*
G36*
X170890000Y-117110002D02*
G01*
X170560001Y-117349999D01*
X170560000Y-116870002D01*
X170890000Y-117110002D01*
G37*
%TO.C,Y3*%
X151000000Y-104850000D02*
X146999996Y-104850000D01*
X151000002Y-108150000D02*
X151000000Y-104850000D01*
%TO.C,C6*%
X146409418Y-108540000D02*
X146690580Y-108540001D01*
X146409418Y-109559999D02*
X146690580Y-109560000D01*
%TO.C,R1*%
X166477500Y-101437742D02*
X166477500Y-101912258D01*
X167522500Y-101437742D02*
X167522500Y-101912258D01*
%TO.C,R7*%
X158212742Y-107077501D02*
X158687258Y-107077501D01*
X158212742Y-108122501D02*
X158687258Y-108122501D01*
%TO.C,C4*%
X152240000Y-111509419D02*
X152240001Y-111790581D01*
X153259999Y-111509419D02*
X153260000Y-111790581D01*
%TO.C,R10*%
X138637742Y-132852500D02*
X139112258Y-132852500D01*
X138637742Y-133897500D02*
X139112258Y-133897500D01*
%TO.C,J6*%
X137800000Y-143220000D02*
X137800000Y-145000000D01*
X139700000Y-140300000D02*
X138900000Y-140300000D01*
X147200000Y-143220000D02*
X147200000Y-145000000D01*
%TO.C,C20*%
X149740580Y-108540001D02*
X149459418Y-108540000D01*
X149740580Y-109560000D02*
X149459418Y-109559999D01*
%TO.C,R12*%
X139377500Y-138287258D02*
X139377500Y-137812742D01*
X140422500Y-138287258D02*
X140422500Y-137812742D01*
%TO.C,U5*%
X170752500Y-126102500D02*
X170752503Y-126384996D01*
X170752500Y-131597500D02*
X170752498Y-131314997D01*
X173500000Y-126102500D02*
X170752500Y-126102500D01*
X173500000Y-126102500D02*
X176247500Y-126102500D01*
X173500000Y-131597500D02*
X170752500Y-131597500D01*
X173500000Y-131597500D02*
X176247500Y-131597500D01*
X176247500Y-126102500D02*
X176247502Y-126385003D01*
X176247500Y-131597500D02*
X176247497Y-131315004D01*
X177258750Y-131645000D02*
X176778750Y-131645000D01*
X177018750Y-131314997D01*
X177258750Y-131645000D01*
G36*
X177258750Y-131645000D02*
G01*
X176778750Y-131645000D01*
X177018750Y-131314997D01*
X177258750Y-131645000D01*
G37*
%TO.C,C9*%
X167509419Y-112740001D02*
X167790581Y-112740000D01*
X167509419Y-113760000D02*
X167790581Y-113759999D01*
%TO.C,C17*%
X161159420Y-135690000D02*
X161440580Y-135690000D01*
X161159420Y-136710000D02*
X161440580Y-136710000D01*
%TO.C,R8*%
X141027500Y-121212258D02*
X141027500Y-120737742D01*
X142072500Y-121212258D02*
X142072500Y-120737742D01*
%TO.C,C18*%
X139109419Y-119690000D02*
X139390581Y-119690000D01*
X139109419Y-120710000D02*
X139390581Y-120710000D01*
%TO.C,C10*%
X167509420Y-111190000D02*
X167790580Y-111190000D01*
X167509420Y-112210000D02*
X167790580Y-112210000D01*
%TO.C,R3*%
X165937742Y-101977500D02*
X166412258Y-101977500D01*
X165937742Y-103022500D02*
X166412258Y-103022500D01*
%TO.C,U6*%
X140940000Y-137500000D02*
X140940000Y-136700000D01*
X140940000Y-137500000D02*
X140940000Y-138300000D01*
X144060000Y-137500000D02*
X144060000Y-136700000D01*
X144060000Y-137500000D02*
X144060000Y-138300000D01*
X140990001Y-138800000D02*
X140660000Y-139040000D01*
X140660000Y-138559998D01*
X140990001Y-138800000D01*
G36*
X140990001Y-138800000D02*
G01*
X140660000Y-139040000D01*
X140660000Y-138559998D01*
X140990001Y-138800000D01*
G37*
%TO.C,J2*%
X157379999Y-112420002D02*
X157380000Y-122700000D01*
X157379999Y-112420002D02*
X159980002Y-112420001D01*
X157380000Y-122700000D02*
X162580002Y-122700000D01*
X159980001Y-115020000D02*
X162580002Y-115020000D01*
X159980002Y-112420001D02*
X159980001Y-115020000D01*
X161249999Y-112419998D02*
X162580000Y-112420000D01*
X162580000Y-112420000D02*
X162580002Y-113749999D01*
X162580002Y-115020000D02*
X162580002Y-122700000D01*
%TO.C,D3*%
X160670000Y-108335001D02*
X162955002Y-108335000D01*
X162955001Y-106865000D02*
X160670001Y-106865002D01*
X162955002Y-108335000D02*
X162955001Y-106865000D01*
%TO.C,J5*%
X154295000Y-128770000D02*
X154295000Y-128135000D01*
X154930000Y-128770000D02*
X154295000Y-128770000D01*
%TO.C,J7*%
X172800000Y-143220000D02*
X172800000Y-145000000D01*
X174700000Y-140300000D02*
X173900000Y-140300000D01*
X182200000Y-143220000D02*
X182200000Y-145000000D01*
%TO.C,J1*%
X158500001Y-101200000D02*
X158700001Y-101000000D01*
X158500001Y-101800000D02*
X158000000Y-101800000D01*
X158500001Y-101800000D02*
X158500001Y-101200000D01*
X158500001Y-103200000D02*
X158000000Y-103200001D01*
X158500001Y-104000000D02*
X158500001Y-103200000D01*
X158700001Y-104000000D02*
X158500001Y-104000000D01*
X161300001Y-101000000D02*
X161500001Y-101000000D01*
X161500001Y-101000000D02*
X161500001Y-101800000D01*
X161500001Y-103200000D02*
X161500001Y-104000000D01*
X161500001Y-104000000D02*
X161300001Y-104000000D01*
%TO.C,U3*%
X157890000Y-138615000D02*
X157890000Y-138130000D01*
X157890000Y-142110000D02*
X157890000Y-141385000D01*
X158615000Y-137890000D02*
X158190000Y-137890000D01*
X158615000Y-142110000D02*
X157890000Y-142110000D01*
X161385000Y-137890000D02*
X162110000Y-137890000D01*
X161385000Y-142110000D02*
X162110000Y-142110000D01*
X162110000Y-137890000D02*
X162110000Y-138615000D01*
X162110000Y-142110000D02*
X162110000Y-141385000D01*
X157890000Y-137890000D02*
X157650000Y-137560000D01*
X158130000Y-137560000D01*
X157890000Y-137890000D01*
G36*
X157890000Y-137890000D02*
G01*
X157650000Y-137560000D01*
X158130000Y-137560000D01*
X157890000Y-137890000D01*
G37*
%TO.C,C2*%
X152140581Y-120240000D02*
X151859419Y-120240001D01*
X152140581Y-121259999D02*
X151859419Y-121260000D01*
%TO.C,L2*%
X172639999Y-120350378D02*
X172640000Y-121149622D01*
X173760000Y-120350378D02*
X173760001Y-121149622D01*
%TO.C,Y4*%
X152575000Y-105075000D02*
X153925000Y-105075000D01*
X152575000Y-106825000D02*
X153925000Y-106825000D01*
%TO.C,R13*%
X179577500Y-138287258D02*
X179577500Y-137812742D01*
X180622500Y-138287258D02*
X180622500Y-137812742D01*
%TO.C,C12*%
X171990001Y-109359419D02*
X171990000Y-109640581D01*
X173010000Y-109359419D02*
X173009999Y-109640581D01*
%TO.C,R11*%
X163277500Y-139637258D02*
X163277500Y-139162742D01*
X164322500Y-139637258D02*
X164322500Y-139162742D01*
%TO.C,Y1*%
X167125000Y-117325000D02*
X167125000Y-118675000D01*
X168875000Y-117325000D02*
X168875000Y-118675000D01*
%TO.C,C7*%
X174340001Y-120640581D02*
X174340000Y-120359419D01*
X175360000Y-120640581D02*
X175359999Y-120359419D01*
%TO.C,R6*%
X158212742Y-108577501D02*
X158687258Y-108577501D01*
X158212742Y-109622501D02*
X158687258Y-109622501D01*
D12*
%TO.C,FL1*%
X142509186Y-134975498D02*
X143090816Y-134975502D01*
X143090814Y-133324502D02*
X142509184Y-133324498D01*
X145122000Y-134556398D02*
G75*
G02*
X144868000Y-134556398I-127000J0D01*
G01*
X144868000Y-134556398D02*
G75*
G02*
X145122000Y-134556398I127000J0D01*
G01*
D11*
%TO.C,R2*%
X167587742Y-101977500D02*
X168062258Y-101977500D01*
X167587742Y-103022500D02*
X168062258Y-103022500D01*
%TO.C,C1*%
X140640581Y-116390001D02*
X140359419Y-116390000D01*
X140640581Y-117410000D02*
X140359419Y-117409999D01*
%TO.C,Y2*%
X175000000Y-107600000D02*
X175000000Y-110900000D01*
X175000000Y-110900000D02*
X179000000Y-110900000D01*
%TO.C,TP1*%
X155325000Y-136250000D02*
G75*
G02*
X153425000Y-136250000I-950000J0D01*
G01*
X153425000Y-136250000D02*
G75*
G02*
X155325000Y-136250000I950000J0D01*
G01*
%TO.C,SW1*%
X179425000Y-121675001D02*
X179425000Y-126075002D01*
X179425000Y-126075002D02*
X179544999Y-126075001D01*
X179545000Y-121675000D02*
X179425000Y-121675001D01*
X180555000Y-126075000D02*
X181695000Y-126075000D01*
X181695000Y-121675000D02*
X180555000Y-121675000D01*
X182705000Y-126075000D02*
X182825000Y-126074999D01*
X182825000Y-121674998D02*
X182705001Y-121674999D01*
X182825000Y-126074999D02*
X182825000Y-121674998D01*
%TO.C,R9*%
X163267500Y-136112742D02*
X163267500Y-136587258D01*
X164312500Y-136112742D02*
X164312500Y-136587258D01*
%TO.C,C13*%
X181265581Y-119690000D02*
X180984419Y-119690001D01*
X181265581Y-120709999D02*
X180984419Y-120710000D01*
%TO.C,U4*%
X143752500Y-126102500D02*
X143752503Y-126384997D01*
X143752500Y-131597500D02*
X143752498Y-131314997D01*
X146500000Y-126102500D02*
X143752500Y-126102500D01*
X146500000Y-126102500D02*
X149247500Y-126102500D01*
X146500000Y-131597500D02*
X143752500Y-131597500D01*
X146500000Y-131597500D02*
X149247500Y-131597500D01*
X149247500Y-126102500D02*
X149247502Y-126385003D01*
X149247500Y-131597500D02*
X149247497Y-131315003D01*
X150258750Y-131645000D02*
X149778750Y-131645000D01*
X150018749Y-131315000D01*
X150258750Y-131645000D01*
G36*
X150258750Y-131645000D02*
G01*
X149778750Y-131645000D01*
X150018749Y-131315000D01*
X150258750Y-131645000D01*
G37*
%TO.C,J3*%
X165069998Y-126230002D02*
X165705000Y-126230000D01*
X165705000Y-126230000D02*
X165705000Y-126865002D01*
%TO.C,C3*%
X140640581Y-117940000D02*
X140359419Y-117940000D01*
X140640581Y-118960000D02*
X140359419Y-118960000D01*
%TO.C,C21*%
X152609418Y-107440001D02*
X152890580Y-107440000D01*
X152609418Y-108460000D02*
X152890580Y-108459999D01*
%TO.C,C22*%
X151840581Y-103439999D02*
X151559419Y-103440000D01*
X151840581Y-104459998D02*
X151559419Y-104459999D01*
%TO.C,R5*%
X158212742Y-110090001D02*
X158687258Y-110090001D01*
X158212742Y-111135001D02*
X158687258Y-111135001D01*
%TO.C,L3*%
X152280000Y-137740000D02*
X152429999Y-137740000D01*
X152280000Y-142260000D02*
X152280000Y-137740000D01*
X152280000Y-142260000D02*
X152430000Y-142260001D01*
X156800000Y-137740000D02*
X156650000Y-137739999D01*
X156800000Y-142260000D02*
X156650001Y-142260000D01*
X156800000Y-142260000D02*
X156800000Y-137740000D01*
%TO.C,C15*%
X164830001Y-136209419D02*
X164830000Y-136490581D01*
X165850000Y-136209419D02*
X165849999Y-136490581D01*
%TO.C,C5*%
X153790001Y-111509419D02*
X153790000Y-111790581D01*
X154810000Y-111509419D02*
X154809999Y-111790581D01*
%TO.C,SW2*%
X137175000Y-127450001D02*
X137175000Y-131850002D01*
X137175000Y-131850002D02*
X137294999Y-131850001D01*
X137295000Y-127450000D02*
X137175000Y-127450001D01*
X138305000Y-131850000D02*
X139445000Y-131850000D01*
X139445000Y-127450000D02*
X138305000Y-127450000D01*
X140455000Y-131850000D02*
X140575000Y-131849999D01*
X140575000Y-127449998D02*
X140455001Y-127449999D01*
X140575000Y-131849999D02*
X140575000Y-127449998D01*
%TO.C,U7*%
X175940000Y-137500000D02*
X175940000Y-136700000D01*
X175940000Y-137500000D02*
X175940000Y-138300000D01*
X179060000Y-137500000D02*
X179060000Y-136700000D01*
X179060000Y-137500000D02*
X179060000Y-138300000D01*
X175990001Y-138800000D02*
X175660000Y-139040000D01*
X175659998Y-138559999D01*
X175990001Y-138800000D01*
G36*
X175990001Y-138800000D02*
G01*
X175660000Y-139040000D01*
X175659998Y-138559999D01*
X175990001Y-138800000D01*
G37*
%TO.C,C14*%
X159010581Y-143240000D02*
X158729419Y-143240001D01*
X159010581Y-144259999D02*
X158729419Y-144260000D01*
%TO.C,R4*%
X180887742Y-127027500D02*
X181362258Y-127027500D01*
X180887742Y-128072500D02*
X181362258Y-128072500D01*
%TD*%
G36*
X144943039Y-89019685D02*
G01*
X144988794Y-89072489D01*
X145000000Y-89124000D01*
X145000000Y-93876000D01*
X144980315Y-93943039D01*
X144927511Y-93988794D01*
X144876000Y-94000000D01*
X140124000Y-94000000D01*
X140056961Y-93980315D01*
X140011206Y-93927511D01*
X140000000Y-93876000D01*
X140000000Y-89124000D01*
X140019685Y-89056961D01*
X140072489Y-89011206D01*
X140124000Y-89000000D01*
X144876000Y-89000000D01*
X144943039Y-89019685D01*
G37*
D13*
X142000000Y-98000000D03*
X139459994Y-97999999D03*
X141999999Y-100540006D03*
X139460000Y-100540000D03*
X142000000Y-103080000D03*
X139459998Y-103080000D03*
X142000000Y-105620000D03*
X139460001Y-105620000D03*
X139610000Y-142395000D03*
X145390000Y-142395000D03*
D14*
X138180000Y-141895000D03*
D15*
X138180000Y-146075000D03*
D14*
X146820000Y-141895000D03*
D15*
X146820000Y-146075000D03*
D13*
X161250000Y-113750000D03*
X158709996Y-113749998D03*
X161249998Y-116290004D03*
X158710000Y-116290000D03*
X161250000Y-118830000D03*
X158709999Y-118829998D03*
X161250000Y-121370000D03*
X158710001Y-121370000D03*
X153660000Y-124960000D03*
X153660000Y-127500000D03*
X153660000Y-130040000D03*
X156835000Y-124960000D03*
X156835000Y-130040000D03*
X158740000Y-126484000D03*
X158740000Y-128516000D03*
X174610000Y-142395000D03*
X180390000Y-142395000D03*
D14*
X173180000Y-141895000D03*
D15*
X173180000Y-146075000D03*
D14*
X181820000Y-141895000D03*
D15*
X181820000Y-146075000D03*
D16*
X158900000Y-138900000D03*
X158900000Y-141100000D03*
X161100000Y-138900000D03*
X161100000Y-141100000D03*
D13*
X166340003Y-127500001D03*
X166340000Y-130040000D03*
X166340000Y-124960000D03*
X163164999Y-130040000D03*
X163164999Y-124960000D03*
X161259998Y-128516002D03*
X161259998Y-126483999D03*
D17*
X166550000Y-94500000D03*
M02*
