%TF.GenerationSoftware,KiCad,Pcbnew,8.0.8*%
%TF.CreationDate,2025-03-20T14:25:15+01:00*%
%TF.ProjectId,RF_HID_module_test,52465f48-4944-45f6-9d6f-64756c655f74,rev?*%
%TF.SameCoordinates,Original*%
%TF.FileFunction,Profile,NP*%
%FSLAX46Y46*%
G04 Gerber Fmt 4.6, Leading zero omitted, Abs format (unit mm)*
G04 Created by KiCad (PCBNEW 8.0.8) date 2025-03-20 14:25:15*
%MOMM*%
%LPD*%
G01*
G04 APERTURE LIST*
%TA.AperFunction,Profile*%
%ADD10C,0.050000*%
%TD*%
%ADD11C,0.350000*%
%ADD12O,0.600000X1.700000*%
%ADD13O,0.600000X1.200000*%
%ADD14C,0.200000*%
%ADD15C,0.300000*%
G04 APERTURE END LIST*
D10*
X136250000Y-146250000D02*
X136250000Y-89987500D01*
X137500000Y-88750000D02*
X182500000Y-88750000D01*
X183750000Y-146250000D02*
G75*
G02*
X182500000Y-147500000I-1250000J0D01*
G01*
X182500000Y-88750000D02*
G75*
G02*
X183750000Y-90000000I0J-1250000D01*
G01*
X183750000Y-146250000D02*
X183750000Y-90000000D01*
X137500000Y-147500000D02*
X182500000Y-147500000D01*
X136250000Y-90000000D02*
G75*
G02*
X137500000Y-88750000I1250000J0D01*
G01*
X137500000Y-147500000D02*
G75*
G02*
X136250000Y-146250000I0J1250000D01*
G01*
D11*
X142000000Y-98000000D03*
X139459994Y-97999999D03*
X141999999Y-100540006D03*
X139460000Y-100540000D03*
X142000000Y-103080000D03*
X139459998Y-103080000D03*
X142000000Y-105620000D03*
X139460001Y-105620000D03*
X139610000Y-142395000D03*
X145390000Y-142395000D03*
D12*
X138180000Y-141895000D03*
D13*
X138180000Y-146075000D03*
D12*
X146820000Y-141895000D03*
D13*
X146820000Y-146075000D03*
D11*
X161250000Y-113750000D03*
X158709996Y-113749998D03*
X161249998Y-116290004D03*
X158710000Y-116290000D03*
X161250000Y-118830000D03*
X158709999Y-118829998D03*
X161250000Y-121370000D03*
X158710001Y-121370000D03*
X153660000Y-124960000D03*
X153660000Y-127500000D03*
X153660000Y-130040000D03*
X156835000Y-124960000D03*
X156835000Y-130040000D03*
X158740000Y-126484000D03*
X158740000Y-128516000D03*
X174610000Y-142395000D03*
X180390000Y-142395000D03*
D12*
X173180000Y-141895000D03*
D13*
X173180000Y-146075000D03*
D12*
X181820000Y-141895000D03*
D13*
X181820000Y-146075000D03*
D14*
X158900000Y-138900000D03*
X158900000Y-141100000D03*
X161100000Y-138900000D03*
X161100000Y-141100000D03*
D11*
X166340003Y-127500001D03*
X166340000Y-130040000D03*
X166340000Y-124960000D03*
X163164999Y-130040000D03*
X163164999Y-124960000D03*
X161259998Y-128516002D03*
X161259998Y-126483999D03*
D15*
X166550000Y-94500000D03*
M02*
