%TF.GenerationSoftware,KiCad,Pcbnew,8.0.8*%
%TF.CreationDate,2025-03-21T10:35:37+01:00*%
%TF.ProjectId,RF_HID_module_test,52465f48-4944-45f6-9d6f-64756c655f74,rev?*%
%TF.SameCoordinates,Original*%
%TF.FileFunction,Soldermask,Bot*%
%TF.FilePolarity,Negative*%
%FSLAX46Y46*%
G04 Gerber Fmt 4.6, Leading zero omitted, Abs format (unit mm)*
G04 Created by KiCad (PCBNEW 8.0.8) date 2025-03-21 10:35:37*
%MOMM*%
%LPD*%
G01*
G04 APERTURE LIST*
%ADD10R,1.700000X1.700000*%
%ADD11O,1.700000X1.700000*%
%ADD12C,0.650000*%
%ADD13O,1.000000X2.100000*%
%ADD14O,1.000000X1.600000*%
%ADD15C,2.374900*%
%ADD16C,0.990600*%
G04 APERTURE END LIST*
D10*
%TO.C,J4*%
X142000000Y-98000000D03*
D11*
X139459994Y-97999999D03*
X141999999Y-100540006D03*
X139460000Y-100540000D03*
X142000000Y-103080000D03*
X139459998Y-103080000D03*
X142000000Y-105620000D03*
X139460001Y-105620000D03*
%TD*%
D12*
%TO.C,J6*%
X139610000Y-142395000D03*
X145390000Y-142395000D03*
D13*
X138180000Y-141895000D03*
D14*
X138180000Y-146075000D03*
D13*
X146820000Y-141895000D03*
D14*
X146820000Y-146075000D03*
%TD*%
D10*
%TO.C,J2*%
X161250000Y-113750000D03*
D11*
X158709996Y-113749998D03*
X161249998Y-116290004D03*
X158710000Y-116290000D03*
X161250000Y-118830000D03*
X158709999Y-118829998D03*
X161250000Y-121370000D03*
X158710001Y-121370000D03*
%TD*%
D15*
%TO.C,J5*%
X153660000Y-124960000D03*
D16*
X153660000Y-127500000D03*
D15*
X153660000Y-130040000D03*
X156835000Y-124960000D03*
X156835000Y-130040000D03*
D16*
X158740000Y-126484000D03*
X158740000Y-128516000D03*
%TD*%
D12*
%TO.C,J7*%
X174610000Y-142395000D03*
X180390000Y-142395000D03*
D13*
X173180000Y-141895000D03*
D14*
X173180000Y-146075000D03*
D13*
X181820000Y-141895000D03*
D14*
X181820000Y-146075000D03*
%TD*%
D16*
%TO.C,J3*%
X166340003Y-127500001D03*
D15*
X166340000Y-130040000D03*
X166340000Y-124960000D03*
X163164999Y-130040000D03*
X163164999Y-124960000D03*
D16*
X161259998Y-128516002D03*
X161259998Y-126483999D03*
%TD*%
M02*
