%TF.GenerationSoftware,KiCad,Pcbnew,8.0.8*%
%TF.CreationDate,2025-03-24T11:25:52+01:00*%
%TF.ProjectId,RF_HID_dongle_test,52465f48-4944-45f6-946f-6e676c655f74,rev?*%
%TF.SameCoordinates,Original*%
%TF.FileFunction,Soldermask,Top*%
%TF.FilePolarity,Negative*%
%FSLAX46Y46*%
G04 Gerber Fmt 4.6, Leading zero omitted, Abs format (unit mm)*
G04 Created by KiCad (PCBNEW 8.0.8) date 2025-03-24 11:25:52*
%MOMM*%
%LPD*%
G01*
G04 APERTURE LIST*
G04 Aperture macros list*
%AMRoundRect*
0 Rectangle with rounded corners*
0 $1 Rounding radius*
0 $2 $3 $4 $5 $6 $7 $8 $9 X,Y pos of 4 corners*
0 Add a 4 corners polygon primitive as box body*
4,1,4,$2,$3,$4,$5,$6,$7,$8,$9,$2,$3,0*
0 Add four circle primitives for the rounded corners*
1,1,$1+$1,$2,$3*
1,1,$1+$1,$4,$5*
1,1,$1+$1,$6,$7*
1,1,$1+$1,$8,$9*
0 Add four rect primitives between the rounded corners*
20,1,$1+$1,$2,$3,$4,$5,0*
20,1,$1+$1,$4,$5,$6,$7,0*
20,1,$1+$1,$6,$7,$8,$9,0*
20,1,$1+$1,$8,$9,$2,$3,0*%
%AMRotRect*
0 Rectangle, with rotation*
0 The origin of the aperture is its center*
0 $1 length*
0 $2 width*
0 $3 Rotation angle, in degrees counterclockwise*
0 Add horizontal line*
21,1,$1,$2,0,0,$3*%
%AMFreePoly0*
4,1,14,0.314644,0.085355,0.385355,0.014644,0.400000,-0.020711,0.400000,-0.050000,0.385355,-0.085355,0.350000,-0.100000,-0.350000,-0.100000,-0.385355,-0.085355,-0.400000,-0.050000,-0.400000,0.050000,-0.385355,0.085355,-0.350000,0.100000,0.279289,0.100000,0.314644,0.085355,0.314644,0.085355,$1*%
%AMFreePoly1*
4,1,14,0.385355,0.085355,0.400000,0.050000,0.400000,0.020711,0.385355,-0.014644,0.314644,-0.085355,0.279289,-0.100000,-0.350000,-0.100000,-0.385355,-0.085355,-0.400000,-0.050000,-0.400000,0.050000,-0.385355,0.085355,-0.350000,0.100000,0.350000,0.100000,0.385355,0.085355,0.385355,0.085355,$1*%
%AMFreePoly2*
4,1,14,0.085355,0.385355,0.100000,0.350000,0.100000,-0.350000,0.085355,-0.385355,0.050000,-0.400000,-0.050000,-0.400000,-0.085355,-0.385355,-0.100000,-0.350000,-0.100000,0.279289,-0.085355,0.314644,-0.014644,0.385355,0.020711,0.400000,0.050000,0.400000,0.085355,0.385355,0.085355,0.385355,$1*%
%AMFreePoly3*
4,1,14,0.014644,0.385355,0.085355,0.314644,0.100000,0.279289,0.100000,-0.350000,0.085355,-0.385355,0.050000,-0.400000,-0.050000,-0.400000,-0.085355,-0.385355,-0.100000,-0.350000,-0.100000,0.350000,-0.085355,0.385355,-0.050000,0.400000,-0.020711,0.400000,0.014644,0.385355,0.014644,0.385355,$1*%
%AMFreePoly4*
4,1,14,0.385355,0.085355,0.400000,0.050000,0.400000,-0.050000,0.385355,-0.085355,0.350000,-0.100000,-0.279289,-0.100000,-0.314644,-0.085355,-0.385355,-0.014644,-0.400000,0.020711,-0.400000,0.050000,-0.385355,0.085355,-0.350000,0.100000,0.350000,0.100000,0.385355,0.085355,0.385355,0.085355,$1*%
%AMFreePoly5*
4,1,14,0.385355,0.085355,0.400000,0.050000,0.400000,-0.050000,0.385355,-0.085355,0.350000,-0.100000,-0.350000,-0.100000,-0.385355,-0.085355,-0.400000,-0.050000,-0.400000,-0.020711,-0.385355,0.014644,-0.314644,0.085355,-0.279289,0.100000,0.350000,0.100000,0.385355,0.085355,0.385355,0.085355,$1*%
%AMFreePoly6*
4,1,14,0.085355,0.385355,0.100000,0.350000,0.100000,-0.279289,0.085355,-0.314644,0.014644,-0.385355,-0.020711,-0.400000,-0.050000,-0.400000,-0.085355,-0.385355,-0.100000,-0.350000,-0.100000,0.350000,-0.085355,0.385355,-0.050000,0.400000,0.050000,0.400000,0.085355,0.385355,0.085355,0.385355,$1*%
%AMFreePoly7*
4,1,14,0.085355,0.385355,0.100000,0.350000,0.100000,-0.350000,0.085355,-0.385355,0.050000,-0.400000,0.020711,-0.400000,-0.014644,-0.385355,-0.085355,-0.314644,-0.100000,-0.279289,-0.100000,0.350000,-0.085355,0.385355,-0.050000,0.400000,0.050000,0.400000,0.085355,0.385355,0.085355,0.385355,$1*%
G04 Aperture macros list end*
%ADD10RoundRect,0.218750X-0.218750X-0.256250X0.218750X-0.256250X0.218750X0.256250X-0.218750X0.256250X0*%
%ADD11C,0.990600*%
%ADD12C,2.374900*%
%ADD13C,0.787400*%
%ADD14RoundRect,0.225000X-0.225000X-0.250000X0.225000X-0.250000X0.225000X0.250000X-0.225000X0.250000X0*%
%ADD15FreePoly0,225.000000*%
%ADD16RoundRect,0.050000X0.212132X0.282843X-0.282843X-0.212132X-0.212132X-0.282843X0.282843X0.212132X0*%
%ADD17FreePoly1,225.000000*%
%ADD18FreePoly2,225.000000*%
%ADD19RoundRect,0.050000X-0.212132X0.282843X-0.282843X0.212132X0.212132X-0.282843X0.282843X-0.212132X0*%
%ADD20FreePoly3,225.000000*%
%ADD21FreePoly4,225.000000*%
%ADD22FreePoly5,225.000000*%
%ADD23FreePoly6,225.000000*%
%ADD24FreePoly7,225.000000*%
%ADD25RotRect,2.650000X2.650000X225.000000*%
%ADD26C,1.000000*%
%ADD27RoundRect,0.130000X-0.520000X-6.370000X0.520000X-6.370000X0.520000X6.370000X-0.520000X6.370000X0*%
%ADD28RoundRect,0.130000X-0.520000X-5.870000X0.520000X-5.870000X0.520000X5.870000X-0.520000X5.870000X0*%
%ADD29RoundRect,0.225000X0.250000X-0.225000X0.250000X0.225000X-0.250000X0.225000X-0.250000X-0.225000X0*%
%ADD30RoundRect,0.225000X-0.250000X0.225000X-0.250000X-0.225000X0.250000X-0.225000X0.250000X0.225000X0*%
%ADD31RoundRect,0.200000X-0.200000X-0.275000X0.200000X-0.275000X0.200000X0.275000X-0.200000X0.275000X0*%
%ADD32R,0.800000X0.550000*%
%ADD33RoundRect,0.200000X0.275000X-0.200000X0.275000X0.200000X-0.275000X0.200000X-0.275000X-0.200000X0*%
%ADD34R,0.600000X1.000000*%
%ADD35RoundRect,0.218750X0.256250X-0.218750X0.256250X0.218750X-0.256250X0.218750X-0.256250X-0.218750X0*%
G04 APERTURE END LIST*
D10*
%TO.C,D1*%
X144612498Y-125799999D03*
X146187502Y-125800001D03*
%TD*%
D11*
%TO.C,J2*%
X130800000Y-128950000D03*
D12*
X130799997Y-131489999D03*
X130799997Y-126409999D03*
X127624996Y-131489999D03*
X127624996Y-126409999D03*
D11*
X125719995Y-129966001D03*
X125719995Y-127933998D03*
D13*
X129529997Y-128315000D03*
X129529995Y-129584998D03*
X128259997Y-128314999D03*
X128259997Y-129584999D03*
X126989999Y-128315000D03*
X126989997Y-129584998D03*
%TD*%
D14*
%TO.C,C9*%
X144624999Y-122750000D03*
X146175001Y-122750000D03*
%TD*%
D15*
%TO.C,U1*%
X144468808Y-128561092D03*
D16*
X144185964Y-128278250D03*
X143903124Y-127995407D03*
X143620281Y-127712562D03*
X143337438Y-127429721D03*
X143054596Y-127146875D03*
X142771750Y-126864034D03*
D17*
X142488907Y-126581191D03*
D18*
X141711092Y-126581192D03*
D19*
X141428250Y-126864036D03*
X141145407Y-127146876D03*
X140862562Y-127429719D03*
X140579721Y-127712562D03*
X140296875Y-127995404D03*
X140014034Y-128278250D03*
D20*
X139731191Y-128561093D03*
D21*
X139731192Y-129338908D03*
D16*
X140014036Y-129621750D03*
X140296876Y-129904593D03*
X140579719Y-130187438D03*
X140862562Y-130470279D03*
X141145404Y-130753125D03*
X141428250Y-131035966D03*
D22*
X141711093Y-131318809D03*
D23*
X142488908Y-131318808D03*
D19*
X142771750Y-131035964D03*
X143054593Y-130753124D03*
X143337438Y-130470281D03*
X143620279Y-130187438D03*
X143903125Y-129904596D03*
X144185966Y-129621750D03*
D24*
X144468809Y-129338907D03*
D25*
X142100000Y-128950000D03*
%TD*%
D26*
%TO.C,TP3*%
X137975000Y-134575000D03*
%TD*%
D27*
%TO.C,J1*%
X138300000Y-114970000D03*
D28*
X141100000Y-115470000D03*
X143100000Y-115470000D03*
D27*
X145900000Y-114970000D03*
%TD*%
D29*
%TO.C,C7*%
X133350000Y-129725001D03*
X133350000Y-128174999D03*
%TD*%
D26*
%TO.C,TP4*%
X140100000Y-136700000D03*
%TD*%
%TO.C,TP2*%
X140100000Y-134575000D03*
%TD*%
D30*
%TO.C,C8*%
X138300000Y-122724999D03*
X138300000Y-124275001D03*
%TD*%
D31*
%TO.C,R5*%
X144575000Y-124275000D03*
X146225000Y-124275000D03*
%TD*%
D32*
%TO.C,U3*%
X140899998Y-122600003D03*
X140900000Y-123550000D03*
X140899997Y-124500000D03*
X143300002Y-124499997D03*
X143300003Y-122600000D03*
%TD*%
D33*
%TO.C,R6*%
X136974999Y-127374999D03*
X136974999Y-125724999D03*
%TD*%
D26*
%TO.C,TP1*%
X137975000Y-136700000D03*
%TD*%
D34*
%TO.C,AE2*%
X146237500Y-134175000D03*
X146237500Y-137175000D03*
X147537500Y-137175000D03*
X147537500Y-134175000D03*
%TD*%
D35*
%TO.C,D2*%
X138500000Y-127337501D03*
X138500000Y-125762499D03*
%TD*%
M02*
