%TF.GenerationSoftware,KiCad,Pcbnew,8.0.8*%
%TF.CreationDate,2025-03-24T11:25:52+01:00*%
%TF.ProjectId,RF_HID_dongle_test,52465f48-4944-45f6-946f-6e676c655f74,rev?*%
%TF.SameCoordinates,Original*%
%TF.FileFunction,Copper,L4,Bot*%
%TF.FilePolarity,Positive*%
%FSLAX46Y46*%
G04 Gerber Fmt 4.6, Leading zero omitted, Abs format (unit mm)*
G04 Created by KiCad (PCBNEW 8.0.8) date 2025-03-24 11:25:52*
%MOMM*%
%LPD*%
G01*
G04 APERTURE LIST*
G04 Aperture macros list*
%AMRoundRect*
0 Rectangle with rounded corners*
0 $1 Rounding radius*
0 $2 $3 $4 $5 $6 $7 $8 $9 X,Y pos of 4 corners*
0 Add a 4 corners polygon primitive as box body*
4,1,4,$2,$3,$4,$5,$6,$7,$8,$9,$2,$3,0*
0 Add four circle primitives for the rounded corners*
1,1,$1+$1,$2,$3*
1,1,$1+$1,$4,$5*
1,1,$1+$1,$6,$7*
1,1,$1+$1,$8,$9*
0 Add four rect primitives between the rounded corners*
20,1,$1+$1,$2,$3,$4,$5,0*
20,1,$1+$1,$4,$5,$6,$7,0*
20,1,$1+$1,$6,$7,$8,$9,0*
20,1,$1+$1,$8,$9,$2,$3,0*%
G04 Aperture macros list end*
%TA.AperFunction,SMDPad,CuDef*%
%ADD10RoundRect,0.225000X0.225000X0.250000X-0.225000X0.250000X-0.225000X-0.250000X0.225000X-0.250000X0*%
%TD*%
%TA.AperFunction,SMDPad,CuDef*%
%ADD11RoundRect,0.200000X0.200000X0.275000X-0.200000X0.275000X-0.200000X-0.275000X0.200000X-0.275000X0*%
%TD*%
%TA.AperFunction,SMDPad,CuDef*%
%ADD12R,1.400000X1.200000*%
%TD*%
%TA.AperFunction,SMDPad,CuDef*%
%ADD13RoundRect,0.225000X-0.250000X0.225000X-0.250000X-0.225000X0.250000X-0.225000X0.250000X0.225000X0*%
%TD*%
%TA.AperFunction,SMDPad,CuDef*%
%ADD14RoundRect,0.225000X-0.225000X-0.250000X0.225000X-0.250000X0.225000X0.250000X-0.225000X0.250000X0*%
%TD*%
%TA.AperFunction,SMDPad,CuDef*%
%ADD15RoundRect,0.218750X0.381250X-0.218750X0.381250X0.218750X-0.381250X0.218750X-0.381250X-0.218750X0*%
%TD*%
%TA.AperFunction,ViaPad*%
%ADD16C,0.600000*%
%TD*%
%TA.AperFunction,Conductor*%
%ADD17C,0.900000*%
%TD*%
%TA.AperFunction,Conductor*%
%ADD18C,0.600000*%
%TD*%
%TA.AperFunction,Conductor*%
%ADD19C,0.800000*%
%TD*%
%TA.AperFunction,Conductor*%
%ADD20C,0.550000*%
%TD*%
%TA.AperFunction,Conductor*%
%ADD21C,0.200000*%
%TD*%
%TA.AperFunction,Conductor*%
%ADD22C,0.150000*%
%TD*%
%ADD23C,0.300000*%
%ADD24C,0.350000*%
G04 APERTURE END LIST*
D10*
%TO.P,C6,1*%
%TO.N,GND*%
X142775000Y-132150000D03*
%TO.P,C6,2*%
%TO.N,/VINTA*%
X141225000Y-132150000D03*
%TD*%
%TO.P,C5,1*%
%TO.N,GND*%
X142775000Y-130600000D03*
%TO.P,C5,2*%
%TO.N,/VINTA*%
X141225000Y-130600000D03*
%TD*%
%TO.P,C3,1*%
%TO.N,GND*%
X145800003Y-130600002D03*
%TO.P,C3,2*%
%TO.N,/VDCIA*%
X144250001Y-130600002D03*
%TD*%
D11*
%TO.P,R4,1*%
%TO.N,/NRST*%
X138550000Y-128700000D03*
%TO.P,R4,2*%
%TO.N,+3V3*%
X136900000Y-128700000D03*
%TD*%
D12*
%TO.P,Y2,1,1*%
%TO.N,/HSE_I*%
X139450000Y-132050000D03*
%TO.P,Y2,2,2*%
%TO.N,GND*%
X137250000Y-132050000D03*
%TO.P,Y2,3,3*%
%TO.N,/HSE_O*%
X137250000Y-130350000D03*
%TO.P,Y2,4,4*%
%TO.N,GND*%
X139450000Y-130350000D03*
%TD*%
D13*
%TO.P,C2,1*%
%TO.N,GND*%
X146150000Y-124524999D03*
%TO.P,C2,2*%
%TO.N,/VDCIA*%
X146150000Y-126075001D03*
%TD*%
D14*
%TO.P,C1,1*%
%TO.N,GND*%
X141324999Y-126000000D03*
%TO.P,C1,2*%
%TO.N,+3V3*%
X142875001Y-126000000D03*
%TD*%
D15*
%TO.P,L1,1*%
%TO.N,/VSW*%
X144500000Y-126062500D03*
%TO.P,L1,2*%
%TO.N,/VDCIA*%
X144500000Y-123937500D03*
%TD*%
D10*
%TO.P,C4,1*%
%TO.N,GND*%
X145800001Y-132150000D03*
%TO.P,C4,2*%
%TO.N,/VDCIA*%
X144249999Y-132150000D03*
%TD*%
D16*
%TO.N,GND*%
X137475000Y-138075000D03*
X140475000Y-138075000D03*
X147550000Y-132325000D03*
X142107066Y-130193355D03*
X142100000Y-128950000D03*
X136650000Y-135075000D03*
X147550000Y-131325000D03*
X147550000Y-123325000D03*
X146475000Y-138075000D03*
X145800003Y-131357925D03*
X144975000Y-121450000D03*
X147550000Y-127325000D03*
X144975000Y-120200000D03*
X141300000Y-123550000D03*
X142900000Y-123600000D03*
X126350000Y-128950000D03*
X146825000Y-121450000D03*
X147550000Y-138050000D03*
X138850000Y-124275000D03*
X142475000Y-138075000D03*
X136650000Y-124575000D03*
X142475000Y-133325000D03*
X141475000Y-134200000D03*
X139475000Y-138075000D03*
X147550000Y-125325000D03*
X143475000Y-138075000D03*
X145350000Y-132350000D03*
X146825000Y-120200000D03*
X136650000Y-138075000D03*
X147550000Y-130325000D03*
X141475000Y-135200000D03*
X146775000Y-133225000D03*
X136650000Y-122575000D03*
X136650000Y-132075000D03*
X145475000Y-138075000D03*
X147537500Y-133225000D03*
X141475000Y-133325000D03*
X146225000Y-132575000D03*
X136650000Y-136075000D03*
X144975000Y-118950000D03*
X147550000Y-128325000D03*
X147550000Y-126325000D03*
X141475000Y-137200000D03*
X136650000Y-133075000D03*
X143350000Y-128950000D03*
X133350000Y-130450000D03*
X147550000Y-122325000D03*
X147550000Y-124325000D03*
X142100000Y-127700000D03*
X141475000Y-136200000D03*
X138475000Y-138075000D03*
X136650000Y-134075000D03*
X147550000Y-129325000D03*
X136650000Y-123575000D03*
X141475000Y-138075000D03*
X146825000Y-118950000D03*
X144475000Y-138075000D03*
X140850000Y-128950000D03*
X136650000Y-137075000D03*
%TO.N,+3V3*%
X136974999Y-126724999D03*
X143450000Y-126000000D03*
X139050000Y-135650000D03*
X143500000Y-123100000D03*
X138550000Y-136150000D03*
X143950000Y-122600000D03*
%TO.N,/VDCIA*%
X144641826Y-127185742D03*
X143675000Y-132150000D03*
%TO.N,/VINTA*%
X140600002Y-131864214D03*
%TO.N,/NRST*%
X138100000Y-128700000D03*
X134000000Y-128200000D03*
X128850000Y-127700000D03*
%TO.N,/SWCLK*%
X128850000Y-130200000D03*
X139125000Y-133950000D03*
X140224999Y-126199776D03*
%TO.N,/SWDIO*%
X137975000Y-133950000D03*
X130253154Y-129840850D03*
X140224999Y-126949779D03*
%TO.N,/VSW*%
X144100000Y-126667159D03*
%TO.N,/HSE_I*%
X138600000Y-131450000D03*
%TO.N,/HSE_O*%
X138069668Y-130919668D03*
%TD*%
D17*
%TO.N,GND*%
X142775000Y-130600000D02*
X142775000Y-132150000D01*
X145800003Y-131357925D02*
X145800003Y-132149998D01*
X145800003Y-132149998D02*
X145800001Y-132150000D01*
D18*
X142513711Y-130600000D02*
X142107066Y-130193355D01*
X142775000Y-130600000D02*
X142513711Y-130600000D01*
X140850000Y-128950000D02*
X139450000Y-130350000D01*
D17*
X145800003Y-130600002D02*
X145800003Y-131357925D01*
D19*
%TO.N,+3V3*%
X136900000Y-128700000D02*
X136900000Y-126799998D01*
X136900000Y-126799998D02*
X136974999Y-126724999D01*
D20*
X143450000Y-126000000D02*
X142875001Y-126000000D01*
%TO.N,/VDCIA*%
X145039259Y-127185742D02*
X146150000Y-126075001D01*
D21*
X143675000Y-132150000D02*
X144249999Y-132150000D01*
D17*
X144250001Y-130600002D02*
X144250001Y-130249999D01*
D20*
X144641826Y-127185742D02*
X145039259Y-127185742D01*
D17*
X144250001Y-130600002D02*
X144250001Y-132149998D01*
X146150000Y-128350000D02*
X146150000Y-126075001D01*
D20*
X144500000Y-123937500D02*
X144500000Y-124425001D01*
D17*
X144250001Y-130249999D02*
X146150000Y-128350000D01*
X144250001Y-132149998D02*
X144249999Y-132150000D01*
D20*
X144500000Y-124425001D02*
X146150000Y-126075001D01*
D21*
%TO.N,/VINTA*%
X140600002Y-131864214D02*
X140885788Y-132150000D01*
X140885788Y-132150000D02*
X141225000Y-132150000D01*
D17*
X141225000Y-130600000D02*
X141225000Y-132150000D01*
D21*
%TO.N,/NRST*%
X129250000Y-128100000D02*
X133900000Y-128100000D01*
D22*
X137350000Y-129450000D02*
X138100000Y-128700000D01*
X134650000Y-129350000D02*
X136350000Y-129350000D01*
X134000000Y-128700000D02*
X134650000Y-129350000D01*
D21*
X133900000Y-128100000D02*
X134000000Y-128200000D01*
D22*
X136450000Y-129450000D02*
X137350000Y-129450000D01*
X136350000Y-129350000D02*
X136450000Y-129450000D01*
X134000000Y-128200000D02*
X134000000Y-128700000D01*
D21*
X138100000Y-128700000D02*
X138550000Y-128700000D01*
X128850000Y-127700000D02*
X129250000Y-128100000D01*
D20*
%TO.N,/VSW*%
X144100000Y-126667159D02*
X144100000Y-126462500D01*
X144100000Y-126462500D02*
X144500000Y-126062500D01*
D21*
%TO.N,/HSE_I*%
X138850000Y-131450000D02*
X139450000Y-132050000D01*
X138600000Y-131450000D02*
X138850000Y-131450000D01*
%TO.N,/HSE_O*%
X137500000Y-130350000D02*
X137250000Y-130350000D01*
X138069668Y-130919668D02*
X137500000Y-130350000D01*
%TD*%
%TA.AperFunction,Conductor*%
%TO.N,GND*%
G36*
X147517913Y-108242174D02*
G01*
X147827826Y-108552086D01*
X147849500Y-108604412D01*
X147849500Y-133600999D01*
X147827826Y-133653325D01*
X147775500Y-133674999D01*
X141824998Y-133674999D01*
X141824999Y-137674999D01*
X141825000Y-137675000D01*
X147775502Y-137675000D01*
X147827826Y-137696674D01*
X147849500Y-137749000D01*
X147849500Y-138190587D01*
X147827826Y-138242913D01*
X147517913Y-138552826D01*
X147465587Y-138574500D01*
X136734412Y-138574500D01*
X136682086Y-138552826D01*
X136372174Y-138242913D01*
X136350500Y-138190587D01*
X136350500Y-136150000D01*
X138094867Y-136150000D01*
X138113302Y-136278223D01*
X138113302Y-136278224D01*
X138113303Y-136278226D01*
X138167118Y-136396063D01*
X138251951Y-136493967D01*
X138360931Y-136564004D01*
X138485228Y-136600500D01*
X138614772Y-136600500D01*
X138739069Y-136564004D01*
X138848049Y-136493967D01*
X138932882Y-136396063D01*
X138986697Y-136278226D01*
X139003125Y-136163969D01*
X139032025Y-136115260D01*
X139076372Y-136100500D01*
X139114772Y-136100500D01*
X139239069Y-136064004D01*
X139348049Y-135993967D01*
X139432882Y-135896063D01*
X139486697Y-135778226D01*
X139505133Y-135650000D01*
X139486697Y-135521774D01*
X139432882Y-135403937D01*
X139348049Y-135306033D01*
X139281032Y-135262964D01*
X139239068Y-135235995D01*
X139114772Y-135199500D01*
X138985228Y-135199500D01*
X138860931Y-135235995D01*
X138751954Y-135306031D01*
X138751950Y-135306034D01*
X138667119Y-135403935D01*
X138613302Y-135521776D01*
X138604202Y-135585071D01*
X138596875Y-135636032D01*
X138567976Y-135684740D01*
X138523629Y-135699500D01*
X138485228Y-135699500D01*
X138360931Y-135735995D01*
X138251954Y-135806031D01*
X138251950Y-135806034D01*
X138167119Y-135903935D01*
X138113302Y-136021776D01*
X138094867Y-136150000D01*
X136350500Y-136150000D01*
X136350500Y-133950000D01*
X137519867Y-133950000D01*
X137538302Y-134078223D01*
X137538302Y-134078224D01*
X137538303Y-134078226D01*
X137592118Y-134196063D01*
X137676951Y-134293967D01*
X137785931Y-134364004D01*
X137910228Y-134400500D01*
X138039772Y-134400500D01*
X138164069Y-134364004D01*
X138273049Y-134293967D01*
X138357882Y-134196063D01*
X138411697Y-134078226D01*
X138430133Y-133950000D01*
X138669867Y-133950000D01*
X138688302Y-134078223D01*
X138688302Y-134078224D01*
X138688303Y-134078226D01*
X138742118Y-134196063D01*
X138826951Y-134293967D01*
X138935931Y-134364004D01*
X139060228Y-134400500D01*
X139189772Y-134400500D01*
X139314069Y-134364004D01*
X139423049Y-134293967D01*
X139507882Y-134196063D01*
X139561697Y-134078226D01*
X139580133Y-133950000D01*
X139561697Y-133821774D01*
X139507882Y-133703937D01*
X139423049Y-133606033D01*
X139356032Y-133562964D01*
X139314068Y-133535995D01*
X139189772Y-133499500D01*
X139060228Y-133499500D01*
X138935931Y-133535995D01*
X138826954Y-133606031D01*
X138826950Y-133606034D01*
X138742119Y-133703935D01*
X138688302Y-133821776D01*
X138669867Y-133950000D01*
X138430133Y-133950000D01*
X138411697Y-133821774D01*
X138357882Y-133703937D01*
X138273049Y-133606033D01*
X138206032Y-133562964D01*
X138164068Y-133535995D01*
X138039772Y-133499500D01*
X137910228Y-133499500D01*
X137785931Y-133535995D01*
X137676954Y-133606031D01*
X137676950Y-133606034D01*
X137592119Y-133703935D01*
X137538302Y-133821776D01*
X137519867Y-133950000D01*
X136350500Y-133950000D01*
X136350500Y-131982291D01*
X136350315Y-131980294D01*
X136350000Y-131973470D01*
X136350000Y-131135812D01*
X136371674Y-131083486D01*
X136424000Y-131061812D01*
X136465109Y-131074281D01*
X136491278Y-131091767D01*
X136535180Y-131100500D01*
X137609439Y-131100500D01*
X137661765Y-131122174D01*
X137676752Y-131143759D01*
X137686786Y-131165731D01*
X137686787Y-131165732D01*
X137771615Y-131263631D01*
X137771616Y-131263632D01*
X137771619Y-131263635D01*
X137878704Y-131332454D01*
X137880599Y-131333672D01*
X138004896Y-131370168D01*
X138070945Y-131370168D01*
X138123271Y-131391842D01*
X138144945Y-131444168D01*
X138144867Y-131445253D01*
X138144867Y-131449999D01*
X138163302Y-131578223D01*
X138163302Y-131578224D01*
X138163303Y-131578226D01*
X138217118Y-131696063D01*
X138301951Y-131793967D01*
X138410931Y-131864004D01*
X138535228Y-131900500D01*
X138535233Y-131900500D01*
X138536023Y-131900614D01*
X138536421Y-131900850D01*
X138540306Y-131901991D01*
X138540015Y-131902981D01*
X138584735Y-131929509D01*
X138599500Y-131973862D01*
X138599500Y-132664820D01*
X138608233Y-132708722D01*
X138641496Y-132758504D01*
X138691278Y-132791767D01*
X138735180Y-132800500D01*
X138735181Y-132800500D01*
X140164819Y-132800500D01*
X140164820Y-132800500D01*
X140208722Y-132791767D01*
X140258504Y-132758504D01*
X140291767Y-132708722D01*
X140300500Y-132664820D01*
X140300500Y-132342767D01*
X140322174Y-132290441D01*
X140374500Y-132268767D01*
X140405300Y-132277820D01*
X140406122Y-132276021D01*
X140410930Y-132278217D01*
X140410932Y-132278217D01*
X140410933Y-132278218D01*
X140535230Y-132314714D01*
X140550500Y-132314714D01*
X140602826Y-132336388D01*
X140624500Y-132388714D01*
X140624500Y-132435640D01*
X140635134Y-132508625D01*
X140635134Y-132508626D01*
X140690173Y-132621210D01*
X140690174Y-132621211D01*
X140778789Y-132709826D01*
X140891375Y-132764866D01*
X140964364Y-132775500D01*
X140964370Y-132775500D01*
X141485630Y-132775500D01*
X141485636Y-132775500D01*
X141558625Y-132764866D01*
X141671211Y-132709826D01*
X141759826Y-132621211D01*
X141814866Y-132508625D01*
X141825500Y-132435636D01*
X141825500Y-131864364D01*
X141825500Y-130520943D01*
X141825500Y-130314364D01*
X141814866Y-130241375D01*
X141759826Y-130128789D01*
X141671211Y-130040174D01*
X141671210Y-130040173D01*
X141558626Y-129985134D01*
X141485640Y-129974500D01*
X141485636Y-129974500D01*
X140964364Y-129974500D01*
X140964359Y-129974500D01*
X140891374Y-129985134D01*
X140891373Y-129985134D01*
X140778789Y-130040173D01*
X140690173Y-130128789D01*
X140635134Y-130241373D01*
X140635134Y-130241374D01*
X140624500Y-130314359D01*
X140624500Y-131339714D01*
X140602826Y-131392040D01*
X140550500Y-131413714D01*
X140535230Y-131413714D01*
X140410931Y-131450210D01*
X140407056Y-131452701D01*
X140351318Y-131462755D01*
X140304797Y-131430452D01*
X140294473Y-131404883D01*
X140292457Y-131394749D01*
X140291767Y-131391278D01*
X140258504Y-131341496D01*
X140246794Y-131333672D01*
X140208722Y-131308233D01*
X140164820Y-131299500D01*
X140164819Y-131299500D01*
X139084413Y-131299500D01*
X139032087Y-131277826D01*
X139013070Y-131258809D01*
X138998084Y-131237226D01*
X138982882Y-131203937D01*
X138930738Y-131143759D01*
X138898052Y-131106036D01*
X138898050Y-131106035D01*
X138898049Y-131106033D01*
X138824092Y-131058504D01*
X138789068Y-131035995D01*
X138664772Y-130999500D01*
X138598724Y-130999500D01*
X138546398Y-130977826D01*
X138524724Y-130925500D01*
X138524801Y-130924416D01*
X138524801Y-130919669D01*
X138506365Y-130791444D01*
X138506365Y-130791442D01*
X138452550Y-130673605D01*
X138367717Y-130575701D01*
X138282512Y-130520943D01*
X138258736Y-130505663D01*
X138153652Y-130474809D01*
X138109552Y-130439271D01*
X138100500Y-130403806D01*
X138100500Y-129735180D01*
X138093535Y-129700167D01*
X138091767Y-129691278D01*
X138058504Y-129641496D01*
X138008722Y-129608233D01*
X137964820Y-129599500D01*
X137964819Y-129599500D01*
X137698056Y-129599500D01*
X137645730Y-129577826D01*
X137624056Y-129525500D01*
X137645730Y-129473174D01*
X137793405Y-129325499D01*
X137947625Y-129171278D01*
X137999950Y-129149605D01*
X138052276Y-129171279D01*
X138060173Y-129180603D01*
X138060799Y-129181480D01*
X138060802Y-129181483D01*
X138143517Y-129264198D01*
X138248607Y-129315573D01*
X138316740Y-129325500D01*
X138316746Y-129325500D01*
X138783254Y-129325500D01*
X138783260Y-129325500D01*
X138851393Y-129315573D01*
X138956483Y-129264198D01*
X139039198Y-129181483D01*
X139090573Y-129076393D01*
X139100500Y-129008260D01*
X139100500Y-128391740D01*
X139090573Y-128323607D01*
X139039198Y-128218517D01*
X138956483Y-128135802D01*
X138956482Y-128135801D01*
X138851394Y-128084427D01*
X138783264Y-128074500D01*
X138783260Y-128074500D01*
X138316740Y-128074500D01*
X138316735Y-128074500D01*
X138248606Y-128084427D01*
X138248605Y-128084427D01*
X138143517Y-128135801D01*
X138060801Y-128218518D01*
X138057238Y-128223508D01*
X138055409Y-128222202D01*
X138019260Y-128254110D01*
X138016098Y-128255115D01*
X137910934Y-128285993D01*
X137910933Y-128285994D01*
X137801954Y-128356031D01*
X137801950Y-128356034D01*
X137717119Y-128453935D01*
X137663302Y-128571776D01*
X137644867Y-128700000D01*
X137656719Y-128782439D01*
X137642712Y-128837316D01*
X137635798Y-128845294D01*
X137576826Y-128904267D01*
X137524501Y-128925942D01*
X137472175Y-128904268D01*
X137450500Y-128851943D01*
X137450500Y-127022234D01*
X137460413Y-126985235D01*
X137487983Y-126937484D01*
X137525498Y-126797475D01*
X137525499Y-126797475D01*
X137525499Y-126652523D01*
X137525498Y-126652522D01*
X137487984Y-126512516D01*
X137483822Y-126505307D01*
X137415509Y-126386984D01*
X137313014Y-126284489D01*
X137187484Y-126212015D01*
X137187481Y-126212013D01*
X137141811Y-126199776D01*
X139769866Y-126199776D01*
X139788301Y-126327999D01*
X139788301Y-126328000D01*
X139788302Y-126328002D01*
X139842117Y-126445839D01*
X139842118Y-126445841D01*
X139842119Y-126445843D01*
X139911851Y-126526318D01*
X139929736Y-126580056D01*
X139911851Y-126623236D01*
X139842120Y-126703711D01*
X139842118Y-126703713D01*
X139788301Y-126821555D01*
X139769866Y-126949779D01*
X139788301Y-127078002D01*
X139788301Y-127078003D01*
X139788302Y-127078005D01*
X139842117Y-127195842D01*
X139926950Y-127293746D01*
X140035930Y-127363783D01*
X140160227Y-127400279D01*
X140289771Y-127400279D01*
X140414068Y-127363783D01*
X140523048Y-127293746D01*
X140607881Y-127195842D01*
X140661696Y-127078005D01*
X140680132Y-126949779D01*
X140661696Y-126821553D01*
X140607881Y-126703716D01*
X140538145Y-126623235D01*
X140520261Y-126569498D01*
X140538147Y-126526317D01*
X140607881Y-126445839D01*
X140661696Y-126328002D01*
X140680132Y-126199776D01*
X140661696Y-126071550D01*
X140607881Y-125953713D01*
X140523048Y-125855809D01*
X140449754Y-125808706D01*
X140414067Y-125785771D01*
X140289771Y-125749276D01*
X140160227Y-125749276D01*
X140035930Y-125785771D01*
X139926953Y-125855807D01*
X139926949Y-125855810D01*
X139842118Y-125953711D01*
X139788301Y-126071552D01*
X139769866Y-126199776D01*
X137141811Y-126199776D01*
X137047475Y-126174499D01*
X137047473Y-126174499D01*
X136902525Y-126174499D01*
X136902523Y-126174499D01*
X136762517Y-126212013D01*
X136762512Y-126212015D01*
X136636984Y-126284489D01*
X136552655Y-126368817D01*
X136476324Y-126445148D01*
X136424000Y-126466822D01*
X136371674Y-126445148D01*
X136350000Y-126392822D01*
X136350000Y-125927663D01*
X136350315Y-125920839D01*
X136350604Y-125917718D01*
X136350604Y-125774960D01*
X136350500Y-125773770D01*
X136350500Y-125714359D01*
X142274501Y-125714359D01*
X142274501Y-126285640D01*
X142285135Y-126358625D01*
X142285135Y-126358626D01*
X142340174Y-126471210D01*
X142340175Y-126471211D01*
X142428790Y-126559826D01*
X142541376Y-126614866D01*
X142614365Y-126625500D01*
X142614371Y-126625500D01*
X143135631Y-126625500D01*
X143135637Y-126625500D01*
X143208626Y-126614866D01*
X143321212Y-126559826D01*
X143408864Y-126472174D01*
X143461190Y-126450500D01*
X143514774Y-126450500D01*
X143544383Y-126441805D01*
X143577471Y-126432090D01*
X143633783Y-126438143D01*
X143669321Y-126482243D01*
X143665634Y-126533827D01*
X143663304Y-126538929D01*
X143663302Y-126538936D01*
X143644867Y-126667159D01*
X143663302Y-126795382D01*
X143663302Y-126795383D01*
X143663303Y-126795385D01*
X143717118Y-126913222D01*
X143801951Y-127011126D01*
X143906012Y-127078002D01*
X143910931Y-127081163D01*
X144035228Y-127117659D01*
X144112783Y-127117659D01*
X144165109Y-127139333D01*
X144186030Y-127181128D01*
X144186693Y-127185740D01*
X144186693Y-127185742D01*
X144193786Y-127235076D01*
X144205128Y-127313965D01*
X144205128Y-127313966D01*
X144205129Y-127313968D01*
X144258944Y-127431805D01*
X144343777Y-127529709D01*
X144452757Y-127599746D01*
X144577054Y-127636242D01*
X144706598Y-127636242D01*
X144781535Y-127614239D01*
X144802383Y-127611242D01*
X145095279Y-127611242D01*
X145095279Y-127611241D01*
X145203496Y-127582245D01*
X145300522Y-127526227D01*
X145423174Y-127403575D01*
X145475500Y-127381901D01*
X145527826Y-127403575D01*
X145549500Y-127455901D01*
X145549500Y-128070612D01*
X145527826Y-128122938D01*
X143769481Y-129881282D01*
X143732780Y-129944852D01*
X143690424Y-130018212D01*
X143690422Y-130018217D01*
X143649500Y-130170939D01*
X143649500Y-130335014D01*
X143649501Y-130335027D01*
X143649501Y-131632572D01*
X143627827Y-131684898D01*
X143596349Y-131703575D01*
X143485931Y-131735995D01*
X143376954Y-131806031D01*
X143376950Y-131806034D01*
X143292119Y-131903935D01*
X143238302Y-132021776D01*
X143219867Y-132150000D01*
X143238302Y-132278223D01*
X143238302Y-132278224D01*
X143238303Y-132278226D01*
X143292118Y-132396063D01*
X143376951Y-132493967D01*
X143485931Y-132564004D01*
X143610228Y-132600500D01*
X143663810Y-132600500D01*
X143716136Y-132622174D01*
X143803788Y-132709826D01*
X143916374Y-132764866D01*
X143989363Y-132775500D01*
X143989369Y-132775500D01*
X144510629Y-132775500D01*
X144510635Y-132775500D01*
X144583624Y-132764866D01*
X144696210Y-132709826D01*
X144784825Y-132621211D01*
X144839865Y-132508625D01*
X144850499Y-132435636D01*
X144850499Y-132234010D01*
X144850502Y-132233965D01*
X144850502Y-132066412D01*
X144850501Y-132066394D01*
X144850501Y-130529385D01*
X144872174Y-130477060D01*
X146518713Y-128830521D01*
X146518716Y-128830520D01*
X146630520Y-128718716D01*
X146709577Y-128581784D01*
X146713309Y-128567857D01*
X146742930Y-128457314D01*
X146750500Y-128429058D01*
X146750500Y-126455132D01*
X146758020Y-126422631D01*
X146764865Y-126408629D01*
X146764865Y-126408627D01*
X146764866Y-126408626D01*
X146775500Y-126335637D01*
X146775500Y-125814365D01*
X146764866Y-125741376D01*
X146709826Y-125628790D01*
X146621211Y-125540175D01*
X146621210Y-125540174D01*
X146508626Y-125485135D01*
X146435640Y-125474501D01*
X146435636Y-125474501D01*
X146181899Y-125474501D01*
X146129573Y-125452827D01*
X145170548Y-124493802D01*
X145148874Y-124441476D01*
X145170547Y-124389151D01*
X145185919Y-124373780D01*
X145240043Y-124263067D01*
X145250500Y-124191295D01*
X145250499Y-123683706D01*
X145240043Y-123611933D01*
X145185919Y-123501220D01*
X145098780Y-123414081D01*
X145098779Y-123414080D01*
X144988068Y-123359957D01*
X144951725Y-123354662D01*
X144916295Y-123349500D01*
X144916294Y-123349500D01*
X144083705Y-123349500D01*
X144006245Y-123360785D01*
X144006038Y-123359365D01*
X143955643Y-123354662D01*
X143919489Y-123311066D01*
X143922880Y-123258480D01*
X143936697Y-123228225D01*
X143936697Y-123228223D01*
X143953257Y-123113041D01*
X143982157Y-123064334D01*
X144009939Y-123052828D01*
X144009694Y-123051991D01*
X144014772Y-123050500D01*
X144139069Y-123014004D01*
X144248049Y-122943967D01*
X144332882Y-122846063D01*
X144386697Y-122728226D01*
X144405133Y-122600000D01*
X144386697Y-122471774D01*
X144332882Y-122353937D01*
X144248049Y-122256033D01*
X144181032Y-122212964D01*
X144139068Y-122185995D01*
X144014772Y-122149500D01*
X143885228Y-122149500D01*
X143760931Y-122185995D01*
X143651954Y-122256031D01*
X143651950Y-122256034D01*
X143567119Y-122353935D01*
X143513302Y-122471776D01*
X143496742Y-122586956D01*
X143467842Y-122635665D01*
X143440060Y-122647174D01*
X143440306Y-122648009D01*
X143310931Y-122685995D01*
X143201954Y-122756031D01*
X143201950Y-122756034D01*
X143117119Y-122853935D01*
X143063302Y-122971776D01*
X143044867Y-123100000D01*
X143063302Y-123228223D01*
X143063302Y-123228224D01*
X143063303Y-123228226D01*
X143117118Y-123346063D01*
X143201951Y-123443967D01*
X143310931Y-123514004D01*
X143435228Y-123550500D01*
X143564772Y-123550500D01*
X143668072Y-123520169D01*
X143724385Y-123526224D01*
X143759923Y-123570324D01*
X143759670Y-123606083D01*
X143760786Y-123606246D01*
X143759958Y-123611931D01*
X143759957Y-123611933D01*
X143756668Y-123634502D01*
X143749500Y-123683700D01*
X143749500Y-124191294D01*
X143759955Y-124263061D01*
X143759957Y-124263068D01*
X143814080Y-124373779D01*
X143814081Y-124373780D01*
X143901220Y-124460919D01*
X144011933Y-124515043D01*
X144038326Y-124518888D01*
X144086980Y-124547880D01*
X144099135Y-124572961D01*
X144103496Y-124589235D01*
X144103497Y-124589239D01*
X144159513Y-124686261D01*
X144159515Y-124686264D01*
X144821426Y-125348174D01*
X144843100Y-125400500D01*
X144821426Y-125452826D01*
X144769100Y-125474500D01*
X144083705Y-125474500D01*
X144011938Y-125484955D01*
X144011931Y-125484957D01*
X143901220Y-125539080D01*
X143812264Y-125628036D01*
X143759938Y-125649710D01*
X143719931Y-125637963D01*
X143704484Y-125628036D01*
X143683603Y-125614616D01*
X143639068Y-125585995D01*
X143514772Y-125549500D01*
X143461190Y-125549500D01*
X143408864Y-125527826D01*
X143321211Y-125440173D01*
X143208627Y-125385134D01*
X143135641Y-125374500D01*
X143135637Y-125374500D01*
X142614365Y-125374500D01*
X142614360Y-125374500D01*
X142541375Y-125385134D01*
X142541374Y-125385134D01*
X142428790Y-125440173D01*
X142340174Y-125528789D01*
X142285135Y-125641373D01*
X142285135Y-125641374D01*
X142274501Y-125714359D01*
X136350500Y-125714359D01*
X136350500Y-108604412D01*
X136372174Y-108552086D01*
X136682086Y-108242174D01*
X136734412Y-108220500D01*
X147465587Y-108220500D01*
X147517913Y-108242174D01*
G37*
%TD.AperFunction*%
%TD*%
D23*
X137475000Y-138075000D03*
X140475000Y-138075000D03*
X147550000Y-132325000D03*
X142107066Y-130193355D03*
X142100000Y-128950000D03*
X136650000Y-135075000D03*
X147550000Y-131325000D03*
X147550000Y-123325000D03*
X146475000Y-138075000D03*
X145800003Y-131357925D03*
X144975000Y-121450000D03*
X147550000Y-127325000D03*
X144975000Y-120200000D03*
X141300000Y-123550000D03*
X142900000Y-123600000D03*
X126350000Y-128950000D03*
X146825000Y-121450000D03*
X147550000Y-138050000D03*
X138850000Y-124275000D03*
X142475000Y-138075000D03*
X136650000Y-124575000D03*
X142475000Y-133325000D03*
X141475000Y-134200000D03*
X139475000Y-138075000D03*
X147550000Y-125325000D03*
X143475000Y-138075000D03*
X145350000Y-132350000D03*
X146825000Y-120200000D03*
X136650000Y-138075000D03*
X147550000Y-130325000D03*
X141475000Y-135200000D03*
X146775000Y-133225000D03*
X136650000Y-122575000D03*
X136650000Y-132075000D03*
X145475000Y-138075000D03*
X147537500Y-133225000D03*
X141475000Y-133325000D03*
X146225000Y-132575000D03*
X136650000Y-136075000D03*
X144975000Y-118950000D03*
X147550000Y-128325000D03*
X147550000Y-126325000D03*
X141475000Y-137200000D03*
X136650000Y-133075000D03*
X143350000Y-128950000D03*
X133350000Y-130450000D03*
X147550000Y-122325000D03*
X147550000Y-124325000D03*
X142100000Y-127700000D03*
X141475000Y-136200000D03*
X138475000Y-138075000D03*
X136650000Y-134075000D03*
X147550000Y-129325000D03*
X136650000Y-123575000D03*
X141475000Y-138075000D03*
X146825000Y-118950000D03*
X144475000Y-138075000D03*
X140850000Y-128950000D03*
X136650000Y-137075000D03*
X136974999Y-126724999D03*
X143450000Y-126000000D03*
X139050000Y-135650000D03*
X143500000Y-123100000D03*
X138550000Y-136150000D03*
X143950000Y-122600000D03*
X144641826Y-127185742D03*
X143675000Y-132150000D03*
X140600002Y-131864214D03*
X138100000Y-128700000D03*
X134000000Y-128200000D03*
X128850000Y-127700000D03*
X128850000Y-130200000D03*
X139125000Y-133950000D03*
X140224999Y-126199776D03*
X137975000Y-133950000D03*
X130253154Y-129840850D03*
X140224999Y-126949779D03*
X144100000Y-126667159D03*
X138600000Y-131450000D03*
X138069668Y-130919668D03*
D24*
X130800000Y-128950000D03*
X130799997Y-131489999D03*
X130799997Y-126409999D03*
X127624996Y-131489999D03*
X127624996Y-126409999D03*
X125719995Y-129966001D03*
X125719995Y-127933998D03*
M02*
