M48
; DRILL file {KiCad 8.0.8} date 2025-03-21T10:35:36+0100
; FORMAT={-:-/ absolute / metric / decimal}
; #@! TF.CreationDate,2025-03-21T10:35:36+01:00
; #@! TF.GenerationSoftware,Kicad,Pcbnew,8.0.8
; #@! TF.FileFunction,Plated,1,4,PTH
FMAT,2
METRIC
; #@! TA.AperFunction,Plated,PTH,ComponentDrill
T1C0.200
; #@! TA.AperFunction,Plated,PTH,ViaDrill
T2C0.300
; #@! TA.AperFunction,Plated,PTH,ComponentDrill
T3C0.300
; #@! TA.AperFunction,Plated,PTH,ComponentDrill
T4C0.600
; #@! TA.AperFunction,Plated,PTH,ComponentDrill
T5C1.000
%
G90
G05
T1
X158.9Y-138.9
X158.9Y-141.1
X161.1Y-138.9
X161.1Y-141.1
T2
X136.75Y-110.744
X136.75Y-94.75
X136.75Y-95.75
X136.75Y-96.75
X136.75Y-97.75
X136.75Y-98.75
X136.75Y-99.75
X136.75Y-100.75
X136.75Y-101.75
X136.75Y-102.75
X136.75Y-103.75
X136.75Y-104.75
X136.75Y-105.75
X136.75Y-106.75
X136.75Y-107.75
X136.75Y-108.75
X136.75Y-109.75
X136.75Y-111.75
X136.75Y-112.75
X136.75Y-113.75
X136.75Y-114.75
X136.75Y-115.75
X136.75Y-116.75
X136.75Y-117.75
X136.75Y-118.75
X136.75Y-119.75
X136.75Y-120.75
X136.75Y-121.75
X136.75Y-122.75
X136.75Y-123.75
X136.75Y-124.75
X136.75Y-125.75
X136.75Y-126.75
X136.75Y-127.75
X136.75Y-128.75
X136.75Y-129.75
X136.75Y-130.75
X136.75Y-131.75
X136.75Y-132.75
X136.75Y-133.75
X136.75Y-134.75
X136.75Y-135.75
X136.75Y-136.75
X136.75Y-137.75
X136.75Y-138.75
X136.75Y-139.75
X136.75Y-140.75
X136.75Y-141.75
X136.75Y-142.75
X136.75Y-143.75
X136.75Y-144.75
X136.75Y-145.75
X137.0Y-146.5
X137.75Y-94.75
X137.8Y-122.55
X137.8Y-123.9
X137.8Y-125.2
X137.8Y-128.3
X137.8Y-129.65
X137.8Y-131.0
X138.75Y-94.75
X138.75Y-140.1
X138.775Y-133.374
X139.5Y-146.75
X139.725Y-117.65
X139.75Y-94.75
X139.75Y-140.1
X139.9Y-137.925
X139.95Y-127.0
X140.0Y-134.999
X140.0Y-108.0
X140.0Y-111.5
X140.425Y-119.452
X140.5Y-146.75
X140.75Y-94.75
X140.75Y-102.29
X140.75Y-144.25
X140.775Y-118.45
X141.088Y-140.062
X141.25Y-115.8
X141.5Y-108.0
X141.5Y-109.5
X141.5Y-146.75
X141.55Y-120.875
X141.7Y-112.2
X141.7Y-113.2
X141.7Y-114.25
X141.75Y-94.75
X141.9Y-130.75
X142.5Y-112.2
X142.5Y-115.8
X142.5Y-117.375
X142.5Y-132.5
X142.5Y-139.35
X142.5Y-146.75
X142.75Y-94.75
X142.75Y-119.75
X142.75Y-121.75
X142.75Y-123.75
X142.75Y-125.75
X143.0Y-108.0
X143.0Y-109.0
X143.5Y-146.75
X143.75Y-94.75
X143.9Y-140.105
X144.0Y-126.95
X144.0Y-128.2
X144.0Y-130.75
X144.25Y-144.25
X144.35Y-130.0
X144.5Y-146.75
X144.55Y-112.55
X144.75Y-94.75
X145.0Y-100.0
X145.0Y-129.485
X145.0Y-130.755
X145.0Y-135.25
X145.485Y-134.035
X145.5Y-146.75
X145.7Y-139.5
X145.75Y-94.75
X145.75Y-120.75
X145.75Y-121.75
X145.75Y-123.75
X145.75Y-125.75
X145.95Y-106.15
X146.015Y-134.565
X146.25Y-140.1
X146.5Y-127.0
X146.5Y-128.5
X146.75Y-94.75
X146.775Y-108.967
X146.875Y-110.117
X147.0Y-115.0
X147.242Y-123.757
X147.25Y-121.75
X147.25Y-125.75
X147.5Y-97.5
X147.5Y-102.75
X147.5Y-137.5
X147.6Y-119.95
X147.75Y-94.75
X148.0Y-146.75
X148.325Y-103.95
X148.4Y-119.95
X148.75Y-94.75
X148.75Y-123.75
X148.75Y-125.75
X148.85Y-105.675
X149.0Y-126.95
X149.0Y-146.75
X149.31Y-112.69
X149.425Y-120.623
X149.45Y-117.45
X149.5Y-122.5
X149.75Y-94.75
X149.875Y-109.05
X150.0Y-100.0
X150.0Y-125.0
X150.0Y-135.0
X150.0Y-140.0
X150.0Y-146.75
X150.25Y-106.8
X150.75Y-94.75
X150.75Y-120.75
X151.0Y-124.0
X151.0Y-146.75
X151.007Y-119.039
X151.073Y-126.95
X151.374Y-113.375
X151.75Y-94.75
X151.875Y-108.4
X151.975Y-103.95
X152.0Y-122.0
X152.0Y-146.75
X152.174Y-113.375
X152.275Y-120.75
X152.5Y-97.5
X152.5Y-102.5
X152.5Y-119.0
X152.5Y-132.5
X152.5Y-142.5
X152.75Y-94.75
X152.974Y-113.375
X152.994Y-117.606
X153.0Y-123.0
X153.0Y-140.0
X153.0Y-146.75
X153.5Y-112.425
X153.75Y-94.75
X153.774Y-113.41
X153.991Y-146.751
X154.0Y-116.0
X154.0Y-140.0
X154.3Y-111.375
X154.5Y-121.0
X154.5Y-123.0
X154.524Y-128.376
X154.573Y-113.397
X154.75Y-94.75
X155.0Y-100.0
X155.0Y-115.0
X155.0Y-118.0
X155.0Y-135.0
X155.0Y-140.0
X155.0Y-146.75
X155.25Y-108.75
X155.65Y-128.752
X155.75Y-94.75
X156.0Y-114.0
X156.0Y-116.0
X156.0Y-119.0
X156.0Y-122.0
X156.0Y-123.0
X156.0Y-140.0
X156.0Y-146.75
X156.5Y-108.75
X156.5Y-110.25
X156.5Y-111.75
X156.75Y-94.75
X156.9Y-136.2
X157.0Y-118.0
X157.0Y-120.0
X157.0Y-123.0
X157.0Y-140.0
X157.0Y-146.75
X157.5Y-97.5
X157.5Y-102.5
X157.5Y-132.5
X157.75Y-94.75
X158.0Y-146.75
X158.095Y-143.05
X158.2Y-127.5
X158.32Y-109.1
X158.325Y-107.6
X158.325Y-110.6
X158.675Y-134.225
X158.675Y-135.125
X158.75Y-94.75
X159.0Y-146.75
X159.25Y-124.25
X159.25Y-125.25
X159.25Y-129.75
X159.25Y-130.75
X159.625Y-134.225
X159.625Y-135.125
X159.75Y-94.75
X160.0Y-100.0
X160.0Y-105.0
X160.0Y-115.0
X160.0Y-120.0
X160.0Y-146.75
X160.354Y-103.004
X160.356Y-101.985
X160.562Y-134.225
X160.562Y-135.125
X160.75Y-94.75
X160.75Y-124.25
X160.75Y-125.25
X160.75Y-129.75
X160.75Y-130.75
X161.0Y-101.35
X161.0Y-103.65
X161.0Y-142.875
X161.0Y-143.75
X161.0Y-146.75
X161.67Y-107.6
X161.67Y-109.1
X161.67Y-110.6
X161.75Y-94.75
X161.8Y-103.653
X161.813Y-101.347
X161.83Y-127.5
X161.875Y-142.875
X161.875Y-143.75
X162.0Y-146.75
X162.5Y-97.5
X162.5Y-132.5
X162.65Y-136.2
X162.7Y-101.747
X162.7Y-103.253
X162.75Y-94.75
X163.0Y-118.0
X163.0Y-120.5
X163.0Y-146.75
X163.5Y-110.0
X163.5Y-111.5
X163.5Y-113.0
X163.6Y-101.747
X163.6Y-103.253
X163.65Y-95.15
X163.723Y-96.058
X163.75Y-123.25
X163.8Y-139.525
X163.947Y-96.958
X164.0Y-146.75
X164.05Y-114.55
X164.05Y-115.3
X164.398Y-97.76
X164.5Y-116.5
X164.5Y-118.0
X164.502Y-103.335
X164.511Y-101.655
X164.997Y-100.0
X165.0Y-105.0
X165.0Y-115.0
X165.0Y-121.75
X165.0Y-123.25
X165.0Y-140.0
X165.0Y-146.75
X165.043Y-98.457
X165.222Y-95.15
X165.243Y-96.046
X165.361Y-103.628
X165.413Y-101.372
X165.476Y-126.624
X165.5Y-110.0
X165.5Y-111.5
X165.5Y-113.0
X165.602Y-96.855
X165.73Y-99.144
X165.872Y-100.787
X166.0Y-146.75
X166.175Y-103.361
X166.23Y-99.923
X166.247Y-104.267
X166.248Y-97.534
X166.273Y-105.151
X166.424Y-106.05
X166.707Y-106.91
X166.928Y-98.214
X167.0Y-146.75
X167.138Y-107.739
X167.25Y-126.75
X167.25Y-94.75
X167.425Y-111.4
X167.425Y-113.25
X167.495Y-98.984
X167.5Y-97.5
X167.5Y-120.5
X167.5Y-132.5
X167.5Y-137.5
X167.5Y-142.5
X167.69Y-108.482
X167.744Y-99.866
X167.75Y-126.0
X167.753Y-104.267
X167.784Y-105.143
X167.825Y-103.361
X167.993Y-106.051
X168.0Y-118.0
X168.0Y-146.75
X168.128Y-100.777
X168.165Y-124.728
X168.25Y-94.75
X168.318Y-109.132
X168.373Y-106.868
X168.57Y-103.628
X168.586Y-101.372
X168.937Y-107.62
X168.95Y-130.75
X168.968Y-109.782
X169.0Y-120.5
X169.0Y-122.0
X169.0Y-146.75
X169.25Y-94.75
X169.275Y-100.775
X169.35Y-126.195
X169.411Y-103.421
X169.582Y-108.268
X169.618Y-110.432
X169.72Y-102.53
X169.95Y-100.1
X170.0Y-139.99
X170.0Y-105.0
X170.0Y-113.0
X170.0Y-135.0
X170.0Y-146.75
X170.135Y-117.893
X170.232Y-108.918
X170.25Y-94.75
X170.25Y-123.75
X170.268Y-111.082
X170.375Y-101.875
X170.45Y-126.195
X170.5Y-120.5
X170.5Y-122.0
X170.625Y-99.425
X170.769Y-124.291
X170.847Y-113.0
X170.882Y-109.568
X170.92Y-117.9
X171.0Y-130.75
X171.0Y-146.75
X171.05Y-101.2
X171.25Y-94.75
X171.25Y-129.5
X171.3Y-98.75
X171.45Y-128.3
X171.534Y-110.22
X171.55Y-120.8
X171.725Y-100.525
X171.75Y-124.75
X171.975Y-98.075
X172.0Y-114.0
X172.0Y-116.0
X172.0Y-146.75
X172.25Y-94.75
X172.4Y-99.85
X172.497Y-137.491
X172.5Y-102.5
X172.5Y-107.5
X172.5Y-130.05
X172.5Y-132.5
X172.65Y-118.2
X172.65Y-97.4
X173.0Y-115.0
X173.075Y-99.175
X173.2Y-128.25
X173.25Y-94.75
X173.25Y-108.725
X173.25Y-124.75
X173.25Y-126.5
X173.337Y-96.763
X173.75Y-98.5
X173.75Y-140.1
X174.0Y-114.0
X174.0Y-116.0
X174.107Y-96.23
X174.249Y-120.701
X174.25Y-94.75
X174.25Y-129.5
X174.3Y-139.5
X174.424Y-97.882
X174.5Y-146.75
X174.501Y-118.599
X174.75Y-124.75
X174.75Y-126.5
X174.85Y-108.725
X174.951Y-95.814
X175.0Y-100.0
X175.0Y-105.0
X175.0Y-113.0
X175.0Y-117.0
X175.0Y-118.0
X175.0Y-130.05
X175.0Y-134.95
X175.227Y-97.393
X175.25Y-94.75
X175.333Y-120.283
X175.5Y-146.75
X175.618Y-112.575
X175.75Y-144.25
X175.807Y-116.993
X175.829Y-95.537
X175.95Y-130.205
X175.966Y-128.935
X176.1Y-140.174
X176.107Y-97.073
X176.25Y-94.75
X176.25Y-122.5
X176.25Y-124.75
X176.5Y-113.0
X176.5Y-146.75
X176.719Y-95.398
X176.85Y-108.4
X176.997Y-96.935
X177.0Y-97.85
X177.0Y-98.75
X177.0Y-99.65
X177.0Y-100.55
X177.0Y-101.45
X177.1Y-126.35
X177.1Y-127.465
X177.103Y-111.475
X177.25Y-94.75
X177.5Y-115.0
X177.5Y-132.5
X177.5Y-139.605
X177.5Y-146.75
X177.623Y-95.372
X177.7Y-101.95
X177.9Y-96.928
X178.0Y-113.0
X178.1Y-109.55
X178.25Y-94.75
X178.5Y-146.75
X178.55Y-95.372
X178.6Y-101.95
X178.8Y-96.928
X179.25Y-94.75
X179.25Y-140.2
X179.25Y-144.25
X179.45Y-95.372
X179.5Y-101.95
X179.5Y-146.75
X179.7Y-96.928
X180.0Y-105.0
X180.0Y-110.0
X180.0Y-115.0
X180.0Y-117.5
X180.0Y-130.0
X180.0Y-135.0
X180.05Y-123.15
X180.1Y-137.925
X180.25Y-94.75
X180.25Y-140.1
X180.352Y-95.405
X180.4Y-101.95
X180.5Y-146.75
X180.593Y-97.125
X181.175Y-127.55
X181.244Y-95.705
X181.25Y-94.75
X181.25Y-140.1
X181.275Y-120.2
X181.3Y-101.95
X181.965Y-96.265
X182.2Y-101.95
X182.2Y-120.95
X182.2Y-122.5
X182.2Y-123.9
X182.2Y-125.25
X182.25Y-94.75
X182.502Y-96.911
X183.0Y-146.5
X183.1Y-101.95
X183.25Y-94.75
X183.25Y-95.75
X183.25Y-96.75
X183.25Y-102.75
X183.25Y-103.75
X183.25Y-104.75
X183.25Y-105.75
X183.25Y-106.75
X183.25Y-107.75
X183.25Y-108.75
X183.25Y-109.75
X183.25Y-110.75
X183.25Y-111.75
X183.25Y-112.75
X183.25Y-113.75
X183.25Y-114.75
X183.25Y-115.75
X183.25Y-116.75
X183.25Y-117.75
X183.25Y-118.75
X183.25Y-119.75
X183.25Y-120.75
X183.25Y-121.75
X183.25Y-122.75
X183.25Y-123.75
X183.25Y-124.75
X183.25Y-125.75
X183.25Y-126.75
X183.25Y-127.75
X183.25Y-128.75
X183.25Y-129.75
X183.25Y-130.75
X183.25Y-131.75
X183.25Y-132.75
X183.25Y-133.75
X183.25Y-134.75
X183.25Y-135.75
X183.25Y-136.75
X183.25Y-137.75
X183.25Y-138.75
X183.25Y-139.75
X183.25Y-140.75
X183.25Y-141.75
X183.25Y-142.75
X183.25Y-143.75
X183.25Y-144.75
X183.25Y-145.75
T3
X166.55Y-94.5
T5
X139.46Y-98.0
X139.46Y-103.08
X139.46Y-100.54
X139.46Y-105.62
X142.0Y-100.54
X142.0Y-98.0
X142.0Y-103.08
X142.0Y-105.62
X158.71Y-113.75
X158.71Y-118.83
X158.71Y-116.29
X158.71Y-121.37
X161.25Y-116.29
X161.25Y-113.75
X161.25Y-118.83
X161.25Y-121.37
T4
G00X138.18Y-141.345
M15
G01X138.18Y-142.445
M16
G05
G00X138.18Y-145.775
M15
G01X138.18Y-146.375
M16
G05
G00X146.82Y-141.345
M15
G01X146.82Y-142.445
M16
G05
G00X146.82Y-145.775
M15
G01X146.82Y-146.375
M16
G05
G00X173.18Y-141.345
M15
G01X173.18Y-142.445
M16
G05
G00X173.18Y-145.775
M15
G01X173.18Y-146.375
M16
G05
G00X181.82Y-141.345
M15
G01X181.82Y-142.445
M16
G05
G00X181.82Y-145.775
M15
G01X181.82Y-146.375
M16
G05
M30
