%TF.GenerationSoftware,KiCad,Pcbnew,8.0.8*%
%TF.CreationDate,2025-03-24T11:25:52+01:00*%
%TF.ProjectId,RF_HID_dongle_test,52465f48-4944-45f6-946f-6e676c655f74,rev?*%
%TF.SameCoordinates,Original*%
%TF.FileFunction,Profile,NP*%
%FSLAX46Y46*%
G04 Gerber Fmt 4.6, Leading zero omitted, Abs format (unit mm)*
G04 Created by KiCad (PCBNEW 8.0.8) date 2025-03-24 11:25:52*
%MOMM*%
%LPD*%
G01*
G04 APERTURE LIST*
%TA.AperFunction,Profile*%
%ADD10C,0.050000*%
%TD*%
%ADD11C,0.350000*%
G04 APERTURE END LIST*
D10*
X148100000Y-138325000D02*
X148100000Y-121970000D01*
X136100104Y-125825000D02*
G75*
G02*
X134599896Y-125825000I-750104J0D01*
G01*
X134600000Y-132075000D02*
G75*
G02*
X136100000Y-132075000I750000J0D01*
G01*
X148100000Y-138325000D02*
X147600000Y-138825000D01*
X135600002Y-129749998D02*
G75*
G02*
X136099998Y-129749998I249998J0D01*
G01*
X124350000Y-124825000D02*
X124600000Y-124575000D01*
X134350000Y-124575000D02*
X124600000Y-124575000D01*
X147600000Y-138825000D02*
X136600000Y-138825000D01*
X134350000Y-133325000D02*
X134600000Y-133075000D01*
X124600000Y-133325000D02*
X134350000Y-133325000D01*
X136100000Y-128150000D02*
G75*
G02*
X135600000Y-128150000I-250000J0D01*
G01*
X135600000Y-129750000D02*
X135600000Y-130150000D01*
X136100000Y-126950000D02*
G75*
G02*
X135600000Y-126950000I-250000J0D01*
G01*
X135600000Y-126950000D02*
G75*
G02*
X136100000Y-126950000I250000J0D01*
G01*
X136100000Y-128950000D02*
G75*
G02*
X135600000Y-128950000I-250000J0D01*
G01*
X135600000Y-128950000D02*
G75*
G02*
X136100000Y-128950000I250000J0D01*
G01*
X136100000Y-132075000D02*
X136100000Y-138325000D01*
X136100000Y-121970000D02*
X136100000Y-125825000D01*
X136100000Y-130150000D02*
G75*
G02*
X135600000Y-130150000I-250000J0D01*
G01*
X136100000Y-130950000D02*
G75*
G02*
X135600000Y-130950000I-250000J0D01*
G01*
X135600000Y-130950000D02*
G75*
G02*
X136100000Y-130950000I250000J0D01*
G01*
X136100000Y-130150000D02*
X136100000Y-129750000D01*
X124350000Y-124825000D02*
X124350000Y-133075000D01*
X135600002Y-127749998D02*
G75*
G02*
X136099998Y-127749998I249998J0D01*
G01*
X136100000Y-128150000D02*
X136100000Y-127750000D01*
X134600000Y-133075000D02*
X134600000Y-132075000D01*
X124350000Y-133075000D02*
X124600000Y-133325000D01*
X135600000Y-128150000D02*
X135600000Y-127750000D01*
X134600000Y-125825000D02*
X134600000Y-124825000D01*
X134350000Y-124575000D02*
X134600000Y-124825000D01*
X136600000Y-138825000D02*
X136100000Y-138325000D01*
%TO.C,J1*%
X136100000Y-108470000D02*
X136600000Y-107970000D01*
X136100000Y-121970000D02*
X136100000Y-108470000D01*
X136600000Y-107970000D02*
X147600000Y-107970000D01*
X147600000Y-107970000D02*
X148100000Y-108470000D01*
X148100000Y-108470000D02*
X148100000Y-121970000D01*
%TD*%
D11*
X130800000Y-128950000D03*
X130799997Y-131489999D03*
X130799997Y-126409999D03*
X127624996Y-131489999D03*
X127624996Y-126409999D03*
X125719995Y-129966001D03*
X125719995Y-127933998D03*
M02*
