M48
; DRILL file {KiCad 8.0.8} date 2025-03-24T11:25:52+0100
; FORMAT={-:-/ absolute / metric / decimal}
; #@! TF.CreationDate,2025-03-24T11:25:52+01:00
; #@! TF.GenerationSoftware,Kicad,Pcbnew,8.0.8
; #@! TF.FileFunction,MixedPlating,1,4
FMAT,2
METRIC
; #@! TA.AperFunction,Plated,PTH,ViaDrill
T1C0.300
; #@! TA.AperFunction,NonPlated,NPTH,ComponentDrill
T2C0.991
; #@! TA.AperFunction,NonPlated,NPTH,ComponentDrill
T3C2.375
%
G90
G05
T1
X126.35Y-128.95
X128.85Y-127.7
X128.85Y-130.2
X130.253Y-129.841
X133.35Y-130.45
X134.0Y-128.2
X136.65Y-122.575
X136.65Y-123.575
X136.65Y-124.575
X136.65Y-132.075
X136.65Y-133.075
X136.65Y-134.075
X136.65Y-135.075
X136.65Y-136.075
X136.65Y-137.075
X136.65Y-138.075
X136.975Y-126.725
X137.475Y-138.075
X137.975Y-133.95
X138.07Y-130.92
X138.1Y-128.7
X138.475Y-138.075
X138.55Y-136.15
X138.6Y-131.45
X138.85Y-124.275
X139.05Y-135.65
X139.125Y-133.95
X139.475Y-138.075
X140.225Y-126.2
X140.225Y-126.95
X140.475Y-138.075
X140.6Y-131.864
X140.85Y-128.95
X141.3Y-123.55
X141.475Y-133.325
X141.475Y-134.2
X141.475Y-135.2
X141.475Y-136.2
X141.475Y-137.2
X141.475Y-138.075
X142.1Y-127.7
X142.1Y-128.95
X142.107Y-130.193
X142.475Y-133.325
X142.475Y-138.075
X142.9Y-123.6
X143.35Y-128.95
X143.45Y-126.0
X143.475Y-138.075
X143.5Y-123.1
X143.675Y-132.15
X143.95Y-122.6
X144.1Y-126.667
X144.475Y-138.075
X144.642Y-127.186
X144.975Y-118.95
X144.975Y-120.2
X144.975Y-121.45
X145.35Y-132.35
X145.475Y-138.075
X145.8Y-131.358
X146.225Y-132.575
X146.475Y-138.075
X146.775Y-133.225
X146.825Y-118.95
X146.825Y-120.2
X146.825Y-121.45
X147.537Y-133.225
X147.55Y-122.325
X147.55Y-123.325
X147.55Y-124.325
X147.55Y-125.325
X147.55Y-126.325
X147.55Y-127.325
X147.55Y-128.325
X147.55Y-129.325
X147.55Y-130.325
X147.55Y-131.325
X147.55Y-132.325
X147.55Y-138.05
T2
X125.72Y-127.934
X125.72Y-129.966
X130.8Y-128.95
T3
X127.625Y-126.41
X127.625Y-131.49
X130.8Y-126.41
X130.8Y-131.49
M30
