%TF.GenerationSoftware,KiCad,Pcbnew,8.0.8*%
%TF.CreationDate,2025-03-20T14:25:15+01:00*%
%TF.ProjectId,RF_HID_module_test,52465f48-4944-45f6-9d6f-64756c655f74,rev?*%
%TF.SameCoordinates,Original*%
%TF.FileFunction,Legend,Top*%
%TF.FilePolarity,Positive*%
%FSLAX46Y46*%
G04 Gerber Fmt 4.6, Leading zero omitted, Abs format (unit mm)*
G04 Created by KiCad (PCBNEW 8.0.8) date 2025-03-20 14:25:15*
%MOMM*%
%LPD*%
G01*
G04 APERTURE LIST*
%ADD10C,0.150000*%
%ADD11C,0.120000*%
%ADD12C,0.152400*%
%ADD13C,0.350000*%
%ADD14O,0.600000X1.700000*%
%ADD15O,0.600000X1.200000*%
%ADD16C,0.200000*%
%ADD17C,0.300000*%
G04 APERTURE END LIST*
D10*
X160867188Y-109496502D02*
X160867188Y-108496502D01*
X160867188Y-108496502D02*
X161105283Y-108496502D01*
X161105283Y-108496502D02*
X161248140Y-108544121D01*
X161248140Y-108544121D02*
X161343378Y-108639359D01*
X161343378Y-108639359D02*
X161390997Y-108734597D01*
X161390997Y-108734597D02*
X161438616Y-108925073D01*
X161438616Y-108925073D02*
X161438616Y-109067930D01*
X161438616Y-109067930D02*
X161390997Y-109258406D01*
X161390997Y-109258406D02*
X161343378Y-109353644D01*
X161343378Y-109353644D02*
X161248140Y-109448883D01*
X161248140Y-109448883D02*
X161105283Y-109496502D01*
X161105283Y-109496502D02*
X160867188Y-109496502D01*
X162390997Y-109496502D02*
X161819569Y-109496502D01*
X162105283Y-109496502D02*
X162105283Y-108496502D01*
X162105283Y-108496502D02*
X162010045Y-108639359D01*
X162010045Y-108639359D02*
X161914807Y-108734597D01*
X161914807Y-108734597D02*
X161819569Y-108782216D01*
X151472902Y-115495238D02*
X151999092Y-115495238D01*
X151999092Y-115495238D02*
X152060997Y-115464285D01*
X152060997Y-115464285D02*
X152091950Y-115433333D01*
X152091950Y-115433333D02*
X152122902Y-115371428D01*
X152122902Y-115371428D02*
X152122902Y-115247619D01*
X152122902Y-115247619D02*
X152091950Y-115185714D01*
X152091950Y-115185714D02*
X152060997Y-115154761D01*
X152060997Y-115154761D02*
X151999092Y-115123809D01*
X151999092Y-115123809D02*
X151472902Y-115123809D01*
X151534807Y-114845238D02*
X151503854Y-114814286D01*
X151503854Y-114814286D02*
X151472902Y-114752381D01*
X151472902Y-114752381D02*
X151472902Y-114597619D01*
X151472902Y-114597619D02*
X151503854Y-114535714D01*
X151503854Y-114535714D02*
X151534807Y-114504762D01*
X151534807Y-114504762D02*
X151596711Y-114473809D01*
X151596711Y-114473809D02*
X151658616Y-114473809D01*
X151658616Y-114473809D02*
X151751473Y-114504762D01*
X151751473Y-114504762D02*
X152122902Y-114876190D01*
X152122902Y-114876190D02*
X152122902Y-114473809D01*
X147957143Y-102879580D02*
X147909524Y-102927200D01*
X147909524Y-102927200D02*
X147766667Y-102974819D01*
X147766667Y-102974819D02*
X147671429Y-102974819D01*
X147671429Y-102974819D02*
X147528572Y-102927200D01*
X147528572Y-102927200D02*
X147433334Y-102831961D01*
X147433334Y-102831961D02*
X147385715Y-102736723D01*
X147385715Y-102736723D02*
X147338096Y-102546247D01*
X147338096Y-102546247D02*
X147338096Y-102403390D01*
X147338096Y-102403390D02*
X147385715Y-102212914D01*
X147385715Y-102212914D02*
X147433334Y-102117676D01*
X147433334Y-102117676D02*
X147528572Y-102022438D01*
X147528572Y-102022438D02*
X147671429Y-101974819D01*
X147671429Y-101974819D02*
X147766667Y-101974819D01*
X147766667Y-101974819D02*
X147909524Y-102022438D01*
X147909524Y-102022438D02*
X147957143Y-102070057D01*
X148909524Y-102974819D02*
X148338096Y-102974819D01*
X148623810Y-102974819D02*
X148623810Y-101974819D01*
X148623810Y-101974819D02*
X148528572Y-102117676D01*
X148528572Y-102117676D02*
X148433334Y-102212914D01*
X148433334Y-102212914D02*
X148338096Y-102260533D01*
X149385715Y-102974819D02*
X149576191Y-102974819D01*
X149576191Y-102974819D02*
X149671429Y-102927200D01*
X149671429Y-102927200D02*
X149719048Y-102879580D01*
X149719048Y-102879580D02*
X149814286Y-102736723D01*
X149814286Y-102736723D02*
X149861905Y-102546247D01*
X149861905Y-102546247D02*
X149861905Y-102165295D01*
X149861905Y-102165295D02*
X149814286Y-102070057D01*
X149814286Y-102070057D02*
X149766667Y-102022438D01*
X149766667Y-102022438D02*
X149671429Y-101974819D01*
X149671429Y-101974819D02*
X149480953Y-101974819D01*
X149480953Y-101974819D02*
X149385715Y-102022438D01*
X149385715Y-102022438D02*
X149338096Y-102070057D01*
X149338096Y-102070057D02*
X149290477Y-102165295D01*
X149290477Y-102165295D02*
X149290477Y-102403390D01*
X149290477Y-102403390D02*
X149338096Y-102498628D01*
X149338096Y-102498628D02*
X149385715Y-102546247D01*
X149385715Y-102546247D02*
X149480953Y-102593866D01*
X149480953Y-102593866D02*
X149671429Y-102593866D01*
X149671429Y-102593866D02*
X149766667Y-102546247D01*
X149766667Y-102546247D02*
X149814286Y-102498628D01*
X149814286Y-102498628D02*
X149861905Y-102403390D01*
X157872142Y-135220997D02*
X157841190Y-135251950D01*
X157841190Y-135251950D02*
X157748332Y-135282902D01*
X157748332Y-135282902D02*
X157686428Y-135282902D01*
X157686428Y-135282902D02*
X157593571Y-135251950D01*
X157593571Y-135251950D02*
X157531666Y-135190045D01*
X157531666Y-135190045D02*
X157500713Y-135128140D01*
X157500713Y-135128140D02*
X157469761Y-135004330D01*
X157469761Y-135004330D02*
X157469761Y-134911473D01*
X157469761Y-134911473D02*
X157500713Y-134787664D01*
X157500713Y-134787664D02*
X157531666Y-134725759D01*
X157531666Y-134725759D02*
X157593571Y-134663854D01*
X157593571Y-134663854D02*
X157686428Y-134632902D01*
X157686428Y-134632902D02*
X157748332Y-134632902D01*
X157748332Y-134632902D02*
X157841190Y-134663854D01*
X157841190Y-134663854D02*
X157872142Y-134694807D01*
X158491190Y-135282902D02*
X158119761Y-135282902D01*
X158305475Y-135282902D02*
X158305475Y-134632902D01*
X158305475Y-134632902D02*
X158243571Y-134725759D01*
X158243571Y-134725759D02*
X158181666Y-134787664D01*
X158181666Y-134787664D02*
X158119761Y-134818616D01*
X159048333Y-134632902D02*
X158924523Y-134632902D01*
X158924523Y-134632902D02*
X158862619Y-134663854D01*
X158862619Y-134663854D02*
X158831666Y-134694807D01*
X158831666Y-134694807D02*
X158769761Y-134787664D01*
X158769761Y-134787664D02*
X158738809Y-134911473D01*
X158738809Y-134911473D02*
X158738809Y-135159092D01*
X158738809Y-135159092D02*
X158769761Y-135220997D01*
X158769761Y-135220997D02*
X158800714Y-135251950D01*
X158800714Y-135251950D02*
X158862619Y-135282902D01*
X158862619Y-135282902D02*
X158986428Y-135282902D01*
X158986428Y-135282902D02*
X159048333Y-135251950D01*
X159048333Y-135251950D02*
X159079285Y-135220997D01*
X159079285Y-135220997D02*
X159110238Y-135159092D01*
X159110238Y-135159092D02*
X159110238Y-135004330D01*
X159110238Y-135004330D02*
X159079285Y-134942426D01*
X159079285Y-134942426D02*
X159048333Y-134911473D01*
X159048333Y-134911473D02*
X158986428Y-134880521D01*
X158986428Y-134880521D02*
X158862619Y-134880521D01*
X158862619Y-134880521D02*
X158800714Y-134911473D01*
X158800714Y-134911473D02*
X158769761Y-134942426D01*
X158769761Y-134942426D02*
X158738809Y-135004330D01*
X147954818Y-106616666D02*
X147954818Y-107092856D01*
X147954818Y-107092856D02*
X146954818Y-107092856D01*
X147954818Y-105759523D02*
X147954818Y-106330951D01*
X147954818Y-106045237D02*
X146954818Y-106045237D01*
X146954818Y-106045237D02*
X147097675Y-106140475D01*
X147097675Y-106140475D02*
X147192913Y-106235713D01*
X147192913Y-106235713D02*
X147240532Y-106330951D01*
X170479581Y-120666667D02*
X170527201Y-120714286D01*
X170527201Y-120714286D02*
X170574820Y-120857143D01*
X170574820Y-120857143D02*
X170574820Y-120952381D01*
X170574820Y-120952381D02*
X170527201Y-121095238D01*
X170527201Y-121095238D02*
X170431962Y-121190476D01*
X170431962Y-121190476D02*
X170336724Y-121238095D01*
X170336724Y-121238095D02*
X170146248Y-121285714D01*
X170146248Y-121285714D02*
X170003391Y-121285714D01*
X170003391Y-121285714D02*
X169812915Y-121238095D01*
X169812915Y-121238095D02*
X169717677Y-121190476D01*
X169717677Y-121190476D02*
X169622439Y-121095238D01*
X169622439Y-121095238D02*
X169574820Y-120952381D01*
X169574820Y-120952381D02*
X169574820Y-120857143D01*
X169574820Y-120857143D02*
X169622439Y-120714286D01*
X169622439Y-120714286D02*
X169670058Y-120666667D01*
X170003391Y-120095238D02*
X169955772Y-120190476D01*
X169955772Y-120190476D02*
X169908153Y-120238095D01*
X169908153Y-120238095D02*
X169812915Y-120285714D01*
X169812915Y-120285714D02*
X169765296Y-120285714D01*
X169765296Y-120285714D02*
X169670058Y-120238095D01*
X169670058Y-120238095D02*
X169622439Y-120190476D01*
X169622439Y-120190476D02*
X169574820Y-120095238D01*
X169574820Y-120095238D02*
X169574820Y-119904762D01*
X169574820Y-119904762D02*
X169622439Y-119809524D01*
X169622439Y-119809524D02*
X169670058Y-119761905D01*
X169670058Y-119761905D02*
X169765296Y-119714286D01*
X169765296Y-119714286D02*
X169812915Y-119714286D01*
X169812915Y-119714286D02*
X169908153Y-119761905D01*
X169908153Y-119761905D02*
X169955772Y-119809524D01*
X169955772Y-119809524D02*
X170003391Y-119904762D01*
X170003391Y-119904762D02*
X170003391Y-120095238D01*
X170003391Y-120095238D02*
X170051010Y-120190476D01*
X170051010Y-120190476D02*
X170098629Y-120238095D01*
X170098629Y-120238095D02*
X170193867Y-120285714D01*
X170193867Y-120285714D02*
X170384343Y-120285714D01*
X170384343Y-120285714D02*
X170479581Y-120238095D01*
X170479581Y-120238095D02*
X170527201Y-120190476D01*
X170527201Y-120190476D02*
X170574820Y-120095238D01*
X170574820Y-120095238D02*
X170574820Y-119904762D01*
X170574820Y-119904762D02*
X170527201Y-119809524D01*
X170527201Y-119809524D02*
X170479581Y-119761905D01*
X170479581Y-119761905D02*
X170384343Y-119714286D01*
X170384343Y-119714286D02*
X170193867Y-119714286D01*
X170193867Y-119714286D02*
X170098629Y-119761905D01*
X170098629Y-119761905D02*
X170051010Y-119809524D01*
X170051010Y-119809524D02*
X170003391Y-119904762D01*
X175839579Y-110142858D02*
X175887199Y-110190477D01*
X175887199Y-110190477D02*
X175934818Y-110333334D01*
X175934818Y-110333334D02*
X175934818Y-110428572D01*
X175934818Y-110428572D02*
X175887199Y-110571429D01*
X175887199Y-110571429D02*
X175791960Y-110666667D01*
X175791960Y-110666667D02*
X175696722Y-110714286D01*
X175696722Y-110714286D02*
X175506246Y-110761905D01*
X175506246Y-110761905D02*
X175363389Y-110761905D01*
X175363389Y-110761905D02*
X175172913Y-110714286D01*
X175172913Y-110714286D02*
X175077675Y-110666667D01*
X175077675Y-110666667D02*
X174982437Y-110571429D01*
X174982437Y-110571429D02*
X174934818Y-110428572D01*
X174934818Y-110428572D02*
X174934818Y-110333334D01*
X174934818Y-110333334D02*
X174982437Y-110190477D01*
X174982437Y-110190477D02*
X175030056Y-110142858D01*
X175934818Y-109190477D02*
X175934818Y-109761905D01*
X175934818Y-109476191D02*
X174934818Y-109476191D01*
X174934818Y-109476191D02*
X175077675Y-109571429D01*
X175077675Y-109571429D02*
X175172913Y-109666667D01*
X175172913Y-109666667D02*
X175220532Y-109761905D01*
X175934818Y-108238096D02*
X175934818Y-108809524D01*
X175934818Y-108523810D02*
X174934818Y-108523810D01*
X174934818Y-108523810D02*
X175077675Y-108619048D01*
X175077675Y-108619048D02*
X175172913Y-108714286D01*
X175172913Y-108714286D02*
X175220532Y-108809524D01*
X160731905Y-110984818D02*
X160731905Y-109984818D01*
X160731905Y-109984818D02*
X160970000Y-109984818D01*
X160970000Y-109984818D02*
X161112857Y-110032437D01*
X161112857Y-110032437D02*
X161208095Y-110127675D01*
X161208095Y-110127675D02*
X161255714Y-110222913D01*
X161255714Y-110222913D02*
X161303333Y-110413389D01*
X161303333Y-110413389D02*
X161303333Y-110556246D01*
X161303333Y-110556246D02*
X161255714Y-110746722D01*
X161255714Y-110746722D02*
X161208095Y-110841960D01*
X161208095Y-110841960D02*
X161112857Y-110937199D01*
X161112857Y-110937199D02*
X160970000Y-110984818D01*
X160970000Y-110984818D02*
X160731905Y-110984818D01*
X161684286Y-110080056D02*
X161731905Y-110032437D01*
X161731905Y-110032437D02*
X161827143Y-109984818D01*
X161827143Y-109984818D02*
X162065238Y-109984818D01*
X162065238Y-109984818D02*
X162160476Y-110032437D01*
X162160476Y-110032437D02*
X162208095Y-110080056D01*
X162208095Y-110080056D02*
X162255714Y-110175294D01*
X162255714Y-110175294D02*
X162255714Y-110270532D01*
X162255714Y-110270532D02*
X162208095Y-110413389D01*
X162208095Y-110413389D02*
X161636667Y-110984818D01*
X161636667Y-110984818D02*
X162255714Y-110984818D01*
X144183333Y-97642902D02*
X144183333Y-98107188D01*
X144183333Y-98107188D02*
X144152380Y-98200045D01*
X144152380Y-98200045D02*
X144090476Y-98261950D01*
X144090476Y-98261950D02*
X143997618Y-98292902D01*
X143997618Y-98292902D02*
X143935714Y-98292902D01*
X144771428Y-97859569D02*
X144771428Y-98292902D01*
X144616666Y-97611950D02*
X144461904Y-98076235D01*
X144461904Y-98076235D02*
X144864285Y-98076235D01*
X141882202Y-125208330D02*
X141929821Y-125065473D01*
X141929821Y-125065473D02*
X141929821Y-124827378D01*
X141929821Y-124827378D02*
X141882202Y-124732140D01*
X141882202Y-124732140D02*
X141834582Y-124684521D01*
X141834582Y-124684521D02*
X141739344Y-124636902D01*
X141739344Y-124636902D02*
X141644106Y-124636902D01*
X141644106Y-124636902D02*
X141548868Y-124684521D01*
X141548868Y-124684521D02*
X141501249Y-124732140D01*
X141501249Y-124732140D02*
X141453630Y-124827378D01*
X141453630Y-124827378D02*
X141406011Y-125017854D01*
X141406011Y-125017854D02*
X141358392Y-125113092D01*
X141358392Y-125113092D02*
X141310773Y-125160711D01*
X141310773Y-125160711D02*
X141215535Y-125208330D01*
X141215535Y-125208330D02*
X141120297Y-125208330D01*
X141120297Y-125208330D02*
X141025059Y-125160711D01*
X141025059Y-125160711D02*
X140977440Y-125113092D01*
X140977440Y-125113092D02*
X140929821Y-125017854D01*
X140929821Y-125017854D02*
X140929821Y-124779759D01*
X140929821Y-124779759D02*
X140977440Y-124636902D01*
X140929821Y-124303568D02*
X141929821Y-124065473D01*
X141929821Y-124065473D02*
X141215535Y-123874997D01*
X141215535Y-123874997D02*
X141929821Y-123684521D01*
X141929821Y-123684521D02*
X140929821Y-123446426D01*
X140929821Y-123160711D02*
X140929821Y-122541664D01*
X140929821Y-122541664D02*
X141310773Y-122874997D01*
X141310773Y-122874997D02*
X141310773Y-122732140D01*
X141310773Y-122732140D02*
X141358392Y-122636902D01*
X141358392Y-122636902D02*
X141406011Y-122589283D01*
X141406011Y-122589283D02*
X141501249Y-122541664D01*
X141501249Y-122541664D02*
X141739344Y-122541664D01*
X141739344Y-122541664D02*
X141834582Y-122589283D01*
X141834582Y-122589283D02*
X141882202Y-122636902D01*
X141882202Y-122636902D02*
X141929821Y-122732140D01*
X141929821Y-122732140D02*
X141929821Y-123017854D01*
X141929821Y-123017854D02*
X141882202Y-123113092D01*
X141882202Y-123113092D02*
X141834582Y-123160711D01*
X169342901Y-115495237D02*
X169869091Y-115495237D01*
X169869091Y-115495237D02*
X169930996Y-115464284D01*
X169930996Y-115464284D02*
X169961949Y-115433332D01*
X169961949Y-115433332D02*
X169992901Y-115371427D01*
X169992901Y-115371427D02*
X169992901Y-115247618D01*
X169992901Y-115247618D02*
X169961949Y-115185713D01*
X169961949Y-115185713D02*
X169930996Y-115154760D01*
X169930996Y-115154760D02*
X169869091Y-115123808D01*
X169869091Y-115123808D02*
X169342901Y-115123808D01*
X169992901Y-114473808D02*
X169992901Y-114845237D01*
X169992901Y-114659523D02*
X169342901Y-114659523D01*
X169342901Y-114659523D02*
X169435758Y-114721427D01*
X169435758Y-114721427D02*
X169497663Y-114783332D01*
X169497663Y-114783332D02*
X169528615Y-114845237D01*
X148523810Y-108928628D02*
X148523810Y-109404819D01*
X148190477Y-108404819D02*
X148523810Y-108928628D01*
X148523810Y-108928628D02*
X148857143Y-108404819D01*
X149095239Y-108404819D02*
X149714286Y-108404819D01*
X149714286Y-108404819D02*
X149380953Y-108785771D01*
X149380953Y-108785771D02*
X149523810Y-108785771D01*
X149523810Y-108785771D02*
X149619048Y-108833390D01*
X149619048Y-108833390D02*
X149666667Y-108881009D01*
X149666667Y-108881009D02*
X149714286Y-108976247D01*
X149714286Y-108976247D02*
X149714286Y-109214342D01*
X149714286Y-109214342D02*
X149666667Y-109309580D01*
X149666667Y-109309580D02*
X149619048Y-109357200D01*
X149619048Y-109357200D02*
X149523810Y-109404819D01*
X149523810Y-109404819D02*
X149238096Y-109404819D01*
X149238096Y-109404819D02*
X149142858Y-109357200D01*
X149142858Y-109357200D02*
X149095239Y-109309580D01*
X146383332Y-107979580D02*
X146335713Y-108027200D01*
X146335713Y-108027200D02*
X146192856Y-108074819D01*
X146192856Y-108074819D02*
X146097618Y-108074819D01*
X146097618Y-108074819D02*
X145954761Y-108027200D01*
X145954761Y-108027200D02*
X145859523Y-107931961D01*
X145859523Y-107931961D02*
X145811904Y-107836723D01*
X145811904Y-107836723D02*
X145764285Y-107646247D01*
X145764285Y-107646247D02*
X145764285Y-107503390D01*
X145764285Y-107503390D02*
X145811904Y-107312914D01*
X145811904Y-107312914D02*
X145859523Y-107217676D01*
X145859523Y-107217676D02*
X145954761Y-107122438D01*
X145954761Y-107122438D02*
X146097618Y-107074819D01*
X146097618Y-107074819D02*
X146192856Y-107074819D01*
X146192856Y-107074819D02*
X146335713Y-107122438D01*
X146335713Y-107122438D02*
X146383332Y-107170057D01*
X147240475Y-107074819D02*
X147049999Y-107074819D01*
X147049999Y-107074819D02*
X146954761Y-107122438D01*
X146954761Y-107122438D02*
X146907142Y-107170057D01*
X146907142Y-107170057D02*
X146811904Y-107312914D01*
X146811904Y-107312914D02*
X146764285Y-107503390D01*
X146764285Y-107503390D02*
X146764285Y-107884342D01*
X146764285Y-107884342D02*
X146811904Y-107979580D01*
X146811904Y-107979580D02*
X146859523Y-108027200D01*
X146859523Y-108027200D02*
X146954761Y-108074819D01*
X146954761Y-108074819D02*
X147145237Y-108074819D01*
X147145237Y-108074819D02*
X147240475Y-108027200D01*
X147240475Y-108027200D02*
X147288094Y-107979580D01*
X147288094Y-107979580D02*
X147335713Y-107884342D01*
X147335713Y-107884342D02*
X147335713Y-107646247D01*
X147335713Y-107646247D02*
X147288094Y-107551009D01*
X147288094Y-107551009D02*
X147240475Y-107503390D01*
X147240475Y-107503390D02*
X147145237Y-107455771D01*
X147145237Y-107455771D02*
X146954761Y-107455771D01*
X146954761Y-107455771D02*
X146859523Y-107503390D01*
X146859523Y-107503390D02*
X146811904Y-107551009D01*
X146811904Y-107551009D02*
X146764285Y-107646247D01*
X166891666Y-100042902D02*
X166674999Y-99733378D01*
X166520237Y-100042902D02*
X166520237Y-99392902D01*
X166520237Y-99392902D02*
X166767856Y-99392902D01*
X166767856Y-99392902D02*
X166829761Y-99423854D01*
X166829761Y-99423854D02*
X166860714Y-99454807D01*
X166860714Y-99454807D02*
X166891666Y-99516711D01*
X166891666Y-99516711D02*
X166891666Y-99609569D01*
X166891666Y-99609569D02*
X166860714Y-99671473D01*
X166860714Y-99671473D02*
X166829761Y-99702426D01*
X166829761Y-99702426D02*
X166767856Y-99733378D01*
X166767856Y-99733378D02*
X166520237Y-99733378D01*
X167510714Y-100042902D02*
X167139285Y-100042902D01*
X167324999Y-100042902D02*
X167324999Y-99392902D01*
X167324999Y-99392902D02*
X167263095Y-99485759D01*
X167263095Y-99485759D02*
X167201190Y-99547664D01*
X167201190Y-99547664D02*
X167139285Y-99578616D01*
X158283333Y-106624820D02*
X157950000Y-106148629D01*
X157711905Y-106624820D02*
X157711905Y-105624820D01*
X157711905Y-105624820D02*
X158092857Y-105624820D01*
X158092857Y-105624820D02*
X158188095Y-105672439D01*
X158188095Y-105672439D02*
X158235714Y-105720058D01*
X158235714Y-105720058D02*
X158283333Y-105815296D01*
X158283333Y-105815296D02*
X158283333Y-105958153D01*
X158283333Y-105958153D02*
X158235714Y-106053391D01*
X158235714Y-106053391D02*
X158188095Y-106101010D01*
X158188095Y-106101010D02*
X158092857Y-106148629D01*
X158092857Y-106148629D02*
X157711905Y-106148629D01*
X158616667Y-105624820D02*
X159283333Y-105624820D01*
X159283333Y-105624820D02*
X158854762Y-106624820D01*
X154539579Y-111816667D02*
X154587199Y-111864286D01*
X154587199Y-111864286D02*
X154634818Y-112007143D01*
X154634818Y-112007143D02*
X154634818Y-112102381D01*
X154634818Y-112102381D02*
X154587199Y-112245238D01*
X154587199Y-112245238D02*
X154491960Y-112340476D01*
X154491960Y-112340476D02*
X154396722Y-112388095D01*
X154396722Y-112388095D02*
X154206246Y-112435714D01*
X154206246Y-112435714D02*
X154063389Y-112435714D01*
X154063389Y-112435714D02*
X153872913Y-112388095D01*
X153872913Y-112388095D02*
X153777675Y-112340476D01*
X153777675Y-112340476D02*
X153682437Y-112245238D01*
X153682437Y-112245238D02*
X153634818Y-112102381D01*
X153634818Y-112102381D02*
X153634818Y-112007143D01*
X153634818Y-112007143D02*
X153682437Y-111864286D01*
X153682437Y-111864286D02*
X153730056Y-111816667D01*
X153968151Y-110959524D02*
X154634818Y-110959524D01*
X153587199Y-111197619D02*
X154301484Y-111435714D01*
X154301484Y-111435714D02*
X154301484Y-110816667D01*
X138232142Y-132399819D02*
X137898809Y-131923628D01*
X137660714Y-132399819D02*
X137660714Y-131399819D01*
X137660714Y-131399819D02*
X138041666Y-131399819D01*
X138041666Y-131399819D02*
X138136904Y-131447438D01*
X138136904Y-131447438D02*
X138184523Y-131495057D01*
X138184523Y-131495057D02*
X138232142Y-131590295D01*
X138232142Y-131590295D02*
X138232142Y-131733152D01*
X138232142Y-131733152D02*
X138184523Y-131828390D01*
X138184523Y-131828390D02*
X138136904Y-131876009D01*
X138136904Y-131876009D02*
X138041666Y-131923628D01*
X138041666Y-131923628D02*
X137660714Y-131923628D01*
X139184523Y-132399819D02*
X138613095Y-132399819D01*
X138898809Y-132399819D02*
X138898809Y-131399819D01*
X138898809Y-131399819D02*
X138803571Y-131542676D01*
X138803571Y-131542676D02*
X138708333Y-131637914D01*
X138708333Y-131637914D02*
X138613095Y-131685533D01*
X139803571Y-131399819D02*
X139898809Y-131399819D01*
X139898809Y-131399819D02*
X139994047Y-131447438D01*
X139994047Y-131447438D02*
X140041666Y-131495057D01*
X140041666Y-131495057D02*
X140089285Y-131590295D01*
X140089285Y-131590295D02*
X140136904Y-131780771D01*
X140136904Y-131780771D02*
X140136904Y-132018866D01*
X140136904Y-132018866D02*
X140089285Y-132209342D01*
X140089285Y-132209342D02*
X140041666Y-132304580D01*
X140041666Y-132304580D02*
X139994047Y-132352200D01*
X139994047Y-132352200D02*
X139898809Y-132399819D01*
X139898809Y-132399819D02*
X139803571Y-132399819D01*
X139803571Y-132399819D02*
X139708333Y-132352200D01*
X139708333Y-132352200D02*
X139660714Y-132304580D01*
X139660714Y-132304580D02*
X139613095Y-132209342D01*
X139613095Y-132209342D02*
X139565476Y-132018866D01*
X139565476Y-132018866D02*
X139565476Y-131780771D01*
X139565476Y-131780771D02*
X139613095Y-131590295D01*
X139613095Y-131590295D02*
X139660714Y-131495057D01*
X139660714Y-131495057D02*
X139708333Y-131447438D01*
X139708333Y-131447438D02*
X139803571Y-131399819D01*
X147033333Y-139292902D02*
X147033333Y-139757188D01*
X147033333Y-139757188D02*
X147002380Y-139850045D01*
X147002380Y-139850045D02*
X146940476Y-139911950D01*
X146940476Y-139911950D02*
X146847618Y-139942902D01*
X146847618Y-139942902D02*
X146785714Y-139942902D01*
X147621428Y-139292902D02*
X147497618Y-139292902D01*
X147497618Y-139292902D02*
X147435714Y-139323854D01*
X147435714Y-139323854D02*
X147404761Y-139354807D01*
X147404761Y-139354807D02*
X147342856Y-139447664D01*
X147342856Y-139447664D02*
X147311904Y-139571473D01*
X147311904Y-139571473D02*
X147311904Y-139819092D01*
X147311904Y-139819092D02*
X147342856Y-139880997D01*
X147342856Y-139880997D02*
X147373809Y-139911950D01*
X147373809Y-139911950D02*
X147435714Y-139942902D01*
X147435714Y-139942902D02*
X147559523Y-139942902D01*
X147559523Y-139942902D02*
X147621428Y-139911950D01*
X147621428Y-139911950D02*
X147652380Y-139880997D01*
X147652380Y-139880997D02*
X147683333Y-139819092D01*
X147683333Y-139819092D02*
X147683333Y-139664330D01*
X147683333Y-139664330D02*
X147652380Y-139602426D01*
X147652380Y-139602426D02*
X147621428Y-139571473D01*
X147621428Y-139571473D02*
X147559523Y-139540521D01*
X147559523Y-139540521D02*
X147435714Y-139540521D01*
X147435714Y-139540521D02*
X147373809Y-139571473D01*
X147373809Y-139571473D02*
X147342856Y-139602426D01*
X147342856Y-139602426D02*
X147311904Y-139664330D01*
X148957141Y-110839578D02*
X148909522Y-110887198D01*
X148909522Y-110887198D02*
X148766665Y-110934817D01*
X148766665Y-110934817D02*
X148671427Y-110934817D01*
X148671427Y-110934817D02*
X148528570Y-110887198D01*
X148528570Y-110887198D02*
X148433332Y-110791959D01*
X148433332Y-110791959D02*
X148385713Y-110696721D01*
X148385713Y-110696721D02*
X148338094Y-110506245D01*
X148338094Y-110506245D02*
X148338094Y-110363388D01*
X148338094Y-110363388D02*
X148385713Y-110172912D01*
X148385713Y-110172912D02*
X148433332Y-110077674D01*
X148433332Y-110077674D02*
X148528570Y-109982436D01*
X148528570Y-109982436D02*
X148671427Y-109934817D01*
X148671427Y-109934817D02*
X148766665Y-109934817D01*
X148766665Y-109934817D02*
X148909522Y-109982436D01*
X148909522Y-109982436D02*
X148957141Y-110030055D01*
X149338094Y-110030055D02*
X149385713Y-109982436D01*
X149385713Y-109982436D02*
X149480951Y-109934817D01*
X149480951Y-109934817D02*
X149719046Y-109934817D01*
X149719046Y-109934817D02*
X149814284Y-109982436D01*
X149814284Y-109982436D02*
X149861903Y-110030055D01*
X149861903Y-110030055D02*
X149909522Y-110125293D01*
X149909522Y-110125293D02*
X149909522Y-110220531D01*
X149909522Y-110220531D02*
X149861903Y-110363388D01*
X149861903Y-110363388D02*
X149290475Y-110934817D01*
X149290475Y-110934817D02*
X149909522Y-110934817D01*
X150528570Y-109934817D02*
X150623808Y-109934817D01*
X150623808Y-109934817D02*
X150719046Y-109982436D01*
X150719046Y-109982436D02*
X150766665Y-110030055D01*
X150766665Y-110030055D02*
X150814284Y-110125293D01*
X150814284Y-110125293D02*
X150861903Y-110315769D01*
X150861903Y-110315769D02*
X150861903Y-110553864D01*
X150861903Y-110553864D02*
X150814284Y-110744340D01*
X150814284Y-110744340D02*
X150766665Y-110839578D01*
X150766665Y-110839578D02*
X150719046Y-110887198D01*
X150719046Y-110887198D02*
X150623808Y-110934817D01*
X150623808Y-110934817D02*
X150528570Y-110934817D01*
X150528570Y-110934817D02*
X150433332Y-110887198D01*
X150433332Y-110887198D02*
X150385713Y-110839578D01*
X150385713Y-110839578D02*
X150338094Y-110744340D01*
X150338094Y-110744340D02*
X150290475Y-110553864D01*
X150290475Y-110553864D02*
X150290475Y-110315769D01*
X150290475Y-110315769D02*
X150338094Y-110125293D01*
X150338094Y-110125293D02*
X150385713Y-110030055D01*
X150385713Y-110030055D02*
X150433332Y-109982436D01*
X150433332Y-109982436D02*
X150528570Y-109934817D01*
X138924820Y-138692858D02*
X138448629Y-139026191D01*
X138924820Y-139264286D02*
X137924820Y-139264286D01*
X137924820Y-139264286D02*
X137924820Y-138883334D01*
X137924820Y-138883334D02*
X137972439Y-138788096D01*
X137972439Y-138788096D02*
X138020058Y-138740477D01*
X138020058Y-138740477D02*
X138115296Y-138692858D01*
X138115296Y-138692858D02*
X138258153Y-138692858D01*
X138258153Y-138692858D02*
X138353391Y-138740477D01*
X138353391Y-138740477D02*
X138401010Y-138788096D01*
X138401010Y-138788096D02*
X138448629Y-138883334D01*
X138448629Y-138883334D02*
X138448629Y-139264286D01*
X138924820Y-137740477D02*
X138924820Y-138311905D01*
X138924820Y-138026191D02*
X137924820Y-138026191D01*
X137924820Y-138026191D02*
X138067677Y-138121429D01*
X138067677Y-138121429D02*
X138162915Y-138216667D01*
X138162915Y-138216667D02*
X138210534Y-138311905D01*
X138020058Y-137359524D02*
X137972439Y-137311905D01*
X137972439Y-137311905D02*
X137924820Y-137216667D01*
X137924820Y-137216667D02*
X137924820Y-136978572D01*
X137924820Y-136978572D02*
X137972439Y-136883334D01*
X137972439Y-136883334D02*
X138020058Y-136835715D01*
X138020058Y-136835715D02*
X138115296Y-136788096D01*
X138115296Y-136788096D02*
X138210534Y-136788096D01*
X138210534Y-136788096D02*
X138353391Y-136835715D01*
X138353391Y-136835715D02*
X138924820Y-137407143D01*
X138924820Y-137407143D02*
X138924820Y-136788096D01*
X172738095Y-131894819D02*
X172738095Y-132704342D01*
X172738095Y-132704342D02*
X172785714Y-132799580D01*
X172785714Y-132799580D02*
X172833333Y-132847200D01*
X172833333Y-132847200D02*
X172928571Y-132894819D01*
X172928571Y-132894819D02*
X173119047Y-132894819D01*
X173119047Y-132894819D02*
X173214285Y-132847200D01*
X173214285Y-132847200D02*
X173261904Y-132799580D01*
X173261904Y-132799580D02*
X173309523Y-132704342D01*
X173309523Y-132704342D02*
X173309523Y-131894819D01*
X174261904Y-131894819D02*
X173785714Y-131894819D01*
X173785714Y-131894819D02*
X173738095Y-132371009D01*
X173738095Y-132371009D02*
X173785714Y-132323390D01*
X173785714Y-132323390D02*
X173880952Y-132275771D01*
X173880952Y-132275771D02*
X174119047Y-132275771D01*
X174119047Y-132275771D02*
X174214285Y-132323390D01*
X174214285Y-132323390D02*
X174261904Y-132371009D01*
X174261904Y-132371009D02*
X174309523Y-132466247D01*
X174309523Y-132466247D02*
X174309523Y-132704342D01*
X174309523Y-132704342D02*
X174261904Y-132799580D01*
X174261904Y-132799580D02*
X174214285Y-132847200D01*
X174214285Y-132847200D02*
X174119047Y-132894819D01*
X174119047Y-132894819D02*
X173880952Y-132894819D01*
X173880952Y-132894819D02*
X173785714Y-132847200D01*
X173785714Y-132847200D02*
X173738095Y-132799580D01*
X167483333Y-112179580D02*
X167435714Y-112227200D01*
X167435714Y-112227200D02*
X167292857Y-112274819D01*
X167292857Y-112274819D02*
X167197619Y-112274819D01*
X167197619Y-112274819D02*
X167054762Y-112227200D01*
X167054762Y-112227200D02*
X166959524Y-112131961D01*
X166959524Y-112131961D02*
X166911905Y-112036723D01*
X166911905Y-112036723D02*
X166864286Y-111846247D01*
X166864286Y-111846247D02*
X166864286Y-111703390D01*
X166864286Y-111703390D02*
X166911905Y-111512914D01*
X166911905Y-111512914D02*
X166959524Y-111417676D01*
X166959524Y-111417676D02*
X167054762Y-111322438D01*
X167054762Y-111322438D02*
X167197619Y-111274819D01*
X167197619Y-111274819D02*
X167292857Y-111274819D01*
X167292857Y-111274819D02*
X167435714Y-111322438D01*
X167435714Y-111322438D02*
X167483333Y-111370057D01*
X167959524Y-112274819D02*
X168150000Y-112274819D01*
X168150000Y-112274819D02*
X168245238Y-112227200D01*
X168245238Y-112227200D02*
X168292857Y-112179580D01*
X168292857Y-112179580D02*
X168388095Y-112036723D01*
X168388095Y-112036723D02*
X168435714Y-111846247D01*
X168435714Y-111846247D02*
X168435714Y-111465295D01*
X168435714Y-111465295D02*
X168388095Y-111370057D01*
X168388095Y-111370057D02*
X168340476Y-111322438D01*
X168340476Y-111322438D02*
X168245238Y-111274819D01*
X168245238Y-111274819D02*
X168054762Y-111274819D01*
X168054762Y-111274819D02*
X167959524Y-111322438D01*
X167959524Y-111322438D02*
X167911905Y-111370057D01*
X167911905Y-111370057D02*
X167864286Y-111465295D01*
X167864286Y-111465295D02*
X167864286Y-111703390D01*
X167864286Y-111703390D02*
X167911905Y-111798628D01*
X167911905Y-111798628D02*
X167959524Y-111846247D01*
X167959524Y-111846247D02*
X168054762Y-111893866D01*
X168054762Y-111893866D02*
X168245238Y-111893866D01*
X168245238Y-111893866D02*
X168340476Y-111846247D01*
X168340476Y-111846247D02*
X168388095Y-111798628D01*
X168388095Y-111798628D02*
X168435714Y-111703390D01*
X160872142Y-135230997D02*
X160841190Y-135261950D01*
X160841190Y-135261950D02*
X160748332Y-135292902D01*
X160748332Y-135292902D02*
X160686428Y-135292902D01*
X160686428Y-135292902D02*
X160593571Y-135261950D01*
X160593571Y-135261950D02*
X160531666Y-135200045D01*
X160531666Y-135200045D02*
X160500713Y-135138140D01*
X160500713Y-135138140D02*
X160469761Y-135014330D01*
X160469761Y-135014330D02*
X160469761Y-134921473D01*
X160469761Y-134921473D02*
X160500713Y-134797664D01*
X160500713Y-134797664D02*
X160531666Y-134735759D01*
X160531666Y-134735759D02*
X160593571Y-134673854D01*
X160593571Y-134673854D02*
X160686428Y-134642902D01*
X160686428Y-134642902D02*
X160748332Y-134642902D01*
X160748332Y-134642902D02*
X160841190Y-134673854D01*
X160841190Y-134673854D02*
X160872142Y-134704807D01*
X161491190Y-135292902D02*
X161119761Y-135292902D01*
X161305475Y-135292902D02*
X161305475Y-134642902D01*
X161305475Y-134642902D02*
X161243571Y-134735759D01*
X161243571Y-134735759D02*
X161181666Y-134797664D01*
X161181666Y-134797664D02*
X161119761Y-134828616D01*
X161707857Y-134642902D02*
X162141190Y-134642902D01*
X162141190Y-134642902D02*
X161862619Y-135292902D01*
X140574820Y-121141667D02*
X140098629Y-121475000D01*
X140574820Y-121713095D02*
X139574820Y-121713095D01*
X139574820Y-121713095D02*
X139574820Y-121332143D01*
X139574820Y-121332143D02*
X139622439Y-121236905D01*
X139622439Y-121236905D02*
X139670058Y-121189286D01*
X139670058Y-121189286D02*
X139765296Y-121141667D01*
X139765296Y-121141667D02*
X139908153Y-121141667D01*
X139908153Y-121141667D02*
X140003391Y-121189286D01*
X140003391Y-121189286D02*
X140051010Y-121236905D01*
X140051010Y-121236905D02*
X140098629Y-121332143D01*
X140098629Y-121332143D02*
X140098629Y-121713095D01*
X140003391Y-120570238D02*
X139955772Y-120665476D01*
X139955772Y-120665476D02*
X139908153Y-120713095D01*
X139908153Y-120713095D02*
X139812915Y-120760714D01*
X139812915Y-120760714D02*
X139765296Y-120760714D01*
X139765296Y-120760714D02*
X139670058Y-120713095D01*
X139670058Y-120713095D02*
X139622439Y-120665476D01*
X139622439Y-120665476D02*
X139574820Y-120570238D01*
X139574820Y-120570238D02*
X139574820Y-120379762D01*
X139574820Y-120379762D02*
X139622439Y-120284524D01*
X139622439Y-120284524D02*
X139670058Y-120236905D01*
X139670058Y-120236905D02*
X139765296Y-120189286D01*
X139765296Y-120189286D02*
X139812915Y-120189286D01*
X139812915Y-120189286D02*
X139908153Y-120236905D01*
X139908153Y-120236905D02*
X139955772Y-120284524D01*
X139955772Y-120284524D02*
X140003391Y-120379762D01*
X140003391Y-120379762D02*
X140003391Y-120570238D01*
X140003391Y-120570238D02*
X140051010Y-120665476D01*
X140051010Y-120665476D02*
X140098629Y-120713095D01*
X140098629Y-120713095D02*
X140193867Y-120760714D01*
X140193867Y-120760714D02*
X140384343Y-120760714D01*
X140384343Y-120760714D02*
X140479581Y-120713095D01*
X140479581Y-120713095D02*
X140527201Y-120665476D01*
X140527201Y-120665476D02*
X140574820Y-120570238D01*
X140574820Y-120570238D02*
X140574820Y-120379762D01*
X140574820Y-120379762D02*
X140527201Y-120284524D01*
X140527201Y-120284524D02*
X140479581Y-120236905D01*
X140479581Y-120236905D02*
X140384343Y-120189286D01*
X140384343Y-120189286D02*
X140193867Y-120189286D01*
X140193867Y-120189286D02*
X140098629Y-120236905D01*
X140098629Y-120236905D02*
X140051010Y-120284524D01*
X140051010Y-120284524D02*
X140003391Y-120379762D01*
X138607142Y-119129580D02*
X138559523Y-119177200D01*
X138559523Y-119177200D02*
X138416666Y-119224819D01*
X138416666Y-119224819D02*
X138321428Y-119224819D01*
X138321428Y-119224819D02*
X138178571Y-119177200D01*
X138178571Y-119177200D02*
X138083333Y-119081961D01*
X138083333Y-119081961D02*
X138035714Y-118986723D01*
X138035714Y-118986723D02*
X137988095Y-118796247D01*
X137988095Y-118796247D02*
X137988095Y-118653390D01*
X137988095Y-118653390D02*
X138035714Y-118462914D01*
X138035714Y-118462914D02*
X138083333Y-118367676D01*
X138083333Y-118367676D02*
X138178571Y-118272438D01*
X138178571Y-118272438D02*
X138321428Y-118224819D01*
X138321428Y-118224819D02*
X138416666Y-118224819D01*
X138416666Y-118224819D02*
X138559523Y-118272438D01*
X138559523Y-118272438D02*
X138607142Y-118320057D01*
X139559523Y-119224819D02*
X138988095Y-119224819D01*
X139273809Y-119224819D02*
X139273809Y-118224819D01*
X139273809Y-118224819D02*
X139178571Y-118367676D01*
X139178571Y-118367676D02*
X139083333Y-118462914D01*
X139083333Y-118462914D02*
X138988095Y-118510533D01*
X140130952Y-118653390D02*
X140035714Y-118605771D01*
X140035714Y-118605771D02*
X139988095Y-118558152D01*
X139988095Y-118558152D02*
X139940476Y-118462914D01*
X139940476Y-118462914D02*
X139940476Y-118415295D01*
X139940476Y-118415295D02*
X139988095Y-118320057D01*
X139988095Y-118320057D02*
X140035714Y-118272438D01*
X140035714Y-118272438D02*
X140130952Y-118224819D01*
X140130952Y-118224819D02*
X140321428Y-118224819D01*
X140321428Y-118224819D02*
X140416666Y-118272438D01*
X140416666Y-118272438D02*
X140464285Y-118320057D01*
X140464285Y-118320057D02*
X140511904Y-118415295D01*
X140511904Y-118415295D02*
X140511904Y-118462914D01*
X140511904Y-118462914D02*
X140464285Y-118558152D01*
X140464285Y-118558152D02*
X140416666Y-118605771D01*
X140416666Y-118605771D02*
X140321428Y-118653390D01*
X140321428Y-118653390D02*
X140130952Y-118653390D01*
X140130952Y-118653390D02*
X140035714Y-118701009D01*
X140035714Y-118701009D02*
X139988095Y-118748628D01*
X139988095Y-118748628D02*
X139940476Y-118843866D01*
X139940476Y-118843866D02*
X139940476Y-119034342D01*
X139940476Y-119034342D02*
X139988095Y-119129580D01*
X139988095Y-119129580D02*
X140035714Y-119177200D01*
X140035714Y-119177200D02*
X140130952Y-119224819D01*
X140130952Y-119224819D02*
X140321428Y-119224819D01*
X140321428Y-119224819D02*
X140416666Y-119177200D01*
X140416666Y-119177200D02*
X140464285Y-119129580D01*
X140464285Y-119129580D02*
X140511904Y-119034342D01*
X140511904Y-119034342D02*
X140511904Y-118843866D01*
X140511904Y-118843866D02*
X140464285Y-118748628D01*
X140464285Y-118748628D02*
X140416666Y-118701009D01*
X140416666Y-118701009D02*
X140321428Y-118653390D01*
X167232142Y-110780997D02*
X167201190Y-110811950D01*
X167201190Y-110811950D02*
X167108332Y-110842902D01*
X167108332Y-110842902D02*
X167046428Y-110842902D01*
X167046428Y-110842902D02*
X166953571Y-110811950D01*
X166953571Y-110811950D02*
X166891666Y-110750045D01*
X166891666Y-110750045D02*
X166860713Y-110688140D01*
X166860713Y-110688140D02*
X166829761Y-110564330D01*
X166829761Y-110564330D02*
X166829761Y-110471473D01*
X166829761Y-110471473D02*
X166860713Y-110347664D01*
X166860713Y-110347664D02*
X166891666Y-110285759D01*
X166891666Y-110285759D02*
X166953571Y-110223854D01*
X166953571Y-110223854D02*
X167046428Y-110192902D01*
X167046428Y-110192902D02*
X167108332Y-110192902D01*
X167108332Y-110192902D02*
X167201190Y-110223854D01*
X167201190Y-110223854D02*
X167232142Y-110254807D01*
X167851190Y-110842902D02*
X167479761Y-110842902D01*
X167665475Y-110842902D02*
X167665475Y-110192902D01*
X167665475Y-110192902D02*
X167603571Y-110285759D01*
X167603571Y-110285759D02*
X167541666Y-110347664D01*
X167541666Y-110347664D02*
X167479761Y-110378616D01*
X168253571Y-110192902D02*
X168315476Y-110192902D01*
X168315476Y-110192902D02*
X168377380Y-110223854D01*
X168377380Y-110223854D02*
X168408333Y-110254807D01*
X168408333Y-110254807D02*
X168439285Y-110316711D01*
X168439285Y-110316711D02*
X168470238Y-110440521D01*
X168470238Y-110440521D02*
X168470238Y-110595283D01*
X168470238Y-110595283D02*
X168439285Y-110719092D01*
X168439285Y-110719092D02*
X168408333Y-110780997D01*
X168408333Y-110780997D02*
X168377380Y-110811950D01*
X168377380Y-110811950D02*
X168315476Y-110842902D01*
X168315476Y-110842902D02*
X168253571Y-110842902D01*
X168253571Y-110842902D02*
X168191666Y-110811950D01*
X168191666Y-110811950D02*
X168160714Y-110780997D01*
X168160714Y-110780997D02*
X168129761Y-110719092D01*
X168129761Y-110719092D02*
X168098809Y-110595283D01*
X168098809Y-110595283D02*
X168098809Y-110440521D01*
X168098809Y-110440521D02*
X168129761Y-110316711D01*
X168129761Y-110316711D02*
X168160714Y-110254807D01*
X168160714Y-110254807D02*
X168191666Y-110223854D01*
X168191666Y-110223854D02*
X168253571Y-110192902D01*
X166066666Y-104042902D02*
X165849999Y-103733378D01*
X165695237Y-104042902D02*
X165695237Y-103392902D01*
X165695237Y-103392902D02*
X165942856Y-103392902D01*
X165942856Y-103392902D02*
X166004761Y-103423854D01*
X166004761Y-103423854D02*
X166035714Y-103454807D01*
X166035714Y-103454807D02*
X166066666Y-103516711D01*
X166066666Y-103516711D02*
X166066666Y-103609569D01*
X166066666Y-103609569D02*
X166035714Y-103671473D01*
X166035714Y-103671473D02*
X166004761Y-103702426D01*
X166004761Y-103702426D02*
X165942856Y-103733378D01*
X165942856Y-103733378D02*
X165695237Y-103733378D01*
X166283333Y-103392902D02*
X166685714Y-103392902D01*
X166685714Y-103392902D02*
X166469047Y-103640521D01*
X166469047Y-103640521D02*
X166561904Y-103640521D01*
X166561904Y-103640521D02*
X166623809Y-103671473D01*
X166623809Y-103671473D02*
X166654761Y-103702426D01*
X166654761Y-103702426D02*
X166685714Y-103764330D01*
X166685714Y-103764330D02*
X166685714Y-103919092D01*
X166685714Y-103919092D02*
X166654761Y-103980997D01*
X166654761Y-103980997D02*
X166623809Y-104011950D01*
X166623809Y-104011950D02*
X166561904Y-104042902D01*
X166561904Y-104042902D02*
X166376190Y-104042902D01*
X166376190Y-104042902D02*
X166314285Y-104011950D01*
X166314285Y-104011950D02*
X166283333Y-103980997D01*
X139742902Y-137995238D02*
X140269092Y-137995238D01*
X140269092Y-137995238D02*
X140330997Y-137964285D01*
X140330997Y-137964285D02*
X140361950Y-137933333D01*
X140361950Y-137933333D02*
X140392902Y-137871428D01*
X140392902Y-137871428D02*
X140392902Y-137747619D01*
X140392902Y-137747619D02*
X140361950Y-137685714D01*
X140361950Y-137685714D02*
X140330997Y-137654761D01*
X140330997Y-137654761D02*
X140269092Y-137623809D01*
X140269092Y-137623809D02*
X139742902Y-137623809D01*
X139742902Y-137035714D02*
X139742902Y-137159524D01*
X139742902Y-137159524D02*
X139773854Y-137221428D01*
X139773854Y-137221428D02*
X139804807Y-137252381D01*
X139804807Y-137252381D02*
X139897664Y-137314286D01*
X139897664Y-137314286D02*
X140021473Y-137345238D01*
X140021473Y-137345238D02*
X140269092Y-137345238D01*
X140269092Y-137345238D02*
X140330997Y-137314286D01*
X140330997Y-137314286D02*
X140361950Y-137283333D01*
X140361950Y-137283333D02*
X140392902Y-137221428D01*
X140392902Y-137221428D02*
X140392902Y-137097619D01*
X140392902Y-137097619D02*
X140361950Y-137035714D01*
X140361950Y-137035714D02*
X140330997Y-137004762D01*
X140330997Y-137004762D02*
X140269092Y-136973809D01*
X140269092Y-136973809D02*
X140114330Y-136973809D01*
X140114330Y-136973809D02*
X140052426Y-137004762D01*
X140052426Y-137004762D02*
X140021473Y-137035714D01*
X140021473Y-137035714D02*
X139990521Y-137097619D01*
X139990521Y-137097619D02*
X139990521Y-137221428D01*
X139990521Y-137221428D02*
X140021473Y-137283333D01*
X140021473Y-137283333D02*
X140052426Y-137314286D01*
X140052426Y-137314286D02*
X140114330Y-137345238D01*
X159646664Y-110434817D02*
X159646664Y-111149102D01*
X159646664Y-111149102D02*
X159599045Y-111291959D01*
X159599045Y-111291959D02*
X159503807Y-111387198D01*
X159503807Y-111387198D02*
X159360950Y-111434817D01*
X159360950Y-111434817D02*
X159265712Y-111434817D01*
X160075236Y-110530055D02*
X160122855Y-110482436D01*
X160122855Y-110482436D02*
X160218093Y-110434817D01*
X160218093Y-110434817D02*
X160456188Y-110434817D01*
X160456188Y-110434817D02*
X160551426Y-110482436D01*
X160551426Y-110482436D02*
X160599045Y-110530055D01*
X160599045Y-110530055D02*
X160646664Y-110625293D01*
X160646664Y-110625293D02*
X160646664Y-110720531D01*
X160646664Y-110720531D02*
X160599045Y-110863388D01*
X160599045Y-110863388D02*
X160027617Y-111434817D01*
X160027617Y-111434817D02*
X160646664Y-111434817D01*
X160731905Y-109484818D02*
X160731905Y-108484818D01*
X160731905Y-108484818D02*
X160970000Y-108484818D01*
X160970000Y-108484818D02*
X161112857Y-108532437D01*
X161112857Y-108532437D02*
X161208095Y-108627675D01*
X161208095Y-108627675D02*
X161255714Y-108722913D01*
X161255714Y-108722913D02*
X161303333Y-108913389D01*
X161303333Y-108913389D02*
X161303333Y-109056246D01*
X161303333Y-109056246D02*
X161255714Y-109246722D01*
X161255714Y-109246722D02*
X161208095Y-109341960D01*
X161208095Y-109341960D02*
X161112857Y-109437199D01*
X161112857Y-109437199D02*
X160970000Y-109484818D01*
X160970000Y-109484818D02*
X160731905Y-109484818D01*
X161636667Y-108484818D02*
X162255714Y-108484818D01*
X162255714Y-108484818D02*
X161922381Y-108865770D01*
X161922381Y-108865770D02*
X162065238Y-108865770D01*
X162065238Y-108865770D02*
X162160476Y-108913389D01*
X162160476Y-108913389D02*
X162208095Y-108961008D01*
X162208095Y-108961008D02*
X162255714Y-109056246D01*
X162255714Y-109056246D02*
X162255714Y-109294341D01*
X162255714Y-109294341D02*
X162208095Y-109389579D01*
X162208095Y-109389579D02*
X162160476Y-109437199D01*
X162160476Y-109437199D02*
X162065238Y-109484818D01*
X162065238Y-109484818D02*
X161779524Y-109484818D01*
X161779524Y-109484818D02*
X161684286Y-109437199D01*
X161684286Y-109437199D02*
X161636667Y-109389579D01*
X155866666Y-131954819D02*
X155866666Y-132669104D01*
X155866666Y-132669104D02*
X155819047Y-132811961D01*
X155819047Y-132811961D02*
X155723809Y-132907200D01*
X155723809Y-132907200D02*
X155580952Y-132954819D01*
X155580952Y-132954819D02*
X155485714Y-132954819D01*
X156819047Y-131954819D02*
X156342857Y-131954819D01*
X156342857Y-131954819D02*
X156295238Y-132431009D01*
X156295238Y-132431009D02*
X156342857Y-132383390D01*
X156342857Y-132383390D02*
X156438095Y-132335771D01*
X156438095Y-132335771D02*
X156676190Y-132335771D01*
X156676190Y-132335771D02*
X156771428Y-132383390D01*
X156771428Y-132383390D02*
X156819047Y-132431009D01*
X156819047Y-132431009D02*
X156866666Y-132526247D01*
X156866666Y-132526247D02*
X156866666Y-132764342D01*
X156866666Y-132764342D02*
X156819047Y-132859580D01*
X156819047Y-132859580D02*
X156771428Y-132907200D01*
X156771428Y-132907200D02*
X156676190Y-132954819D01*
X156676190Y-132954819D02*
X156438095Y-132954819D01*
X156438095Y-132954819D02*
X156342857Y-132907200D01*
X156342857Y-132907200D02*
X156295238Y-132859580D01*
X182033333Y-139092902D02*
X182033333Y-139557188D01*
X182033333Y-139557188D02*
X182002380Y-139650045D01*
X182002380Y-139650045D02*
X181940476Y-139711950D01*
X181940476Y-139711950D02*
X181847618Y-139742902D01*
X181847618Y-139742902D02*
X181785714Y-139742902D01*
X182280952Y-139092902D02*
X182714285Y-139092902D01*
X182714285Y-139092902D02*
X182435714Y-139742902D01*
X159783333Y-99192902D02*
X159783333Y-99657188D01*
X159783333Y-99657188D02*
X159752380Y-99750045D01*
X159752380Y-99750045D02*
X159690476Y-99811950D01*
X159690476Y-99811950D02*
X159597618Y-99842902D01*
X159597618Y-99842902D02*
X159535714Y-99842902D01*
X160433333Y-99842902D02*
X160061904Y-99842902D01*
X160247618Y-99842902D02*
X160247618Y-99192902D01*
X160247618Y-99192902D02*
X160185714Y-99285759D01*
X160185714Y-99285759D02*
X160123809Y-99347664D01*
X160123809Y-99347664D02*
X160061904Y-99378616D01*
X162814761Y-141442902D02*
X162814761Y-141969092D01*
X162814761Y-141969092D02*
X162845714Y-142030997D01*
X162845714Y-142030997D02*
X162876666Y-142061950D01*
X162876666Y-142061950D02*
X162938571Y-142092902D01*
X162938571Y-142092902D02*
X163062380Y-142092902D01*
X163062380Y-142092902D02*
X163124285Y-142061950D01*
X163124285Y-142061950D02*
X163155238Y-142030997D01*
X163155238Y-142030997D02*
X163186190Y-141969092D01*
X163186190Y-141969092D02*
X163186190Y-141442902D01*
X163433809Y-141442902D02*
X163836190Y-141442902D01*
X163836190Y-141442902D02*
X163619523Y-141690521D01*
X163619523Y-141690521D02*
X163712380Y-141690521D01*
X163712380Y-141690521D02*
X163774285Y-141721473D01*
X163774285Y-141721473D02*
X163805237Y-141752426D01*
X163805237Y-141752426D02*
X163836190Y-141814330D01*
X163836190Y-141814330D02*
X163836190Y-141969092D01*
X163836190Y-141969092D02*
X163805237Y-142030997D01*
X163805237Y-142030997D02*
X163774285Y-142061950D01*
X163774285Y-142061950D02*
X163712380Y-142092902D01*
X163712380Y-142092902D02*
X163526666Y-142092902D01*
X163526666Y-142092902D02*
X163464761Y-142061950D01*
X163464761Y-142061950D02*
X163433809Y-142030997D01*
X151833333Y-122539578D02*
X151785714Y-122587198D01*
X151785714Y-122587198D02*
X151642857Y-122634817D01*
X151642857Y-122634817D02*
X151547619Y-122634817D01*
X151547619Y-122634817D02*
X151404762Y-122587198D01*
X151404762Y-122587198D02*
X151309524Y-122491959D01*
X151309524Y-122491959D02*
X151261905Y-122396721D01*
X151261905Y-122396721D02*
X151214286Y-122206245D01*
X151214286Y-122206245D02*
X151214286Y-122063388D01*
X151214286Y-122063388D02*
X151261905Y-121872912D01*
X151261905Y-121872912D02*
X151309524Y-121777674D01*
X151309524Y-121777674D02*
X151404762Y-121682436D01*
X151404762Y-121682436D02*
X151547619Y-121634817D01*
X151547619Y-121634817D02*
X151642857Y-121634817D01*
X151642857Y-121634817D02*
X151785714Y-121682436D01*
X151785714Y-121682436D02*
X151833333Y-121730055D01*
X152214286Y-121730055D02*
X152261905Y-121682436D01*
X152261905Y-121682436D02*
X152357143Y-121634817D01*
X152357143Y-121634817D02*
X152595238Y-121634817D01*
X152595238Y-121634817D02*
X152690476Y-121682436D01*
X152690476Y-121682436D02*
X152738095Y-121730055D01*
X152738095Y-121730055D02*
X152785714Y-121825293D01*
X152785714Y-121825293D02*
X152785714Y-121920531D01*
X152785714Y-121920531D02*
X152738095Y-122063388D01*
X152738095Y-122063388D02*
X152166667Y-122634817D01*
X152166667Y-122634817D02*
X152785714Y-122634817D01*
X175204819Y-120916666D02*
X175204819Y-121392856D01*
X175204819Y-121392856D02*
X174204819Y-121392856D01*
X174300057Y-120630951D02*
X174252438Y-120583332D01*
X174252438Y-120583332D02*
X174204819Y-120488094D01*
X174204819Y-120488094D02*
X174204819Y-120249999D01*
X174204819Y-120249999D02*
X174252438Y-120154761D01*
X174252438Y-120154761D02*
X174300057Y-120107142D01*
X174300057Y-120107142D02*
X174395295Y-120059523D01*
X174395295Y-120059523D02*
X174490533Y-120059523D01*
X174490533Y-120059523D02*
X174633390Y-120107142D01*
X174633390Y-120107142D02*
X175204819Y-120678570D01*
X175204819Y-120678570D02*
X175204819Y-120059523D01*
X152773809Y-103928628D02*
X152773809Y-104404819D01*
X152440476Y-103404819D02*
X152773809Y-103928628D01*
X152773809Y-103928628D02*
X153107142Y-103404819D01*
X153869047Y-103738152D02*
X153869047Y-104404819D01*
X153630952Y-103357200D02*
X153392857Y-104071485D01*
X153392857Y-104071485D02*
X154011904Y-104071485D01*
X179124820Y-138692858D02*
X178648629Y-139026191D01*
X179124820Y-139264286D02*
X178124820Y-139264286D01*
X178124820Y-139264286D02*
X178124820Y-138883334D01*
X178124820Y-138883334D02*
X178172439Y-138788096D01*
X178172439Y-138788096D02*
X178220058Y-138740477D01*
X178220058Y-138740477D02*
X178315296Y-138692858D01*
X178315296Y-138692858D02*
X178458153Y-138692858D01*
X178458153Y-138692858D02*
X178553391Y-138740477D01*
X178553391Y-138740477D02*
X178601010Y-138788096D01*
X178601010Y-138788096D02*
X178648629Y-138883334D01*
X178648629Y-138883334D02*
X178648629Y-139264286D01*
X179124820Y-137740477D02*
X179124820Y-138311905D01*
X179124820Y-138026191D02*
X178124820Y-138026191D01*
X178124820Y-138026191D02*
X178267677Y-138121429D01*
X178267677Y-138121429D02*
X178362915Y-138216667D01*
X178362915Y-138216667D02*
X178410534Y-138311905D01*
X178124820Y-137407143D02*
X178124820Y-136788096D01*
X178124820Y-136788096D02*
X178505772Y-137121429D01*
X178505772Y-137121429D02*
X178505772Y-136978572D01*
X178505772Y-136978572D02*
X178553391Y-136883334D01*
X178553391Y-136883334D02*
X178601010Y-136835715D01*
X178601010Y-136835715D02*
X178696248Y-136788096D01*
X178696248Y-136788096D02*
X178934343Y-136788096D01*
X178934343Y-136788096D02*
X179029581Y-136835715D01*
X179029581Y-136835715D02*
X179077201Y-136883334D01*
X179077201Y-136883334D02*
X179124820Y-136978572D01*
X179124820Y-136978572D02*
X179124820Y-137264286D01*
X179124820Y-137264286D02*
X179077201Y-137359524D01*
X179077201Y-137359524D02*
X179029581Y-137407143D01*
X174289579Y-110142858D02*
X174337199Y-110190477D01*
X174337199Y-110190477D02*
X174384818Y-110333334D01*
X174384818Y-110333334D02*
X174384818Y-110428572D01*
X174384818Y-110428572D02*
X174337199Y-110571429D01*
X174337199Y-110571429D02*
X174241960Y-110666667D01*
X174241960Y-110666667D02*
X174146722Y-110714286D01*
X174146722Y-110714286D02*
X173956246Y-110761905D01*
X173956246Y-110761905D02*
X173813389Y-110761905D01*
X173813389Y-110761905D02*
X173622913Y-110714286D01*
X173622913Y-110714286D02*
X173527675Y-110666667D01*
X173527675Y-110666667D02*
X173432437Y-110571429D01*
X173432437Y-110571429D02*
X173384818Y-110428572D01*
X173384818Y-110428572D02*
X173384818Y-110333334D01*
X173384818Y-110333334D02*
X173432437Y-110190477D01*
X173432437Y-110190477D02*
X173480056Y-110142858D01*
X174384818Y-109190477D02*
X174384818Y-109761905D01*
X174384818Y-109476191D02*
X173384818Y-109476191D01*
X173384818Y-109476191D02*
X173527675Y-109571429D01*
X173527675Y-109571429D02*
X173622913Y-109666667D01*
X173622913Y-109666667D02*
X173670532Y-109761905D01*
X173480056Y-108809524D02*
X173432437Y-108761905D01*
X173432437Y-108761905D02*
X173384818Y-108666667D01*
X173384818Y-108666667D02*
X173384818Y-108428572D01*
X173384818Y-108428572D02*
X173432437Y-108333334D01*
X173432437Y-108333334D02*
X173480056Y-108285715D01*
X173480056Y-108285715D02*
X173575294Y-108238096D01*
X173575294Y-108238096D02*
X173670532Y-108238096D01*
X173670532Y-108238096D02*
X173813389Y-108285715D01*
X173813389Y-108285715D02*
X174384818Y-108857143D01*
X174384818Y-108857143D02*
X174384818Y-108238096D01*
X165412902Y-139817857D02*
X165103378Y-140034524D01*
X165412902Y-140189286D02*
X164762902Y-140189286D01*
X164762902Y-140189286D02*
X164762902Y-139941667D01*
X164762902Y-139941667D02*
X164793854Y-139879762D01*
X164793854Y-139879762D02*
X164824807Y-139848809D01*
X164824807Y-139848809D02*
X164886711Y-139817857D01*
X164886711Y-139817857D02*
X164979569Y-139817857D01*
X164979569Y-139817857D02*
X165041473Y-139848809D01*
X165041473Y-139848809D02*
X165072426Y-139879762D01*
X165072426Y-139879762D02*
X165103378Y-139941667D01*
X165103378Y-139941667D02*
X165103378Y-140189286D01*
X165412902Y-139198809D02*
X165412902Y-139570238D01*
X165412902Y-139384524D02*
X164762902Y-139384524D01*
X164762902Y-139384524D02*
X164855759Y-139446428D01*
X164855759Y-139446428D02*
X164917664Y-139508333D01*
X164917664Y-139508333D02*
X164948616Y-139570238D01*
X165412902Y-138579761D02*
X165412902Y-138951190D01*
X165412902Y-138765476D02*
X164762902Y-138765476D01*
X164762902Y-138765476D02*
X164855759Y-138827380D01*
X164855759Y-138827380D02*
X164917664Y-138889285D01*
X164917664Y-138889285D02*
X164948616Y-138951190D01*
X169978628Y-118476190D02*
X170454819Y-118476190D01*
X169454819Y-118809523D02*
X169978628Y-118476190D01*
X169978628Y-118476190D02*
X169454819Y-118142857D01*
X170454819Y-117285714D02*
X170454819Y-117857142D01*
X170454819Y-117571428D02*
X169454819Y-117571428D01*
X169454819Y-117571428D02*
X169597676Y-117666666D01*
X169597676Y-117666666D02*
X169692914Y-117761904D01*
X169692914Y-117761904D02*
X169740533Y-117857142D01*
X173779581Y-120666667D02*
X173827201Y-120714286D01*
X173827201Y-120714286D02*
X173874820Y-120857143D01*
X173874820Y-120857143D02*
X173874820Y-120952381D01*
X173874820Y-120952381D02*
X173827201Y-121095238D01*
X173827201Y-121095238D02*
X173731962Y-121190476D01*
X173731962Y-121190476D02*
X173636724Y-121238095D01*
X173636724Y-121238095D02*
X173446248Y-121285714D01*
X173446248Y-121285714D02*
X173303391Y-121285714D01*
X173303391Y-121285714D02*
X173112915Y-121238095D01*
X173112915Y-121238095D02*
X173017677Y-121190476D01*
X173017677Y-121190476D02*
X172922439Y-121095238D01*
X172922439Y-121095238D02*
X172874820Y-120952381D01*
X172874820Y-120952381D02*
X172874820Y-120857143D01*
X172874820Y-120857143D02*
X172922439Y-120714286D01*
X172922439Y-120714286D02*
X172970058Y-120666667D01*
X172874820Y-120333333D02*
X172874820Y-119666667D01*
X172874820Y-119666667D02*
X173874820Y-120095238D01*
X158283333Y-108124820D02*
X157950000Y-107648629D01*
X157711905Y-108124820D02*
X157711905Y-107124820D01*
X157711905Y-107124820D02*
X158092857Y-107124820D01*
X158092857Y-107124820D02*
X158188095Y-107172439D01*
X158188095Y-107172439D02*
X158235714Y-107220058D01*
X158235714Y-107220058D02*
X158283333Y-107315296D01*
X158283333Y-107315296D02*
X158283333Y-107458153D01*
X158283333Y-107458153D02*
X158235714Y-107553391D01*
X158235714Y-107553391D02*
X158188095Y-107601010D01*
X158188095Y-107601010D02*
X158092857Y-107648629D01*
X158092857Y-107648629D02*
X157711905Y-107648629D01*
X159140476Y-107124820D02*
X158950000Y-107124820D01*
X158950000Y-107124820D02*
X158854762Y-107172439D01*
X158854762Y-107172439D02*
X158807143Y-107220058D01*
X158807143Y-107220058D02*
X158711905Y-107362915D01*
X158711905Y-107362915D02*
X158664286Y-107553391D01*
X158664286Y-107553391D02*
X158664286Y-107934343D01*
X158664286Y-107934343D02*
X158711905Y-108029581D01*
X158711905Y-108029581D02*
X158759524Y-108077201D01*
X158759524Y-108077201D02*
X158854762Y-108124820D01*
X158854762Y-108124820D02*
X159045238Y-108124820D01*
X159045238Y-108124820D02*
X159140476Y-108077201D01*
X159140476Y-108077201D02*
X159188095Y-108029581D01*
X159188095Y-108029581D02*
X159235714Y-107934343D01*
X159235714Y-107934343D02*
X159235714Y-107696248D01*
X159235714Y-107696248D02*
X159188095Y-107601010D01*
X159188095Y-107601010D02*
X159140476Y-107553391D01*
X159140476Y-107553391D02*
X159045238Y-107505772D01*
X159045238Y-107505772D02*
X158854762Y-107505772D01*
X158854762Y-107505772D02*
X158759524Y-107553391D01*
X158759524Y-107553391D02*
X158711905Y-107601010D01*
X158711905Y-107601010D02*
X158664286Y-107696248D01*
X167741666Y-104042902D02*
X167524999Y-103733378D01*
X167370237Y-104042902D02*
X167370237Y-103392902D01*
X167370237Y-103392902D02*
X167617856Y-103392902D01*
X167617856Y-103392902D02*
X167679761Y-103423854D01*
X167679761Y-103423854D02*
X167710714Y-103454807D01*
X167710714Y-103454807D02*
X167741666Y-103516711D01*
X167741666Y-103516711D02*
X167741666Y-103609569D01*
X167741666Y-103609569D02*
X167710714Y-103671473D01*
X167710714Y-103671473D02*
X167679761Y-103702426D01*
X167679761Y-103702426D02*
X167617856Y-103733378D01*
X167617856Y-103733378D02*
X167370237Y-103733378D01*
X167989285Y-103454807D02*
X168020237Y-103423854D01*
X168020237Y-103423854D02*
X168082142Y-103392902D01*
X168082142Y-103392902D02*
X168236904Y-103392902D01*
X168236904Y-103392902D02*
X168298809Y-103423854D01*
X168298809Y-103423854D02*
X168329761Y-103454807D01*
X168329761Y-103454807D02*
X168360714Y-103516711D01*
X168360714Y-103516711D02*
X168360714Y-103578616D01*
X168360714Y-103578616D02*
X168329761Y-103671473D01*
X168329761Y-103671473D02*
X167958333Y-104042902D01*
X167958333Y-104042902D02*
X168360714Y-104042902D01*
X140333333Y-118689578D02*
X140285714Y-118737198D01*
X140285714Y-118737198D02*
X140142857Y-118784817D01*
X140142857Y-118784817D02*
X140047619Y-118784817D01*
X140047619Y-118784817D02*
X139904762Y-118737198D01*
X139904762Y-118737198D02*
X139809524Y-118641959D01*
X139809524Y-118641959D02*
X139761905Y-118546721D01*
X139761905Y-118546721D02*
X139714286Y-118356245D01*
X139714286Y-118356245D02*
X139714286Y-118213388D01*
X139714286Y-118213388D02*
X139761905Y-118022912D01*
X139761905Y-118022912D02*
X139809524Y-117927674D01*
X139809524Y-117927674D02*
X139904762Y-117832436D01*
X139904762Y-117832436D02*
X140047619Y-117784817D01*
X140047619Y-117784817D02*
X140142857Y-117784817D01*
X140142857Y-117784817D02*
X140285714Y-117832436D01*
X140285714Y-117832436D02*
X140333333Y-117880055D01*
X141285714Y-118784817D02*
X140714286Y-118784817D01*
X141000000Y-118784817D02*
X141000000Y-117784817D01*
X141000000Y-117784817D02*
X140904762Y-117927674D01*
X140904762Y-117927674D02*
X140809524Y-118022912D01*
X140809524Y-118022912D02*
X140714286Y-118070531D01*
X176523809Y-106778628D02*
X176523809Y-107254819D01*
X176190476Y-106254819D02*
X176523809Y-106778628D01*
X176523809Y-106778628D02*
X176857142Y-106254819D01*
X177142857Y-106350057D02*
X177190476Y-106302438D01*
X177190476Y-106302438D02*
X177285714Y-106254819D01*
X177285714Y-106254819D02*
X177523809Y-106254819D01*
X177523809Y-106254819D02*
X177619047Y-106302438D01*
X177619047Y-106302438D02*
X177666666Y-106350057D01*
X177666666Y-106350057D02*
X177714285Y-106445295D01*
X177714285Y-106445295D02*
X177714285Y-106540533D01*
X177714285Y-106540533D02*
X177666666Y-106683390D01*
X177666666Y-106683390D02*
X177095238Y-107254819D01*
X177095238Y-107254819D02*
X177714285Y-107254819D01*
X155742902Y-137070238D02*
X155742902Y-136698809D01*
X156392902Y-136884523D02*
X155742902Y-136884523D01*
X156392902Y-136482143D02*
X155742902Y-136482143D01*
X155742902Y-136482143D02*
X155742902Y-136234524D01*
X155742902Y-136234524D02*
X155773854Y-136172619D01*
X155773854Y-136172619D02*
X155804807Y-136141666D01*
X155804807Y-136141666D02*
X155866711Y-136110714D01*
X155866711Y-136110714D02*
X155959569Y-136110714D01*
X155959569Y-136110714D02*
X156021473Y-136141666D01*
X156021473Y-136141666D02*
X156052426Y-136172619D01*
X156052426Y-136172619D02*
X156083378Y-136234524D01*
X156083378Y-136234524D02*
X156083378Y-136482143D01*
X156392902Y-135491666D02*
X156392902Y-135863095D01*
X156392902Y-135677381D02*
X155742902Y-135677381D01*
X155742902Y-135677381D02*
X155835759Y-135739285D01*
X155835759Y-135739285D02*
X155897664Y-135801190D01*
X155897664Y-135801190D02*
X155928616Y-135863095D01*
X178932199Y-125208333D02*
X178979818Y-125065476D01*
X178979818Y-125065476D02*
X178979818Y-124827381D01*
X178979818Y-124827381D02*
X178932199Y-124732143D01*
X178932199Y-124732143D02*
X178884579Y-124684524D01*
X178884579Y-124684524D02*
X178789341Y-124636905D01*
X178789341Y-124636905D02*
X178694103Y-124636905D01*
X178694103Y-124636905D02*
X178598865Y-124684524D01*
X178598865Y-124684524D02*
X178551246Y-124732143D01*
X178551246Y-124732143D02*
X178503627Y-124827381D01*
X178503627Y-124827381D02*
X178456008Y-125017857D01*
X178456008Y-125017857D02*
X178408389Y-125113095D01*
X178408389Y-125113095D02*
X178360770Y-125160714D01*
X178360770Y-125160714D02*
X178265532Y-125208333D01*
X178265532Y-125208333D02*
X178170294Y-125208333D01*
X178170294Y-125208333D02*
X178075056Y-125160714D01*
X178075056Y-125160714D02*
X178027437Y-125113095D01*
X178027437Y-125113095D02*
X177979818Y-125017857D01*
X177979818Y-125017857D02*
X177979818Y-124779762D01*
X177979818Y-124779762D02*
X178027437Y-124636905D01*
X177979818Y-124303571D02*
X178979818Y-124065476D01*
X178979818Y-124065476D02*
X178265532Y-123875000D01*
X178265532Y-123875000D02*
X178979818Y-123684524D01*
X178979818Y-123684524D02*
X177979818Y-123446429D01*
X178979818Y-122541667D02*
X178979818Y-123113095D01*
X178979818Y-122827381D02*
X177979818Y-122827381D01*
X177979818Y-122827381D02*
X178122675Y-122922619D01*
X178122675Y-122922619D02*
X178217913Y-123017857D01*
X178217913Y-123017857D02*
X178265532Y-123113095D01*
X166922902Y-136458333D02*
X166613378Y-136675000D01*
X166922902Y-136829762D02*
X166272902Y-136829762D01*
X166272902Y-136829762D02*
X166272902Y-136582143D01*
X166272902Y-136582143D02*
X166303854Y-136520238D01*
X166303854Y-136520238D02*
X166334807Y-136489285D01*
X166334807Y-136489285D02*
X166396711Y-136458333D01*
X166396711Y-136458333D02*
X166489569Y-136458333D01*
X166489569Y-136458333D02*
X166551473Y-136489285D01*
X166551473Y-136489285D02*
X166582426Y-136520238D01*
X166582426Y-136520238D02*
X166613378Y-136582143D01*
X166613378Y-136582143D02*
X166613378Y-136829762D01*
X166922902Y-136148809D02*
X166922902Y-136025000D01*
X166922902Y-136025000D02*
X166891950Y-135963095D01*
X166891950Y-135963095D02*
X166860997Y-135932143D01*
X166860997Y-135932143D02*
X166768140Y-135870238D01*
X166768140Y-135870238D02*
X166644330Y-135839285D01*
X166644330Y-135839285D02*
X166396711Y-135839285D01*
X166396711Y-135839285D02*
X166334807Y-135870238D01*
X166334807Y-135870238D02*
X166303854Y-135901190D01*
X166303854Y-135901190D02*
X166272902Y-135963095D01*
X166272902Y-135963095D02*
X166272902Y-136086904D01*
X166272902Y-136086904D02*
X166303854Y-136148809D01*
X166303854Y-136148809D02*
X166334807Y-136179762D01*
X166334807Y-136179762D02*
X166396711Y-136210714D01*
X166396711Y-136210714D02*
X166551473Y-136210714D01*
X166551473Y-136210714D02*
X166613378Y-136179762D01*
X166613378Y-136179762D02*
X166644330Y-136148809D01*
X166644330Y-136148809D02*
X166675283Y-136086904D01*
X166675283Y-136086904D02*
X166675283Y-135963095D01*
X166675283Y-135963095D02*
X166644330Y-135901190D01*
X166644330Y-135901190D02*
X166613378Y-135870238D01*
X166613378Y-135870238D02*
X166551473Y-135839285D01*
X180482142Y-121989578D02*
X180434523Y-122037198D01*
X180434523Y-122037198D02*
X180291666Y-122084817D01*
X180291666Y-122084817D02*
X180196428Y-122084817D01*
X180196428Y-122084817D02*
X180053571Y-122037198D01*
X180053571Y-122037198D02*
X179958333Y-121941959D01*
X179958333Y-121941959D02*
X179910714Y-121846721D01*
X179910714Y-121846721D02*
X179863095Y-121656245D01*
X179863095Y-121656245D02*
X179863095Y-121513388D01*
X179863095Y-121513388D02*
X179910714Y-121322912D01*
X179910714Y-121322912D02*
X179958333Y-121227674D01*
X179958333Y-121227674D02*
X180053571Y-121132436D01*
X180053571Y-121132436D02*
X180196428Y-121084817D01*
X180196428Y-121084817D02*
X180291666Y-121084817D01*
X180291666Y-121084817D02*
X180434523Y-121132436D01*
X180434523Y-121132436D02*
X180482142Y-121180055D01*
X181434523Y-122084817D02*
X180863095Y-122084817D01*
X181148809Y-122084817D02*
X181148809Y-121084817D01*
X181148809Y-121084817D02*
X181053571Y-121227674D01*
X181053571Y-121227674D02*
X180958333Y-121322912D01*
X180958333Y-121322912D02*
X180863095Y-121370531D01*
X181767857Y-121084817D02*
X182386904Y-121084817D01*
X182386904Y-121084817D02*
X182053571Y-121465769D01*
X182053571Y-121465769D02*
X182196428Y-121465769D01*
X182196428Y-121465769D02*
X182291666Y-121513388D01*
X182291666Y-121513388D02*
X182339285Y-121561007D01*
X182339285Y-121561007D02*
X182386904Y-121656245D01*
X182386904Y-121656245D02*
X182386904Y-121894340D01*
X182386904Y-121894340D02*
X182339285Y-121989578D01*
X182339285Y-121989578D02*
X182291666Y-122037198D01*
X182291666Y-122037198D02*
X182196428Y-122084817D01*
X182196428Y-122084817D02*
X181910714Y-122084817D01*
X181910714Y-122084817D02*
X181815476Y-122037198D01*
X181815476Y-122037198D02*
X181767857Y-121989578D01*
X145738095Y-131894819D02*
X145738095Y-132704342D01*
X145738095Y-132704342D02*
X145785714Y-132799580D01*
X145785714Y-132799580D02*
X145833333Y-132847200D01*
X145833333Y-132847200D02*
X145928571Y-132894819D01*
X145928571Y-132894819D02*
X146119047Y-132894819D01*
X146119047Y-132894819D02*
X146214285Y-132847200D01*
X146214285Y-132847200D02*
X146261904Y-132799580D01*
X146261904Y-132799580D02*
X146309523Y-132704342D01*
X146309523Y-132704342D02*
X146309523Y-131894819D01*
X147214285Y-132228152D02*
X147214285Y-132894819D01*
X146976190Y-131847200D02*
X146738095Y-132561485D01*
X146738095Y-132561485D02*
X147357142Y-132561485D01*
X163466666Y-121954819D02*
X163466666Y-122669104D01*
X163466666Y-122669104D02*
X163419047Y-122811961D01*
X163419047Y-122811961D02*
X163323809Y-122907200D01*
X163323809Y-122907200D02*
X163180952Y-122954819D01*
X163180952Y-122954819D02*
X163085714Y-122954819D01*
X163847619Y-121954819D02*
X164466666Y-121954819D01*
X164466666Y-121954819D02*
X164133333Y-122335771D01*
X164133333Y-122335771D02*
X164276190Y-122335771D01*
X164276190Y-122335771D02*
X164371428Y-122383390D01*
X164371428Y-122383390D02*
X164419047Y-122431009D01*
X164419047Y-122431009D02*
X164466666Y-122526247D01*
X164466666Y-122526247D02*
X164466666Y-122764342D01*
X164466666Y-122764342D02*
X164419047Y-122859580D01*
X164419047Y-122859580D02*
X164371428Y-122907200D01*
X164371428Y-122907200D02*
X164276190Y-122954819D01*
X164276190Y-122954819D02*
X163990476Y-122954819D01*
X163990476Y-122954819D02*
X163895238Y-122907200D01*
X163895238Y-122907200D02*
X163847619Y-122859580D01*
X140333333Y-120239578D02*
X140285714Y-120287198D01*
X140285714Y-120287198D02*
X140142857Y-120334817D01*
X140142857Y-120334817D02*
X140047619Y-120334817D01*
X140047619Y-120334817D02*
X139904762Y-120287198D01*
X139904762Y-120287198D02*
X139809524Y-120191959D01*
X139809524Y-120191959D02*
X139761905Y-120096721D01*
X139761905Y-120096721D02*
X139714286Y-119906245D01*
X139714286Y-119906245D02*
X139714286Y-119763388D01*
X139714286Y-119763388D02*
X139761905Y-119572912D01*
X139761905Y-119572912D02*
X139809524Y-119477674D01*
X139809524Y-119477674D02*
X139904762Y-119382436D01*
X139904762Y-119382436D02*
X140047619Y-119334817D01*
X140047619Y-119334817D02*
X140142857Y-119334817D01*
X140142857Y-119334817D02*
X140285714Y-119382436D01*
X140285714Y-119382436D02*
X140333333Y-119430055D01*
X140666667Y-119334817D02*
X141285714Y-119334817D01*
X141285714Y-119334817D02*
X140952381Y-119715769D01*
X140952381Y-119715769D02*
X141095238Y-119715769D01*
X141095238Y-119715769D02*
X141190476Y-119763388D01*
X141190476Y-119763388D02*
X141238095Y-119811007D01*
X141238095Y-119811007D02*
X141285714Y-119906245D01*
X141285714Y-119906245D02*
X141285714Y-120144340D01*
X141285714Y-120144340D02*
X141238095Y-120239578D01*
X141238095Y-120239578D02*
X141190476Y-120287198D01*
X141190476Y-120287198D02*
X141095238Y-120334817D01*
X141095238Y-120334817D02*
X140809524Y-120334817D01*
X140809524Y-120334817D02*
X140714286Y-120287198D01*
X140714286Y-120287198D02*
X140666667Y-120239578D01*
X152107141Y-106879580D02*
X152059522Y-106927200D01*
X152059522Y-106927200D02*
X151916665Y-106974819D01*
X151916665Y-106974819D02*
X151821427Y-106974819D01*
X151821427Y-106974819D02*
X151678570Y-106927200D01*
X151678570Y-106927200D02*
X151583332Y-106831961D01*
X151583332Y-106831961D02*
X151535713Y-106736723D01*
X151535713Y-106736723D02*
X151488094Y-106546247D01*
X151488094Y-106546247D02*
X151488094Y-106403390D01*
X151488094Y-106403390D02*
X151535713Y-106212914D01*
X151535713Y-106212914D02*
X151583332Y-106117676D01*
X151583332Y-106117676D02*
X151678570Y-106022438D01*
X151678570Y-106022438D02*
X151821427Y-105974819D01*
X151821427Y-105974819D02*
X151916665Y-105974819D01*
X151916665Y-105974819D02*
X152059522Y-106022438D01*
X152059522Y-106022438D02*
X152107141Y-106070057D01*
X152488094Y-106070057D02*
X152535713Y-106022438D01*
X152535713Y-106022438D02*
X152630951Y-105974819D01*
X152630951Y-105974819D02*
X152869046Y-105974819D01*
X152869046Y-105974819D02*
X152964284Y-106022438D01*
X152964284Y-106022438D02*
X153011903Y-106070057D01*
X153011903Y-106070057D02*
X153059522Y-106165295D01*
X153059522Y-106165295D02*
X153059522Y-106260533D01*
X153059522Y-106260533D02*
X153011903Y-106403390D01*
X153011903Y-106403390D02*
X152440475Y-106974819D01*
X152440475Y-106974819D02*
X153059522Y-106974819D01*
X154011903Y-106974819D02*
X153440475Y-106974819D01*
X153726189Y-106974819D02*
X153726189Y-105974819D01*
X153726189Y-105974819D02*
X153630951Y-106117676D01*
X153630951Y-106117676D02*
X153535713Y-106212914D01*
X153535713Y-106212914D02*
X153440475Y-106260533D01*
X151057142Y-105739577D02*
X151009523Y-105787197D01*
X151009523Y-105787197D02*
X150866666Y-105834816D01*
X150866666Y-105834816D02*
X150771428Y-105834816D01*
X150771428Y-105834816D02*
X150628571Y-105787197D01*
X150628571Y-105787197D02*
X150533333Y-105691958D01*
X150533333Y-105691958D02*
X150485714Y-105596720D01*
X150485714Y-105596720D02*
X150438095Y-105406244D01*
X150438095Y-105406244D02*
X150438095Y-105263387D01*
X150438095Y-105263387D02*
X150485714Y-105072911D01*
X150485714Y-105072911D02*
X150533333Y-104977673D01*
X150533333Y-104977673D02*
X150628571Y-104882435D01*
X150628571Y-104882435D02*
X150771428Y-104834816D01*
X150771428Y-104834816D02*
X150866666Y-104834816D01*
X150866666Y-104834816D02*
X151009523Y-104882435D01*
X151009523Y-104882435D02*
X151057142Y-104930054D01*
X151438095Y-104930054D02*
X151485714Y-104882435D01*
X151485714Y-104882435D02*
X151580952Y-104834816D01*
X151580952Y-104834816D02*
X151819047Y-104834816D01*
X151819047Y-104834816D02*
X151914285Y-104882435D01*
X151914285Y-104882435D02*
X151961904Y-104930054D01*
X151961904Y-104930054D02*
X152009523Y-105025292D01*
X152009523Y-105025292D02*
X152009523Y-105120530D01*
X152009523Y-105120530D02*
X151961904Y-105263387D01*
X151961904Y-105263387D02*
X151390476Y-105834816D01*
X151390476Y-105834816D02*
X152009523Y-105834816D01*
X152390476Y-104930054D02*
X152438095Y-104882435D01*
X152438095Y-104882435D02*
X152533333Y-104834816D01*
X152533333Y-104834816D02*
X152771428Y-104834816D01*
X152771428Y-104834816D02*
X152866666Y-104882435D01*
X152866666Y-104882435D02*
X152914285Y-104930054D01*
X152914285Y-104930054D02*
X152961904Y-105025292D01*
X152961904Y-105025292D02*
X152961904Y-105120530D01*
X152961904Y-105120530D02*
X152914285Y-105263387D01*
X152914285Y-105263387D02*
X152342857Y-105834816D01*
X152342857Y-105834816D02*
X152961904Y-105834816D01*
X158283333Y-109637320D02*
X157950000Y-109161129D01*
X157711905Y-109637320D02*
X157711905Y-108637320D01*
X157711905Y-108637320D02*
X158092857Y-108637320D01*
X158092857Y-108637320D02*
X158188095Y-108684939D01*
X158188095Y-108684939D02*
X158235714Y-108732558D01*
X158235714Y-108732558D02*
X158283333Y-108827796D01*
X158283333Y-108827796D02*
X158283333Y-108970653D01*
X158283333Y-108970653D02*
X158235714Y-109065891D01*
X158235714Y-109065891D02*
X158188095Y-109113510D01*
X158188095Y-109113510D02*
X158092857Y-109161129D01*
X158092857Y-109161129D02*
X157711905Y-109161129D01*
X159188095Y-108637320D02*
X158711905Y-108637320D01*
X158711905Y-108637320D02*
X158664286Y-109113510D01*
X158664286Y-109113510D02*
X158711905Y-109065891D01*
X158711905Y-109065891D02*
X158807143Y-109018272D01*
X158807143Y-109018272D02*
X159045238Y-109018272D01*
X159045238Y-109018272D02*
X159140476Y-109065891D01*
X159140476Y-109065891D02*
X159188095Y-109113510D01*
X159188095Y-109113510D02*
X159235714Y-109208748D01*
X159235714Y-109208748D02*
X159235714Y-109446843D01*
X159235714Y-109446843D02*
X159188095Y-109542081D01*
X159188095Y-109542081D02*
X159140476Y-109589701D01*
X159140476Y-109589701D02*
X159045238Y-109637320D01*
X159045238Y-109637320D02*
X158807143Y-109637320D01*
X158807143Y-109637320D02*
X158711905Y-109589701D01*
X158711905Y-109589701D02*
X158664286Y-109542081D01*
X158733333Y-88259104D02*
X159209523Y-88259104D01*
X158638095Y-88544819D02*
X158971428Y-87544819D01*
X158971428Y-87544819D02*
X159304761Y-88544819D01*
X159638095Y-88021009D02*
X159971428Y-88021009D01*
X160114285Y-88544819D02*
X159638095Y-88544819D01*
X159638095Y-88544819D02*
X159638095Y-87544819D01*
X159638095Y-87544819D02*
X160114285Y-87544819D01*
X161066666Y-88544819D02*
X160495238Y-88544819D01*
X160780952Y-88544819D02*
X160780952Y-87544819D01*
X160780952Y-87544819D02*
X160685714Y-87687676D01*
X160685714Y-87687676D02*
X160590476Y-87782914D01*
X160590476Y-87782914D02*
X160495238Y-87830533D01*
X152055402Y-140108333D02*
X152055402Y-140417857D01*
X152055402Y-140417857D02*
X151405402Y-140417857D01*
X151405402Y-139953571D02*
X151405402Y-139551190D01*
X151405402Y-139551190D02*
X151653021Y-139767857D01*
X151653021Y-139767857D02*
X151653021Y-139675000D01*
X151653021Y-139675000D02*
X151683973Y-139613095D01*
X151683973Y-139613095D02*
X151714926Y-139582143D01*
X151714926Y-139582143D02*
X151776830Y-139551190D01*
X151776830Y-139551190D02*
X151931592Y-139551190D01*
X151931592Y-139551190D02*
X151993497Y-139582143D01*
X151993497Y-139582143D02*
X152024450Y-139613095D01*
X152024450Y-139613095D02*
X152055402Y-139675000D01*
X152055402Y-139675000D02*
X152055402Y-139860714D01*
X152055402Y-139860714D02*
X152024450Y-139922619D01*
X152024450Y-139922619D02*
X151993497Y-139953571D01*
X167750997Y-136757857D02*
X167781950Y-136788809D01*
X167781950Y-136788809D02*
X167812902Y-136881667D01*
X167812902Y-136881667D02*
X167812902Y-136943571D01*
X167812902Y-136943571D02*
X167781950Y-137036428D01*
X167781950Y-137036428D02*
X167720045Y-137098333D01*
X167720045Y-137098333D02*
X167658140Y-137129286D01*
X167658140Y-137129286D02*
X167534330Y-137160238D01*
X167534330Y-137160238D02*
X167441473Y-137160238D01*
X167441473Y-137160238D02*
X167317664Y-137129286D01*
X167317664Y-137129286D02*
X167255759Y-137098333D01*
X167255759Y-137098333D02*
X167193854Y-137036428D01*
X167193854Y-137036428D02*
X167162902Y-136943571D01*
X167162902Y-136943571D02*
X167162902Y-136881667D01*
X167162902Y-136881667D02*
X167193854Y-136788809D01*
X167193854Y-136788809D02*
X167224807Y-136757857D01*
X167812902Y-136138809D02*
X167812902Y-136510238D01*
X167812902Y-136324524D02*
X167162902Y-136324524D01*
X167162902Y-136324524D02*
X167255759Y-136386428D01*
X167255759Y-136386428D02*
X167317664Y-136448333D01*
X167317664Y-136448333D02*
X167348616Y-136510238D01*
X167162902Y-135550714D02*
X167162902Y-135860238D01*
X167162902Y-135860238D02*
X167472426Y-135891190D01*
X167472426Y-135891190D02*
X167441473Y-135860238D01*
X167441473Y-135860238D02*
X167410521Y-135798333D01*
X167410521Y-135798333D02*
X167410521Y-135643571D01*
X167410521Y-135643571D02*
X167441473Y-135581666D01*
X167441473Y-135581666D02*
X167472426Y-135550714D01*
X167472426Y-135550714D02*
X167534330Y-135519761D01*
X167534330Y-135519761D02*
X167689092Y-135519761D01*
X167689092Y-135519761D02*
X167750997Y-135550714D01*
X167750997Y-135550714D02*
X167781950Y-135581666D01*
X167781950Y-135581666D02*
X167812902Y-135643571D01*
X167812902Y-135643571D02*
X167812902Y-135798333D01*
X167812902Y-135798333D02*
X167781950Y-135860238D01*
X167781950Y-135860238D02*
X167750997Y-135891190D01*
X156089579Y-111816667D02*
X156137199Y-111864286D01*
X156137199Y-111864286D02*
X156184818Y-112007143D01*
X156184818Y-112007143D02*
X156184818Y-112102381D01*
X156184818Y-112102381D02*
X156137199Y-112245238D01*
X156137199Y-112245238D02*
X156041960Y-112340476D01*
X156041960Y-112340476D02*
X155946722Y-112388095D01*
X155946722Y-112388095D02*
X155756246Y-112435714D01*
X155756246Y-112435714D02*
X155613389Y-112435714D01*
X155613389Y-112435714D02*
X155422913Y-112388095D01*
X155422913Y-112388095D02*
X155327675Y-112340476D01*
X155327675Y-112340476D02*
X155232437Y-112245238D01*
X155232437Y-112245238D02*
X155184818Y-112102381D01*
X155184818Y-112102381D02*
X155184818Y-112007143D01*
X155184818Y-112007143D02*
X155232437Y-111864286D01*
X155232437Y-111864286D02*
X155280056Y-111816667D01*
X155184818Y-110911905D02*
X155184818Y-111388095D01*
X155184818Y-111388095D02*
X155661008Y-111435714D01*
X155661008Y-111435714D02*
X155613389Y-111388095D01*
X155613389Y-111388095D02*
X155565770Y-111292857D01*
X155565770Y-111292857D02*
X155565770Y-111054762D01*
X155565770Y-111054762D02*
X155613389Y-110959524D01*
X155613389Y-110959524D02*
X155661008Y-110911905D01*
X155661008Y-110911905D02*
X155756246Y-110864286D01*
X155756246Y-110864286D02*
X155994341Y-110864286D01*
X155994341Y-110864286D02*
X156089579Y-110911905D01*
X156089579Y-110911905D02*
X156137199Y-110959524D01*
X156137199Y-110959524D02*
X156184818Y-111054762D01*
X156184818Y-111054762D02*
X156184818Y-111292857D01*
X156184818Y-111292857D02*
X156137199Y-111388095D01*
X156137199Y-111388095D02*
X156089579Y-111435714D01*
X141707200Y-130983332D02*
X141754819Y-130840475D01*
X141754819Y-130840475D02*
X141754819Y-130602380D01*
X141754819Y-130602380D02*
X141707200Y-130507142D01*
X141707200Y-130507142D02*
X141659580Y-130459523D01*
X141659580Y-130459523D02*
X141564342Y-130411904D01*
X141564342Y-130411904D02*
X141469104Y-130411904D01*
X141469104Y-130411904D02*
X141373866Y-130459523D01*
X141373866Y-130459523D02*
X141326247Y-130507142D01*
X141326247Y-130507142D02*
X141278628Y-130602380D01*
X141278628Y-130602380D02*
X141231009Y-130792856D01*
X141231009Y-130792856D02*
X141183390Y-130888094D01*
X141183390Y-130888094D02*
X141135771Y-130935713D01*
X141135771Y-130935713D02*
X141040533Y-130983332D01*
X141040533Y-130983332D02*
X140945295Y-130983332D01*
X140945295Y-130983332D02*
X140850057Y-130935713D01*
X140850057Y-130935713D02*
X140802438Y-130888094D01*
X140802438Y-130888094D02*
X140754819Y-130792856D01*
X140754819Y-130792856D02*
X140754819Y-130554761D01*
X140754819Y-130554761D02*
X140802438Y-130411904D01*
X140754819Y-130078570D02*
X141754819Y-129840475D01*
X141754819Y-129840475D02*
X141040533Y-129649999D01*
X141040533Y-129649999D02*
X141754819Y-129459523D01*
X141754819Y-129459523D02*
X140754819Y-129221428D01*
X140850057Y-128888094D02*
X140802438Y-128840475D01*
X140802438Y-128840475D02*
X140754819Y-128745237D01*
X140754819Y-128745237D02*
X140754819Y-128507142D01*
X140754819Y-128507142D02*
X140802438Y-128411904D01*
X140802438Y-128411904D02*
X140850057Y-128364285D01*
X140850057Y-128364285D02*
X140945295Y-128316666D01*
X140945295Y-128316666D02*
X141040533Y-128316666D01*
X141040533Y-128316666D02*
X141183390Y-128364285D01*
X141183390Y-128364285D02*
X141754819Y-128935713D01*
X141754819Y-128935713D02*
X141754819Y-128316666D01*
X174604761Y-137142902D02*
X174604761Y-137669092D01*
X174604761Y-137669092D02*
X174635714Y-137730997D01*
X174635714Y-137730997D02*
X174666666Y-137761950D01*
X174666666Y-137761950D02*
X174728571Y-137792902D01*
X174728571Y-137792902D02*
X174852380Y-137792902D01*
X174852380Y-137792902D02*
X174914285Y-137761950D01*
X174914285Y-137761950D02*
X174945238Y-137730997D01*
X174945238Y-137730997D02*
X174976190Y-137669092D01*
X174976190Y-137669092D02*
X174976190Y-137142902D01*
X175223809Y-137142902D02*
X175657142Y-137142902D01*
X175657142Y-137142902D02*
X175378571Y-137792902D01*
X155992142Y-143980997D02*
X155961190Y-144011950D01*
X155961190Y-144011950D02*
X155868332Y-144042902D01*
X155868332Y-144042902D02*
X155806428Y-144042902D01*
X155806428Y-144042902D02*
X155713571Y-144011950D01*
X155713571Y-144011950D02*
X155651666Y-143950045D01*
X155651666Y-143950045D02*
X155620713Y-143888140D01*
X155620713Y-143888140D02*
X155589761Y-143764330D01*
X155589761Y-143764330D02*
X155589761Y-143671473D01*
X155589761Y-143671473D02*
X155620713Y-143547664D01*
X155620713Y-143547664D02*
X155651666Y-143485759D01*
X155651666Y-143485759D02*
X155713571Y-143423854D01*
X155713571Y-143423854D02*
X155806428Y-143392902D01*
X155806428Y-143392902D02*
X155868332Y-143392902D01*
X155868332Y-143392902D02*
X155961190Y-143423854D01*
X155961190Y-143423854D02*
X155992142Y-143454807D01*
X156611190Y-144042902D02*
X156239761Y-144042902D01*
X156425475Y-144042902D02*
X156425475Y-143392902D01*
X156425475Y-143392902D02*
X156363571Y-143485759D01*
X156363571Y-143485759D02*
X156301666Y-143547664D01*
X156301666Y-143547664D02*
X156239761Y-143578616D01*
X157168333Y-143609569D02*
X157168333Y-144042902D01*
X157013571Y-143361950D02*
X156858809Y-143826235D01*
X156858809Y-143826235D02*
X157261190Y-143826235D01*
X180958333Y-126574819D02*
X180625000Y-126098628D01*
X180386905Y-126574819D02*
X180386905Y-125574819D01*
X180386905Y-125574819D02*
X180767857Y-125574819D01*
X180767857Y-125574819D02*
X180863095Y-125622438D01*
X180863095Y-125622438D02*
X180910714Y-125670057D01*
X180910714Y-125670057D02*
X180958333Y-125765295D01*
X180958333Y-125765295D02*
X180958333Y-125908152D01*
X180958333Y-125908152D02*
X180910714Y-126003390D01*
X180910714Y-126003390D02*
X180863095Y-126051009D01*
X180863095Y-126051009D02*
X180767857Y-126098628D01*
X180767857Y-126098628D02*
X180386905Y-126098628D01*
X181815476Y-125908152D02*
X181815476Y-126574819D01*
X181577381Y-125527200D02*
X181339286Y-126241485D01*
X181339286Y-126241485D02*
X181958333Y-126241485D01*
D11*
%TO.C,D1*%
X160670000Y-111347500D02*
X162955002Y-111347500D01*
X162955001Y-109877500D02*
X160670002Y-109877502D01*
X162955002Y-111347500D02*
X162955001Y-109877500D01*
%TO.C,U2*%
X143389998Y-118609996D02*
X143865000Y-118609999D01*
X143389999Y-118135001D02*
X143389998Y-118609996D01*
X143390001Y-111865000D02*
X143390004Y-111389998D01*
X143390004Y-111389998D02*
X143864999Y-111389999D01*
X150135000Y-111390001D02*
X150369998Y-111390000D01*
X150609996Y-118610002D02*
X150135001Y-118610001D01*
X150609999Y-118135000D02*
X150609996Y-118610002D01*
X150610001Y-111864999D02*
X150610001Y-111690000D01*
X150940001Y-111630000D02*
X150610002Y-111390004D01*
X150939998Y-111150000D01*
X150940001Y-111630000D01*
G36*
X150940001Y-111630000D02*
G01*
X150610002Y-111390004D01*
X150939998Y-111150000D01*
X150940001Y-111630000D01*
G37*
%TO.C,C19*%
X148459420Y-103440001D02*
X148740582Y-103440000D01*
X148459420Y-104460000D02*
X148740582Y-104459999D01*
D12*
%TO.C,FL2*%
X177209184Y-134975502D02*
X177790812Y-134975499D01*
X177790816Y-133324498D02*
X177209188Y-133324501D01*
X179822000Y-134556398D02*
G75*
G02*
X179568000Y-134556398I-127000J0D01*
G01*
X179568000Y-134556398D02*
G75*
G02*
X179822000Y-134556398I127000J0D01*
G01*
D11*
%TO.C,C16*%
X158420581Y-135690000D02*
X158139419Y-135690001D01*
X158420581Y-136709999D02*
X158139419Y-136710000D01*
%TO.C,L1*%
X145389998Y-106050378D02*
X145389999Y-106849622D01*
X146509999Y-106050378D02*
X146510000Y-106849622D01*
%TO.C,C8*%
X171040001Y-120640581D02*
X171040001Y-120359419D01*
X172059999Y-120640581D02*
X172059999Y-120359419D01*
%TO.C,C11*%
X173540001Y-109359419D02*
X173540000Y-109640581D01*
X174560000Y-109359419D02*
X174559999Y-109640581D01*
%TO.C,D2*%
X160670000Y-109835001D02*
X162955002Y-109835000D01*
X162955001Y-108365000D02*
X160670002Y-108365002D01*
X162955002Y-109835000D02*
X162955001Y-108365000D01*
%TO.C,J4*%
X138129998Y-96670006D02*
X138130000Y-106949999D01*
X138129998Y-96670006D02*
X140730002Y-96670001D01*
X138130000Y-106949999D02*
X143330001Y-106950000D01*
X140730001Y-99270000D02*
X143330001Y-99270000D01*
X140730002Y-96670001D02*
X140730001Y-99270000D01*
X141999999Y-96669998D02*
X143330000Y-96670000D01*
X143330000Y-96670000D02*
X143330002Y-97999999D01*
X143330001Y-99270000D02*
X143330001Y-106950000D01*
%TO.C,SW3*%
X137174997Y-121675001D02*
X137175002Y-126075000D01*
X137175002Y-126075000D02*
X137294999Y-126075001D01*
X137295000Y-121675000D02*
X137174997Y-121675001D01*
X138305000Y-126075000D02*
X139445000Y-126075000D01*
X139445000Y-121675000D02*
X138305000Y-121675000D01*
X140455000Y-126075000D02*
X140575003Y-126074999D01*
X140574998Y-121675000D02*
X140455001Y-121674999D01*
X140575003Y-126074999D02*
X140574998Y-121675000D01*
%TO.C,U1*%
X170889998Y-112890000D02*
X171240001Y-112890000D01*
X170889999Y-113240002D02*
X170889998Y-112890000D01*
X171240002Y-117110001D02*
X171130001Y-117110000D01*
X175110000Y-112889998D02*
X174759998Y-112889999D01*
X175110000Y-113240001D02*
X175110000Y-112889998D01*
X175110001Y-116759998D02*
X175110002Y-117110000D01*
X175110002Y-117110000D02*
X174759999Y-117110000D01*
X170890000Y-117110002D02*
X170560001Y-117349999D01*
X170560000Y-116870002D01*
X170890000Y-117110002D01*
G36*
X170890000Y-117110002D02*
G01*
X170560001Y-117349999D01*
X170560000Y-116870002D01*
X170890000Y-117110002D01*
G37*
%TO.C,Y3*%
X151000000Y-104850000D02*
X146999996Y-104850000D01*
X151000002Y-108150000D02*
X151000000Y-104850000D01*
%TO.C,C6*%
X146409418Y-108540000D02*
X146690580Y-108540001D01*
X146409418Y-109559999D02*
X146690580Y-109560000D01*
%TO.C,R1*%
X166477500Y-101437742D02*
X166477500Y-101912258D01*
X167522500Y-101437742D02*
X167522500Y-101912258D01*
%TO.C,R7*%
X158212742Y-107077501D02*
X158687258Y-107077501D01*
X158212742Y-108122501D02*
X158687258Y-108122501D01*
%TO.C,C4*%
X152240000Y-111509419D02*
X152240001Y-111790581D01*
X153259999Y-111509419D02*
X153260000Y-111790581D01*
%TO.C,R10*%
X138637742Y-132852500D02*
X139112258Y-132852500D01*
X138637742Y-133897500D02*
X139112258Y-133897500D01*
%TO.C,J6*%
X137800000Y-143220000D02*
X137800000Y-145000000D01*
X139700000Y-140300000D02*
X138900000Y-140300000D01*
X147200000Y-143220000D02*
X147200000Y-145000000D01*
%TO.C,C20*%
X149740580Y-108540001D02*
X149459418Y-108540000D01*
X149740580Y-109560000D02*
X149459418Y-109559999D01*
%TO.C,R12*%
X139377500Y-138287258D02*
X139377500Y-137812742D01*
X140422500Y-138287258D02*
X140422500Y-137812742D01*
%TO.C,U5*%
X170752500Y-126102500D02*
X170752503Y-126384996D01*
X170752500Y-131597500D02*
X170752498Y-131314997D01*
X173500000Y-126102500D02*
X170752500Y-126102500D01*
X173500000Y-126102500D02*
X176247500Y-126102500D01*
X173500000Y-131597500D02*
X170752500Y-131597500D01*
X173500000Y-131597500D02*
X176247500Y-131597500D01*
X176247500Y-126102500D02*
X176247502Y-126385003D01*
X176247500Y-131597500D02*
X176247497Y-131315004D01*
X177258750Y-131645000D02*
X176778750Y-131645000D01*
X177018750Y-131314997D01*
X177258750Y-131645000D01*
G36*
X177258750Y-131645000D02*
G01*
X176778750Y-131645000D01*
X177018750Y-131314997D01*
X177258750Y-131645000D01*
G37*
%TO.C,C9*%
X167509419Y-112740001D02*
X167790581Y-112740000D01*
X167509419Y-113760000D02*
X167790581Y-113759999D01*
%TO.C,C17*%
X161159420Y-135690000D02*
X161440580Y-135690000D01*
X161159420Y-136710000D02*
X161440580Y-136710000D01*
%TO.C,R8*%
X141027500Y-121212258D02*
X141027500Y-120737742D01*
X142072500Y-121212258D02*
X142072500Y-120737742D01*
%TO.C,C18*%
X139109419Y-119690000D02*
X139390581Y-119690000D01*
X139109419Y-120710000D02*
X139390581Y-120710000D01*
%TO.C,C10*%
X167509420Y-111190000D02*
X167790580Y-111190000D01*
X167509420Y-112210000D02*
X167790580Y-112210000D01*
%TO.C,R3*%
X165937742Y-101977500D02*
X166412258Y-101977500D01*
X165937742Y-103022500D02*
X166412258Y-103022500D01*
%TO.C,U6*%
X140940000Y-137500000D02*
X140940000Y-136700000D01*
X140940000Y-137500000D02*
X140940000Y-138300000D01*
X144060000Y-137500000D02*
X144060000Y-136700000D01*
X144060000Y-137500000D02*
X144060000Y-138300000D01*
X140990001Y-138800000D02*
X140660000Y-139040000D01*
X140660000Y-138559998D01*
X140990001Y-138800000D01*
G36*
X140990001Y-138800000D02*
G01*
X140660000Y-139040000D01*
X140660000Y-138559998D01*
X140990001Y-138800000D01*
G37*
%TO.C,J2*%
X157379999Y-112420002D02*
X157380000Y-122700000D01*
X157379999Y-112420002D02*
X159980002Y-112420001D01*
X157380000Y-122700000D02*
X162580002Y-122700000D01*
X159980001Y-115020000D02*
X162580002Y-115020000D01*
X159980002Y-112420001D02*
X159980001Y-115020000D01*
X161249999Y-112419998D02*
X162580000Y-112420000D01*
X162580000Y-112420000D02*
X162580002Y-113749999D01*
X162580002Y-115020000D02*
X162580002Y-122700000D01*
%TO.C,D3*%
X160670000Y-108335001D02*
X162955002Y-108335000D01*
X162955001Y-106865000D02*
X160670001Y-106865002D01*
X162955002Y-108335000D02*
X162955001Y-106865000D01*
%TO.C,J5*%
X154295000Y-128770000D02*
X154295000Y-128135000D01*
X154930000Y-128770000D02*
X154295000Y-128770000D01*
%TO.C,J7*%
X172800000Y-143220000D02*
X172800000Y-145000000D01*
X174700000Y-140300000D02*
X173900000Y-140300000D01*
X182200000Y-143220000D02*
X182200000Y-145000000D01*
%TO.C,J1*%
X158500001Y-101200000D02*
X158700001Y-101000000D01*
X158500001Y-101800000D02*
X158000000Y-101800000D01*
X158500001Y-101800000D02*
X158500001Y-101200000D01*
X158500001Y-103200000D02*
X158000000Y-103200001D01*
X158500001Y-104000000D02*
X158500001Y-103200000D01*
X158700001Y-104000000D02*
X158500001Y-104000000D01*
X161300001Y-101000000D02*
X161500001Y-101000000D01*
X161500001Y-101000000D02*
X161500001Y-101800000D01*
X161500001Y-103200000D02*
X161500001Y-104000000D01*
X161500001Y-104000000D02*
X161300001Y-104000000D01*
%TO.C,U3*%
X157890000Y-138615000D02*
X157890000Y-138130000D01*
X157890000Y-142110000D02*
X157890000Y-141385000D01*
X158615000Y-137890000D02*
X158190000Y-137890000D01*
X158615000Y-142110000D02*
X157890000Y-142110000D01*
X161385000Y-137890000D02*
X162110000Y-137890000D01*
X161385000Y-142110000D02*
X162110000Y-142110000D01*
X162110000Y-137890000D02*
X162110000Y-138615000D01*
X162110000Y-142110000D02*
X162110000Y-141385000D01*
X157890000Y-137890000D02*
X157650000Y-137560000D01*
X158130000Y-137560000D01*
X157890000Y-137890000D01*
G36*
X157890000Y-137890000D02*
G01*
X157650000Y-137560000D01*
X158130000Y-137560000D01*
X157890000Y-137890000D01*
G37*
%TO.C,C2*%
X152140581Y-120240000D02*
X151859419Y-120240001D01*
X152140581Y-121259999D02*
X151859419Y-121260000D01*
%TO.C,L2*%
X172639999Y-120350378D02*
X172640000Y-121149622D01*
X173760000Y-120350378D02*
X173760001Y-121149622D01*
%TO.C,Y4*%
X152575000Y-105075000D02*
X153925000Y-105075000D01*
X152575000Y-106825000D02*
X153925000Y-106825000D01*
%TO.C,R13*%
X179577500Y-138287258D02*
X179577500Y-137812742D01*
X180622500Y-138287258D02*
X180622500Y-137812742D01*
%TO.C,C12*%
X171990001Y-109359419D02*
X171990000Y-109640581D01*
X173010000Y-109359419D02*
X173009999Y-109640581D01*
%TO.C,R11*%
X163277500Y-139637258D02*
X163277500Y-139162742D01*
X164322500Y-139637258D02*
X164322500Y-139162742D01*
%TO.C,Y1*%
X167125000Y-117325000D02*
X167125000Y-118675000D01*
X168875000Y-117325000D02*
X168875000Y-118675000D01*
%TO.C,C7*%
X174340001Y-120640581D02*
X174340000Y-120359419D01*
X175360000Y-120640581D02*
X175359999Y-120359419D01*
%TO.C,R6*%
X158212742Y-108577501D02*
X158687258Y-108577501D01*
X158212742Y-109622501D02*
X158687258Y-109622501D01*
D12*
%TO.C,FL1*%
X142509186Y-134975498D02*
X143090816Y-134975502D01*
X143090814Y-133324502D02*
X142509184Y-133324498D01*
X145122000Y-134556398D02*
G75*
G02*
X144868000Y-134556398I-127000J0D01*
G01*
X144868000Y-134556398D02*
G75*
G02*
X145122000Y-134556398I127000J0D01*
G01*
D11*
%TO.C,R2*%
X167587742Y-101977500D02*
X168062258Y-101977500D01*
X167587742Y-103022500D02*
X168062258Y-103022500D01*
%TO.C,C1*%
X140640581Y-116390001D02*
X140359419Y-116390000D01*
X140640581Y-117410000D02*
X140359419Y-117409999D01*
%TO.C,Y2*%
X175000000Y-107600000D02*
X175000000Y-110900000D01*
X175000000Y-110900000D02*
X179000000Y-110900000D01*
%TO.C,TP1*%
X155325000Y-136250000D02*
G75*
G02*
X153425000Y-136250000I-950000J0D01*
G01*
X153425000Y-136250000D02*
G75*
G02*
X155325000Y-136250000I950000J0D01*
G01*
%TO.C,SW1*%
X179425000Y-121675001D02*
X179425000Y-126075002D01*
X179425000Y-126075002D02*
X179544999Y-126075001D01*
X179545000Y-121675000D02*
X179425000Y-121675001D01*
X180555000Y-126075000D02*
X181695000Y-126075000D01*
X181695000Y-121675000D02*
X180555000Y-121675000D01*
X182705000Y-126075000D02*
X182825000Y-126074999D01*
X182825000Y-121674998D02*
X182705001Y-121674999D01*
X182825000Y-126074999D02*
X182825000Y-121674998D01*
%TO.C,R9*%
X163267500Y-136112742D02*
X163267500Y-136587258D01*
X164312500Y-136112742D02*
X164312500Y-136587258D01*
%TO.C,C13*%
X181265581Y-119690000D02*
X180984419Y-119690001D01*
X181265581Y-120709999D02*
X180984419Y-120710000D01*
%TO.C,U4*%
X143752500Y-126102500D02*
X143752503Y-126384997D01*
X143752500Y-131597500D02*
X143752498Y-131314997D01*
X146500000Y-126102500D02*
X143752500Y-126102500D01*
X146500000Y-126102500D02*
X149247500Y-126102500D01*
X146500000Y-131597500D02*
X143752500Y-131597500D01*
X146500000Y-131597500D02*
X149247500Y-131597500D01*
X149247500Y-126102500D02*
X149247502Y-126385003D01*
X149247500Y-131597500D02*
X149247497Y-131315003D01*
X150258750Y-131645000D02*
X149778750Y-131645000D01*
X150018749Y-131315000D01*
X150258750Y-131645000D01*
G36*
X150258750Y-131645000D02*
G01*
X149778750Y-131645000D01*
X150018749Y-131315000D01*
X150258750Y-131645000D01*
G37*
%TO.C,J3*%
X165069998Y-126230002D02*
X165705000Y-126230000D01*
X165705000Y-126230000D02*
X165705000Y-126865002D01*
%TO.C,C3*%
X140640581Y-117940000D02*
X140359419Y-117940000D01*
X140640581Y-118960000D02*
X140359419Y-118960000D01*
%TO.C,C21*%
X152609418Y-107440001D02*
X152890580Y-107440000D01*
X152609418Y-108460000D02*
X152890580Y-108459999D01*
%TO.C,C22*%
X151840581Y-103439999D02*
X151559419Y-103440000D01*
X151840581Y-104459998D02*
X151559419Y-104459999D01*
%TO.C,R5*%
X158212742Y-110090001D02*
X158687258Y-110090001D01*
X158212742Y-111135001D02*
X158687258Y-111135001D01*
%TO.C,L3*%
X152280000Y-137740000D02*
X152429999Y-137740000D01*
X152280000Y-142260000D02*
X152280000Y-137740000D01*
X152280000Y-142260000D02*
X152430000Y-142260001D01*
X156800000Y-137740000D02*
X156650000Y-137739999D01*
X156800000Y-142260000D02*
X156650001Y-142260000D01*
X156800000Y-142260000D02*
X156800000Y-137740000D01*
%TO.C,C15*%
X164830001Y-136209419D02*
X164830000Y-136490581D01*
X165850000Y-136209419D02*
X165849999Y-136490581D01*
%TO.C,C5*%
X153790001Y-111509419D02*
X153790000Y-111790581D01*
X154810000Y-111509419D02*
X154809999Y-111790581D01*
%TO.C,SW2*%
X137175000Y-127450001D02*
X137175000Y-131850002D01*
X137175000Y-131850002D02*
X137294999Y-131850001D01*
X137295000Y-127450000D02*
X137175000Y-127450001D01*
X138305000Y-131850000D02*
X139445000Y-131850000D01*
X139445000Y-127450000D02*
X138305000Y-127450000D01*
X140455000Y-131850000D02*
X140575000Y-131849999D01*
X140575000Y-127449998D02*
X140455001Y-127449999D01*
X140575000Y-131849999D02*
X140575000Y-127449998D01*
%TO.C,U7*%
X175940000Y-137500000D02*
X175940000Y-136700000D01*
X175940000Y-137500000D02*
X175940000Y-138300000D01*
X179060000Y-137500000D02*
X179060000Y-136700000D01*
X179060000Y-137500000D02*
X179060000Y-138300000D01*
X175990001Y-138800000D02*
X175660000Y-139040000D01*
X175659998Y-138559999D01*
X175990001Y-138800000D01*
G36*
X175990001Y-138800000D02*
G01*
X175660000Y-139040000D01*
X175659998Y-138559999D01*
X175990001Y-138800000D01*
G37*
%TO.C,C14*%
X159010581Y-143240000D02*
X158729419Y-143240001D01*
X159010581Y-144259999D02*
X158729419Y-144260000D01*
%TO.C,R4*%
X180887742Y-127027500D02*
X181362258Y-127027500D01*
X180887742Y-128072500D02*
X181362258Y-128072500D01*
%TD*%
D13*
X142000000Y-98000000D03*
X139459994Y-97999999D03*
X141999999Y-100540006D03*
X139460000Y-100540000D03*
X142000000Y-103080000D03*
X139459998Y-103080000D03*
X142000000Y-105620000D03*
X139460001Y-105620000D03*
X139610000Y-142395000D03*
X145390000Y-142395000D03*
D14*
X138180000Y-141895000D03*
D15*
X138180000Y-146075000D03*
D14*
X146820000Y-141895000D03*
D15*
X146820000Y-146075000D03*
D13*
X161250000Y-113750000D03*
X158709996Y-113749998D03*
X161249998Y-116290004D03*
X158710000Y-116290000D03*
X161250000Y-118830000D03*
X158709999Y-118829998D03*
X161250000Y-121370000D03*
X158710001Y-121370000D03*
X153660000Y-124960000D03*
X153660000Y-127500000D03*
X153660000Y-130040000D03*
X156835000Y-124960000D03*
X156835000Y-130040000D03*
X158740000Y-126484000D03*
X158740000Y-128516000D03*
X174610000Y-142395000D03*
X180390000Y-142395000D03*
D14*
X173180000Y-141895000D03*
D15*
X173180000Y-146075000D03*
D14*
X181820000Y-141895000D03*
D15*
X181820000Y-146075000D03*
D16*
X158900000Y-138900000D03*
X158900000Y-141100000D03*
X161100000Y-138900000D03*
X161100000Y-141100000D03*
D13*
X166340003Y-127500001D03*
X166340000Y-130040000D03*
X166340000Y-124960000D03*
X163164999Y-130040000D03*
X163164999Y-124960000D03*
X161259998Y-128516002D03*
X161259998Y-126483999D03*
D17*
X166550000Y-94500000D03*
M02*
