M48
METRIC,TZ
T1C0.200
T2C0.300
T3C0.300
T4C0.600
T5C1.000
%
G90
G05
T1
X158900Y-138900
X158900Y-141100
X161100Y-138900
X161100Y-141100
T2
X136750Y-110744
X136750Y-94750
X136750Y-95750
X136750Y-96750
X136750Y-97750
X136750Y-98750
X136750Y-99750
X136750Y-100750
X136750Y-101750
X136750Y-102750
X136750Y-103750
X136750Y-104750
X136750Y-105750
X136750Y-106750
X136750Y-107750
X136750Y-108750
X136750Y-109750
X136750Y-111750
X136750Y-112750
X136750Y-113750
X136750Y-114750
X136750Y-115750
X136750Y-116750
X136750Y-117750
X136750Y-118750
X136750Y-119750
X136750Y-120750
X136750Y-121750
X136750Y-122750
X136750Y-123750
X136750Y-124750
X136750Y-125750
X136750Y-126750
X136750Y-127750
X136750Y-128750
X136750Y-129750
X136750Y-130750
X136750Y-131750
X136750Y-132750
X136750Y-133750
X136750Y-134750
X136750Y-135750
X136750Y-136750
X136750Y-137750
X136750Y-138750
X136750Y-139750
X136750Y-140750
X136750Y-141750
X136750Y-142750
X136750Y-143750
X136750Y-144750
X136750Y-145750
X137000Y-146500
X137750Y-94750
X137800Y-122550
X137800Y-123900
X137800Y-125200
X137800Y-128300
X137800Y-129650
X137800Y-131000
X138750Y-94750
X138775Y-133374
X139300Y-141255
X139500Y-146750
X139725Y-117650
X139750Y-94750
X139950Y-127000
X140425Y-119452
X140500Y-146750
X140750Y-94750
X140750Y-102290
X140750Y-144250
X140775Y-118450
X141088Y-140063
X141500Y-146750
X141550Y-120875
X141700Y-112200
X141700Y-113200
X141700Y-114250
X141750Y-94750
X141900Y-130750
X142500Y-112200
X142500Y-117375
X142500Y-139350
X142500Y-146750
X142750Y-94750
X143500Y-146750
X143750Y-94750
X143900Y-140105
X144000Y-126950
X144000Y-128200
X144000Y-130750
X144250Y-144250
X144350Y-130000
X144500Y-146750
X144550Y-112550
X144750Y-94750
X145000Y-129485
X145000Y-130755
X145485Y-134035
X145500Y-146750
X145700Y-141255
X145750Y-94750
X145950Y-106150
X146015Y-134565
X146750Y-94750
X146775Y-108967
X146875Y-110117
X147000Y-115000
X147600Y-119950
X147750Y-94750
X148000Y-146750
X148325Y-103950
X148400Y-119950
X148750Y-94750
X148850Y-105675
X149000Y-126950
X149000Y-146750
X149310Y-112690
X149425Y-120623
X149450Y-117450
X149750Y-94750
X149875Y-109050
X150000Y-146750
X150250Y-106800
X150750Y-94750
X151000Y-146750
X151073Y-126950
X151374Y-113375
X151750Y-94750
X151875Y-108400
X151975Y-103950
X152000Y-146750
X152174Y-113375
X152275Y-120750
X152750Y-94750
X152974Y-113375
X152994Y-117606
X153000Y-146750
X153500Y-112425
X153750Y-94750
X153774Y-113410
X153991Y-146751
X154300Y-111375
X154524Y-128376
X154573Y-113397
X154750Y-94750
X155000Y-146750
X155650Y-128752
X155750Y-94750
X156000Y-122000
X156000Y-123000
X156000Y-146750
X156750Y-94750
X157000Y-123000
X157000Y-146750
X157750Y-94750
X158000Y-146750
X158200Y-127500
X158320Y-109100
X158325Y-107600
X158325Y-110600
X158675Y-134225
X158675Y-135125
X158750Y-94750
X159000Y-146750
X159625Y-134225
X159625Y-135125
X159750Y-94750
X160000Y-146750
X160354Y-103004
X160356Y-101985
X160563Y-134225
X160563Y-135125
X160750Y-94750
X161000Y-101350
X161000Y-103650
X161000Y-142875
X161000Y-143750
X161000Y-146750
X161670Y-107600
X161670Y-109100
X161670Y-110600
X161750Y-94750
X161800Y-103653
X161813Y-101347
X161830Y-127500
X161875Y-142875
X161875Y-143750
X162000Y-146750
X162700Y-101747
X162700Y-103253
X162750Y-94750
X163000Y-146750
X163600Y-101747
X163600Y-103253
X163650Y-95150
X163723Y-96058
X163947Y-96958
X164000Y-146750
X164050Y-114550
X164050Y-115300
X164398Y-97760
X164502Y-103335
X164511Y-101655
X165000Y-146750
X165043Y-98457
X165222Y-95150
X165243Y-96046
X165361Y-103628
X165413Y-101372
X165476Y-126624
X165602Y-96855
X165730Y-99144
X165872Y-100787
X166000Y-146750
X166175Y-103361
X166230Y-99923
X166247Y-104267
X166248Y-97534
X166273Y-105151
X166424Y-106050
X166707Y-106910
X166928Y-98214
X167000Y-146750
X167138Y-107739
X167250Y-126750
X167250Y-94750
X167425Y-111400
X167425Y-113250
X167495Y-98984
X167690Y-108482
X167744Y-99866
X167750Y-126000
X167753Y-104267
X167784Y-105143
X167825Y-103361
X167993Y-106051
X168000Y-146750
X168128Y-100777
X168165Y-124728
X168250Y-94750
X168318Y-109132
X168373Y-106868
X168570Y-103628
X168586Y-101372
X168937Y-107620
X168950Y-130750
X168968Y-109782
X169000Y-146750
X169250Y-94750
X169275Y-100775
X169411Y-103421
X169582Y-108268
X169618Y-110432
X169720Y-102530
X169950Y-100100
X170000Y-146750
X170135Y-117893
X170232Y-108918
X170250Y-94750
X170250Y-123750
X170268Y-111082
X170375Y-101875
X170625Y-99425
X170769Y-124291
X170847Y-113000
X170882Y-109568
X170920Y-117900
X171000Y-130750
X171000Y-146750
X171050Y-101200
X171250Y-94750
X171250Y-129500
X171300Y-98750
X171534Y-110220
X171550Y-120800
X171725Y-100525
X171975Y-98075
X172000Y-114000
X172000Y-116000
X172000Y-146750
X172250Y-94750
X172400Y-99850
X172650Y-118200
X172650Y-97400
X173000Y-115000
X173000Y-130050
X173075Y-99175
X173250Y-94750
X173250Y-108725
X173337Y-96763
X173750Y-98500
X174000Y-114000
X174000Y-116000
X174107Y-96230
X174249Y-120701
X174250Y-94750
X174250Y-129500
X174300Y-141255
X174424Y-97882
X174500Y-146750
X174501Y-118599
X174850Y-108725
X174951Y-95814
X175000Y-113000
X175000Y-117000
X175000Y-118000
X175000Y-130050
X175227Y-97393
X175250Y-94750
X175333Y-120283
X175500Y-146750
X175618Y-112575
X175750Y-144250
X175807Y-116993
X175829Y-95537
X176100Y-140174
X176107Y-97073
X176250Y-94750
X176500Y-146750
X176719Y-95398
X176850Y-108400
X176997Y-96935
X177000Y-97850
X177000Y-98750
X177000Y-99650
X177000Y-100550
X177000Y-101450
X177100Y-126350
X177100Y-127465
X177103Y-111475
X177250Y-94750
X177500Y-139605
X177500Y-146750
X177623Y-95372
X177700Y-101950
X177900Y-96928
X178100Y-109550
X178250Y-94750
X178500Y-146750
X178550Y-95372
X178600Y-101950
X178800Y-96928
X179250Y-94750
X179250Y-140200
X179250Y-144250
X179450Y-95372
X179500Y-101950
X179500Y-146750
X179700Y-96928
X180050Y-123150
X180250Y-94750
X180352Y-95405
X180400Y-101950
X180500Y-146750
X180593Y-97125
X180700Y-141255
X181175Y-127550
X181244Y-95705
X181250Y-94750
X181275Y-120200
X181300Y-101950
X181965Y-96265
X182200Y-101950
X182200Y-120950
X182200Y-122500
X182200Y-123900
X182200Y-125250
X182250Y-94750
X182502Y-96911
X183000Y-146500
X183100Y-101950
X183250Y-94750
X183250Y-95750
X183250Y-96750
X183250Y-102750
X183250Y-103750
X183250Y-104750
X183250Y-105750
X183250Y-106750
X183250Y-107750
X183250Y-108750
X183250Y-109750
X183250Y-110750
X183250Y-111750
X183250Y-112750
X183250Y-113750
X183250Y-114750
X183250Y-115750
X183250Y-116750
X183250Y-117750
X183250Y-118750
X183250Y-119750
X183250Y-120750
X183250Y-121750
X183250Y-122750
X183250Y-123750
X183250Y-124750
X183250Y-125750
X183250Y-126750
X183250Y-127750
X183250Y-128750
X183250Y-129750
X183250Y-130750
X183250Y-131750
X183250Y-132750
X183250Y-133750
X183250Y-134750
X183250Y-135750
X183250Y-136750
X183250Y-137750
X183250Y-138750
X183250Y-139750
X183250Y-140750
X183250Y-141750
X183250Y-142750
X183250Y-143750
X183250Y-144750
X183250Y-145750
T3
X166550Y-94500
T5
X139460Y-98000
X139460Y-103080
X139460Y-100540
X139460Y-105620
X142000Y-100540
X142000Y-98000
X142000Y-103080
X142000Y-105620
X158710Y-113750
X158710Y-118830
X158710Y-116290
X158710Y-121370
X161250Y-116290
X161250Y-113750
X161250Y-118830
X161250Y-121370
T4
G00X138180Y-141345
M15
G01X138180Y-142445
M16
G05
G00X138180Y-145775
M15
G01X138180Y-146375
M16
G05
G00X146820Y-141345
M15
G01X146820Y-142445
M16
G05
G00X146820Y-145775
M15
G01X146820Y-146375
M16
G05
G00X173180Y-141345
M15
G01X173180Y-142445
M16
G05
G00X173180Y-145775
M15
G01X173180Y-146375
M16
G05
G00X181820Y-141345
M15
G01X181820Y-142445
M16
G05
G00X181820Y-145775
M15
G01X181820Y-146375
M16
G05
M30
